<?xml version="1.0" encoding="UTF-8"?>
<!DOCTYPE svg PUBLIC "-//W3C//DTD SVG 1.1//EN" "http://www.w3.org/Graphics/SVG/1.1/DTD/svg11.dtd">
<!-- Creator: CorelDRAW X8 -->
<svg xmlns="http://www.w3.org/2000/svg" xml:space="preserve" width="51px" height="51px" version="1.1" style="shape-rendering:geometricPrecision; text-rendering:geometricPrecision; image-rendering:optimizeQuality; fill-rule:evenodd; clip-rule:evenodd"
viewBox="0 0 51 51"
 xmlns:xlink="http://www.w3.org/1999/xlink">
 <defs>
  <style type="text/css">
   <![CDATA[
    .fil0 {fill:#21A462}
    .fil2 {fill:#5184C5}
    .fil6 {fill:#812C27}
    .fil4 {fill:#C2C2C2}
    .fil1 {fill:#DD4B3E}
    .fil5 {fill:#EEEEEE}
    .fil3 {fill:#FDDC43}
   ]]>
  </style>
 </defs>
 <g id="Layer_x0020_1">
  <metadata id="CorelCorpID_0Corel-Layer"/>
  <g id="_1007507248">
   <path class="fil0" d="M14 14c-1,0 -2,-1 -3,0 -5,1 -4,7 1,7 1,0 3,-1 3,-2 -4,-1 -4,0 -4,-2 0,-1 1,-1 2,-1l4 0 0 2c0,3 -2,6 -6,6 -3,-1 -6,-3 -6,-7l0 0c0,-6 7,-8 11,-4 0,0 -1,0 -1,1 0,0 -1,0 -1,0zm-13 32c1,-1 1,-1 2,-2 3,-3 24,-24 25,-25 -1,-1 -2,-2 -2,-6 0,-2 0,-5 1,-6 -5,0 -11,0 -16,0 -4,0 -8,-1 -10,2 0,1 0,3 0,4 0,11 0,22 0,33z"/>
   <path class="fil1" d="M37 8c2,0 4,1 5,3 1,3 -1,5 -3,5 -6,2 -8,-6 -2,-8zm-10 -1c-1,1 -1,4 -1,6 0,4 1,5 2,6l3 6c1,0 1,1 1,1 3,4 5,7 5,12 0,1 0,1 1,1 1,-1 0,-1 1,-2 0,-1 0,-2 0,-2 1,-3 2,-5 3,-8 1,0 2,-3 3,-3 0,-1 1,-2 1,-2 13,-18 -11,-29 -19,-15z"/>
   <polygon class="fil2" points="6,50 40,50 23,33 "/>
   <path class="fil3" d="M1 46c0,1 0,2 1,3 1,1 2,1 4,1l17 -17 0 0 4 -5c0,0 0,0 0,0 1,0 4,-3 4,-3l-3 -6c-1,1 -22,22 -25,25 -1,1 -1,1 -2,2z"/>
   <path class="fil4" d="M38 39c0,0 0,1 1,1 1,1 5,5 6,6 0,-2 -1,-21 0,-22 -1,0 -2,3 -3,3 -1,3 -2,5 -3,8 0,0 0,1 0,2 -1,1 0,1 -1,2z"/>
   <path class="fil5" d="M14 14c0,0 1,0 1,0 0,-1 1,-1 1,-1 -4,-4 -11,-2 -11,4l0 0c0,4 3,6 6,7 4,0 6,-3 6,-6l0 -2 -4 0c-1,0 -2,0 -2,1 0,2 0,1 4,2 0,1 -2,2 -3,2 -5,0 -6,-6 -1,-7 1,-1 2,0 3,0z"/>
   <path class="fil6" d="M37 8c-6,2 -4,10 2,8 2,0 4,-2 3,-5 -1,-2 -3,-3 -5,-3z"/>
   <path class="fil4" d="M27 28c1,1 4,5 5,5 1,1 2,2 3,3 0,0 2,2 2,2 0,-5 -2,-8 -5,-12 0,0 0,-1 -1,-1 0,0 -3,3 -4,3z"/>
  </g>
 </g>
</svg>
