<?xml version="1.0" encoding="UTF-8"?>
<!DOCTYPE svg PUBLIC "-//W3C//DTD SVG 1.1//EN" "http://www.w3.org/Graphics/SVG/1.1/DTD/svg11.dtd">
<!-- Creator: CorelDRAW X8 -->
<svg xmlns="http://www.w3.org/2000/svg" xml:space="preserve" width="0.833331in" height="0.26in" version="1.1" style="shape-rendering:geometricPrecision; text-rendering:geometricPrecision; image-rendering:optimizeQuality; fill-rule:evenodd; clip-rule:evenodd"
viewBox="0 0 833 260"
 xmlns:xlink="http://www.w3.org/1999/xlink">
 <defs>
  <style type="text/css">
   <![CDATA[
    .fil7 {fill:#141414}
    .fil20 {fill:#172514}
    .fil4 {fill:#182714}
    .fil18 {fill:#192815}
    .fil21 {fill:#1B2313}
    .fil9 {fill:#1D1D11}
    .fil27 {fill:#231A11}
    .fil1 {fill:#2B5726}
    .fil29 {fill:#2C5827}
    .fil35 {fill:#2C5A29}
    .fil0 {fill:#2D5926}
    .fil17 {fill:#325D26}
    .fil16 {fill:#325D29}
    .fil13 {fill:#346329}
    .fil25 {fill:#3A6529}
    .fil6 {fill:#3F8431}
    .fil5 {fill:#408531}
    .fil30 {fill:#436C2A}
    .fil15 {fill:#45371D}
    .fil32 {fill:#5A8832}
    .fil36 {fill:#62942C}
    .fil23 {fill:#649531}
    .fil12 {fill:#65972E}
    .fil14 {fill:#669931}
    .fil26 {fill:#679436}
    .fil2 {fill:#67982F}
    .fil22 {fill:#699930}
    .fil19 {fill:#6A9B35}
    .fil31 {fill:#6C9B3A}
    .fil24 {fill:#78A448}
    .fil11 {fill:#7E754A}
    .fil28 {fill:#85AB58}
    .fil33 {fill:#9BB976}
    .fil34 {fill:#B6CB97}
    .fil3 {fill:#C7C8C3}
    .fil8 {fill:#C9C9C5}
    .fil10 {fill:#CDCDCB}
    .fil37 {fill:#EBEBEA}
    .fil38 {fill:#EDEDED}
    .fil39 {fill:#F2F3F1}
    .fil40 {fill:#F6F6F6}
   ]]>
  </style>
 </defs>
 <g id="Layer_x0020_1">
  <metadata id="CorelCorpID_0Corel-Layer"/>
  <path class="fil0" d="M141 119c-1,-1 -1,0 -1,-1 1,-1 0,-1 2,0 0,2 0,0 -1,1zm-3 -21c1,-2 1,-1 2,-2 0,1 0,1 0,3 -2,-2 0,-1 -2,-1zm6 -2c1,1 1,-1 1,1l-1 -1zm4 -5c0,-1 1,0 0,0 0,0 0,2 0,0zm11 -18l0 0zm0 0l0 0zm-18 -1l0 0c0,0 0,0 0,0zm8 2c-1,-1 -1,0 0,-1l-1 -2c1,0 1,0 2,1 1,-2 0,-1 1,-1 2,0 1,0 1,0 -1,1 0,1 -1,2 2,0 1,0 1,0l2 1c2,0 -1,-1 0,0 0,1 -1,3 -3,3 -2,1 0,1 -1,0 -1,0 -1,3 -1,3 -3,0 -2,0 -4,0 -1,-2 -1,0 -2,-2 -3,1 -2,2 -3,2l1 -2 -1 -1c-1,-1 0,1 0,-1l1 0c1,0 0,0 1,0 1,1 0,1 1,1l0 -3c0,0 0,0 0,0l0 -1c0,-2 0,-2 1,-3 1,1 1,0 1,2 0,0 1,0 1,0 1,0 0,0 1,0 0,2 -1,1 0,4 1,0 0,1 2,-1 1,-1 0,0 0,-1zm4 -4l1 0c0,0 -1,0 -1,0zm5 1c-1,-2 -1,-1 0,-2 1,1 1,0 0,1 0,1 0,1 0,1zm-7 -3l0 0c0,0 0,0 0,0zm-6 -1l0 0zm0 0l0 -2 1 0c0,2 1,1 -1,2zm-3 -3l1 0 0 1 -1 -1zm10 2l0 0c0,-2 -1,-3 1,-3 2,0 0,1 0,1 0,1 -1,-1 -1,2zm-2 -2l0 0c0,0 0,0 0,0zm48 -1l0 0zm0 -1l0 1 0 -1zm-10 0c0,1 0,1 0,1 0,-1 -1,0 0,-1zm-38 -7c1,0 1,1 3,1 -1,-2 0,0 -1,-1l-3 -3c0,-1 0,-1 -1,-1 2,0 1,0 2,0 0,-1 0,0 1,-1 2,-1 -2,0 0,0l1 4c3,0 3,0 4,2 3,3 3,0 3,3 -3,1 -3,-4 -3,4 -1,0 0,1 -1,0 -1,-1 -1,-2 -1,-3l-1 1c-2,0 1,-1 -1,0 0,0 0,0 0,0 -1,0 0,-1 -2,0 -1,0 -1,0 -1,0 -1,0 -1,1 -2,0l1 -1c1,0 1,0 2,0 1,0 1,0 2,-1 0,-1 -2,-2 -3,-2l-4 1c0,1 0,1 0,1 0,2 0,2 0,3l-1 2c0,-2 -1,-1 -2,-2 -2,1 -1,1 -2,2 0,0 0,-1 1,-2 2,-2 0,3 3,-3 1,-2 1,-2 3,-2 0,-1 0,-1 1,-1l0 -1c0,0 0,0 0,-1 2,1 1,0 2,1zm16 -16c-2,1 0,1 -1,3 -1,3 -1,-1 -1,-2 -1,1 0,1 0,2 -1,1 0,-1 0,0 -1,2 0,0 -1,1l-1 1c0,1 1,2 1,3 2,1 2,0 3,1 0,1 0,1 -1,1 -2,0 -2,-1 -3,0 -1,1 0,2 0,2 -1,-1 -1,0 -1,-1 0,-1 0,-4 -3,-4 -4,1 -3,4 -5,6 -1,-2 0,-1 0,-3 -2,0 -2,0 -3,-2 1,0 3,-1 4,-2 -1,0 -1,-1 -2,0 -2,1 -3,4 -7,4 -1,-1 0,0 0,-1 -2,0 -2,0 -3,1 0,1 0,1 0,2l0 0c0,2 0,0 0,1 1,1 1,1 1,2 -2,3 -1,1 -1,4l-1 0c-1,-1 -2,0 -5,-1 1,-2 0,0 2,-2 -2,0 -1,0 -2,0 0,-1 1,1 0,-1 0,-2 -2,-2 -3,-3 1,-2 0,-1 2,-2 0,-1 1,-2 1,-3 -3,1 -4,0 -6,1 0,2 0,2 2,2 0,1 0,0 0,1 0,0 0,1 0,1 0,0 0,0 0,0l-1 1c-1,0 -1,0 -3,0 0,0 0,0 0,0 -1,2 1,1 -1,2 2,3 4,1 4,1l0 2c0,0 0,0 0,0l-3 0c0,2 1,2 3,3l-1 2 -2 -1 -4 1c2,2 1,1 3,1 2,0 1,0 3,0 2,0 0,0 2,-1 -1,2 -1,1 -2,3 1,2 1,2 3,2 0,-2 0,0 -2,-2 1,0 2,0 2,0 2,-1 3,-2 3,-3 -1,-1 -2,0 -2,0l0 -2c4,0 0,1 4,3 0,-3 -1,-2 1,-3 1,2 -1,3 -3,3l0 3c0,0 -1,0 -1,0 2,1 1,0 1,2l1 -1c2,2 3,1 4,3 0,1 0,1 -1,2 1,-1 0,-1 0,-3l-2 1c-1,0 -1,-1 -2,1 2,1 1,1 2,1 1,1 0,3 0,4 0,1 1,1 0,3 0,2 0,0 -1,2 0,0 0,0 0,0 0,0 1,0 1,0l2 0c1,1 1,1 2,1 1,2 0,4 -1,6 -2,0 0,0 -2,-1 0,0 0,0 0,0 0,0 0,0 0,0l0 -2 -2 0 0 2 -3 0c1,-1 2,-1 2,-2 -2,-2 -1,1 -7,1 0,0 0,2 -3,2 0,0 0,0 -1,-1 -2,-1 -1,-1 -2,-1 2,-2 1,-1 3,-2 1,0 2,-2 2,-2 2,1 2,1 3,2 1,0 1,0 1,0l3 -2c-1,-2 -2,-2 -1,-2 1,0 2,0 2,0 2,-1 1,0 2,-1 -1,-2 -1,-1 -3,-1 0,-2 1,-2 -1,-3 -1,-1 -1,0 -1,1 -1,-1 0,-1 -2,-2 -1,1 0,1 -1,1 -1,0 0,0 -1,0l-2 1c-4,2 2,-1 -1,0l-1 -1c0,3 1,3 1,4 1,-1 1,-1 2,-1 -1,4 0,0 1,3 -2,1 0,-1 -2,0 -1,1 0,1 -2,2 -2,1 -3,0 -4,3 0,0 0,0 0,0 -2,0 -2,0 -3,0 0,2 -1,0 0,2 1,1 0,0 1,0 1,1 1,1 2,0 0,0 0,0 0,0 0,0 0,0 1,0 0,4 -1,2 -3,4 1,3 -1,-3 1,1 0,1 0,0 0,1 0,0 0,0 -1,0 0,0 0,-1 -1,-1 -1,-1 0,-1 -2,-1 0,3 1,0 1,3l-4 2c0,1 -1,2 1,4 0,0 1,1 2,0 1,0 1,-1 1,-2 3,0 3,0 3,-1 0,-1 2,1 -1,-1 0,0 0,0 -1,0 2,-1 4,-1 5,-1 0,1 2,1 3,-1 0,0 0,-1 0,-1 0,0 0,0 0,0l-1 -1c0,0 0,0 0,0 0,-1 0,-1 0,-1 -2,1 -2,2 -4,2 0,-4 1,-2 3,-2 1,0 1,-1 2,1l2 3c1,-4 -2,-7 1,-9 0,1 0,0 0,1 0,0 0,1 -1,2 1,0 3,-1 3,-1l0 -2c0,0 0,0 0,0 1,0 4,2 4,2 -1,1 0,0 -1,0 0,0 -2,0 -2,0 0,3 -2,0 -3,5 1,0 2,-1 3,-2 2,1 0,1 2,2 0,-2 0,-2 1,-3 1,0 1,0 1,0l3 4c-1,0 -1,0 -1,0l0 1c0,0 0,0 -1,0 0,-2 -1,-3 -3,-2 0,4 2,2 4,4 1,1 1,1 1,2l3 0c-1,-4 1,-7 -3,-7 0,0 -1,-2 1,1l1 -1 1 1c2,-1 1,-1 2,0 2,2 1,1 0,2l0 1c0,3 0,2 -1,4l-4 0c0,2 2,1 1,2 -1,1 -2,-1 -2,-2 -1,1 0,0 -1,1l-1 1c0,0 0,0 -1,0l0 1c0,1 0,1 0,2l1 0c1,2 2,2 2,3 0,1 0,0 0,1 -2,-2 -1,-2 -4,-1 0,-2 1,-1 0,-2 -3,-3 -2,1 -4,-2 0,0 0,-1 0,-1 0,0 0,0 1,-1 1,-1 0,-1 1,-1 0,0 0,0 0,0l1 0c0,0 1,0 1,0 -2,-2 -3,-2 -5,-2 -3,1 1,-1 -1,1 1,-1 1,-2 2,-3l-2 -2c-2,0 -1,0 -2,2 0,-2 1,-1 -1,-2 0,1 0,2 -1,3l-1 2c3,2 -2,-1 1,0 0,0 1,0 1,0 -2,1 -2,2 -1,4 3,-1 0,0 2,-2 2,0 5,5 5,6 -1,0 -1,0 -1,0 -1,0 -1,0 -2,0 1,2 0,0 1,1 2,2 3,-1 3,-1 1,1 1,2 2,3l1 2c2,1 0,0 2,1 0,-3 0,-2 1,-3 1,2 1,0 0,2 -1,4 0,1 1,4 -3,0 -1,-1 -2,0l0 1c0,1 0,1 1,1 0,0 0,0 0,0 0,1 0,1 0,1 0,0 0,0 1,0 0,-1 0,-2 1,-1 0,1 0,1 -1,3 1,-1 1,0 2,-2l0 -2c0,1 -1,1 1,1l1 -1c0,-2 2,-3 2,-4 0,-2 0,-1 -1,-2 -2,0 -1,0 -3,2 0,-3 1,-1 3,-3 -1,-1 -1,-1 -2,-1 1,-1 0,0 0,-2 0,1 -2,0 -3,-1 -1,0 -1,-1 -2,-3l1 0c4,0 1,-1 4,-1l-1 3c3,-1 1,-1 3,-1l2 5c2,0 2,1 3,-1 -2,0 -2,0 -2,-2 2,1 -1,0 1,1 0,0 0,0 0,0 1,1 -1,0 1,1l1 -2c-1,-1 -1,-1 -2,-1 0,-2 1,-2 0,-3 -1,-1 -3,0 -3,0 0,-1 0,0 0,-2 1,-2 0,1 0,0 2,0 3,1 4,2 0,0 0,0 0,1 2,-2 2,-2 2,-3 -1,0 0,0 -1,-1l-3 -2c0,-1 1,-1 1,-2l0 -1c1,-2 1,-1 0,-3 3,1 1,1 1,3l2 0 2 0c0,-4 -1,-2 -2,-5 0,0 0,0 0,-1 -2,0 -2,-1 -3,-1 -1,-2 -1,-2 -3,-1 -2,1 0,0 -1,1 -1,-3 1,-3 0,-6 3,0 0,-1 2,3 2,0 3,-1 5,-1l-1 4c2,0 3,0 5,0l1 2c0,0 0,0 0,0l1 -1c0,-2 -1,-1 0,-2 -1,-2 -1,0 -2,-2 2,-1 1,-1 2,-3 -1,0 0,1 -1,0l0 -1c1,-2 1,-2 1,-4 -1,-2 -1,-4 0,-6 1,2 0,1 0,2 1,1 1,1 1,2 0,0 1,0 1,0 0,0 0,0 1,-1 0,1 0,1 -1,2l0 1 1 -1 1 3 2 0 0 -2c-2,-1 -1,0 -1,-2 1,-1 3,-1 4,-3 -2,-1 -1,0 -3,-1l-3 -1c0,0 0,0 0,0l0 -1c0,0 0,-1 0,-1 3,0 2,0 4,1 0,-3 -1,0 0,-3 1,-2 1,0 1,-2 -1,-2 -2,-2 -2,-3 1,1 1,0 3,-1l1 2 2 0c0,0 0,0 0,0 2,0 1,-1 2,0l1 1c2,-2 0,-1 1,-1 1,0 1,1 4,1l0 3c3,-1 2,-1 5,-1 -1,1 -1,1 -2,3 1,0 0,0 1,0l2 2c-2,0 -3,-1 -3,-1 0,3 0,2 -1,4 -1,-1 -2,0 -3,-1 0,-1 1,-1 2,-3 -2,0 -4,0 -4,2 -1,3 1,3 1,3 -2,1 -1,-2 -3,1 0,1 1,0 2,1l2 0c2,2 2,1 3,3 0,1 0,1 0,2 1,-2 0,-2 3,-2l-2 3c-1,0 0,0 0,0 1,1 -1,1 1,1 5,-1 -2,-1 4,0 1,-2 0,0 1,-1l1 1c-1,1 1,1 -1,1 1,2 1,1 3,2 -1,-2 0,-1 -1,-2 0,-1 0,0 1,-1l-1 -1c4,-2 2,0 5,-1 2,1 -1,0 2,1 -1,1 0,0 -1,1 0,0 0,0 0,0l0 0c-3,1 -2,1 -4,0 0,1 0,1 0,1l0 1c0,0 1,1 1,1l-1 1c1,1 1,0 1,1 0,1 0,1 -1,1 -1,2 -2,2 -1,2 2,2 0,1 2,-2 2,-1 1,-1 3,0 2,0 0,-2 1,-3 0,-3 1,0 2,-3 0,-1 0,-5 4,-6 -2,1 0,0 -1,1l-1 1c0,0 0,0 0,0 0,0 0,0 -1,0 0,1 0,1 0,1 0,2 0,0 0,2 1,0 2,0 3,-1 1,2 0,1 2,1 -1,0 -1,1 -1,1 -2,1 0,-1 -1,1 1,2 1,2 3,0 0,3 -1,1 -1,4 1,0 1,0 1,0 1,0 1,0 2,0l0 -5c-1,0 0,0 -1,0 0,0 -1,0 -1,-1l-1 -2c0,0 -1,0 0,-2 0,-1 1,-1 1,-1l-1 -1c2,-1 2,-1 2,-3 2,1 2,1 3,1 1,1 1,2 2,1 0,-1 1,-1 -2,-2 -1,0 1,0 0,0l-1 -1c0,0 0,-1 0,-1 0,0 0,0 0,0 0,0 0,0 0,-1l-1 1c-2,2 -1,1 -3,1 -1,-3 0,-1 1,-1 0,0 0,0 0,0l0 -1c2,-1 3,0 2,-2l0 -1c2,0 3,0 4,-2 -2,-1 0,0 -2,0 0,0 0,0 0,0 -1,-1 0,1 0,-1l0 -2c-2,0 -1,0 -2,-1 1,-3 -1,-1 0,-5 -1,-1 0,1 -1,0 0,-1 -1,-2 -1,-3 -2,1 0,0 -1,1 0,0 0,0 -1,0 -1,0 -1,-1 -1,-1l2 -1 0 -2 -4 2 0 -3c-3,-2 -3,1 -7,-1 1,-1 1,0 1,-2 -1,-2 -4,-2 -4,-3 -1,-1 0,0 0,-2 -1,0 -1,0 -2,0 -1,0 0,0 -1,0 1,2 1,2 2,3 -2,0 -4,-1 -6,0 -2,2 0,3 0,4 -1,1 0,-1 -1,1 1,1 3,2 4,3 0,2 0,3 1,5l1 -1c1,0 0,0 0,-2 1,0 1,-1 1,1l2 -2c1,2 0,1 0,3 2,0 2,0 3,1 -2,2 -2,0 -2,2 0,1 0,2 0,3l4 0c0,1 0,1 -2,1 -1,0 -1,0 -2,1 -1,-1 -1,-2 -2,-3 0,0 2,-1 -1,0 0,-1 0,-1 0,-2 0,0 0,0 -1,0 -1,-1 0,0 0,0l0 0c-1,1 -2,1 -2,4 6,2 0,2 4,5 2,-1 0,-1 2,-2 1,2 1,4 1,3 0,0 0,0 0,0 1,0 1,-1 2,-3 2,-1 1,0 3,-1l1 0c1,0 -1,0 1,0 1,0 0,1 1,0l2 0 -2 -3 -1 -1c-1,0 1,0 -1,0l0 -1c0,0 0,0 0,0 0,0 0,0 0,0 -1,-2 0,-1 -1,-2l-2 1c1,-1 -2,-3 -2,-4 1,-1 3,-2 5,-1 -1,0 -1,-1 -2,1l2 2c1,0 1,0 1,0 0,0 0,-1 0,-1l3 0c0,1 0,1 1,1 -1,0 -2,0 -2,0 0,0 0,0 0,1 0,4 0,0 -1,4 2,-1 2,-1 2,-1 1,2 0,0 1,1 1,2 1,1 1,3 -1,-1 -2,-3 -2,0 0,2 0,0 0,2 0,0 1,1 0,2l-1 -1c0,1 0,0 0,1 -4,4 -1,0 -3,4l-2 0 0 -2c-6,-1 0,3 -4,5 -1,-2 0,-1 -1,-3 -1,1 0,1 -1,2l-1 1c-1,-2 3,-2 -2,-5 1,1 1,2 0,4 0,0 -1,1 -1,1 -2,0 -2,0 -2,-1 1,-1 0,0 2,-1l-1 -2c-2,1 -1,1 -3,1 1,0 3,-2 4,-3 0,-1 0,-2 -1,-3 0,-3 0,-1 -1,-2 -2,-2 -1,-2 -1,-5 -1,-1 0,0 -2,0 0,-1 -1,-5 0,-6 -2,0 -1,0 -1,1 -1,0 -1,1 -1,1 -1,2 -1,0 -1,3 -1,1 0,0 -1,1 -1,0 -1,0 -2,0 0,-2 1,-2 3,-3 -2,-1 -1,-1 -2,-3 0,0 -1,0 -1,0 0,0 0,0 0,1l0 0c0,2 1,0 0,2 -2,-1 -1,-1 -2,-3 -2,0 -2,0 -1,2l-2 -1c-1,1 -1,2 -2,3 -1,-1 0,-1 -2,-1 -1,-1 -1,0 -2,0 -2,-3 2,-4 3,-5 0,-1 0,-1 0,-2 0,-1 0,1 0,-1 0,0 0,0 0,0l1 -1 -1 -2c2,-1 1,1 2,0l1 -3c0,-1 0,-1 0,-1l0 1 1 -1c0,0 0,0 0,0l1 2c1,-1 0,0 1,-1 0,-2 0,-1 0,-3 0,-2 0,-1 -1,0l-3 0c1,-2 1,-2 1,-3l-4 1z"/>
  <path class="fil1" d="M105 95c0,3 1,0 -4,2 0,2 1,2 -2,3 -1,-2 1,1 0,-1l-1 0c0,-1 0,-1 0,-1 -1,0 -1,0 -1,-1 1,-3 0,-1 1,-2 1,1 0,0 2,0l1 1c2,0 0,0 2,0 0,-1 0,-1 1,-1l-1 -1 3 1c-1,-3 -3,-4 1,-4 0,3 0,1 0,4 2,-1 0,-1 1,0 0,1 0,1 0,1l0 3c0,0 0,-1 0,0 -1,1 0,0 -2,-1 -1,0 -2,0 -2,-1l1 -1c1,-2 1,0 0,-1zm-7 -4l0 0zm-11 -2l1 -1 2 0 1 3 0 -1 3 -1 1 2c0,-1 1,-1 1,-1 2,0 1,0 2,0 0,1 -1,1 0,1 1,3 2,0 1,3 -2,-1 -1,-2 -2,-2 -4,-1 -2,1 -4,1 -1,1 -2,0 -2,0 0,0 0,0 0,0 -2,1 0,0 -3,0l-1 0c-2,0 -2,0 -3,-1 2,0 0,0 2,0 2,1 1,0 1,0 1,-2 0,0 0,-2 0,-1 0,1 0,0 0,0 0,-1 0,-1zm-3 1c-1,1 0,1 -1,0l1 0zm-1 0l-1 0 1 0zm20 -5c1,1 0,0 1,1 0,0 1,1 1,1 -2,0 -1,0 -2,-2zm-5 -3l0 1c4,1 2,-1 4,1 0,1 1,3 1,4 -2,-1 -1,1 -3,-1 -1,-2 -1,-2 -3,-2 0,-2 0,-2 1,-3zm-3 -6c0,0 1,1 0,0 0,0 -1,1 0,0zm8 2c2,-2 0,-1 1,-2l1 1c0,1 0,1 0,2 -1,2 0,1 -3,2 0,0 0,2 -5,0l1 -2c1,0 0,1 2,1 0,-2 0,0 1,-2 1,1 2,1 3,2l-1 -1c0,-1 0,-1 0,-1zm4 -14c0,0 2,1 1,0 -1,0 -2,1 -1,0zm-1 1c0,0 1,0 1,1l1 1c1,1 1,-1 2,1 -3,-1 -4,-1 -5,-1l0 -4c2,0 3,2 3,-1 2,3 2,0 3,3 -2,-1 -2,-1 -2,-1 -1,-1 0,-1 -1,-1 -3,0 -1,0 -2,1l0 1zm6 -3c1,-1 1,1 0,0 0,0 -1,0 0,0zm-8 -1c0,-1 1,0 1,0 0,0 -1,1 -1,0zm56 -23c0,-2 1,-2 3,-2l0 1c-2,0 -2,0 -3,1zm-16 -8c-1,0 -1,0 0,1 -1,1 -1,0 0,1 0,0 0,-2 2,1 -5,1 -6,-3 -9,-2 -1,0 -1,1 -1,1 0,0 0,0 -1,0 0,0 0,-2 0,1 2,1 0,1 1,1 2,0 3,0 3,1l1 1c0,0 0,0 0,1 0,0 0,0 0,0 0,0 0,0 0,0 2,0 1,0 2,-3 1,0 1,0 2,1 -4,6 -4,3 -7,3l-1 3c0,-1 -1,-1 -1,-1l-1 0c0,-1 1,-1 1,-2 -2,-1 -2,0 -3,0l0 2c-1,1 -1,0 -2,1l0 2c-4,1 1,2 -3,2 -3,0 0,-2 -3,-2 -1,2 0,2 2,3 0,2 0,0 -1,2 4,0 1,-2 4,-2 0,1 1,3 1,5 -2,-1 -2,0 -4,-1l-2 -1c-1,-1 0,-1 -1,-1 -1,3 1,1 1,3 -2,0 0,-1 -3,-2l0 1c0,1 0,-1 0,1 -3,1 0,1 -2,3l-2 -3 2 -1c0,-1 1,-2 1,-3 2,-2 3,-4 2,-6 0,-1 -1,-2 -2,-2l1 3 -4 0c1,2 2,0 2,2 -2,1 -1,0 -2,0 -3,1 -2,1 -2,0 -1,0 -1,0 -1,0l1 -1c-2,0 -1,0 -2,0 -3,-1 -6,-1 -8,1 -2,2 -2,-1 -3,3 0,0 0,0 0,1l0 0c-4,-2 1,-1 -1,-4 -1,0 -2,2 -2,4 -1,3 -2,1 -3,3 1,1 2,1 4,1 1,1 1,2 2,3 3,-2 0,-2 4,-3l-1 4c-4,1 -4,-1 -7,-2 -1,2 -1,3 -5,3 1,-2 1,-1 2,-2l-2 -3c0,2 0,0 0,3 -2,2 -2,1 -3,4l0 0 0 1c-1,2 0,1 0,1 1,2 1,2 3,2 0,-2 0,-2 -1,-2 -1,-1 -1,-1 0,-3 1,0 1,-1 2,1 0,2 -1,1 0,2 0,3 1,0 2,0 1,2 -1,2 1,3 2,-2 1,-2 0,-4 0,-2 3,-3 5,-3l1 2c-2,0 -2,-1 -3,0 0,1 1,0 2,2l-3 3c0,1 -2,1 -2,2 1,1 1,0 1,2 -3,0 -3,-2 -4,-3 -2,0 -2,0 -3,1l3 1c0,0 -1,0 -1,0l-3 0c1,2 0,1 2,2l-2 1c-2,-2 -1,-2 -1,-5l-2 1c0,3 1,3 2,4 3,5 -6,3 -5,6 2,1 2,1 3,2 2,1 0,0 2,1 0,1 0,1 0,3 0,0 2,0 3,0l0 2c-1,1 0,0 0,1l-1 3c-3,-2 0,-2 -1,-3 -2,-1 -1,-1 -2,1l-2 -1c-1,1 -1,2 -1,2l1 2c-1,1 -1,1 -2,1l0 0 -1 -2c1,-2 1,-1 1,-2l-2 0c-2,2 -1,1 -2,1 -1,1 -2,0 -1,2 -1,1 -1,0 0,1 1,0 0,0 1,0 1,1 2,-2 1,2 0,1 -2,3 -3,3l-1 -2 -3 2 2 2 1 1 -1 1c0,0 0,1 0,1l0 2c0,2 -1,3 1,4 1,0 1,0 1,0 3,3 1,2 1,2l0 0 1 -2c-2,-2 -2,0 -3,-3 2,0 1,0 2,1l1 0c0,0 0,1 0,1l0 -4 2 -1c0,0 -1,-1 0,-3l1 0c2,0 0,1 1,-2 4,2 5,0 9,-1 0,2 0,1 -1,2 0,0 0,0 0,0 0,1 -1,1 -1,2 0,0 0,0 0,1l0 0c0,0 0,0 0,0 -1,2 -1,2 -4,3 1,2 1,0 1,2l1 2c0,2 1,2 0,4 0,0 0,0 0,0 0,1 0,1 1,1 0,0 0,0 1,0 -1,2 -1,1 -1,2 3,0 0,0 1,1 0,1 0,1 0,1 -2,0 -1,0 -2,0l-4 -2c0,0 0,0 0,0l-1 -2c-2,1 0,2 -3,2 0,-1 -1,-2 -2,-2l0 1 -2 1c0,4 3,6 6,5 0,3 -1,-1 0,4 1,0 0,0 1,-1 2,0 1,0 3,0l1 1 4 -2c-1,-1 -2,-1 -2,-3l3 -1c0,-2 -1,-2 -1,-2 0,-1 -1,-1 1,1 0,0 1,0 1,0 1,1 2,0 2,0 0,-2 -1,-1 -2,-2 0,0 0,0 0,0l0 -1c0,0 0,0 0,0 -1,-1 -1,-1 -1,-2 0,-1 -1,2 0,-1 0,-1 0,0 1,-1 1,1 0,4 3,3 0,-1 0,-1 0,-4l-4 -2c-2,-1 -2,-2 -1,-3 2,0 2,1 3,-1 1,2 1,1 4,1 0,0 0,0 0,0l2 1c0,0 0,0 0,0 0,0 1,0 1,0 0,0 0,0 0,0 -1,1 -2,1 -3,1 1,3 1,2 4,1 0,-2 0,-1 0,-2 2,0 3,1 6,0 1,-1 0,-2 1,-3 1,1 0,0 1,1 2,1 1,2 3,2 -1,-3 0,0 -1,-2 -2,-2 0,1 -1,-1l-1 -2c-1,-1 0,-1 -1,-2 0,-2 0,-1 0,-2l-1 0c3,-2 2,0 2,0l2 2c0,-2 1,0 -1,-2l0 -1 -1 -1c0,-1 0,-1 1,-3 1,0 1,1 0,0 -1,-1 0,1 -1,-1 1,-2 0,-1 1,-1l0 -2c-2,2 -2,1 -2,4 -2,0 -4,-1 -4,-1l0 -1 3 0 -3 -4 0 0c1,-1 1,-1 1,-1 0,-1 0,-1 0,-2 0,-2 -1,-1 0,-1 0,-2 0,0 1,-1 0,-1 0,0 0,0 0,-1 0,-1 0,-1l0 -2c-1,0 -1,0 -1,0 -1,0 -1,0 -1,0 0,-1 0,0 1,-1 0,-1 0,0 0,-1 -1,-1 -1,0 -3,-1 1,-2 1,0 2,-3l-4 1 -1 -3c0,0 0,0 0,0 2,-1 1,0 1,1l2 -1c1,2 1,2 2,2 1,0 0,0 2,1 3,1 1,-1 5,-3 0,-2 -1,0 0,-2 3,0 2,5 0,7 0,0 1,0 1,0 0,0 0,0 0,0l1 0c-1,2 0,1 0,2l0 1c0,0 1,0 1,0 0,1 0,1 0,1 1,0 0,0 1,0 1,-1 1,0 1,-1 0,0 1,-1 0,1 2,1 2,1 3,0 0,-1 0,-1 -1,-2 0,-1 0,0 0,-1 1,0 0,-1 1,0 0,-2 0,-1 1,-1 0,0 0,0 0,0 0,0 0,0 0,-1 -3,-2 -2,-2 -5,-3l1 -2c-1,-2 -2,0 -1,-4 -2,-1 -1,0 -3,-1 1,0 1,0 1,-1 1,0 0,0 1,0 2,2 -1,0 2,3l2 -2c0,0 0,0 0,0 1,-1 0,0 1,-1 -1,-1 0,-3 -2,-4 0,3 1,1 -2,3l-2 -1c-2,1 -2,1 -4,2 -1,0 -1,1 -2,0 -2,0 -1,0 -2,-1 1,-1 1,0 2,-1 -1,-2 -1,0 -2,-2 1,-1 0,-1 2,-1 0,0 0,0 1,0l0 0c1,1 1,1 1,1l2 1c0,-3 -1,-3 0,-5 2,1 1,1 1,3l2 0c0,-4 -1,-2 -2,-5 -2,0 -2,0 -3,1 -2,0 -5,-1 -5,-1 0,-2 -1,0 2,-3l3 0c0,0 0,0 0,0l0 -2c1,0 1,0 2,0l3 2c1,2 -1,1 0,4 0,1 1,2 1,3 0,2 0,2 2,3l0 -2 3 0c-1,-2 -1,-1 -1,-2 2,1 1,1 2,0 3,0 -1,0 2,0 3,-1 1,-1 3,-1 0,0 0,0 0,0 2,0 2,0 3,0l1 -1c0,0 0,0 0,0 0,0 0,-1 0,-1 0,-1 0,0 0,-1 -2,0 -2,0 -2,-2 2,-1 3,0 6,-1 0,1 -1,2 -1,3 0,-1 1,-1 2,-1 0,2 0,2 0,4 2,0 2,0 3,-1l-1 4c2,0 1,0 3,-2l0 -1c0,-1 0,1 0,-1l0 0c0,-1 0,-1 0,-2 -1,-1 0,0 0,-2 -1,-2 -1,-1 -2,-2 3,-3 1,1 5,-2 0,0 0,0 0,0 0,0 0,0 0,0 1,-5 1,-1 1,-4 1,-2 0,-1 1,-2 1,-2 1,-1 2,-2 2,0 1,-1 3,-1 0,1 0,2 1,3 1,0 2,0 2,-1 0,0 0,-1 0,-1 0,0 0,0 0,0l1 2c-1,1 -2,2 -2,4 1,1 2,2 4,1 3,-1 -1,-1 1,-2 0,0 1,1 2,1 1,1 1,1 2,2 1,-1 0,1 1,-1 0,-1 -1,1 0,0 0,-1 -1,-1 0,-2 1,-1 1,-1 1,-1l0 -4c2,1 1,1 2,3 3,-1 4,-1 7,0 0,-2 0,-2 0,-3 2,1 1,1 2,3 1,0 1,0 2,0 0,-1 0,0 0,-1 1,-1 1,0 0,-2 -1,0 -2,0 -2,0 1,-2 0,-1 1,-1 1,-1 -1,0 0,-1 1,-1 1,2 0,0l1 -1c-2,-1 -2,0 -2,-4 5,1 5,2 7,2 -1,-2 -1,-1 -2,-2 -1,-1 -1,0 -1,-2l-2 0c-5,-1 -4,-1 -4,3 -2,1 -1,0 -3,1 0,2 1,1 2,2 1,-1 1,-2 2,-1 -1,2 0,0 -1,3 -1,0 -1,1 -1,2 -1,0 -3,-1 -4,-1 1,-2 1,0 2,-2 -1,-1 -1,-1 -3,-1 -4,-1 -2,1 -9,-1 -1,2 1,2 -2,2l0 -2c-1,0 -1,0 -1,0 0,0 1,0 0,0l-2 1 0 -1c-1,-1 0,-1 -1,-1 -2,1 0,1 -2,1 -1,-1 -2,-2 -3,-2l-4 -1c0,1 -1,0 0,2z"/>
  <path class="fil2" d="M174 43l0 0zm9 -2c1,0 1,0 2,0 0,1 -1,1 -1,3 -2,-1 -1,0 -3,-2 0,0 0,0 0,0 0,0 0,0 -1,0 3,0 2,1 3,1 1,0 2,1 0,-2zm2 -2l0 0zm-55 -1c0,0 0,-1 0,-1 0,0 1,0 0,1zm-15 1c0,0 0,0 0,0 0,0 0,0 0,-1 0,0 0,0 0,0l-1 -1c-1,-1 -3,-4 0,-3 2,0 0,0 2,1 1,-1 1,-1 2,-2 1,4 1,2 -1,3 -1,2 0,4 -2,3zm-10 -5c1,0 3,1 1,0 0,0 0,0 0,0 0,0 -2,1 -1,0zm80 5l-1 1c0,-3 1,-1 -1,-2 -1,-1 -2,-2 -3,-2l-1 -1c0,0 0,0 0,0 0,-2 1,-1 1,-1 2,-1 2,-1 4,-2 0,3 -1,1 -1,3l2 1c0,1 0,1 1,2 -2,0 0,0 -1,1zm-7 -6l0 0zm-19 -4c1,1 1,0 1,1 1,1 1,0 1,1 -2,0 -1,-1 -2,-2zm-29 1c1,0 1,0 1,1l-1 -1zm33 -1c1,0 1,0 1,1 -1,-1 -1,0 -1,-1zm-5 0l1 0 -1 0zm-26 1l0 -2 1 0c-1,2 -1,2 -1,2zm31 -1l0 0zm-29 -1c1,0 1,0 1,0 -2,0 0,0 -1,0zm30 -4c-1,2 0,1 -1,2 0,-2 0,-1 1,-2zm3 0c0,2 0,3 -2,4 -1,-2 0,0 1,-2l1 -2c0,0 -1,0 0,0zm-37 6c-2,0 -2,-1 -1,-2 0,0 0,0 1,0l0 -1c-1,-1 -1,-2 -1,-3 0,-1 1,-1 2,0 -2,3 0,1 0,4 -2,0 -1,-1 -1,2zm34 -6c0,-1 0,-1 1,-1l-1 1zm-12 0l-1 -2c-2,1 -1,0 -2,1 0,-2 0,-1 1,-1l1 -1c3,0 0,0 2,0 -1,2 -1,0 -1,3zm9 -4c0,0 0,0 0,0 0,0 0,1 1,1 0,0 0,0 0,0l-2 2 1 0 1 0c0,0 0,0 0,1 0,0 -1,0 -1,0l0 0c0,3 1,1 0,2 0,0 0,0 0,0 0,0 0,0 0,0 0,0 0,0 0,0 0,0 0,0 0,0 0,1 1,1 0,1 -1,1 -1,0 -3,0l0 2 -4 0c-1,-1 -1,-2 -2,-5 2,1 1,2 3,2 -1,-2 -1,-2 -1,-4l2 0c0,-2 -2,-4 -4,-4 0,1 0,1 0,3 -4,-1 -2,1 -5,1 1,-2 1,-1 0,-1 -2,0 -1,0 -2,1l-2 1c0,0 0,0 0,0 0,0 0,0 0,0 0,0 0,0 -1,0 0,0 -1,0 -2,1 1,1 1,2 3,2 0,2 -1,2 -2,1 0,-1 1,0 0,-1l-2 0c-1,-2 0,-1 0,-3 0,-1 -1,-1 -1,-1l-1 0c-3,-2 -5,-3 -9,-3l-7 6c-1,0 0,0 -1,0l0 1c3,1 1,0 1,3 2,0 1,0 3,1 2,1 2,1 3,0 -1,3 -1,2 2,2 -1,2 -1,1 -1,3 3,0 0,-1 3,-2 -1,2 -1,1 0,3l-3 1c1,0 1,0 0,1 -1,-1 0,-1 -2,-1 0,-1 0,0 0,-1 0,0 0,0 0,0l0 0c0,0 0,-1 0,-1 0,0 0,0 0,0l0 -1c-1,-1 -1,-3 -2,-3 -2,-1 -3,0 -4,0l-5 -2c-1,-1 -1,-1 -3,-1 0,3 1,1 -1,2 0,0 -1,0 -1,0 -2,-1 -2,-1 -3,-1 0,3 0,1 0,2 0,0 2,1 1,2 -1,1 -1,-2 -4,-2 0,1 0,1 -1,1 1,2 0,1 2,2 -1,1 -2,1 -3,2 0,1 0,2 -1,4l0 0c-2,1 -2,1 -3,2l-3 3c-2,1 -4,1 -5,4l-1 2c1,1 2,2 3,2l0 1c-3,0 -2,0 -4,1 0,0 0,0 0,1 2,2 0,0 2,1l0 2c1,-3 1,-2 3,-4 0,-3 0,-1 0,-3l2 3c-1,1 -1,0 -2,2 4,0 4,-1 5,-3 3,1 3,3 7,2l1 -4c-4,1 -1,1 -4,3 -1,-1 -1,-2 -2,-3 -2,0 -3,0 -4,-1 1,-2 2,0 3,-3 0,-2 1,-4 2,-4 2,3 -3,2 1,4l0 0c0,-1 0,-1 0,-1 1,-4 1,-1 3,-3 2,-2 5,-2 8,-1 0,-1 1,-1 1,-1 1,-4 -1,-2 1,-3 0,2 0,1 0,1 0,2 0,1 0,2 -1,1 -1,-1 0,1 1,1 1,1 -1,1 0,0 0,0 1,0 0,1 -1,1 2,0 1,0 0,1 2,0 0,-2 -1,0 -2,-2l4 0 -1 -3c1,0 2,1 2,2 1,2 0,4 -2,6 0,1 -1,2 -1,3l-2 1 2 3c2,-2 -1,-2 2,-3 0,-2 0,0 0,-1l0 -1c3,1 1,2 3,2 0,-2 -2,0 -1,-3 1,0 0,0 1,1l2 1c2,1 2,0 4,1 0,-2 -1,-4 -1,-5 -3,0 0,2 -4,2 1,-2 1,0 1,-2 -2,-1 -3,-1 -2,-3 3,0 0,2 3,2 4,0 -1,-1 3,-2l0 -2c1,-1 1,0 2,-1l0 -2c1,0 1,-1 3,0 0,1 -1,1 -1,2l1 0c0,0 1,0 1,1l1 -3c3,0 3,3 7,-3 -1,-1 -1,-1 -2,-1 -1,3 0,3 -2,3 0,0 0,0 0,0 0,0 0,0 0,0 0,-1 0,-1 0,-1l-1 -1c0,-1 -1,-1 -3,-1 1,1 1,1 0,1 -1,-1 -1,0 -1,-2 -1,-1 0,-1 -2,-1l0 -1c2,0 1,-1 2,-2l0 3c1,0 1,0 1,0 0,0 0,-1 1,-1 3,-1 4,3 9,2 -2,-3 -2,-1 -2,-1 -1,-1 -1,0 0,-1 -2,-1 -2,-1 -2,-3l1 1c1,1 1,1 1,1 -1,-2 0,-1 0,-2l4 1c1,0 2,1 3,2 2,0 0,0 2,-1 1,0 0,0 1,1l0 1 2 -1c1,0 0,0 0,0 0,0 0,0 1,0l0 2c3,0 1,0 2,-2 7,2 5,0 9,1 2,0 2,0 3,1 -1,2 -1,0 -2,2 1,0 3,1 4,1 0,-1 0,-2 1,-2 1,-3 0,-1 1,-3 -1,-1 -1,0 -2,1 -1,-1 -2,0 -2,-2 2,-1 1,0 3,-1 0,-4 -1,-4 4,-3l2 0c0,2 0,1 1,2 1,1 1,0 2,2 -2,0 -2,-1 -7,-2 0,4 0,3 2,4l-1 1 1 0c0,1 0,0 1,1 -1,0 -2,0 -2,0l0 0c0,0 -1,0 -1,1 0,0 0,0 0,0 0,0 1,0 2,0 1,2 1,1 0,2 1,0 1,0 2,-1 -1,2 0,2 -2,2 0,2 0,1 0,3 0,0 2,1 0,1 -4,0 -2,-1 -4,1 0,-2 0,-1 -1,-2 0,2 0,1 0,3 -1,1 0,0 -1,1l-1 -2c0,0 0,0 0,0 0,1 0,1 -1,1 0,0 0,0 0,-1 0,0 0,0 0,1l-1 3c-1,1 0,-1 -2,0l1 2 -1 1c0,0 0,0 0,0 0,2 0,0 0,1 0,1 0,1 0,2 -1,1 -5,2 -3,5 1,0 1,-1 2,0 2,0 1,0 2,1 1,-1 1,-2 2,-3l2 1c-1,-2 -1,-2 1,-2 1,2 0,2 2,3 1,-2 0,0 0,-2l0 0c0,-1 0,-1 0,-1 0,0 1,0 1,0 1,2 0,2 2,3 -2,1 -3,1 -3,3 1,0 1,0 2,0 1,-1 0,0 1,-1 0,-3 0,-1 1,-3 0,0 0,-1 1,-1 0,-1 -1,-1 1,-1 -1,1 0,5 0,6 2,0 1,-1 2,0 0,3 -1,3 1,5 1,1 1,-1 1,2 1,1 1,2 1,3 -1,1 -3,3 -4,3 2,0 1,0 3,-1l1 2c-2,1 -1,0 -2,1 0,1 0,1 2,1 0,0 1,-1 1,-1 1,-2 1,-3 0,-4 5,3 1,3 2,5l1 -1c1,-1 0,-1 1,-2 1,2 0,1 1,3 4,-2 -2,-6 4,-5l0 2 2 0c2,-4 -1,0 3,-4 -1,0 -1,0 -1,0l1 -1 -3 0c2,-1 0,0 1,-1 1,0 1,0 2,0l1 -2 -2 0c1,2 1,2 -1,2l-1 -2 -1 0c-2,1 -1,0 -3,1 -1,2 -1,3 -2,3 0,0 0,0 0,0 0,1 0,-1 -1,-3 -2,1 0,1 -2,2 -4,-3 2,-3 -4,-5 0,-3 1,-3 2,-4l0 0c-2,0 -1,0 -1,-1 1,0 1,0 1,-2l-1 1c-1,-2 -1,-3 -1,-5 -1,-1 -3,-2 -4,-3 1,-2 0,0 1,-1 0,-1 -2,-2 0,-4 2,-1 4,0 6,0 -1,-1 -1,-1 -2,-3 1,0 0,0 1,0 1,0 1,0 2,0 0,2 -1,1 0,2 0,1 3,1 4,3 0,2 0,1 -1,2 4,2 4,-1 7,1l0 3 4 -2 0 2 -2 1c0,0 0,1 1,1 1,0 1,0 1,0 1,-1 -1,0 1,-1 0,1 1,2 1,3 1,1 0,-1 1,0 -1,4 1,2 0,5 0,0 0,0 0,0 0,1 0,0 2,-1 0,0 0,0 0,0 2,0 1,0 2,-1 0,-2 -2,-2 -2,-4 2,1 1,1 3,0 -1,-1 -2,1 -3,-2 -1,-3 -1,-2 0,-4 -2,0 -2,-1 -4,-1 -2,0 0,1 -3,1 1,-3 1,0 3,-3 2,-1 -1,0 1,-1 0,-2 0,-1 -1,-2 0,0 -2,1 -2,1 0,0 0,0 -1,0 0,1 1,0 0,1 -3,-3 -1,-1 -2,-3 0,-1 -2,-3 -2,-4l-3 1c-1,0 -1,1 -2,-1 2,0 2,0 2,-2 -2,0 -1,0 -3,1 0,-1 -1,-2 -1,-3 -2,1 0,0 -2,1 0,-3 -1,-5 -2,-6l0 -1c-2,-2 -1,-1 -1,-4 -2,0 -1,0 -2,-2 -3,0 -2,1 -3,1 0,-1 0,-2 0,-3 -2,0 -1,0 -1,-1l-3 0c0,1 0,1 0,2 -1,1 0,0 -1,0 -1,0 -4,-1 -6,-3 -1,-1 0,0 -2,-1 -6,-1 -4,-1 -7,2 0,1 0,0 1,0z"/>
  <path class="fil3" d="M167 212c0,-1 1,-1 3,-1l0 1c-2,0 -1,0 -3,0zm-19 -4c2,0 1,0 1,2 -1,0 -1,0 -2,0 1,-1 1,-1 1,-2zm-13 -3c1,0 2,1 1,1 0,0 -1,0 -1,-1zm35 0c0,-1 2,0 1,0 -1,0 -1,1 -1,0zm10 0l2 0c-2,0 -1,1 -2,0zm-2 0c0,-2 1,-1 1,0 0,0 -1,1 -1,0zm-4 0c0,-1 2,0 0,0l0 0c0,0 -1,0 0,0zm-14 -1c0,-1 2,0 0,0 0,0 -1,0 0,0zm5 -1c0,1 1,1 -2,1 2,-2 0,-1 2,-1zm-7 0c0,0 1,1 0,0 0,0 -1,1 0,0zm20 0c2,-1 0,0 2,0 0,0 1,0 -1,0 -1,0 0,1 -1,0zm-2 0l0 0zm7 -1c1,0 2,1 3,1 -1,1 0,2 -2,0 0,0 0,0 0,0 -1,0 -1,-1 -1,-1zm-5 1l0 1 -1 0c-1,-1 0,-1 -1,-1 0,-1 -1,-1 1,-1 2,0 0,0 1,1zm-32 0c0,0 0,0 0,0 0,0 1,-2 3,-2 2,0 2,1 3,2 -1,0 -2,1 -2,0 0,0 0,-1 0,-1 -2,1 -2,1 -4,1zm40 -2l3 0 0 1 -3 0 0 -1zm-41 0l0 0c0,0 0,0 0,0zm-7 -1c1,0 2,0 3,0 -1,1 -2,1 -3,1l0 -1zm45 0l0 0zm11 -1l0 0c0,0 0,0 0,0zm-17 0c0,0 2,1 0,1 0,-1 -1,0 0,-1zm-40 0l0 0c0,0 0,0 0,0zm37 -1c-1,2 -2,3 -3,0l3 0zm-7 0l0 0c0,0 0,0 0,0zm-5 0l1 0 0 1 -1 0 0 -1zm12 0l0 0zm-2 -4c1,1 1,0 3,1l1 1c-2,0 -2,0 -3,1 1,-2 0,0 1,-2 -3,0 -1,0 -2,-1zm-1 0l0 1 -1 0c0,-1 0,-1 1,-1zm-11 0l0 0zm-3 0c1,-1 0,-1 2,0 0,0 0,0 -1,0 -1,0 0,1 -1,0zm16 -1c0,0 2,0 0,0l0 0c0,0 -1,1 0,0zm13 -2l0 0zm0 0c1,0 0,0 1,0 1,0 1,0 2,0 -1,1 -1,1 -3,0zm8 0c0,-1 1,0 0,0 0,0 -1,0 0,0zm-4 0l0 0c0,0 0,0 0,0zm-6 0l1 0 -1 0zm0 0c-2,0 0,0 -1,-1 2,0 1,0 1,1zm-44 4c-2,-1 1,0 -1,0l-2 -1c-1,0 0,0 -1,0l-1 0c-3,0 0,1 -3,1 -1,1 -1,1 -4,0 1,2 1,3 1,5 0,0 2,0 2,0l1 0c0,3 0,1 0,1l-2 1 1 5c0,0 1,1 1,1l0 0c7,1 0,1 5,-1 1,0 2,1 2,-1 0,0 0,0 0,0l-2 0c0,-1 0,-1 1,-2 0,0 0,0 1,1l2 1c3,-2 -1,-1 3,-1 0,3 1,2 -2,3 1,0 0,0 0,1 -1,0 2,0 -1,-1 -1,0 -2,1 -2,1l4 2c0,0 1,1 2,1l14 -1c1,0 2,-2 6,0 1,0 1,1 2,1l0 1 -2 0c0,-1 0,0 -1,-1 -2,0 -3,0 -6,0l0 1c3,1 7,1 10,1 7,-1 2,0 7,-2 2,0 1,0 3,0 0,2 0,1 3,1 6,1 7,-2 11,-1 0,0 1,0 1,0l0 0c-1,0 0,0 -1,-1 1,-1 1,-1 2,-1 0,-2 0,0 1,-1 2,0 1,0 2,0 2,1 1,0 2,0 0,-2 0,-1 -2,-2 0,0 -1,0 0,0 0,-2 0,0 1,-2 -1,0 -1,0 -1,0l1 1 4 0c-1,-2 -1,-2 0,-1l-3 0 2 2c0,1 0,1 0,1 0,0 0,0 0,0 1,2 0,0 1,2l1 -1 0 0c3,-2 7,2 6,-3 -1,-3 -1,-1 -1,-3l0 -1c0,0 0,-1 1,-1 -1,0 -1,0 -2,-1l-1 0c0,-2 1,0 -1,-2 3,0 0,0 5,0 1,0 0,1 1,0 0,-1 0,-1 2,0 0,-2 0,-2 0,-3 -3,-1 1,1 -2,0l-1 -1c0,-1 1,-1 -1,-1 -1,0 0,0 -1,1 -2,0 -5,-1 -6,-2 0,0 1,-1 -2,0l-1 0c-1,0 1,0 -1,0 0,0 -1,0 -1,0 0,0 1,0 1,-1l-2 0 -2 -2c-1,2 -1,0 -5,0l-2 -1c-2,0 1,1 -1,1l-7 1c-4,1 -1,-1 -4,-1 0,0 -1,0 -1,0l-4 0c2,1 2,0 2,2 -1,0 -11,0 -12,0 0,-2 0,-1 1,-2 -1,0 -10,0 -11,-1 2,6 -1,5 4,7 1,0 1,1 1,1 0,-1 0,0 0,0 -5,0 -10,0 -15,0 0,-1 -1,0 0,-1z"/>
  <path class="fil4" d="M131 149l0 0zm-16 -7c1,0 0,0 1,0 1,0 0,0 1,0l0 1c0,1 -2,2 -2,-1zm12 3c-1,0 -1,0 -2,1 1,2 0,0 1,1 1,1 0,0 1,1 -1,0 0,0 -2,0 -2,-2 -1,-3 -1,-3 -2,-1 -3,-2 -3,-4l0 -1c2,-1 2,-1 3,0l0 1 1 1c-1,1 -1,0 -2,1 1,0 2,1 3,0 1,0 0,0 0,-1l1 0c2,0 2,-1 4,-2 2,2 1,0 1,2 -1,1 -1,1 -3,1 1,1 1,1 0,2l-2 0zm12 -13l3 -1c0,2 -1,1 0,3 1,1 1,0 1,2 -1,0 0,0 -1,0l-2 2c0,-1 -1,-2 -1,-2 -1,-1 0,0 -1,0 -1,-1 -1,-2 -1,-3 1,-1 1,-1 2,-1zm-6 -13c2,2 3,1 5,3 -2,1 -1,0 -1,1l-1 2c0,2 1,3 0,5 1,2 1,-2 1,2 -5,-2 -1,-2 -5,-2 0,-3 -1,-3 -3,-4 0,1 0,1 0,2 -1,1 0,0 -1,1 -1,-1 0,-1 -1,-3 -1,1 -1,1 -1,2 -2,1 -3,1 -4,1 -1,-1 -1,0 -1,-2 2,0 2,0 4,0 -1,-2 -1,-1 -1,-2l0 -2c0,-4 0,-2 3,-2 0,0 -1,0 -1,-1 0,0 0,0 0,0 0,-2 2,-2 2,-2 4,0 2,1 3,-1 1,1 1,1 2,2zm-14 -6c-1,-2 -1,-2 1,-3 0,-1 1,-2 1,-3 0,0 0,-2 0,-2 0,-1 0,0 0,-1 3,1 0,-1 3,3 3,3 0,0 3,1 0,2 -1,1 -2,2 0,3 0,1 1,2 1,4 0,2 -1,3 -1,0 -1,0 -1,-1 -1,-1 0,-3 0,-3 0,-1 0,0 0,-1 -1,-1 0,-1 -2,-2 -1,2 1,0 0,2 0,0 -2,3 -3,3zm-5 -10c1,-1 0,-1 1,-1 1,1 1,0 1,1 0,0 0,0 1,1l1 -1 2 1c-1,4 -6,3 -6,0 -1,-2 -1,0 0,-1zm15 -9l3 1 0 2 -2 1 -1 -4zm-16 3l0 -1 -2 -2c0,0 1,-2 -2,0l1 0c0,1 0,0 0,2 1,1 0,1 1,2l1 2c1,2 -1,-1 1,1 1,2 0,-1 1,2 -2,0 -1,-1 -3,-2 -1,-1 0,0 -1,-1 -1,1 0,2 -1,3 -3,1 -4,0 -6,0 0,1 0,0 0,2 -3,1 -3,2 -4,-1 1,0 2,0 3,-1 0,0 0,0 0,0 0,0 -1,0 -1,0 0,0 0,0 0,0l-2 -1c0,0 0,0 0,0 -3,0 -3,1 -4,-1 -1,2 -1,1 -3,1 -1,1 -1,2 1,3l4 2c0,3 0,3 0,4 -3,1 -2,-2 -3,-3 -1,1 -1,0 -1,1 -1,3 0,0 0,1 0,1 0,1 1,2 0,0 0,0 0,0l0 1c0,0 0,0 0,0 1,1 2,0 2,2 0,0 -1,1 -2,0 0,0 -1,0 -1,0 -2,-2 -1,-2 -1,-1 0,0 1,0 1,2l-3 1c0,2 1,2 2,3 2,1 0,0 1,0 1,0 1,0 1,1l0 0c1,-2 0,-1 1,-3l0 -1 1 0 1 2c1,1 3,0 3,0 0,0 0,0 0,0l-1 -1c0,0 0,0 0,0 3,-1 2,0 3,0 0,-1 1,-2 -3,-2l-1 2c-1,0 -2,-1 -2,-2 -1,-1 0,0 0,-1 0,0 0,0 1,0 0,0 0,0 0,0 0,0 0,0 0,0 3,-3 2,-1 5,0 0,-3 0,-2 2,-3l2 2c-1,1 -2,0 -2,2 1,0 -1,0 2,0l1 0 0 -2c4,0 3,1 6,0 0,-2 0,-2 -1,-3 -2,-3 -3,-2 -5,-2 -4,0 -3,0 -3,-2 3,-1 2,1 4,0 1,0 1,-1 3,-1l1 3 1 -1c1,0 1,-1 1,-1 3,2 3,0 5,0l-2 4c0,0 0,0 0,0 0,4 0,3 2,3 0,0 0,0 1,0 0,0 0,0 0,0 0,0 0,0 0,1l1 2c0,0 0,0 0,0l3 0c-1,2 0,1 -2,2 0,2 1,1 0,2 0,1 0,-1 0,1 -1,4 -1,-1 -2,3 -1,4 0,1 -2,2 0,2 0,3 0,4 -1,2 -1,2 -3,2 2,2 1,1 3,1 1,1 0,0 1,1 0,2 0,1 1,3 -4,-2 -1,-1 -3,-1 -3,2 -1,1 -3,-1 -2,-1 -1,0 -2,-1 0,-1 1,-1 1,-2 0,-1 0,-1 -1,-3l4 0c-1,-1 0,0 -1,-1l-4 0c1,-3 3,-4 1,-6 -1,-1 0,0 -1,0 -1,1 0,0 -1,2 0,1 0,1 -1,2l0 -1c-3,-1 -2,1 -4,0l-3 -1c0,0 0,0 0,0 0,0 -1,0 -1,0 -1,-3 0,-2 0,-3 1,-2 -3,-1 -3,-1 -1,3 0,-2 0,2l0 1 0 0c0,2 0,4 0,6 1,-1 1,-1 2,-2l1 5c1,-2 -1,-2 2,-3 3,-1 1,-1 3,-2 0,0 0,1 0,1 1,2 -1,1 0,3 0,0 0,0 0,0 0,0 0,1 0,1 -1,1 -1,1 -2,1 2,0 3,0 3,2 0,1 -1,2 -2,3l1 0c1,0 0,0 1,0 0,1 0,1 0,3 -1,0 -1,0 -1,0l1 1 -1 1c0,1 1,-1 0,1l1 1c1,1 0,-1 0,1 0,0 1,-1 1,-1l0 0c2,-3 1,-1 2,-2 2,0 0,-1 3,-2l0 2c1,2 1,1 0,2 -1,0 1,0 -2,-1 -1,2 -1,2 -2,4 0,0 -1,-1 -1,-1 -2,-1 -2,0 -2,1 2,0 2,0 3,1l0 0 0 0c1,1 1,-2 1,1 -2,1 -3,0 -2,2 0,0 1,0 1,0l1 0c0,-1 5,-1 5,-2 0,0 0,0 1,0 1,0 1,0 2,-1 1,1 1,1 1,2l1 0 -1 0c1,-1 -1,-1 2,-1l1 3c2,0 1,0 2,-2 2,1 0,1 2,0l1 1 0 0c2,0 3,0 3,-1 1,0 1,-1 1,-1 0,-1 0,-1 0,-2 1,1 0,1 1,1 1,-1 1,0 1,-1 0,-1 0,0 0,-1 0,0 0,0 0,0l1 -3c0,0 0,0 0,0l3 -1c1,1 0,0 0,1 0,1 0,1 1,1 1,0 2,0 2,0 1,-1 0,0 0,-1 1,-1 -1,-1 2,-1 0,-1 0,-1 0,-1 -2,-2 -1,-2 0,-3 1,-1 1,0 2,-1 0,0 0,0 1,0l0 -1c1,0 2,0 2,1l-1 -2c-1,-1 0,-1 0,-1 3,-4 0,-4 -1,-5l-3 -2c-1,-1 -1,-1 -2,-1l1 0c1,0 1,-1 2,-1 0,0 4,3 4,2 0,0 0,-1 -1,-2 -1,-2 -1,-1 -2,-2 -1,0 0,0 -1,-1 0,0 0,-1 0,-1 -1,-1 -1,-1 -2,-2 2,-1 1,1 1,-1 -2,0 -1,0 -1,-1l0 2c-1,2 -1,1 -2,2 0,-1 0,-1 0,-2 -1,0 -1,0 -1,0 0,0 0,0 0,-1 0,0 0,0 0,0 -1,0 -1,0 -1,-1l0 -1c1,-1 -1,0 2,0 -1,-3 -2,0 -1,-4 1,-2 1,0 0,-2 -1,1 -1,0 -1,3 -2,-1 0,0 -2,-1l-1 -2c-1,-1 -1,-2 -2,-3 0,0 -1,3 -3,1 -1,-1 0,1 -1,-1 1,0 1,0 2,0 0,0 0,0 1,0 0,-1 -3,-6 -5,-6 -2,2 1,1 -2,2 -1,-2 -1,-3 1,-4 0,0 -1,0 -1,0 -3,-1 2,2 -1,0l1 -2c1,-1 1,-2 1,-3 2,1 1,0 1,2 1,-2 0,-2 2,-2l2 2c-1,1 -1,2 -2,3 2,-2 -2,0 1,-1 2,0 3,0 5,2 0,0 -1,0 -1,0l-1 0c0,0 0,0 0,0 -1,0 0,0 -1,1 -1,1 -1,1 -1,1 0,0 0,1 0,1 2,3 1,-1 4,2 1,1 0,0 0,2 3,-1 2,-1 4,1 0,-1 0,0 0,-1 0,-1 -1,-1 -2,-3l-1 0c0,-1 0,-1 0,-2l0 -1c1,0 1,0 1,0l1 -1c1,-1 0,0 1,-1 0,1 1,3 2,2 1,-1 -1,0 -1,-2l4 0c1,-2 1,-1 1,-4l0 -1c1,-1 2,0 0,-2 -1,-1 0,-1 -2,0l-1 -1 -1 1c-2,-3 -1,-1 -1,-1 4,0 2,3 3,7l-3 0c0,-1 0,-1 -1,-2 -2,-2 -4,0 -4,-4 2,-1 3,0 3,2 1,0 1,0 1,0l0 -1c0,0 0,0 1,0l-3 -4c0,0 0,0 -1,0 -1,1 -1,1 -1,3 -2,-1 0,-1 -2,-2 -1,1 -2,2 -3,2 1,-5 3,-2 3,-5 0,0 2,0 2,0 1,0 0,1 1,0 0,0 -3,-2 -4,-2 0,0 0,0 0,0l0 2c0,0 -2,1 -3,1 1,-1 1,-2 1,-2 0,-1 0,0 0,-1 -3,2 0,5 -1,9l-2 -3c-1,-2 -1,-1 -2,-1 -2,0 -3,-2 -3,2 2,0 2,-1 4,-2 0,0 0,0 0,1 0,0 0,0 0,0l1 1c0,0 0,0 0,0 0,0 0,1 0,1 -1,2 -3,2 -3,1 -1,0 -3,0 -5,1 1,0 1,0 1,0 3,2 1,0 1,1 0,1 0,1 -3,1 0,1 0,2 -1,2 -1,1 -2,0 -2,0 -2,-2 -1,-3 -1,-4z"/>
  <path class="fil1" d="M200 108c1,0 3,1 3,2 -1,2 -3,-1 -3,-2zm4 -2c-1,0 0,-1 0,0 0,0 0,0 0,0 0,0 1,0 0,0zm-2 0c-1,-1 -1,-1 -1,-2 -1,-1 -1,-1 -2,-3 1,0 0,-2 2,0l0 0c0,0 1,1 1,1 0,-3 -1,-1 1,-2 3,-1 -1,-1 2,-1 1,2 1,1 0,2 -2,2 -1,1 -2,2l2 1c0,1 0,1 0,1l-2 2c-1,-1 -1,0 -1,-1zm-39 -28l0 2 0 0 3 0c0,3 1,1 0,2 -5,1 -1,1 -6,1 -2,3 -2,1 -3,3 2,2 2,0 2,3l1 -1c1,-1 0,-1 1,-3l2 0c1,0 -1,0 2,-1l1 3 -3 1c0,1 0,0 -1,1 1,1 1,0 1,1 -2,0 -2,0 -3,0l0 -2c-1,1 -2,2 -3,3l1 0c2,1 1,0 2,1 -1,0 -1,0 -2,0 -1,1 0,0 -1,1 0,0 0,0 0,0 0,0 0,0 0,1 -1,2 -1,3 0,4 -1,1 0,0 -1,1 0,1 0,1 0,1l-1 0c-1,2 0,0 0,2 2,2 5,-1 5,-2 0,-2 0,-2 1,-4 1,-1 0,0 1,-1 0,-1 0,-1 0,-2 0,2 0,3 -1,4l-1 3c0,2 -1,2 -1,3 -1,3 1,1 2,1 1,-1 2,-2 2,-4 1,0 2,-1 3,-1 0,-1 0,0 -1,-1l0 -1 1 0 0 -2c-2,-2 0,2 -1,0 2,0 5,0 6,-2 -1,-1 0,1 -1,0 0,0 0,-1 0,-1l-1 -1c0,0 0,0 0,0l-1 1c0,-3 0,-2 2,-2 -1,-2 -1,-1 -2,-3 3,0 1,1 3,1 1,0 2,-1 3,-1 0,-4 1,-1 -1,-3l2 -1c-1,-2 0,0 -1,-2 2,1 1,1 1,3l-1 3c-1,3 1,-1 0,2 -1,1 -2,0 -3,1 1,1 1,0 1,2 2,0 1,1 0,4 2,0 1,0 3,-1 1,0 0,0 1,0 0,0 0,0 0,-1l1 -1c1,-1 -1,0 1,-1 1,0 1,1 2,3 -1,-1 -1,-1 -2,-1 -1,1 -1,3 -2,4 1,1 2,1 3,2 0,2 -1,-1 -1,2 1,1 1,1 2,1 1,0 0,0 1,0 2,3 1,1 3,1 2,1 1,1 4,2 0,-1 0,-1 0,-2l4 1c0,1 0,0 -1,2 3,0 2,-1 4,0 3,1 3,0 3,2l-3 -2c0,0 0,0 0,0 0,0 0,1 0,1 0,0 0,0 -1,0 -2,2 -1,1 -3,2 -1,3 2,2 4,4 -1,1 1,0 -2,0 1,2 2,2 2,2 2,-1 0,-1 2,-1l0 2c0,0 0,0 0,0l3 0c0,0 0,0 0,0 -1,-2 -1,0 -1,-2 0,-2 0,-2 1,-2 0,1 0,0 0,1 0,1 0,1 0,2 2,-1 1,-1 2,-2 3,3 2,-1 4,2 3,5 1,1 2,3 -1,2 -1,1 0,4 2,-1 0,-1 2,-2l1 0 -2 3c0,1 -1,1 -2,2 1,1 3,0 3,3 0,0 0,0 0,0 0,1 1,0 0,1l-2 -1c-1,0 -1,1 -1,1 -1,0 0,-1 -1,0 -1,1 -1,0 -1,2 0,0 0,0 0,0 0,0 1,0 1,0 1,1 1,0 1,1l-3 0c0,1 0,1 0,2 1,0 1,0 1,0l0 -1c3,0 4,2 6,-1l1 -3c0,-1 1,-1 2,-2 0,-2 0,-2 -1,-3l1 0c1,0 1,0 1,-1 -1,-1 0,0 -1,-1 -3,-1 -1,0 -3,-3 0,-1 -1,0 -1,-2 0,-2 1,1 0,-2l0 -2c-3,0 0,-1 -4,-1 0,-3 0,0 1,-1 2,0 3,-1 6,-1 0,0 0,0 1,0 2,1 2,2 2,3l1 0c0,-2 0,-1 -1,-2 0,-1 0,0 0,-1l0 -1 0 0c-4,0 -1,0 -2,-2 -2,0 -1,0 -3,0 1,-1 2,-1 3,-1 -1,-2 -1,-4 -2,-5 -2,-3 -1,1 -1,-4 -4,0 -2,3 -7,-2l-1 -2c0,0 0,0 0,0l-1 0c0,-1 0,-1 0,-1 0,-3 0,-1 0,-4 -1,-1 0,0 -1,-1 -1,1 0,0 -1,2 0,0 0,0 0,0 -3,-1 1,-1 -3,-1 1,2 0,1 1,2l-1 3c-3,0 -2,-1 -3,1 0,-3 0,-1 1,-4 -1,0 0,0 -2,0 1,0 0,0 1,-1 -2,0 -1,-1 -2,1 -1,1 -1,2 -2,3 1,0 2,1 3,1 0,1 0,0 1,2 1,3 0,1 2,2 2,0 1,0 2,3 0,1 0,0 0,1 -1,2 0,1 -1,1 -3,0 -1,0 -2,-2 -2,0 -2,1 -4,1 0,0 -2,0 -2,0 -1,-1 -1,-1 -1,-1 3,-2 3,0 5,-1 0,-2 0,-1 -1,-2l-2 0c-3,-1 -2,2 -3,-1 0,0 0,-2 -3,-2l0 -1c3,0 3,-2 1,-4l-2 -2c0,0 2,-1 3,-1 1,1 0,1 1,3 0,1 -1,0 1,0 0,0 -1,0 0,0 2,-1 0,-1 2,-1l0 -2 -1 0c0,-1 0,-1 0,-1 0,0 0,3 -3,-1 -4,1 -3,1 -7,-1l0 0c0,-1 1,-2 1,-2l2 -3c-3,0 -2,0 -3,2 0,-1 0,-1 0,-2 -1,-2 -1,-1 -3,-3l-2 0c0,0 0,0 0,0 -5,6 -3,1 -5,4 0,-1 1,-4 -5,-3 -4,2 2,1 -1,1l0 -1z"/>
  <path class="fil4" d="M173 145c-1,-1 -1,-1 -1,-2 1,1 1,0 1,1 0,1 0,0 0,1zm23 -3c-1,1 0,0 -1,1 1,-2 0,-1 1,-1zm-32 -7c0,0 0,-1 0,-3 1,0 3,1 4,1 -1,2 -2,3 -4,2zm17 -6l2 -2 4 1c1,1 1,0 1,1 0,1 0,1 1,2 -1,2 0,2 -2,4l-2 0c-1,-1 -1,-1 -3,-1 1,2 1,1 1,3l-4 -2c-1,-1 -1,-1 0,-4 2,1 1,-1 1,2l3 0c0,-1 -1,-2 -1,-2 0,-1 1,0 0,-1 0,0 0,0 -1,-1zm-22 -13c0,2 0,0 0,1 1,2 0,1 1,2 0,0 0,0 0,1 -3,3 -3,2 -3,7 1,0 3,0 4,-1 1,-2 0,-1 2,-2 3,-1 4,-1 6,-2 -1,3 -2,1 -6,4 1,-1 2,-1 3,-1 4,-1 3,0 3,0 -2,1 -5,1 -7,2 0,0 -4,3 -4,3 -3,3 -5,8 -7,9 3,0 1,1 2,3 -2,1 1,1 -2,1 2,0 0,0 1,1 -1,1 -1,1 0,1 -1,1 0,0 0,1l0 1c2,-1 2,-2 2,-3 4,-1 6,0 9,-1 1,0 0,-1 0,-4 2,2 1,1 2,1l1 -1c0,0 0,0 0,0 0,0 0,0 0,-1 0,0 0,0 1,0l-1 -2c3,0 1,0 3,1 0,0 0,0 1,0l-1 -1c0,-1 0,-1 -1,-2 3,-1 1,-1 2,-3l1 1 1 0c0,0 0,0 0,0 0,-1 -1,-2 2,-1 0,1 0,0 0,0 4,0 3,4 1,5 0,0 -1,1 0,-2l-1 1 0 0c-1,0 -1,0 -2,0 0,0 0,0 0,0 1,2 0,1 0,3 0,0 0,1 0,2l-1 -1c0,0 0,-1 0,-1 0,0 -1,0 -1,0 0,2 0,4 0,6 0,2 -1,0 1,2 1,-1 0,0 1,-1l0 0c1,0 1,0 1,0 0,1 0,1 0,2 0,0 1,0 1,0 0,0 0,0 0,0 0,0 0,0 0,0 3,0 0,-1 0,-3 2,-1 2,0 2,1 0,-4 0,-2 3,-4 1,0 0,0 1,-1 1,0 1,0 1,0 1,0 1,0 1,0l1 -1c1,2 1,1 2,3 1,0 1,2 1,3 2,0 2,0 3,0l-1 2c0,2 1,2 0,2 0,1 1,1 2,1l2 -2c0,0 0,0 0,0 0,0 1,0 1,-1 -1,0 -2,0 -2,-1 -1,0 -1,-1 0,-2l0 -1c1,0 1,1 1,1l2 0 2 0c1,0 0,0 1,0 0,-1 0,-1 0,-2l-1 0 0 -1c0,-5 1,1 2,-4l1 -2c1,0 1,1 1,0 -1,-2 0,0 -1,-1 0,-1 0,1 -1,-1 -1,1 0,0 -1,1 -1,-6 0,-3 0,-6l0 -3 -2 0c0,0 0,0 0,0 0,1 -1,1 -1,1 -1,0 0,0 -1,0 0,1 0,1 1,2 -3,0 -4,2 -4,-2l0 -1 0 -1c1,-1 1,0 1,-1 -2,0 -1,0 -3,-1 -2,0 0,0 -2,1 1,-2 0,-2 -1,-3 -2,-1 -3,-2 -4,-1 0,2 1,1 2,2 1,0 1,1 1,2 -3,0 -2,-1 -4,-1 -2,-2 0,-1 0,-5 -2,0 -6,0 -7,1 1,1 2,1 2,2 0,0 0,0 -1,0 0,0 0,0 -1,0 0,0 -1,0 -1,-1 -2,-1 -1,-1 -2,-3l0 -1c-2,1 -2,1 -3,1 -1,1 0,1 -2,1 0,3 0,2 1,3 -1,-1 -1,0 -3,0 0,-1 0,0 0,-1 0,0 0,0 0,0 -3,-3 -1,-3 -3,-4 -2,0 -1,0 -1,1z"/>
  <path class="fil5" d="M326 206c2,0 3,0 4,1 1,5 0,22 0,28 0,3 -1,5 -4,5l0 2 11 0c2,0 0,0 1,0 -1,-5 -5,3 -5,-13 0,-6 0,-12 0,-17 1,1 8,20 9,23 2,2 2,6 4,7 1,-1 2,-2 2,-3l11 -27c1,-1 1,-1 1,-1 0,5 0,10 0,15 0,13 2,14 -5,14l0 2 17 0 0 -2c-1,0 -4,1 -4,-1 0,-7 -1,-28 0,-32 2,0 2,-1 4,-1l0 -1c-15,0 -11,-2 -14,5 -2,3 -8,19 -8,20l-1 0c0,-2 -4,-11 -5,-13l-4 -10c-2,-4 -3,-2 -14,-2l0 1z"/>
  <path class="fil6" d="M236 206c4,0 5,1 5,4l0 27c0,4 -2,3 -5,3l0 2 17 0 0 -2 -3 0c-2,-3 -1,-13 -1,-17l19 0c0,3 1,13 0,16 -1,2 -2,1 -4,1l0 2 17 0 0 -2c-3,0 -5,1 -5,-4l0 -26c0,-3 1,-4 5,-4 -1,-1 0,-1 -2,-1l-15 0 0 1c6,0 4,2 4,15l-19 0c0,-12 -2,-15 4,-15l0 -1 -15 0c-2,0 -2,0 -2,1z"/>
  <path class="fil7" d="M113 171l-5 0c0,-2 0,-13 1,-14 2,-2 12,-1 12,6 0,5 -2,8 -8,8zm8 16l2 4c3,0 10,0 12,0 -1,-2 0,-1 -2,-2 -1,0 -1,0 -2,-1 -3,-3 -6,-10 -9,-14 -1,-1 -1,0 -1,-1 8,-1 12,-11 3,-16 -6,-4 -19,-2 -27,-2l0 1c6,0 4,3 4,17 0,17 2,16 -5,16l0 2 18 0c-1,-3 -1,-1 -5,-2l-1 -15c3,0 4,-1 6,0 1,1 2,3 3,4 1,3 3,7 4,9z"/>
  <path class="fil4" d="M161 104c2,-1 0,0 1,1 0,0 -4,1 -4,2 1,1 0,0 2,1 2,1 -1,0 1,1 2,0 1,-1 2,1l3 -1c0,0 0,0 0,1l0 1c1,-1 1,0 1,1l0 1c0,0 0,0 0,0 3,0 3,-2 5,-2l0 -2c1,0 1,0 2,0 1,-1 1,-1 2,-2 0,0 1,1 1,1l1 1c2,2 1,1 3,2 1,1 1,2 1,3 1,-1 0,0 2,-1 -1,-1 -1,-1 -2,-2 2,0 2,0 3,1 2,-2 1,-2 4,-1 0,3 -1,1 1,4 -1,2 -1,1 -1,3l3 1c9,2 7,2 8,7l1 1c-1,1 -1,1 -1,3 0,3 -1,1 0,3 0,0 0,1 2,0 0,2 0,1 -1,2l3 1c0,-1 0,0 0,-1 0,-1 0,-1 0,-2l3 0c0,-1 0,0 -1,-1 0,0 -1,0 -1,0 0,0 0,0 0,0 0,-2 0,-1 1,-2 1,-1 0,0 1,0 0,0 0,-1 1,-1l2 1c1,-1 0,0 0,-1 0,0 0,0 0,0 0,-3 -2,-2 -3,-3 1,-1 2,-1 2,-2l2 -3 -1 0c-2,1 0,1 -2,2 -1,-3 -1,-2 0,-4 -1,-2 1,2 -2,-3 -2,-3 -1,1 -4,-2 -1,1 0,1 -2,2 0,-1 0,-1 0,-2 0,-1 0,0 0,-1 -1,0 -1,0 -1,2 0,2 0,0 1,2 0,0 0,0 0,0l-3 0c0,0 0,0 0,0l0 -2c-2,0 0,0 -2,1 0,0 -1,0 -2,-2 3,0 1,1 2,0 -2,-2 -5,-1 -4,-4 2,-1 1,0 3,-2 1,0 1,0 1,0 0,0 0,-1 0,-1 0,0 0,0 0,0l3 2c0,-2 0,-1 -3,-2 -2,-1 -1,0 -4,0 1,-2 1,-1 1,-2l-4 -1c0,1 0,1 0,2 -3,-1 -2,-1 -4,-2 -2,0 -1,2 -3,-1 -1,0 0,0 -1,0 -1,0 -1,0 -2,-1 0,-3 1,0 1,-2 -1,-1 -2,-1 -3,-2 1,-1 1,-3 2,-4 1,0 1,0 2,1 -1,-2 -1,-3 -2,-3 -2,1 0,0 -1,1l-1 1c0,1 0,1 0,1 -1,0 0,0 -1,0 -2,1 -1,1 -3,1 1,-3 2,-4 0,-4l-1 -2c1,-1 2,0 3,-1 1,-3 -1,1 0,-2l1 -3c0,-2 1,-2 -1,-3 1,2 0,0 1,2l-2 1c2,2 1,-1 1,3 -1,0 -2,1 -3,1 -2,0 0,-1 -3,-1 1,2 1,1 2,3 -2,0 -2,-1 -2,2l1 -1c0,0 0,0 0,0l1 1c0,0 0,1 0,1 1,1 0,-1 1,0 -1,2 -4,2 -6,2 1,2 -1,-2 1,0l0 2 -1 0 0 1c1,1 1,0 1,1 -1,0 -2,1 -3,1 0,2 -1,3 -2,4z"/>
  <path class="fil6" d="M305 241l-3 0c-11,0 -11,-22 -7,-29 3,-8 14,-7 17,-1 4,7 4,30 -7,30zm-21 -19c0,6 0,10 5,15 5,5 10,6 16,6 9,0 18,-10 18,-18 0,-6 -2,-11 -6,-16 -2,-1 -4,-2 -6,-3 -7,-3 -15,-2 -21,3 -3,3 -6,8 -6,13z"/>
  <path class="fil7" d="M161 189c-1,1 -1,0 -1,2 1,0 11,0 12,0 0,-2 0,-1 -2,-2l-1 0c-1,-1 -1,-1 -1,-2 -2,-2 -1,-24 -1,-28l10 11c2,2 16,18 17,19l2 2 2 0 0 0 0 -3c1,-5 0,-23 1,-27 0,-4 1,-4 4,-5l0 -1 -12 0 0 1c6,0 5,3 5,9 0,5 0,10 0,15l-22 -25c-1,-1 -3,0 -7,0 -2,0 -5,0 -7,0 0,3 4,-2 5,5 0,4 0,23 -1,26 0,2 -1,3 -3,3z"/>
  <path class="fil5" d="M376 206c4,0 5,1 5,5 0,6 0,26 -1,29l-4 0 0 2 31 0c2,0 2,-1 2,-2l2 -9c-3,0 -1,2 -6,6 -4,4 -9,3 -15,3 -1,0 -2,0 -2,-1l0 -15c9,0 12,0 14,8l1 0 0 -17c-3,0 -1,0 -2,2 -2,5 -8,5 -13,5l0 -14c0,-2 3,-2 8,-2 6,0 9,5 12,8 1,1 0,1 2,1l-3 -8c0,-2 0,-2 -2,-2l-29 0 0 1z"/>
  <path class="fil8" d="M216 210c0,-1 1,0 0,0 0,0 -1,0 0,0zm-4 -1c0,1 1,1 -1,1 1,-1 0,-1 1,-1zm0 0c1,0 -1,0 2,0 1,0 1,0 1,1 -1,0 -2,0 -3,-1zm-11 0l0 0c0,0 0,0 0,0zm18 -2c-8,0 -3,0 -6,-1 1,-1 1,-1 3,0 3,1 2,-1 3,1zm5 -2c-1,0 0,0 -2,0l0 0 2 0zm8 0c-3,0 -1,0 -2,-1 3,0 1,0 2,1zm-8 0c0,-1 0,-1 1,-1l0 1 -1 0zm-15 -4l0 0c0,0 0,0 0,0zm12 -3l1 0 -1 0zm0 0l0 -1 0 1zm-4 0l-2 0c1,-1 -1,-1 1,-1 1,0 0,0 1,1zm4 -1c-1,0 -2,1 -3,1 1,-2 1,-1 0,-2l3 0c-1,1 -1,0 0,1zm-9 -5c0,0 1,0 1,0l1 1c-3,0 -1,0 -2,-1zm-4 -3c2,0 1,-1 2,1 -2,0 0,0 -2,0l0 -1zm-9 -1l0 0zm0 0l-1 0 0 3c2,0 1,0 1,1l1 0c1,-1 -1,-1 2,-1 1,0 1,1 1,1l-1 0c1,1 4,2 6,2 0,-1 1,-1 -4,-1l0 -1c4,0 5,1 8,1l-2 1 1 1c3,1 -1,-1 2,0 0,1 0,1 0,3 -2,-1 -2,-1 -2,0 2,1 1,1 3,2 -3,0 -4,0 -8,0l1 0c1,1 1,1 2,1 -1,0 -1,1 -1,1l0 1c0,2 0,0 1,3 1,5 -3,1 -6,3 1,0 4,0 5,0 2,0 2,1 3,2 -2,1 -1,0 -4,0l-2 -1c0,0 -1,0 -1,0 -1,-1 0,1 -1,-1l-1 1c-1,-2 0,0 -1,-2 0,0 0,0 0,0 0,0 0,0 0,-1l-2 -2 3 0c-1,-1 -1,-1 0,1l-4 0 -1 -1c0,0 0,0 1,0 -1,2 -1,0 -1,2 -1,0 0,0 0,0 2,1 2,0 2,2 -1,0 0,1 -2,0 1,2 0,1 0,1 -2,0 -1,1 -2,-1 -1,1 -1,-1 -1,1 1,1 1,0 0,1 -1,0 -1,0 -2,0 1,1 0,1 1,1 2,0 1,-1 2,0l0 1c0,0 0,1 0,1 0,0 0,0 0,0 2,-1 2,0 1,-2 0,0 0,0 1,0 0,1 2,0 5,1 -1,0 0,0 -1,0 -1,0 -3,-1 -3,2 3,0 6,-2 11,-2 7,0 0,1 5,0 1,0 1,1 2,0 2,-1 0,-1 3,-2 3,-2 7,-1 8,-1 1,-1 1,-1 2,-2 2,-1 6,1 6,-1 0,-4 -2,1 -3,-2l1 -1c-3,-1 0,-1 -4,-1 -3,1 0,0 -3,-1l1 0c1,-1 0,0 1,-1 -1,-1 -2,-1 -3,-1 1,-2 -1,-1 4,0 0,0 0,-1 0,-1 0,0 1,0 1,0 1,-1 0,-1 2,-1 -1,-3 1,-2 -7,-2 0,-2 -1,0 1,-1l2 -1c0,0 0,0 0,0 3,-1 1,0 2,-1 -4,0 -1,0 -4,-1 -4,-2 -5,0 -8,-1 -3,0 -3,0 -5,0 1,-2 0,0 2,-2 -2,-1 -2,-1 -4,-1l-5 0c0,2 0,1 0,1l-3 0c6,0 -2,-2 -4,-1z"/>
  <path class="fil7" d="M413 156c4,0 4,1 4,5 0,4 1,26 -1,28 -2,1 -3,-1 -3,2l31 0c1,-2 1,-4 2,-5 0,-2 1,-4 1,-6 -2,0 -2,1 -3,3 -5,7 -9,6 -18,6 -1,0 -1,0 -1,-1l0 -15c15,0 10,6 13,8 1,0 1,0 1,-1l0 -16 -1 0c-1,8 -9,7 -13,7l0 -14c0,-2 1,-1 5,-1 5,0 7,1 9,3 6,4 4,6 7,6 0,-4 -3,-7 -3,-10l-30 0 0 1z"/>
  <path class="fil6" d="M416 215c0,0 1,3 1,3 1,1 1,1 1,2 0,0 1,1 1,1 2,2 4,3 7,4 6,3 12,4 12,11 0,5 -12,9 -18,-4 -1,0 -1,-1 -1,-2 -1,-2 0,-1 -2,-1 -1,2 -1,10 -1,12 0,3 3,0 4,0 3,0 4,2 8,2l5 0c5,0 11,-5 11,-10 0,-7 -2,-10 -10,-13 -2,-2 -4,-2 -7,-3 -2,-2 -5,-3 -5,-6 0,-6 10,-8 16,1 3,5 1,5 3,5 0,-19 1,-11 -3,-11 -1,0 -16,-6 -20,4 -1,1 -2,3 -2,5z"/>
  <path class="fil7" d="M211 173c0,14 14,22 29,18 3,-1 4,-2 7,-4 0,-7 -1,-11 3,-11l0 -2c-2,-1 -11,0 -14,0 -1,0 -1,0 -1,2 6,0 5,1 5,8 0,9 -22,11 -21,-11 0,-6 1,-13 6,-16 7,-4 15,0 18,7 2,3 1,3 3,3l0 -11c0,-1 2,-2 0,-1 -1,0 -2,1 -3,1 -2,0 -14,-5 -24,1 -3,2 -3,3 -5,5 -2,3 -3,7 -3,11z"/>
  <path class="fil7" d="M20 163c0,7 2,9 9,12 7,3 11,3 11,10 0,5 -11,7 -16,0 0,-1 -1,-2 -2,-3 -2,-4 0,-4 -2,-4l0 13c2,0 2,-1 4,-1 1,0 2,1 4,1 9,2 18,-1 18,-9 0,-12 -8,-12 -16,-16 -9,-4 -5,-10 0,-10 3,0 6,0 9,4 1,2 3,4 3,7l2 0 0 -13c-5,1 0,3 -7,1 -7,-2 -17,-1 -17,8z"/>
  <path class="fil7" d="M72 172l-4 0c0,-5 -1,-11 0,-15 5,-2 13,-1 13,7 0,5 -4,8 -9,8zm-12 -15c1,3 1,28 0,32 -5,1 -4,-1 -5,1 1,1 0,1 1,1l16 0c1,0 0,0 1,-1 -1,-2 0,0 -5,-1 -1,-4 0,-11 0,-15 4,0 13,0 16,-2 7,-5 5,-16 -8,-17 -6,-1 -14,0 -21,0 1,2 2,0 5,2z"/>
  <path class="fil9" d="M155 123l0 0zm-3 -18c0,-1 0,-1 1,-1l2 -1c3,1 -1,6 -4,6 0,-2 0,-2 1,-4zm1 -12l1 -2 1 0c0,3 -1,1 -2,2zm0 3l-1 3c-1,0 -2,0 -2,0l1 3c0,1 0,1 -2,3 0,-1 0,-1 0,-1 -1,-1 -2,-2 -4,-2 0,1 1,-2 0,0 0,2 0,1 0,2 0,0 2,-1 3,0 1,1 0,1 0,3 1,0 1,0 2,1l-1 2c-2,-1 0,0 -1,-1 0,0 0,0 0,0 -2,-1 1,0 -1,-1 0,2 0,2 2,2 0,2 -1,2 0,4 1,2 0,2 -1,4 0,1 -1,2 -1,3 -2,0 -3,0 -4,-2 -1,0 0,-1 -1,0l0 1c0,2 1,0 -1,1 0,1 1,1 1,2 0,0 1,1 1,1 1,1 0,1 1,2 1,1 1,-1 2,1 1,1 1,2 1,2 -1,0 -3,-2 -5,-3 0,1 -1,2 -2,2l-1 0c1,0 2,0 3,1l2 2c1,1 5,1 2,5 -1,0 -1,0 0,1l1 2 -1 2 1 1c1,-1 1,-3 1,-5l1 2c1,-2 0,-2 2,-3 1,2 -1,4 -1,5 1,1 0,1 1,1l0 -2c0,-1 0,-1 0,-1 2,-1 4,-6 7,-9 0,0 4,-3 4,-3 2,-1 5,-1 7,-2 0,0 1,-1 -3,0 -1,0 -2,0 -2,1 3,-3 4,-1 5,-4 -2,0 -3,1 -6,2 -2,0 -1,0 -3,1 0,1 -2,1 -3,2 0,-5 0,-4 3,-7 0,-1 0,-1 0,-1 -1,0 -1,0 -2,1 0,0 0,0 0,0 -1,2 0,1 -2,2 -1,0 0,0 -1,1 0,-2 1,-1 0,-2l2 -2c-1,-1 -1,-1 -2,0 -3,1 -1,3 -4,3 -1,0 -1,0 -1,0 0,-3 -1,-1 1,-2l-1 -3c0,-1 0,0 0,-1 0,-2 0,0 1,-2 0,0 0,0 0,-1 1,0 1,-1 1,-2 0,-1 0,0 1,0l0 0 1 -1c0,-1 1,-2 3,-2l0 0c2,1 0,1 2,1l1 -1c-2,-1 -1,0 -2,-1 0,-1 4,-2 4,-2 -1,-1 1,-2 -1,-1 -1,0 -3,2 -2,-1 0,-1 1,-1 1,-3l1 -3c1,-1 1,-2 1,-4 0,1 0,1 0,2 -1,1 0,0 -1,1 -1,2 -1,2 -1,4 0,1 -3,4 -5,2 0,-2 -1,0 0,-2l1 0c0,0 0,0 0,-1 1,-1 0,0 1,-1 -1,-1 -1,-2 0,-4 0,-1 0,-1 0,-1 0,0 0,0 0,0 1,-1 0,0 1,-1 1,0 1,0 2,0 -1,-1 0,0 -2,-1l-1 0c1,-1 2,-2 3,-3l0 0 -1 1c-1,-1 -1,-1 -2,-1 -1,1 0,0 0,2l-1 1c0,0 0,0 0,0l-1 -2c-2,0 -3,0 -5,0l1 -4c-2,0 -3,1 -5,1 -2,-4 1,-3 -2,-3 1,3 -1,3 0,6 1,-1 -1,0 1,-1 2,-1 2,-1 3,1 1,0 1,1 3,1 0,1 0,1 0,1 1,3 2,1 2,5z"/>
  <path class="fil10" d="M142 206c0,0 2,1 0,1 0,0 -1,0 0,-1zm-17 0l0 0c0,0 -1,0 0,0zm18 -1l0 1c0,-1 0,-1 0,-1zm-6 1c1,-1 0,-1 2,-1l-2 1zm-12 -4l0 0c0,0 -1,0 0,0zm-4 -1l-2 0c1,0 -1,0 1,0 1,0 0,0 1,0zm11 0c-4,-1 -1,0 -5,0l-2 0c1,0 2,-1 3,-1l3 0 1 1zm-21 -1l0 0zm8 -1l0 0c0,0 0,0 0,0zm-4 0c1,1 0,0 1,1 -1,0 -1,0 -1,-1zm-4 1l2 -1c1,0 0,0 1,0 1,0 0,0 1,0 -3,1 -1,1 -4,1zm14 0l-2 0c1,-1 1,-1 1,-2l1 0c0,2 1,1 0,2zm-16 -2l0 0c0,0 0,0 0,0zm3 0c1,-1 2,0 1,0 0,0 -1,0 -1,0zm6 -3l0 0c0,0 0,0 0,0zm-10 2l-2 1c0,-1 0,-1 0,-2l1 0c2,-1 6,-2 8,-1 -3,0 -2,1 -4,3 -2,0 -1,-1 -3,-1zm31 -8c0,0 0,0 0,1 1,0 1,0 1,0 -3,0 -1,0 -1,-1zm3 0c0,0 3,0 1,0 -1,0 -2,0 -1,0zm-36 7c-3,0 -2,1 -4,0l-3 -1c1,2 1,1 0,3 1,0 1,0 2,0 0,0 0,0 0,0 1,0 1,0 1,0 -2,1 0,1 -3,0l0 1c3,1 5,1 8,1l-3 1c2,0 6,0 7,0 3,1 1,1 3,1 1,0 2,-1 3,-1 -1,2 1,1 -4,2l0 1c2,0 3,-1 4,0 1,1 0,-1 0,1 0,0 1,0 1,0 3,1 3,0 6,2l12 3c2,0 4,2 7,1l-4 -2c0,0 1,-1 2,-1 3,1 0,1 1,1 0,-1 1,-1 0,-1 3,-1 2,0 2,-3 -4,0 0,-1 -3,1l-2 -1c-1,-1 -1,-1 -1,-1 -1,1 -1,1 -1,2l2 0c0,0 0,0 0,0 0,2 -1,1 -2,1 -5,2 2,2 -5,1l0 0c0,0 -1,-1 -1,-1l-1 -5 2 -1c0,0 0,2 0,-1l-1 0c0,0 -2,0 -2,0 0,-2 0,-3 -1,-5 3,1 3,1 4,0 -2,0 -7,0 -9,-1l8 0c-2,0 -1,1 -1,0 0,-1 1,-1 1,-1 2,0 2,0 4,0l0 1 1 0c0,-1 -1,-1 1,-1 3,1 1,1 0,1l2 1c2,0 -1,-1 1,0 3,-1 3,-4 4,-8 -3,0 -8,0 -12,1 0,0 -1,0 -1,0 0,0 0,0 0,0 1,1 1,1 2,1 2,1 1,0 2,2 -2,0 -9,0 -12,0l-2 -4c-1,1 -1,0 -2,1 1,2 1,0 2,2 1,0 1,0 1,1 -1,0 -1,0 -3,0 -3,0 1,0 -2,0l0 1c1,1 1,1 2,1 -1,1 1,0 -1,1l-2 0c-2,-1 -4,-1 -5,-1l-4 1c-2,0 0,0 -1,0 -1,2 -3,-1 -4,1 1,1 0,1 2,1l2 0z"/>
  <path class="fil7" d="M253 156c6,0 7,7 9,11l5 10c1,3 6,14 7,15 2,-1 1,0 2,-2 1,-1 1,-1 1,-2 1,-2 2,-4 3,-5l4 -10c2,-4 6,-12 8,-15 3,-3 4,0 4,-3l-12 0 0 1c7,1 3,6 -1,14l-6 12c0,-4 -10,-21 -10,-25 1,0 3,-1 4,-1l0 -1 -18 0 0 1z"/>
  <path class="fil7" d="M370 156c2,0 5,0 5,2l0 29c0,3 -2,2 -5,2l0 2 31 0c2,0 4,-9 4,-11 -3,0 -1,1 -5,6 -5,4 -11,3 -18,3 0,-2 0,-2 0,-4l0 -24c0,-4 1,-5 5,-5l0 -1 -17 0 0 1z"/>
  <path class="fil7" d="M327 156c4,0 5,0 5,4l0 26c0,1 0,1 0,3 -3,0 -4,-1 -5,2l33 0c0,-3 2,-8 2,-11 -3,0 0,1 -5,6 -5,4 -9,3 -16,3 -1,0 -1,0 -1,-1 0,-6 -1,-27 0,-31 3,-2 4,0 4,-2l-17 0 0 1z"/>
  <path class="fil7" d="M302 156c3,0 4,0 4,4l0 26c0,2 0,3 -2,3 -2,1 -3,-1 -3,2 4,0 15,1 18,0 -1,-3 1,-1 -5,-2 -1,-5 0,-25 0,-31 0,-1 1,-1 2,-2 2,0 2,1 3,-1 -3,-1 -14,0 -17,0l0 1z"/>
  <path class="fil11" d="M145 163c0,8 -1,17 -1,24 -1,4 -1,7 -4,8 -1,1 0,0 0,1 5,0 10,0 15,0 0,0 0,-1 0,0 0,0 0,-1 -1,-1 -5,-2 -2,-1 -4,-7 2,-3 1,-11 1,-15l0 -8c-1,-3 0,-5 -1,-8 -2,0 -2,-1 -3,2 -1,4 -1,7 0,10 0,2 0,2 0,4 -1,1 1,-1 -1,0 -1,1 0,0 0,1 0,-2 1,-24 -1,-11z"/>
  <path class="fil4" d="M119 57l0 -1c2,1 1,3 2,4 -1,1 0,0 -1,1 0,0 0,0 0,0l-2 2c-3,-3 0,-1 -2,-3 -1,0 0,0 -1,0 0,1 0,1 -1,1 2,1 1,0 3,1 -1,4 0,2 1,4l-1 2c3,1 2,1 5,3 0,1 0,1 0,1 0,0 0,0 0,0 0,2 1,2 2,4l-3 -3c-1,-1 0,0 -1,0 0,1 0,0 0,1 1,1 1,1 1,2 0,0 0,1 0,1 0,1 0,0 0,0l1 0c1,1 1,1 2,1 1,1 0,-1 1,1l1 0c0,-1 -1,-1 -1,-4 0,-3 -2,-1 -2,-4 0,-2 1,-2 1,-4l3 0c1,1 0,1 2,1 0,0 0,0 0,0 0,0 0,1 1,1 -1,0 -1,1 -1,1l1 1 0 0c1,-1 1,-1 1,-2l0 0c0,-1 -1,0 0,-1 2,0 3,0 3,2l1 1 1 0 0 0c1,-2 1,-1 2,-1l2 -1c0,2 1,2 0,3 1,-1 1,-1 1,-2 -1,-2 -2,-1 -4,-3l-1 1 -1 -2c0,0 1,0 1,0l0 -3c2,0 4,-1 3,-3 -2,1 -1,0 -1,3 -4,-2 0,-3 -4,-3l0 2c0,0 1,-1 2,0 0,1 -1,2 -3,3 0,0 -1,0 -2,0 2,2 2,0 2,2 -2,0 -2,0 -3,-2 1,-2 1,-1 2,-3 -2,1 0,1 -2,1 -2,0 -1,0 -3,0 -2,0 -1,1 -3,-1l4 -1 2 1 1 -2c-2,-1 -3,-1 -3,-3l3 0c0,0 0,0 0,0l0 -2c0,0 -2,2 -4,-1 2,-1 0,0 1,-2 -2,0 0,0 -3,1 -3,0 1,0 -2,0 -1,1 0,1 -2,0 0,1 0,0 1,2l-3 0 0 2z"/>
  <path class="fil4" d="M163 78l0 1c3,0 -3,1 1,-1 6,-1 5,2 5,3 2,-3 0,2 5,-4 0,0 0,0 0,0 -1,-1 -2,0 -2,-1 2,-3 1,0 3,-1 0,0 -2,0 -1,-3 0,-2 2,-2 4,-2 -1,2 -2,2 -2,3 1,1 2,0 3,1 1,-2 1,-1 1,-4 0,0 1,1 3,1l-2 -2c-1,0 0,0 -1,0 1,-2 1,-2 2,-3 -3,0 -2,0 -5,1l0 -3c-3,0 -3,-1 -4,-1 -1,0 1,-1 -1,1l-1 -1c-1,-1 0,0 -2,0 0,0 0,0 0,0l-2 0 -1 -2c-2,1 -2,2 -3,1 0,1 1,1 2,3 0,2 0,0 -1,2 -1,3 0,0 0,3 -2,-1 -1,-1 -4,-1 0,0 0,1 0,1l0 1c0,0 0,0 0,0l3 1c2,1 1,0 3,1 -1,2 -3,2 -4,3 0,2 -1,1 1,2z"/>
  <path class="fil1" d="M166 109l0 0zm0 0l-3 1c0,2 0,1 -2,2 -1,1 -1,1 -2,2l0 2c0,-1 -1,-1 1,-1 2,1 0,1 3,4 0,0 0,0 0,0 0,1 0,0 0,1 2,0 2,-1 3,0 -1,-1 -1,0 -1,-3 2,0 1,0 2,-1 1,0 1,0 3,-1l0 -1 3 0c-1,2 -1,1 -3,2 1,2 0,2 2,3 0,1 1,1 1,1 1,0 1,0 1,0 1,0 1,0 1,0 0,-1 -1,-1 -2,-2 1,-1 5,-1 7,-1 0,4 -2,3 0,5 0,-2 0,-1 0,-3 0,-1 1,-3 3,-3l4 1c2,1 0,1 2,1 0,-2 0,-1 1,-3 -2,-3 -1,-1 -1,-4 -3,-1 -2,-1 -4,1 -1,-1 -1,-1 -3,-1 1,1 1,1 2,2 -2,1 -1,0 -2,1 0,-1 0,-2 -1,-3 -2,-1 -1,0 -3,-2l-1 -1c0,0 -1,-1 -1,-1 -1,1 -1,1 -2,2 -1,0 -1,0 -2,0l0 2c-2,0 -2,2 -5,2 0,0 0,0 0,0l0 -1c0,-1 0,-2 -1,-1l0 -1c0,-1 0,-1 0,-1z"/>
  <path class="fil12" d="M142 49c1,-1 1,-1 3,-1 0,1 -1,0 0,1 4,0 5,-3 7,-4 1,-1 1,0 2,0 -1,1 -3,2 -4,2 1,2 1,2 3,2 0,2 -1,1 0,3 2,-2 1,-5 5,-6 3,0 3,3 3,4 0,1 0,0 1,1 0,0 -1,-1 0,-2 1,-1 1,0 3,0 1,0 1,0 1,-1 -1,-1 -1,0 -3,-1 0,-1 -1,-2 -1,-3l1 -1c-1,-1 -1,-1 -2,-2 -1,0 -2,-1 -2,-1 -2,1 2,1 -1,2 -2,1 -3,0 -4,-1 0,-2 1,-3 2,-4l-1 -2c0,0 0,0 0,0 0,0 0,1 0,1 0,1 -1,1 -2,1 -1,-1 -1,-2 -1,-3 -2,0 -1,1 -3,1 -1,1 -1,0 -2,2 -1,1 0,0 -1,2 0,3 0,-1 -1,4 0,0 0,0 0,0 0,0 0,0 0,0 -4,3 -2,-1 -5,2 1,1 1,0 2,2 0,2 -1,1 0,2z"/>
  <path class="fil2" d="M131 69c1,1 2,1 0,2l0 -2zm-6 6l1 1c3,-1 -3,2 1,0l2 -1c1,0 0,0 1,0 1,0 0,0 1,-1 2,1 1,1 2,2 0,-1 0,-2 1,-1 2,1 1,1 1,3 2,0 2,-1 3,1 -1,1 0,0 -2,1 0,0 -1,0 -2,0 -1,0 0,0 1,2l-3 2c0,0 0,0 -1,0 -1,-1 -1,-1 -3,-2 0,0 -1,2 -2,2 -2,1 -1,0 -3,2 1,0 0,0 2,1 1,1 1,1 1,1 3,0 3,-2 3,-2 6,0 5,-3 7,-1 0,1 -1,1 -2,2l3 0 0 -2 2 0 0 2c0,0 0,0 0,0 0,0 0,0 0,0 2,1 0,1 2,1 1,-2 2,-4 1,-6 -1,0 -1,0 -2,-1l-2 0c0,0 -1,0 -1,0 0,0 0,0 0,0 1,-2 1,0 1,-2 1,-2 0,-2 0,-3 0,-1 1,-3 0,-4l0 2c-2,-1 -2,-1 -2,-3l-1 0 -1 -1c0,-2 -1,-2 -3,-2l0 1 0 0 0 0c0,1 0,1 -1,2 1,1 1,1 0,1 0,0 0,-1 0,-1l-1 -1c0,0 0,-1 1,-1 -1,0 -1,-1 -1,-1 0,0 0,0 0,0 -2,0 -1,0 -2,-1l-3 0c0,2 -1,2 -1,4 0,3 2,1 2,4z"/>
  <path class="fil13" d="M106 135l-2 0c0,0 0,0 0,0l2 0zm-3 5l0 2c2,1 2,2 0,4 0,1 -2,2 0,4 0,2 0,1 0,3 1,0 2,0 3,0 2,1 1,2 3,1 4,-1 5,0 7,-1 -1,-1 -1,-1 0,-2 -1,0 -1,0 -1,0 0,1 -5,1 -5,2l-1 0c0,0 -1,0 -1,0 -1,-2 0,-1 2,-2 0,-3 0,0 -1,-1 0,1 0,1 0,0 -1,0 -1,0 0,0 -1,-1 -1,-1 -3,-1 0,-1 0,-2 2,-1 0,0 1,1 1,1 1,-2 1,-2 2,-4 3,1 1,1 2,1 1,-1 1,0 0,-2l0 -2c-3,1 -1,2 -3,2 -1,1 0,-1 -2,2l0 0c0,0 -1,1 -1,1 0,-2 1,0 0,-1l-1 -1c1,-2 0,0 0,-1l1 -1 -1 -1c0,0 0,0 1,0 0,-2 0,-2 0,-3 -1,0 0,0 -1,0l-1 0c1,-1 2,-2 2,-3 0,-2 -1,-2 -3,-2 1,0 1,0 2,-1 0,0 0,-1 0,-1 0,0 0,0 0,0 -1,-2 1,-1 0,-3 0,0 0,-1 0,-1 -2,1 0,1 -3,2 -3,1 -1,1 -2,3l-1 -5c-1,1 -1,1 -2,2 0,-2 0,-4 0,-6 -2,1 -2,1 -3,3l2 0c-1,2 -1,1 -1,3 1,2 0,3 2,3 0,3 -1,1 1,4 2,-1 1,-1 4,-1 0,1 0,2 1,3l-1 1z"/>
  <path class="fil2" d="M83 76c-1,-1 -1,1 -1,-1 0,-1 0,0 1,-1l0 2zm9 -15l0 0zm0 0c1,0 1,0 1,2 -2,0 -2,0 -3,-2 0,1 0,1 -1,1 0,0 0,0 0,0 -1,-1 0,0 -1,-1 0,-1 -1,2 0,-1l-1 1c-1,-1 -2,-1 -2,1 1,1 1,0 2,0 0,2 0,1 -1,3 -3,0 -3,-2 -4,0 1,2 1,2 3,1 -1,2 -1,2 -2,2l0 1c3,0 0,1 4,1 -1,1 -1,1 -1,2 -1,0 -1,0 -4,0 0,0 0,0 -1,1l0 0c-1,2 -1,1 -2,3 1,1 2,1 4,1l0 -1c0,1 0,0 1,0 -1,-3 8,-1 5,-6 -1,-1 -2,-1 -2,-4l2 -1c0,3 -1,3 1,5l2 -1c-2,-1 -1,0 -2,-2l3 0c0,0 1,0 1,0l-3 -1c1,-1 1,-1 3,-1 1,1 1,3 4,3 0,-2 0,-1 -1,-2 0,-1 2,-1 2,-2l3 -3c-1,-2 -2,-1 -2,-2 1,-1 1,0 3,0l-1 -2c-2,0 -5,1 -5,3 1,2 2,2 0,4 -2,-1 0,-1 -1,-3 -1,0 -2,3 -2,0 -1,-1 0,0 0,-2 -1,-2 -1,-1 -2,-1 -1,2 -1,2 0,3z"/>
  <path class="fil14" d="M112 92l0 0zm2 -4c1,0 1,0 1,1l-1 -1zm4 -6c0,2 1,1 -1,1 0,-1 0,0 1,-1zm0 -2l0 0zm-11 -1l5 5c1,1 1,1 1,2 0,1 1,0 -1,1 -1,0 0,-1 -1,1 1,2 0,0 1,1l0 -2c0,0 1,0 1,0 1,1 1,1 1,1l-1 0c0,3 0,1 1,3 -2,0 -1,0 -2,-2 -1,2 -1,2 -1,3l1 0 0 1c1,0 1,0 0,1 2,2 1,0 1,2l0 1 4 -2c0,-3 -1,0 -1,-3 2,0 1,0 2,1 1,0 1,1 1,1 1,0 1,0 1,0 0,-1 0,0 0,-1 -2,-4 0,2 -1,-1 2,-2 3,0 3,-4 -1,0 -1,0 -1,0 0,0 0,0 0,0 -1,1 -1,1 -2,0 0,2 1,1 -1,2l0 -2c-1,-2 0,0 0,-2 1,0 1,0 3,0 0,0 0,0 0,0 1,-3 2,-2 4,-3 2,-1 1,-1 2,-2 2,-1 0,1 2,0 -1,-3 -2,1 -1,-3 -1,0 -1,0 -2,1l-1 0c-1,-2 0,0 -1,-1 -1,1 0,1 -1,1 0,-1 -1,-1 -1,-2l-1 0c1,2 1,2 3,2l0 1c-2,1 -1,1 -3,2 1,-2 0,-1 0,-3 -1,-1 0,2 -1,0 -1,1 0,0 -2,1 0,1 0,1 0,2 1,2 0,-1 1,0l-1 0c-1,0 -1,1 -2,2 -1,1 0,2 -1,2 -2,-1 -1,0 -2,-2 0,0 -1,-2 -1,-2 -1,-1 -2,-1 -2,-2 1,-1 0,0 1,-1 0,-1 0,0 0,-1 -3,0 0,-1 -3,-1 0,0 0,0 0,1 0,0 0,-1 0,0 -1,1 -1,-1 -1,1z"/>
  <path class="fil0" d="M109 116c3,1 2,-1 2,2l-1 0c0,-2 0,0 -1,-2zm-2 -2c1,0 1,0 1,0 0,2 0,0 0,1 1,0 1,0 1,1 -2,0 -3,1 -4,3l2 0 0 1 1 -1c1,0 0,0 1,-1 2,1 1,1 2,1 0,0 0,0 1,0 1,0 -1,0 1,0l1 0c0,0 0,0 1,0 0,0 0,0 0,0l1 0c1,0 1,1 1,-1 2,0 0,0 0,1 0,1 0,0 0,0 1,0 1,0 1,1l0 1c1,2 0,2 0,4 3,-1 0,2 3,-4l1 1c0,-2 0,0 0,-1 1,-1 0,0 0,-2 2,-1 1,0 2,-2l-3 0c0,0 0,0 0,0l-1 -2c0,-1 0,-1 0,-1 0,0 0,0 0,0 -1,0 -1,0 -1,0 -2,0 -2,1 -2,-3 0,0 0,0 0,0l2 -4c-2,0 -2,2 -5,0 0,0 0,1 -1,1l-1 1 -1 -3c-2,0 -2,1 -3,1 -2,1 -1,-1 -4,0 0,2 -1,2 3,2 2,0 3,-1 5,2 1,1 1,1 1,3 -3,1 -2,0 -6,0z"/>
  <path class="fil15" d="M146 140l1 2c-1,1 0,1 0,1 0,0 -1,0 -2,0l1 0 0 2 -2 0 1 0 1 0c-2,4 -2,8 -1,11 0,6 0,13 0,19 0,-1 0,-1 1,-2 2,-1 0,1 1,0 0,-2 0,-2 0,-4 -1,-3 -1,-6 0,-10 1,-3 1,-2 3,-2 0,-2 1,-3 1,-4 0,-1 -1,-2 -1,-4 0,-2 0,-3 2,-3 0,0 0,0 0,-1 -2,0 -1,1 -1,-1l1 0c0,-1 0,-1 1,-2 -1,-2 1,-3 -2,-3 -1,0 0,0 0,1 2,1 1,0 1,1 1,2 -1,1 -1,1 -1,0 0,0 -1,-1 1,-2 2,-3 1,-5 -2,0 -1,1 -2,3l-1 -2c0,2 0,4 -1,5l-1 -2z"/>
  <path class="fil16" d="M200 149c-1,-1 -1,-1 -1,-2l1 0 0 2zm0 -4l0 0c0,0 0,0 0,0zm-4 -4c2,0 1,0 2,1l-1 2c0,0 0,0 0,1l-1 0 0 -1 -2 0 0 1c-1,0 -1,0 -3,0l0 -2 0 1c-1,1 -1,2 0,2 0,1 1,1 2,1 0,1 -1,1 -1,1 0,0 0,0 0,0l-2 2c3,1 2,1 3,0 1,-1 0,-1 2,-1 0,2 1,3 2,3 1,-2 0,0 -1,-3 2,2 2,2 3,3 1,-1 1,-1 1,-3l1 1c1,-1 1,-1 3,-2l0 -4c-1,-1 0,0 0,-2 -1,-1 -1,-2 -1,-3 2,-1 2,-3 -2,-1 0,-1 0,0 -1,-1l-1 -2 -1 2c-1,5 -2,-1 -2,4z"/>
  <path class="fil2" d="M127 121c-3,0 -3,-2 -3,2l0 2c0,1 0,0 1,2 -2,0 -2,0 -4,0 0,2 0,1 1,2 1,0 2,0 4,-1 0,-1 0,-1 1,-2 1,2 0,2 1,3 1,-1 0,0 1,-1 0,-1 0,-1 0,-2 2,1 3,1 3,4 4,0 0,0 5,2 0,-4 0,0 -1,-2 1,-2 0,-3 0,-5l1 -2c0,-1 -1,0 1,-1 -2,-2 -3,-1 -5,-3l-1 0 0 2c-1,0 -2,0 -3,0 -1,1 -1,0 -2,0z"/>
  <path class="fil2" d="M180 122c2,0 1,1 4,1 0,-1 0,-2 -1,-2 -1,-1 -2,0 -2,-2 1,-1 2,0 4,1 1,1 2,1 1,3 2,-1 0,-1 2,-1 2,1 1,1 3,1 0,1 0,0 -1,1l0 1c1,1 0,0 1,2 2,-1 0,-1 2,-1l0 -1c1,0 1,0 1,0l-2 -2c1,0 2,0 3,0l0 -2c2,1 1,1 0,2 0,0 0,0 0,0l0 2 2 0 0 3 0 -1c3,-1 3,-1 4,0l-1 -1c-1,-5 1,-5 -8,-7l-3 -1c-2,0 0,0 -2,-1l-4 -1c-2,0 -3,2 -3,3 0,2 0,1 0,3z"/>
  <path class="fil14" d="M216 110c0,0 0,-1 0,-1 0,0 0,0 0,0l-1 -2c2,1 1,1 2,2l-1 1zm-14 -21c0,3 0,1 0,4 0,0 0,0 0,1l1 0c0,0 0,0 0,0l1 2c5,5 3,2 7,2 0,5 -1,1 1,4 1,1 1,3 2,5 -1,0 -2,0 -3,1 2,0 1,0 3,0 1,2 -2,2 2,2l0 0 2 0c1,-1 0,-1 1,-3l-2 -1c-2,0 -1,0 -3,1 0,-3 1,-2 3,-3 1,-2 0,-3 -1,-3 -2,0 -1,0 -1,1l-1 0c0,-3 0,-1 0,-2 1,0 2,0 0,-1 -2,-1 -3,0 -3,-3 2,0 1,0 2,-1 -2,-1 -3,-2 -4,-3 -3,0 -3,1 -3,2 -2,-2 1,-2 -2,-2l0 -1c1,0 1,0 2,0 0,-1 0,-1 0,-2 -1,0 -1,0 -2,0 0,0 0,0 -1,0l-1 0z"/>
  <path class="fil14" d="M86 99c3,1 2,1 1,1 0,0 0,1 -1,-1zm-3 -2c-1,2 0,1 -1,0 -1,2 0,3 0,3l-2 1 0 4c0,0 0,-1 0,-1l-1 0c-1,-1 0,-1 -2,-1 1,3 1,1 3,3l-1 2c1,-1 1,-1 3,0 -1,-1 -1,-1 -1,-2 0,0 0,0 0,0l1 -1c0,0 0,0 0,0 -1,-1 -1,0 -2,-2 2,0 2,0 4,0 1,-1 -1,-1 2,0 0,3 -1,-2 0,2 0,3 0,0 -1,2l3 0c0,1 0,2 0,3 0,2 0,0 -1,2 2,2 2,2 4,2 -1,-1 2,-1 -1,-1 0,-1 0,0 1,-2 -1,0 -1,0 -1,0 -1,0 -1,0 -1,-1 0,0 0,0 0,0 1,-2 0,-2 0,-4l-1 -2c0,-2 0,0 -1,-2 3,-1 3,-1 4,-3 0,0 0,0 0,0l0 0c0,-1 0,-1 0,-1 0,-1 1,-1 1,-2 0,0 0,0 0,0 1,-1 1,0 1,-2 -4,1 -5,3 -9,1 -1,3 1,2 -1,2z"/>
  <path class="fil14" d="M79 89c-1,-2 0,-1 1,-2 1,0 0,1 2,-1l2 0c0,1 0,0 -1,2l1 2c1,-1 1,-1 2,-1l-1 -2c0,0 0,-1 1,-2l2 1c1,-2 0,-2 2,-1 1,1 -2,1 1,3l1 -3c0,-1 -1,0 0,-1 -2,-1 0,0 -3,-2l-3 -1c-2,0 -1,0 -3,0 0,0 0,0 0,0l2 -1c1,-1 2,0 3,-1 1,2 -1,1 1,3 0,-2 0,-2 0,-3 -2,-1 0,0 -2,-1 -1,-1 -1,-1 -3,-2 0,2 -1,1 0,1l-1 1c0,0 0,0 0,0l-1 3c-2,0 -1,-1 -3,1 2,3 2,0 4,0 2,1 -2,3 -3,3 0,-2 0,-1 -1,-2 -2,0 -4,2 -5,2 0,2 0,3 1,4 0,0 0,0 0,0l4 0z"/>
  <path class="fil17" d="M96 117l-1 0 0 1c-1,2 0,1 -1,3 2,0 4,2 4,3l0 -1c0,-4 -1,1 0,-2 0,0 4,-1 3,1 0,1 -1,0 0,3 0,0 1,0 1,0 0,0 0,0 0,0l3 1c2,1 1,-1 4,0 0,-1 0,-1 -1,-3 0,-2 1,-1 -1,-3l-2 1c-1,0 -1,0 -3,0 0,-2 0,0 0,-1 1,-2 1,0 1,-2 2,1 2,1 3,-2 -3,0 -1,0 -2,0 0,-2 1,-1 2,-2l-2 -2c-2,1 -2,0 -2,3 -3,-1 -2,-3 -5,0 0,0 0,0 0,0 0,0 0,0 0,0 -1,0 -1,0 -1,0 0,1 -1,0 0,1 0,1 1,2 2,2l1 -2c4,0 3,1 3,2 -1,0 0,-1 -3,0 0,0 0,0 0,0l1 1c0,0 0,0 0,0 0,0 -2,1 -3,0l-1 -2z"/>
  <path class="fil2" d="M111 56c0,1 1,1 -1,1 -2,-1 0,-1 0,-2l0 0c-1,0 -1,0 -1,0 -2,0 -1,0 -2,1 1,2 1,0 2,2 -1,1 -1,0 -2,1 1,1 0,1 2,1 1,1 1,0 2,0 2,-1 2,-1 4,-2l2 1c3,-2 2,0 2,-3l0 1c-2,-1 -2,-1 -2,-3 0,-1 -1,-2 -1,-3 -2,0 -1,0 -1,-1 0,0 0,-2 0,-3l1 0 -3 -2c-1,0 -1,0 -2,0l0 2c0,0 0,0 0,0l-3 0c-3,3 -2,1 -2,3 0,0 3,1 5,1 1,-1 1,-1 3,-1 1,3 2,1 2,5l-2 0c0,-2 1,-2 -1,-3 -1,2 0,2 0,5l-2 -1z"/>
  <path class="fil18" d="M143 119c0,0 -1,0 0,0 1,2 2,2 4,3 0,-1 1,-3 1,-4 1,-2 2,-2 2,-4 -2,-2 -1,-2 -1,-4 -1,2 -1,1 -3,1l-2 -5c-2,0 0,0 -3,1l1 -3c-3,0 0,1 -4,1l-1 0c0,2 1,3 2,3 1,1 2,2 3,1 0,2 1,1 -1,2 2,0 2,0 3,1 -2,2 -3,0 -3,3 2,-2 1,-2 3,-2 1,1 1,-1 1,2 0,1 -2,2 -2,4z"/>
  <path class="fil4" d="M108 77c3,0 0,1 3,1l0 -2c-3,-1 -2,1 -3,-2 5,-2 4,0 4,0 1,2 -2,0 2,1 0,3 -1,3 0,5 2,-2 2,-5 5,-1 0,0 0,0 0,0 0,0 0,0 0,0 0,-3 1,-1 -2,-2l1 -1c1,-2 0,-1 0,-1 0,1 0,0 -1,1 -1,0 0,0 -1,0 0,0 0,0 0,-1 0,0 -1,0 -1,0l0 -1c0,-1 -1,0 0,-2l-1 0c0,0 0,0 0,0 0,0 -1,0 -1,0 2,-2 3,-7 0,-7 -1,2 0,0 0,2 -4,2 -2,4 -5,3 -2,-1 -1,-1 -2,-1 -1,0 -1,0 -2,-2l-2 1c0,-1 1,-2 -1,-1 0,0 0,0 0,0l1 3 4 -1c-1,3 -1,1 -2,3 2,1 2,0 3,1 0,1 0,0 0,1 -1,1 -1,0 -1,1 0,0 0,0 1,0 0,0 0,0 1,0l0 2z"/>
  <path class="fil17" d="M112 123c2,2 0,3 -1,6l4 0c1,1 0,0 1,1l-4 0c1,2 1,2 1,3 0,1 -1,1 -1,2 1,1 0,0 2,1 2,2 0,3 3,1 2,0 -1,-1 3,1 -1,-2 -1,-1 -1,-3 -1,-1 0,0 -1,-1 -2,0 -1,1 -3,-1 2,0 2,0 3,-2 0,-1 0,-2 0,-4 -2,2 0,-4 -3,-4l-3 0z"/>
  <path class="fil19" d="M83 110l0 0zm-4 2l0 -1c1,0 2,1 2,2 3,0 1,-1 3,-2l1 2c0,0 0,0 0,0 0,-2 0,-2 0,-3 -1,0 -1,0 -2,0l0 -1c-1,0 -1,0 -2,0 0,2 0,1 0,2 -2,-1 -1,-2 -4,0 1,-3 0,-1 0,-3 0,0 0,-1 0,-1l2 1c0,0 2,1 -1,-2 0,0 0,0 -1,0 -2,-1 -1,-2 -1,-4l0 -2c0,0 0,-1 0,-1l1 -1 -1 -1c-2,3 -1,0 -2,5 -2,-1 -1,-1 -3,0 0,3 1,2 2,2 0,2 0,1 -1,3 1,0 2,0 3,0 -1,2 -1,0 -1,3 0,2 -1,1 -1,3 2,0 2,0 3,-1l2 -1c0,2 0,0 1,1z"/>
  <path class="fil20" d="M148 51c1,0 1,0 1,1l3 3c1,1 0,-1 1,1 -2,0 -2,-1 -3,-1 -1,-1 0,0 -2,-1 0,1 0,1 0,1l0 1c-1,0 -1,0 -1,1 -2,0 -2,0 -3,2 -3,6 -1,1 -3,3 -1,1 -1,2 -1,2 1,-1 0,-1 2,-2 1,1 2,0 2,2l1 -2c0,-1 0,-1 0,-3 0,0 0,0 0,-1l4 -1c1,0 3,1 3,2 -1,1 -1,1 -2,1 -1,0 -1,0 -2,0l-1 1c1,1 1,0 2,0 0,0 0,0 1,0 2,-1 1,0 2,0 0,0 0,0 0,0 2,-1 -1,0 1,0l1 -1c0,1 0,2 1,3 1,1 0,0 1,0 0,-8 0,-3 3,-4 0,-3 0,0 -3,-3 -1,-2 -1,-2 -4,-2l-1 -4c-2,0 2,-1 0,0 -1,1 -1,0 -1,1 -1,0 0,0 -2,0z"/>
  <path class="fil4" d="M194 90c-1,1 0,1 -1,1 2,0 1,0 2,0 -1,3 -1,1 -1,4 1,-2 0,-1 3,-1l1 -3c-1,-1 0,0 -1,-2 4,0 0,0 3,1 0,0 0,0 0,0 1,-2 0,-1 1,-2 1,1 0,0 1,1l1 0c0,-3 1,-1 1,-4 -2,2 -2,2 -3,0 1,-2 -1,0 1,-1 0,0 0,-1 1,-1 -2,0 -1,1 -2,-1 -1,1 -2,1 -3,1 0,-2 0,0 0,-2 0,0 0,0 0,-1 1,0 1,0 1,0 0,0 0,0 0,0l1 -1c1,-1 -1,0 1,-1 -4,1 -4,5 -4,6 -1,3 -2,0 -2,3 -1,1 1,3 -1,3z"/>
  <path class="fil21" d="M150 77c2,-1 -1,2 0,-1 0,0 0,-1 2,-1 0,-2 0,-1 -1,-2 1,-1 0,-1 1,-2 0,0 1,0 -1,0 0,1 0,0 0,1l-1 0 0 0c-1,-1 -1,-1 -2,-1l1 2 0 1c0,1 1,0 0,1 -2,2 -1,1 -2,1 -1,-3 0,-2 0,-4 -1,0 0,0 -1,0 0,0 -1,0 -1,0 0,-2 0,-1 -1,-2 -1,1 -1,1 -1,3l0 1c0,0 0,0 0,0l0 3c-1,0 0,0 -1,-1 -1,0 0,0 -1,0l-1 0c0,2 -1,0 0,1l1 1 -1 2c1,0 0,-1 3,-2 1,2 1,0 2,2 2,0 1,0 4,0 0,0 0,-3 1,-3z"/>
  <path class="fil0" d="M111 78c0,1 0,0 0,1 2,1 0,1 2,1 2,1 1,0 3,1 -1,3 0,-1 -2,3l-1 0c1,2 0,1 2,2 1,0 0,-1 1,-2 1,-1 1,-2 2,-2l1 0c-1,-1 0,2 -1,0 0,-1 0,-1 0,-2 2,-1 1,0 2,-1 0,-1 0,0 0,-1 -1,-1 -1,-1 -2,-2l-1 1c3,1 2,-1 2,2 0,0 0,0 0,0 0,0 0,0 0,0 -3,-4 -3,-1 -5,1 -1,-2 0,-2 0,-5 -4,-1 -1,1 -2,-1 0,0 1,-2 -4,0 1,3 0,1 3,2l0 2z"/>
  <path class="fil22" d="M155 113c-1,1 0,1 -1,0l1 0zm0 0c0,-1 0,-1 0,-1 1,0 1,0 2,1 -2,0 -1,0 -2,0zm-1 -2c1,-1 2,0 1,0 0,0 -1,0 -1,0zm3 -3l-1 1c0,0 0,0 0,0 0,0 0,0 0,0 -1,1 -2,1 -2,1l-1 1 0 0c-1,0 -1,-1 -1,0l2 1 0 1 0 1c0,4 0,-2 0,1 1,1 1,0 2,1 -1,1 0,0 -1,1 0,1 0,-1 0,1 1,0 1,-1 2,-1 1,-1 0,-1 2,-1l0 -2c1,-1 1,-1 2,-2 2,-1 2,0 2,-2 -1,-2 0,-1 -2,-1 -2,-1 1,0 -1,-1l-1 1c-2,0 0,0 -2,-1z"/>
  <path class="fil13" d="M188 147c0,0 0,0 0,0 -1,0 -1,0 -1,-1 2,0 0,0 1,1zm-15 0c-1,3 0,2 2,1 3,-1 1,-1 3,-3l2 -2c1,-1 0,0 0,-2 2,1 4,1 5,2 0,3 -1,2 1,5l1 0c0,1 0,1 0,3 3,0 2,0 3,-1 -1,0 -2,0 -2,-1 1,0 0,0 0,-2l1 -2c-1,0 -1,0 -3,0 0,-1 0,-3 -1,-3 -1,-2 -1,-1 -2,-3l-1 1c0,0 0,0 -1,0 0,0 0,0 -1,0 -1,1 0,1 -1,1 -3,2 -3,0 -3,4 0,-1 0,-2 -2,-1 0,2 3,3 0,3 0,0 0,0 0,0 0,0 0,0 0,0 0,0 -1,0 -1,0z"/>
  <path class="fil13" d="M151 115l0 0c0,0 0,0 0,0zm-1 1c2,1 2,1 2,2l-2 -1 1 3c-2,1 -1,-1 -1,2 0,0 0,0 1,0 3,0 1,-2 4,-3 1,-1 1,-1 2,0l-2 2c2,0 1,0 1,0 0,0 0,1 0,1 2,-1 1,0 2,-2 0,0 0,0 0,0 1,-1 1,-1 2,-1 -1,-1 0,0 -1,-2 0,-1 0,1 0,-1 -2,0 -1,0 -2,1 -1,0 -1,1 -2,1 -1,0 -1,0 -2,-1 0,-1 -1,-1 1,0 1,-1 0,-1 0,-2 0,-3 0,3 0,-1l0 -1 0 -1 -2 -1c0,1 0,2 -1,2 0,1 0,1 0,1 -1,2 -1,0 -1,2z"/>
  <path class="fil4" d="M198 62c2,0 0,0 1,0l1 1 2 3 -1 2c-1,0 -1,0 -2,0 -1,1 1,0 -1,1l3 0 1 1c1,-1 0,-2 0,-2 0,-2 0,0 0,-2 0,-3 1,-1 2,0 0,-2 0,-1 -1,-3 -1,-1 0,1 -1,-1 0,0 0,0 -2,1 1,-4 1,0 1,-4 0,-1 0,-1 0,-1 0,0 1,0 2,0 -1,0 -1,0 -1,-1l-3 0c0,0 0,1 0,1 0,0 0,0 -1,0l-2 -2c1,-2 1,-1 2,-1 -2,-1 -4,0 -5,1 0,1 3,3 2,4l2 -1c1,1 0,0 1,2 0,0 0,0 0,0 0,0 0,0 0,0l0 1z"/>
  <path class="fil2" d="M76 97l-2 -2 3 -2 1 2c1,0 3,-2 3,-3 1,-4 0,-1 -1,-2 0,2 0,1 0,1 -2,-1 -1,-1 -3,-1 -3,1 -1,0 -4,0 -1,2 -2,3 -2,5 1,1 1,2 1,3 2,0 1,0 2,-1 1,1 0,0 2,0z"/>
  <path class="fil13" d="M169 136c0,0 0,0 0,0 1,1 1,0 2,-1 0,2 0,1 -1,2 -1,2 0,1 -1,2 -1,-2 -1,0 0,-2 -2,-1 0,-1 -3,-1l1 2c-1,0 -1,0 -1,0 0,1 0,1 0,1 0,0 0,0 0,0l-1 1c0,0 0,1 1,1 2,0 1,2 3,1 0,0 0,1 0,1 1,1 0,0 1,1 0,-2 0,-4 0,-6 0,0 1,0 1,0 0,0 0,1 0,1l1 1c0,-1 0,-2 0,-2 0,-2 1,-1 0,-3 0,0 0,0 0,0 1,0 1,0 2,0l0 0c-1,-1 -1,-1 -3,-2 1,0 1,-1 1,-1l-1 0c0,1 0,0 -1,0l0 -1c-1,2 1,2 -2,3 1,1 1,1 1,2z"/>
  <path class="fil20" d="M135 49c-2,1 -1,0 -2,2 1,1 3,1 3,3 1,2 0,0 0,1 1,0 0,0 2,0 -2,2 -1,0 -2,2 3,1 4,0 5,1l1 0c0,-3 -1,-1 1,-4 0,-1 0,-1 -1,-2l0 1c-2,2 -1,2 -3,2l1 -4c-1,1 -1,1 -3,1 0,-2 0,-2 0,-4 -1,0 -2,0 -2,1z"/>
  <path class="fil22" d="M190 99l2 0c1,1 1,0 1,2 -2,1 -2,-1 -5,1 0,0 0,0 1,1 0,0 2,0 2,0 2,0 2,-1 4,-1 1,2 -1,2 2,2 1,0 0,1 1,-1 -1,0 -1,1 -2,0 -1,-1 1,-1 2,-1 -1,-3 0,-3 -2,-3 -2,-1 -1,1 -2,-2 -1,-2 -1,-1 -1,-2 -1,2 0,0 -3,0 1,3 0,1 2,3 -1,0 -1,0 -2,-1l0 2z"/>
  <path class="fil17" d="M121 107c0,1 -1,2 -1,3 -2,1 -2,1 -1,3 1,0 3,-3 3,-3 1,-2 -1,0 0,-2 2,1 1,1 2,2 0,1 0,0 0,1 0,0 -1,2 0,3 0,1 0,1 1,1 1,-1 2,1 1,-3 -1,-1 -1,1 -1,-2 1,-1 2,0 2,-2 -3,-1 0,2 -3,-1 -3,-4 0,-2 -3,-3 0,1 0,0 0,1 0,0 0,2 0,2z"/>
  <path class="fil20" d="M112 87c2,-1 1,0 1,-1 0,-1 0,-1 -1,-2l-5 -5c-1,0 0,-1 0,1 0,1 0,1 0,2 0,0 0,0 -1,1l0 0 3 4 -3 0 0 1c0,0 2,1 4,1 0,-3 0,-2 2,-4l0 2z"/>
  <path class="fil2" d="M91 90l0 0zm-3 -2l0 1c0,0 -1,0 -1,0 0,0 0,1 0,1 0,1 0,-1 0,0 0,2 1,0 0,2 0,0 1,0 1,0 0,0 0,1 0,1 3,0 1,1 3,0 0,0 0,0 0,0 0,0 1,1 2,0 2,0 0,-2 4,-1l0 -2 1 0c-1,0 0,0 -2,0 0,0 -1,0 -1,1l-1 -2 -3 1 0 1 -1 -3 -2 0z"/>
  <path class="fil23" d="M127 145l-1 -1 1 -2 2 2c0,0 -1,0 -1,1 -1,0 0,-1 -1,0zm-6 -4c2,1 1,-1 1,1l-1 -1zm0 0c0,2 1,3 3,4 0,0 -1,1 1,3 2,0 1,0 2,0 -1,-1 0,0 -1,-1 -1,-1 0,1 -1,-1 1,-1 1,-1 2,-1l2 0c1,-1 1,-1 0,-2 2,0 2,0 3,-1 0,-2 1,0 -1,-2 -2,1 -2,2 -4,2l-1 0c0,1 1,1 0,1 -1,1 -2,0 -3,0 1,-1 1,0 2,-1l-1 -1 0 -1c-2,0 -1,0 -3,0l0 1z"/>
  <path class="fil19" d="M210 116c1,3 0,0 0,2 0,2 1,1 1,2 2,3 0,2 3,3 1,1 0,0 1,1 0,1 0,1 -1,1 1,1 1,2 1,3l1 0c0,-2 0,-1 1,-2 -1,-1 -1,-3 -2,-4 -1,-2 -1,-1 -2,-2 -1,0 0,-1 -1,-2 2,0 1,1 3,1 0,-2 -1,-3 -2,-4l-1 2c-1,-2 0,-1 -2,-1z"/>
  <path class="fil24" d="M101 147c1,-2 0,-1 2,-2 -1,2 0,2 -2,2zm0 -2c-1,-2 1,0 0,0 -1,0 0,1 0,0zm2 5c-2,-2 0,-3 0,-4 2,-2 2,-3 0,-4l0 -2c-1,1 0,0 -2,1 1,3 2,0 2,4 0,0 -3,-4 -4,0 2,1 1,0 2,1 -2,0 0,0 -1,2 -1,1 -1,1 -2,2 1,1 1,1 1,2 3,-1 3,0 2,-2l2 0z"/>
  <path class="fil25" d="M140 145c2,0 1,0 2,0 1,0 1,1 3,1l0 -1 -1 0 2 0 0 -2 -1 0c-1,1 -1,1 -1,0 1,-1 1,0 1,0 3,0 1,0 2,-1l-1 -1 1 -2c-1,-1 -1,-1 -2,-1l0 1c-1,0 -1,0 -1,0 -1,1 -1,0 -2,1 -1,1 -2,1 0,3 0,0 0,0 0,1 -3,0 -1,0 -2,1z"/>
  <path class="fil14" d="M166 82c-3,-1 -3,0 -5,1 1,-2 1,-1 0,-3 3,1 3,1 5,2zm-9 1c-1,2 0,2 -2,3 1,2 1,0 2,2 1,0 1,0 2,1 0,-3 0,-1 -2,-3 1,-2 1,0 3,-3 5,0 1,0 6,-1 1,-1 0,1 0,-2l-3 0 0 0 -2 0c0,0 -2,1 -2,1 -1,1 -1,1 -2,2z"/>
  <path class="fil19" d="M204 71c1,1 1,0 0,1 1,1 1,0 0,0 -1,0 0,1 0,0 -1,0 -2,-2 -1,1 2,0 1,1 3,-1l1 -1c0,1 0,1 0,1 0,0 0,0 0,0 0,0 0,1 0,1l1 1c1,-3 1,-1 2,0 1,-2 0,-1 2,-2 0,-2 0,-1 0,-3 -2,1 -1,1 -2,1 -2,-1 0,-1 -4,-1 1,2 0,1 -2,2z"/>
  <path class="fil26" d="M84 121l1 3c2,-1 2,-1 3,-2 1,1 0,1 2,2 1,-2 -1,-1 1,-2 1,1 1,1 1,2 1,0 1,0 1,-1l2 2c0,-1 1,-2 0,-3 0,-1 -1,-1 -1,-1 0,-1 0,-1 -1,-1 -1,0 1,1 -1,0l-4 2 -1 -1c-2,0 -1,0 -3,0z"/>
  <path class="fil19" d="M181 129c1,0 1,0 3,-1 0,1 -1,1 0,2 0,1 0,1 1,2l0 1 1 0c0,0 0,0 0,1l-1 1 2 0c2,-2 1,-2 2,-4 -2,1 -1,1 -4,1 1,-1 1,0 2,-1l1 -2c0,0 0,0 0,0 0,0 0,0 0,0 0,-1 0,0 -1,-1l-4 -1 -2 2z"/>
  <path class="fil23" d="M165 39c1,0 1,0 1,-1 1,0 0,0 0,1l4 -1c0,1 0,1 -1,3l3 0c0,-2 0,-2 -1,-3 3,0 0,0 2,1 1,1 2,1 3,0 -1,-2 -1,0 -1,-2 -1,-1 0,0 -1,-2 0,1 0,1 0,3 -3,-1 -4,-1 -7,0 -1,-2 0,-2 -2,-3l0 4z"/>
  <path class="fil27" d="M157 83c1,-1 1,-1 2,-2 0,0 2,-1 2,-1l-1 -3 -1 1 -1 -1 1 0 -1 -1c0,-1 0,-1 -1,-2 0,-1 1,0 0,-2 -1,2 -1,4 0,6 0,2 0,2 -1,4l0 1c1,1 0,0 1,0z"/>
  <path class="fil2" d="M189 87l0 0c-2,-1 -2,0 -3,-2 2,0 0,0 1,-1 -1,0 -1,1 -1,-1 -1,1 0,-1 -1,1 -6,-1 1,-1 -4,0 -2,0 0,0 -1,-1 0,0 -1,0 0,0 0,0 -1,1 -1,2l0 0c4,2 3,2 7,1 3,4 3,1 3,1z"/>
  <path class="fil13" d="M181 136l0 0c0,0 0,0 0,0zm-2 -1c1,-1 -1,0 1,0l-1 0zm0 0l4 2c0,-2 0,-1 -1,-3 2,0 2,0 3,1l1 -1c0,-1 0,-1 0,-1l-1 0c-1,-1 -1,0 -1,-2l-2 0c0,0 1,1 1,2l-3 0c0,-3 1,-1 -1,-2 -1,3 -1,3 0,4z"/>
  <path class="fil28" d="M150 149l1 -2c1,0 0,0 2,0l0 1c-2,0 -1,0 -3,1zm2 -3c-2,0 -2,1 -2,3 0,2 1,3 1,4 0,1 -1,2 -1,4 1,0 1,1 1,-3 0,-2 0,-3 0,-5 1,1 1,1 2,0 2,-1 0,-2 1,-3 0,-1 2,-2 2,-2 4,1 3,-1 6,1 0,-1 0,-1 1,-2 -3,1 -5,0 -9,1 0,1 0,2 -2,3l0 -1z"/>
  <path class="fil19" d="M203 81l1 2c0,1 1,1 1,1 1,0 0,0 1,0l0 5c1,0 1,2 1,-1 0,0 1,2 2,-2 -1,-1 0,-1 -2,-1 0,-1 0,-1 0,-2 -1,-1 -1,-1 -2,-2 0,0 1,1 1,-1 -1,-1 -1,0 -2,-1 0,2 0,1 -1,2z"/>
  <path class="fil0" d="M139 132c-1,0 -1,0 -2,1 0,1 0,2 1,3 1,0 0,-1 1,0 0,0 1,1 1,2l2 -2c1,0 0,0 1,0 0,-2 0,-1 -1,-2 -1,-2 0,-1 0,-3l-3 1z"/>
  <path class="fil4" d="M189 87l0 0c0,0 0,0 0,1l1 0 1 -1c0,0 -1,-1 -1,-1l0 -1c0,0 0,0 0,-1 2,1 1,1 4,0l0 0c0,0 0,0 0,0 1,-1 0,0 1,-1 -3,-1 0,0 -2,-1 -3,1 -1,-1 -5,1l1 1c-1,1 -1,0 -1,1 1,1 0,0 1,2z"/>
  <path class="fil17" d="M127 121c1,0 1,1 2,0 1,0 2,0 3,0l0 -2 1 0c-1,-1 -1,-1 -2,-2 -1,2 1,1 -3,1 0,0 -2,0 -2,2 0,0 0,0 0,0 0,1 1,1 1,1z"/>
  <path class="fil1" d="M180 36c1,0 2,1 3,2 2,1 1,-1 1,2l1 -1c1,-1 -1,-1 1,-1 -1,-1 -1,-1 -1,-2l-2 -1c0,-2 1,0 1,-3 -2,1 -2,1 -4,2 0,0 -1,-1 -1,1 0,0 0,0 0,0l1 1z"/>
  <path class="fil14" d="M115 122l0 1c3,0 1,6 3,4 2,-1 1,2 2,-2 1,-4 1,1 2,-3l-1 -1c-3,6 0,3 -3,4 0,-2 1,-2 0,-4l0 -1c0,-1 0,-1 -1,-1l0 2c0,0 -1,0 0,2 -3,-1 1,-1 -2,-1z"/>
  <path class="fil29" d="M114 103l1 1 -1 -1zm0 0c-1,1 -1,-1 0,1 0,3 5,4 6,0l-2 -1 -1 1c-1,-1 -1,-1 -1,-1 0,-1 0,0 -1,-1 -1,0 0,0 -1,1z"/>
  <path class="fil4" d="M104 95l1 0c1,1 1,-1 0,1l-1 1c0,1 1,1 2,1 2,1 1,2 2,1 0,-1 0,0 0,0l0 -3c0,0 0,0 0,-1 -1,-1 1,-1 -1,0 0,-3 0,-1 0,-4 -4,0 -2,1 -1,4l-3 -1 1 1z"/>
  <path class="fil1" d="M115 39c2,1 1,-1 2,-3 2,-1 2,1 1,-3 -1,1 -1,1 -2,2 -2,-1 0,-1 -2,-1 -3,-1 -1,2 0,3l1 1c0,0 0,0 0,0 0,1 0,1 0,1 0,0 0,0 0,0z"/>
  <path class="fil2" d="M197 128c0,3 -1,0 0,6 1,-1 0,0 1,-1 1,2 1,0 1,1 0,-2 0,-1 1,-1 -1,-2 0,0 0,-3 0,-2 0,-2 1,-3 -2,0 -1,0 -2,0 -1,0 0,0 -1,1l-1 0z"/>
  <path class="fil19" d="M204 101l0 0 -2 0c1,-1 0,0 2,0zm-5 0c4,3 1,2 4,3 -1,0 -1,1 -1,2 0,1 0,0 1,1l2 -2c0,0 0,0 0,-1l-2 -1c1,-1 0,0 2,-2 1,-1 1,0 0,-2 -3,0 1,0 -2,1 -2,1 -1,-1 -1,2 0,0 -1,-1 -1,-1l0 0c-2,-2 -1,0 -2,0z"/>
  <path class="fil30" d="M152 105l0 1c1,0 0,0 1,0l0 1c-1,-1 -1,-1 -1,-2zm1 -1l1 0 -1 0zm-1 1c-1,2 -1,2 -1,4 3,0 7,-5 4,-6l-2 1c-1,0 -1,0 -1,1z"/>
  <path class="fil22" d="M151 102l-1 -3c0,0 1,0 2,0l1 -3 -2 0c0,2 -1,0 1,2l-3 -1c0,0 -1,0 -1,0l0 -1 0 1c0,1 -1,1 -1,2l3 2c1,1 0,1 1,1z"/>
  <path class="fil31" d="M100 98c0,1 0,0 0,1 -2,0 -2,0 0,-1zm0 -3c-1,2 0,1 -1,1 -1,0 0,1 -1,-1 -1,1 0,-1 -1,2 0,1 0,1 1,1 0,0 0,0 0,1l1 0c1,2 -1,-1 0,1 3,-1 2,-1 2,-3 5,-2 4,1 4,-2l-1 0c-1,0 -1,0 -1,1 -2,0 0,0 -2,0l-1 -1z"/>
  <path class="fil32" d="M127 153l-1 0c0,-1 -1,-1 1,0l-1 -1c-2,1 0,1 -2,0 -1,2 0,2 -2,2l-1 -3c-3,0 -1,0 -2,1 2,0 1,0 2,0 -1,1 -1,-1 -1,1 0,1 0,1 1,2 7,0 8,1 6,-2z"/>
  <path class="fil20" d="M103 78c0,0 0,0 0,1l1 1c-1,-1 -2,-1 -3,-2 -1,2 -1,0 -1,2 -2,0 -1,-1 -2,-1l-1 2c5,2 5,0 5,0 3,-1 2,0 3,-2 0,-1 0,-1 0,-2l-1 -1c-1,1 1,0 -1,2z"/>
  <path class="fil2" d="M160 88l0 0 1 1c1,-1 0,-1 1,-2 0,1 0,1 1,1l3 -1 -1 -3c-3,1 -1,1 -2,1l-2 0c-1,2 0,2 -1,3z"/>
  <path class="fil31" d="M107 119c-1,0 -1,0 -1,0l-1 2 2 -1c2,2 1,1 1,3 1,2 1,2 1,3l0 1c1,-1 1,-1 1,-2 1,-2 0,-1 1,-2 1,0 0,-1 1,0 1,-1 1,-2 -1,-2 0,0 -1,1 -1,1 -1,-1 0,-1 -2,-1l1 -2c0,0 0,0 0,-1 -1,1 0,1 -1,1l-1 1 0 -1z"/>
  <path class="fil16" d="M175 135l0 0c0,0 0,0 0,0zm-1 0l1 -1c-1,3 0,2 0,2 2,-1 3,-5 -1,-5 0,0 0,1 0,0 -3,-1 -2,0 -2,1l1 0c0,2 0,0 1,1l0 2z"/>
  <path class="fil4" d="M113 84l1 0c2,-4 1,0 2,-3 -2,-1 -1,0 -3,-1 -2,0 0,0 -2,-1 -1,1 0,0 -1,1 0,1 1,1 2,2 0,0 1,2 1,2z"/>
  <path class="fil16" d="M133 148c1,1 0,0 2,1 0,0 1,-1 1,-1 1,-2 0,-1 1,-1 0,-1 0,-1 0,-2 0,-1 1,0 0,-1l-3 1c0,0 0,0 0,0l-1 3c0,0 0,0 0,0z"/>
  <path class="fil31" d="M189 62c1,1 1,2 2,3 1,-1 1,-1 2,-1 2,0 2,0 2,-1l-4 0c0,-1 0,-2 0,-3 -1,-1 0,-1 -2,-2 0,3 1,3 1,3 0,2 0,0 -1,1z"/>
  <path class="fil20" d="M105 63l0 4c1,0 2,0 5,1 -1,-2 -1,0 -2,-1l-1 -1c0,-1 -1,-1 -1,-1l0 -1c1,-1 -1,-1 2,-1 1,0 0,0 1,1 0,0 0,0 2,1 -1,-3 -1,0 -3,-3 0,3 -1,1 -3,1z"/>
  <path class="fil33" d="M115 119c-1,0 -1,0 -1,0l-1 0c-1,1 1,0 -2,1 0,0 0,-1 -1,-1l0 2c4,0 3,0 5,1 1,-1 0,-1 1,-1l0 -2 -1 0c0,2 0,0 0,1 -1,0 0,0 0,-1z"/>
  <path class="fil34" d="M160 23l0 1c-1,-1 -1,0 0,-1zm1 3c1,-1 0,1 0,-2l0 0c0,0 1,0 1,0 0,-1 0,-1 0,-1l-1 0 -1 0 0 0 2 -2c0,0 0,0 0,0 -1,0 -1,-1 -1,-1 0,0 0,0 0,0l-1 2c-2,3 -2,1 -3,3 3,1 3,-1 4,1z"/>
  <path class="fil34" d="M90 59l-1 0 1 0zm-3 2l1 -1c-1,3 0,0 0,1 1,-1 0,-1 2,-1l0 -1 0 0 0 -2c-2,-1 0,1 -2,-1 0,-1 0,-1 0,-1 0,-1 1,0 -1,0 0,2 0,2 2,2l0 1c-1,0 -1,0 -2,-1 0,2 0,1 1,3 -2,0 0,0 -1,1z"/>
  <path class="fil0" d="M164 135c2,1 3,0 4,-2 -1,0 -3,-1 -4,-1 0,2 0,3 0,3z"/>
  <path class="fil35" d="M82 108c0,0 -1,0 0,0 0,0 0,0 0,0l2 -2c-1,-2 0,-2 -1,-2 -2,1 -1,0 -1,1 0,0 0,0 0,0l-1 1c0,0 0,0 0,0 0,1 0,1 1,2z"/>
  <path class="fil31" d="M207 112c-1,1 -1,-2 -1,1 4,0 1,1 4,1l0 2 1 -1c-1,-4 2,0 0,-3 -2,0 -1,0 -2,1 -2,0 -2,-1 -2,-1z"/>
  <path class="fil36" d="M185 91l2 0c-1,-2 0,-2 -1,-3 -1,0 -3,1 -3,1l2 2z"/>
  <path class="fil24" d="M203 81l1 -2c1,0 1,0 3,0l0 -2c-3,0 -2,0 -4,0l1 1c0,0 -1,0 -1,1 -1,2 0,2 0,2z"/>
  <polygon class="fil0" points="130,98 132,97 132,95 129,94 "/>
  <path class="fil19" d="M116 151c0,1 1,2 2,2 2,0 1,0 2,-1l-1 0c0,-1 0,-1 -1,-2 -1,1 -1,1 -2,1z"/>
  <path class="fil12" d="M170 115l0 1c2,-1 2,0 3,-2l-3 0 0 1z"/>
  <path class="fil37" d="M232 208l-2 0c1,2 1,2 2,0z"/>
  <polygon class="fil38" points="116,188 117,188 117,187 116,187 "/>
  <polygon class="fil38" points="108,197 108,196 107,196 107,197 "/>
  <path class="fil37" d="M234 197l-2 0c1,1 1,1 2,0z"/>
  <path class="fil38" d="M164 212l1 0c-1,-1 0,-1 -1,-1l0 1z"/>
  <path class="fil39" d="M234 196c0,1 1,1 0,0 0,-1 2,0 0,0 0,0 0,-1 0,0z"/>
  <path class="fil37" d="M233 204c0,1 1,0 0,0 0,0 0,-2 0,0z"/>
  <path class="fil39" d="M103 201l0 -1c0,0 0,1 0,1z"/>
  <path class="fil40" d="M116 205l0 -1c0,0 0,0 0,1z"/>
  <line class="fil38" x1="189" y1="214" x2="189" y2= "214" />
 </g>
</svg>
