<?xml version="1.0" encoding="UTF-8"?>
<!DOCTYPE svg PUBLIC "-//W3C//DTD SVG 1.1//EN" "http://www.w3.org/Graphics/SVG/1.1/DTD/svg11.dtd">
<!-- Creator: CorelDRAW X8 -->
<svg xmlns="http://www.w3.org/2000/svg" xml:space="preserve" width="310px" height="320px" version="1.1" style="shape-rendering:geometricPrecision; text-rendering:geometricPrecision; image-rendering:optimizeQuality; fill-rule:evenodd; clip-rule:evenodd"
viewBox="0 0 310 320"
 xmlns:xlink="http://www.w3.org/1999/xlink">
 <defs>
  <style type="text/css">
   <![CDATA[
    .fil0 {fill:#21A462}
    .fil2 {fill:#5184C5}
    .fil6 {fill:#812C27}
    .fil4 {fill:#C2C2C2}
    .fil1 {fill:#DD4B3E}
    .fil5 {fill:#EEEEEE}
    .fil3 {fill:#FDDC43}
   ]]>
  </style>
 </defs>
 <g id="Layer_x0020_1">
  <metadata id="CorelCorpID_0Corel-Layer"/>
  <path class="fil0" d="M84 91c-6,-4 -11,-7 -21,-4 -27,7 -21,46 7,46 10,0 19,-7 20,-16 -25,0 -21,4 -21,-11 0,-3 4,-2 7,-2l29 0 1 9c0,21 -17,36 -39,35 -19,-1 -37,-18 -37,-38l0 0c1,-37 44,-50 65,-29 -1,2 -3,3 -5,5 -2,2 -3,4 -6,5zm-79 193c4,-1 8,-7 11,-9 17,-18 148,-150 153,-153 -3,-7 -11,-15 -13,-37 -1,-13 2,-31 9,-40 -33,-1 -67,0 -100,0 -25,-1 -51,-6 -58,16 -2,5 -2,17 -2,24 0,66 -1,133 0,199z"/>
  <path class="fil1" d="M225 55c15,-4 28,6 31,18 4,15 -7,28 -19,30 -34,8 -46,-40 -12,-48zm-60 -10c-7,9 -10,27 -9,40 2,22 10,30 13,37l22 32c2,2 5,7 6,9 16,23 26,46 29,75 1,3 3,4 5,5 5,-3 4,-5 5,-12 1,-5 2,-9 3,-14 4,-17 11,-32 20,-47 3,-3 12,-18 14,-20 1,-3 6,-9 9,-12 80,-110 -67,-176 -117,-93z"/>
  <polygon class="fil2" points="33,312 245,312 139,206 "/>
  <path class="fil3" d="M5 284c0,11 1,16 7,22 6,5 11,7 21,6l106 -106 -1 -1 27 -28c1,1 0,0 1,1 3,-1 24,-23 25,-24l-22 -32c-5,3 -136,135 -153,153 -3,2 -7,8 -11,9z"/>
  <path class="fil4" d="M231 243c1,2 3,4 5,5 7,7 34,35 37,37 0,-12 -1,-129 0,-135 -2,2 -11,17 -14,20 -9,15 -16,30 -20,47 -1,5 -2,9 -3,14 -1,7 0,9 -5,12z"/>
  <path class="fil5" d="M84 91c3,-1 4,-3 6,-5 2,-2 4,-3 5,-5 -21,-21 -64,-8 -65,29l0 0c0,20 18,37 37,38 22,1 39,-14 39,-35l-1 -9 -29 0c-3,0 -7,-1 -7,2 0,15 -4,11 21,11 -1,9 -10,16 -20,16 -28,0 -34,-39 -7,-46 10,-3 15,0 21,4z"/>
  <path class="fil6" d="M225 55c-34,8 -22,56 12,48 12,-2 23,-15 19,-30 -3,-12 -16,-22 -31,-18z"/>
  <path class="fil4" d="M166 178c2,3 25,26 30,30 5,5 10,10 15,15 3,4 12,13 15,15 -3,-29 -13,-52 -29,-75 -1,-2 -4,-7 -6,-9 -1,1 -22,23 -25,24z"/>
 </g>
</svg>
