<?xml version="1.0" encoding="UTF-8"?>
<!DOCTYPE svg PUBLIC "-//W3C//DTD SVG 1.1//EN" "http://www.w3.org/Graphics/SVG/1.1/DTD/svg11.dtd">
<!-- Creator: CorelDRAW X8 -->
<svg xmlns="http://www.w3.org/2000/svg" xml:space="preserve" width="270px" height="150px" version="1.1" style="shape-rendering:geometricPrecision; text-rendering:geometricPrecision; image-rendering:optimizeQuality; fill-rule:evenodd; clip-rule:evenodd"
viewBox="0 0 270 150"
 xmlns:xlink="http://www.w3.org/1999/xlink">
 <defs>
  <style type="text/css">
   <![CDATA[
    .fil41 {fill:none}
    .fil7 {fill:#141414}
    .fil20 {fill:#172514}
    .fil4 {fill:#182714}
    .fil18 {fill:#192815}
    .fil21 {fill:#1B2313}
    .fil9 {fill:#1D1D11}
    .fil27 {fill:#231A11}
    .fil1 {fill:#2B5726}
    .fil29 {fill:#2C5827}
    .fil35 {fill:#2C5A29}
    .fil0 {fill:#2D5926}
    .fil17 {fill:#325D26}
    .fil16 {fill:#325D29}
    .fil13 {fill:#346329}
    .fil25 {fill:#3A6529}
    .fil6 {fill:#3F8431}
    .fil5 {fill:#408531}
    .fil30 {fill:#436C2A}
    .fil15 {fill:#45371D}
    .fil32 {fill:#5A8832}
    .fil36 {fill:#62942C}
    .fil23 {fill:#649531}
    .fil12 {fill:#65972E}
    .fil14 {fill:#669931}
    .fil26 {fill:#679436}
    .fil2 {fill:#67982F}
    .fil22 {fill:#699930}
    .fil19 {fill:#6A9B35}
    .fil31 {fill:#6C9B3A}
    .fil24 {fill:#78A448}
    .fil11 {fill:#7E754A}
    .fil28 {fill:#85AB58}
    .fil33 {fill:#9BB976}
    .fil34 {fill:#B6CB97}
    .fil3 {fill:#C7C8C3}
    .fil8 {fill:#C9C9C5}
    .fil10 {fill:#CDCDCB}
    .fil37 {fill:#EBEBEA}
    .fil38 {fill:#EDEDED}
    .fil39 {fill:#F2F3F1}
    .fil40 {fill:#F6F6F6}
   ]]>
  </style>
 </defs>
 <g id="Layer_x0020_1">
  <metadata id="CorelCorpID_0Corel-Layer"/>
  <g id="_954099168">
   <path class="fil0" d="M80 68c-1,0 -1,0 -1,0 1,-1 0,-1 1,0 0,1 0,0 0,0zm-2 -12c0,-2 0,-1 1,-2 0,1 0,1 0,2 -1,-1 0,0 -1,0zm3 -2c1,1 1,0 1,1l-1 -1zm3 -3c0,0 0,0 0,0 0,0 0,2 0,0zm6 -10l0 0zm0 0l0 0zm-10 -1l0 0c0,0 0,0 0,0zm4 1c0,0 0,0 0,0l0 -2c0,0 0,0 1,1 1,-1 0,-1 1,-1 1,0 0,0 0,0 0,1 0,1 0,2 1,0 0,0 0,0l1 0c2,0 0,0 0,0 0,1 0,2 -1,2 -2,1 0,1 -1,0 -1,0 -1,2 -1,2 -1,0 -1,0 -2,0 -1,-1 -1,0 -1,-1 -2,0 -1,1 -2,1l1 -1 -1 -1c-1,-1 0,1 0,-1l1 0c0,0 0,0 0,0 1,1 0,1 1,1l0 -2c0,0 0,0 0,0l0 0c0,-2 0,-2 0,-2 1,0 1,0 1,1 0,0 1,0 1,0 0,0 0,0 0,0 0,1 0,1 0,2 1,0 0,1 1,0 1,-1 0,0 0,-1zm3 -2l0 0c0,0 0,0 0,0zm3 0c-1,-1 -1,0 0,-1 0,1 0,0 0,1 0,0 0,0 0,0zm-4 -1l0 0c0,0 0,0 0,0zm-4 -1l0 0zm0 0l0 -1 1 0c0,1 0,0 -1,1zm-2 -2l1 0 0 1 -1 -1zm6 1l0 0c0,-1 0,-1 1,-1 1,0 0,0 0,0 0,1 -1,0 -1,1zm-1 -1l0 0c0,0 0,0 0,0zm29 0l0 0zm0 -1l0 1 0 -1zm-6 0c0,1 0,1 0,1 0,-1 -1,0 0,-1zm-23 -4c1,0 1,0 2,0 -1,-1 0,0 -1,0l-2 -2c0,-1 0,-1 0,-1 1,0 0,0 1,0 0,0 0,0 1,0 1,-1 -2,0 0,0l0 2c2,0 2,0 3,1 1,2 1,0 1,2 -1,1 -1,-2 -1,3 -1,0 0,0 -1,0 -1,-1 -1,-2 -1,-2l0 0c-1,0 0,0 -1,0 0,0 0,0 0,0 0,0 0,0 -1,0 -1,0 -1,0 -1,0 0,0 0,1 -1,0l1 0c0,0 0,0 1,0 1,0 1,0 1,-1 0,0 -1,-1 -2,-1l-2 1c0,0 0,0 0,0 0,1 0,1 0,2l-1 1c0,-1 0,0 -1,-1 -1,1 0,1 -1,1 0,0 0,0 1,-1 1,-1 0,2 1,-2 1,-1 1,-1 2,-1 0,-1 0,-1 1,-1l0 0c0,0 0,0 0,-1 1,1 0,0 1,1zm10 -10c-2,1 0,1 -1,2 -1,2 -1,-1 -1,-1 0,0 0,0 0,1 0,1 0,-1 0,0 0,1 0,0 0,1l-1 0c0,1 1,1 1,2 1,1 1,0 2,1 0,0 0,0 -1,0 -1,0 -1,0 -2,0 0,1 0,1 0,1 0,0 0,0 0,0 0,-1 0,-3 -2,-3 -3,1 -2,3 -3,4 -1,-1 0,-1 0,-2 -1,0 -1,0 -2,-1 1,0 2,-1 2,-1 0,0 0,-1 -1,0 -1,0 -2,2 -4,2 -1,0 0,0 0,0 -1,0 -1,0 -2,0 0,1 0,1 0,1l0 0c0,2 0,0 0,1 1,1 1,1 1,1 -1,2 -1,1 -1,3l0 0c-1,-1 -2,0 -3,-1 0,-1 0,0 1,-1 -1,0 -1,0 -1,0 0,-1 0,0 0,-1 0,-1 -2,-1 -2,-2 0,-1 0,0 1,-1 0,0 1,-1 1,-2 -2,1 -3,0 -4,1 0,1 0,1 1,1 0,1 0,0 0,1 0,0 0,0 0,0 0,0 0,0 0,0l0 1c-1,0 -1,0 -2,0 0,0 0,0 0,0 -1,1 0,1 -1,1 1,2 3,1 3,1l0 1c0,0 0,0 0,0l-2 0c0,1 0,1 2,2l-1 1 -1 -1 -3 1c2,1 1,1 2,1 1,0 1,0 2,0 1,0 0,0 1,-1 0,1 0,1 -1,2 1,1 1,1 2,1 0,-1 0,0 -1,-1 0,0 1,0 1,0 1,-1 2,-1 2,-2 -1,-1 -2,0 -2,0l0 -1c3,0 0,0 3,2 0,-2 -1,-2 0,-2 1,1 0,2 -1,2l0 1c0,0 -1,0 -1,0 1,1 1,0 1,2l0 -1c1,1 2,1 3,2 0,0 0,0 -1,1 1,-1 0,-1 0,-2l-1 1c-1,0 -1,-1 -1,0 1,1 0,1 1,1 0,1 0,2 0,2 0,1 0,1 0,2 0,1 0,0 -1,1 0,0 0,0 0,0 0,0 1,0 1,0l1 0c1,1 1,1 1,1 1,1 0,2 0,4 -2,0 0,0 -2,-1 0,0 0,0 0,0 0,0 0,0 0,0l0 -1 -1 0 0 1 -2 0c1,-1 2,-1 2,-1 -2,-1 -1,0 -5,0 0,0 0,2 -1,2 0,0 0,0 -1,-1 -1,-1 -1,-1 -1,-1 1,-1 0,0 2,-1 0,0 1,-1 1,-1 1,1 1,1 2,1 0,0 0,0 0,0l2 -1c-1,-1 -1,-1 -1,-1 1,0 2,0 2,0 1,-1 0,0 1,-1 -1,-1 -1,0 -2,0 0,-2 1,-2 -1,-2 0,-1 0,0 0,0 -1,0 0,0 -1,-1 -1,1 0,1 -1,1 -1,0 0,0 -1,0l-1 0c-2,2 1,0 0,0l-1 0c0,2 1,2 1,2 0,0 0,0 1,0 -1,2 0,0 0,1 -1,1 0,0 -1,0 0,1 0,1 -1,2 -1,0 -2,0 -2,1 0,0 0,0 0,0 -2,0 -2,0 -2,0 0,2 -1,0 0,2 0,0 0,0 0,0 1,0 1,0 2,0 0,0 0,0 0,0 0,0 0,0 0,0 0,2 0,1 -2,2 1,2 0,-2 1,1 0,0 0,0 0,0 0,0 0,0 -1,0 0,0 0,0 0,0 -1,-1 0,-1 -1,-1 0,2 0,0 0,2l-2 1c0,1 -1,1 0,2 0,0 1,1 2,0 0,0 0,0 0,-1 2,0 2,0 2,0 0,-1 1,0 -1,-1 0,0 0,0 0,0 1,-1 2,-1 3,-1 0,1 1,1 2,0 0,0 0,-1 0,-1 0,0 0,0 0,0l-1 0c0,0 0,0 0,0 0,-1 0,-1 0,-1 -1,1 -1,1 -2,1 0,-2 0,-1 1,-1 1,0 1,-1 2,1l1 1c0,-2 -1,-4 0,-5 0,1 0,0 0,1 0,0 0,0 0,1 0,0 2,-1 2,-1l0 -1c0,0 0,0 0,0 0,0 2,1 2,1 -1,1 0,0 -1,0 0,0 -1,0 -1,0 0,2 -1,0 -2,3 1,0 2,0 2,-1 1,1 0,1 1,1 0,-1 0,-1 1,-2 1,0 1,0 1,0l1 3c0,0 0,0 0,0l0 0c0,0 0,0 -1,0 0,-1 0,-1 -2,-1 0,3 2,1 3,3 0,0 0,0 0,1l2 0c0,-3 1,-4 -2,-4 0,0 0,-2 1,0l1 0 0 0c1,0 1,0 1,0 2,1 1,1 0,1l0 1c0,2 0,1 0,2l-3 0c0,2 2,1 1,2 -1,0 -1,-1 -1,-2 -1,1 0,0 -1,1l0 1c0,0 0,0 -1,0l0 0c0,1 0,1 0,1l1 0c0,2 1,2 1,2 0,1 0,0 0,1 -1,-1 -1,-1 -3,-1 0,-1 1,0 0,-1 -1,-2 -1,1 -2,-1 0,0 0,-1 0,-1 0,0 0,0 1,0 0,-1 0,-1 0,-1 0,0 0,0 0,0l1 0c0,0 0,0 0,0 -1,-1 -1,-1 -3,-1 -1,0 1,-1 0,0 0,0 0,-1 1,-1l-1 -2c-1,0 -1,0 -1,2 0,-2 0,-1 -1,-2 0,1 0,2 -1,2l0 1c2,2 -1,0 0,0 0,0 1,0 1,0 -1,1 -1,2 -1,3 2,-1 0,0 2,-1 1,0 3,3 3,3 -1,0 -1,0 -1,0 -1,0 -1,0 -1,0 0,1 0,0 0,1 2,1 2,-1 2,-1 1,1 1,1 1,2l1 1c1,1 0,0 1,1 0,-2 0,-1 1,-2 0,1 0,0 0,1 -1,3 0,1 0,3 -1,0 0,-1 -1,0l0 0c0,1 0,1 1,1 0,0 0,0 0,0 0,0 0,0 0,0 0,0 0,0 0,0 0,0 0,-1 1,0 0,0 0,0 -1,2 1,-1 1,0 2,-2l0 -1c0,1 -1,1 0,1l1 -1c0,-1 1,-2 1,-2 0,-1 0,-1 -1,-1 -1,0 0,0 -1,1 0,-2 0,-1 1,-2 0,-1 0,-1 -1,-1 1,0 0,0 0,-1 0,1 -1,0 -2,0 0,0 0,-1 -1,-2l1 0c2,0 0,-1 2,-1l0 2c1,-1 0,-1 1,-1l2 3c1,0 1,1 1,0 -1,0 -1,0 -1,-1 1,0 0,0 1,0 0,0 0,0 0,0 0,1 -1,0 0,1l1 -1c-1,-1 -1,-1 -1,-1 0,-1 0,-1 0,-2 -1,0 -2,0 -2,0 0,0 0,0 0,-1 1,-1 0,1 0,0 1,0 2,1 2,1 0,0 0,0 0,1 2,-1 2,-1 2,-2 -1,0 0,0 -1,-1l-2 -1c0,0 1,0 1,-1l0 -1c0,-1 0,0 0,-1 2,0 0,0 0,1l2 0 1 0c0,-2 -1,-1 -1,-3 0,0 0,0 0,0 -2,0 -2,-1 -2,-1 -1,-1 -1,-1 -2,0 -1,0 0,0 -1,0 0,-2 1,-2 0,-3 2,0 0,-1 2,1 1,0 1,0 3,0l-1 2c1,0 2,0 3,0l1 1c0,0 0,0 0,0l0 0c0,-1 0,-1 0,-1 0,-2 0,0 -1,-2 1,0 1,0 1,-1 0,0 0,0 0,0l0 -1c0,-1 0,-1 0,-2 0,-2 0,-3 0,-4 1,1 0,1 0,1 1,1 1,1 1,1 0,0 0,0 0,0 0,0 0,0 1,0 0,0 0,0 -1,1l0 1 1 -1 1 2 1 0 0 -1c-1,-1 -1,0 -1,-2 1,0 2,0 3,-1 -2,-1 -1,0 -2,-1l-2 -1c0,0 0,0 0,0l0 0c0,0 0,-1 0,-1 2,0 1,0 2,1 0,-2 0,0 0,-2 1,-1 1,0 1,-1 -1,-1 -1,-1 -1,-2 0,1 0,0 2,-1l0 2 1 0c0,0 0,0 0,0 2,0 1,-1 2,0l0 0c1,-1 0,0 1,0 0,0 0,0 2,0l0 2c2,-1 1,-1 3,-1 0,1 0,1 -1,2 1,0 0,0 1,0l1 1c-1,0 -2,0 -2,0 0,2 0,1 -1,2 0,0 -1,0 -1,0 0,-1 0,-1 1,-2 -1,0 -3,0 -3,1 0,2 1,2 1,2 -1,0 -1,-1 -2,0 0,1 1,0 1,1l2 0c1,1 1,1 1,2 0,0 0,0 0,1 1,-1 0,-1 2,-1l-1 2c-1,0 0,0 0,0 1,0 -1,0 1,0 3,0 -2,0 2,0 1,-1 0,0 1,0l0 0c0,1 1,1 0,1 0,1 0,0 1,1 0,-1 0,-1 0,-1 0,-1 0,0 0,-1l0 0c2,-2 1,0 3,-1 1,1 -1,0 1,1 -1,0 0,0 -1,0 0,0 0,0 0,0l0 0c-1,1 -1,1 -2,0 0,1 0,1 0,1l0 0c0,0 1,1 1,1l-1 1c1,0 1,0 1,0 0,1 0,1 -1,1 -1,1 -1,1 -1,1 2,1 0,1 2,-1 1,-1 0,-1 1,0 2,0 0,-1 1,-2 0,-2 1,0 1,-2 0,0 0,-3 3,-3 -2,0 0,0 -1,0l-1 1c0,0 0,0 0,0 0,0 0,0 0,0 0,0 0,0 0,0 0,2 0,0 0,2 0,0 1,0 2,-1 0,1 0,1 1,1 -1,0 -1,0 -1,0 -1,1 0,0 0,1 0,1 0,1 1,0 0,2 0,0 0,2 0,0 0,0 0,0 1,0 1,0 2,0l0 -3c-1,0 0,0 -1,0 0,0 -1,0 -1,0l0 -2c0,0 -1,0 0,-1 0,0 0,0 0,0l0 -1c1,-1 1,-1 1,-2 1,1 1,1 2,1 0,0 0,1 1,0 0,0 1,0 -1,-1 -1,0 0,0 0,0l-1 0c0,0 0,-1 0,-1 0,0 0,0 0,0 0,0 0,0 0,-1l0 1c-2,1 -1,1 -2,1 -1,-2 0,-1 0,-1 0,0 0,0 0,0l0 -1c2,0 2,0 2,-1l0 0c1,0 1,0 2,-2 -1,0 0,0 -1,0 0,0 0,0 0,0 -1,0 0,1 0,0l0 -1c-1,0 -1,0 -1,-1 0,-2 -1,-1 0,-3 -1,-1 0,1 -1,0 0,-1 -1,-1 -1,-2 -1,1 0,0 0,1 0,0 0,0 -1,0 0,0 0,-1 0,-1l1 0 0 -2 -3 2 0 -2c-1,-1 -1,0 -4,-1 1,0 1,0 1,-1 -1,-1 -3,-1 -3,-2 0,0 0,0 0,-1 0,0 0,0 -1,0 0,0 0,0 0,0 0,1 0,1 1,2 -1,0 -3,-1 -4,0 -1,1 0,2 0,2 0,1 0,0 0,1 0,0 1,1 2,2 0,1 0,1 1,3l0 -1c1,0 0,0 0,-1 1,0 1,-1 1,0l1 -1c1,1 0,1 0,2 1,0 1,0 2,1 -1,1 -1,0 -1,1 0,0 0,1 0,2l2 0c0,0 0,0 -1,0 -1,0 -1,0 -1,1 -1,-1 -1,-1 -2,-2 0,0 2,-1 0,0 0,-1 0,-1 0,-1 0,0 0,0 -1,0 0,-1 0,0 0,0l0 0c0,0 -1,0 -1,2 4,1 0,1 2,3 2,0 0,0 2,-1 0,1 0,2 0,2 0,0 0,0 0,0 1,0 1,-1 1,-2 2,-1 1,0 2,-1l1 0c0,0 -1,0 0,0 1,0 0,1 1,0l1 0 -1 -1 -1 -1c0,0 1,0 0,0l0 -1c0,0 0,0 0,0 0,0 0,0 0,0 -1,-1 0,0 -1,-1l-1 1c1,-1 -1,-2 -1,-3 0,0 2,-1 3,0 -1,0 -1,-1 -1,0l1 2c0,0 0,0 0,0 0,0 0,-1 0,-1l2 0c0,1 0,1 1,1 -1,0 -1,0 -1,0 0,0 0,0 0,0 0,3 0,0 -1,3 1,-1 1,-1 1,-1 1,1 0,0 1,1 0,1 0,0 0,1 0,0 -1,-1 -1,0 0,2 0,0 0,2 0,0 1,0 0,1l0 -1c0,1 0,0 0,1 -3,2 -1,0 -2,2l-1 0 0 -1c-4,-1 0,2 -3,3 0,-1 0,-1 0,-2 -1,1 0,1 -1,1l-1 1c0,-1 2,-1 -1,-3 1,1 1,1 0,2 0,0 0,1 0,1 -2,0 -2,0 -2,-1 1,0 0,0 2,0l-1 -1c-1,0 -1,0 -2,0 1,0 2,-1 3,-2 0,0 0,-1 -1,-1 0,-2 0,-1 -1,-2 -1,-1 0,-1 0,-3 -1,0 0,0 -1,0 0,0 -1,-3 0,-3 -2,0 -1,0 -1,0 -1,0 -1,1 -1,1 0,1 0,0 0,2 -1,0 0,0 -1,0 0,0 0,0 -1,0 0,-1 1,-1 2,-1 -1,-1 -1,-1 -1,-2 0,0 -1,0 -1,0 0,0 0,0 0,0l0 0c0,2 1,0 0,2 -1,-1 -1,-1 -1,-2 -1,0 -1,0 -1,1l-1 -1c-1,1 -1,2 -1,2 -1,0 0,0 -1,0 -1,-1 -1,0 -2,0 -1,-2 2,-3 2,-3 0,-1 0,-1 0,-2 0,0 0,1 0,0 0,0 0,0 0,0l1 -1 -1 -1c1,-1 1,1 1,0l1 -2c0,0 0,0 0,0l0 0 1 0c0,0 0,0 0,0l0 1c1,-1 0,0 1,-1 0,-1 0,0 0,-2 0,-1 0,0 -1,0l-2 0c1,-1 1,-1 1,-1l-2 0z"/>
   <path class="fil1" d="M58 54c0,2 1,0 -2,1 0,1 0,1 -2,2 0,-1 1,0 0,-1l0 0c0,0 0,0 0,0 -1,0 -1,0 -1,-1 1,-2 0,-1 1,-1 0,0 0,0 1,0l1 0c1,0 0,0 1,0 0,0 0,0 0,0l0 -1 2 1c-1,-2 -2,-3 0,-3 0,2 0,1 0,3 1,-1 0,-1 1,0 0,0 0,0 0,0l0 2c0,0 0,0 0,0 -1,1 0,0 -1,0 -1,0 -2,0 -2,-1l1 -1c1,-1 1,0 0,0zm-4 -3l0 0zm-7 -1l1 0 1 0 1 1 0 0 1 -1 1 1c0,0 1,0 1,0 1,0 0,0 1,0 0,0 -1,0 0,0 0,2 1,0 0,2 -1,0 0,-1 -1,-1 -2,-1 -1,1 -2,1 -1,0 -1,0 -1,0 0,0 0,0 0,0 -2,0 0,0 -2,0l-1 0c-1,0 -1,0 -2,-1 2,0 0,0 2,0 1,1 0,0 0,0 1,-1 0,0 0,-1 0,-1 0,0 0,0 0,0 0,-1 0,-1zm-2 1c0,0 0,0 0,0l0 0zm0 0l-1 0 1 0zm12 -3c0,0 0,0 0,0 0,0 1,1 1,1 -1,0 -1,0 -1,-1zm-3 -2l0 1c2,0 1,-1 2,0 0,1 1,2 1,3 -1,-1 -1,0 -2,-1 -1,-1 -1,-1 -2,-1 0,-1 0,-1 1,-2zm-2 -4c0,0 1,1 0,0 0,0 -1,1 0,0zm5 2c1,-2 0,-1 0,-2l1 1c0,1 0,1 0,1 -1,1 0,1 -2,1 0,0 0,2 -3,0l1 -1c0,0 0,1 1,1 0,-1 0,0 1,-1 0,0 1,0 1,1l0 -1c0,0 0,0 0,0zm2 -9c0,0 1,1 1,0 -1,0 -1,1 -1,0zm0 1c0,0 0,0 0,0l1 1c0,1 0,-1 1,1 -2,-1 -2,-1 -3,-1l0 -2c1,0 2,1 2,-1 1,2 1,0 2,2 -2,-1 -2,-1 -2,-1 0,0 0,0 0,0 -2,0 -1,0 -1,0l0 1zm3 -2c1,-1 1,1 0,0 0,0 0,0 0,0zm-5 -1c0,0 1,0 1,0 0,0 -1,1 -1,0zm34 -13c0,-2 1,-2 2,-2l0 1c-1,0 -1,0 -2,1zm-10 -5c0,0 0,0 0,0 0,1 0,0 0,1 0,0 0,-1 2,1 -3,0 -4,-2 -6,-2 0,0 0,1 0,1 0,0 0,0 -1,0 0,0 0,-1 0,1 1,0 0,0 1,0 1,0 1,0 1,1l1 0c0,0 0,0 0,1 0,0 0,0 0,0 0,0 0,0 0,0 1,0 1,0 1,-2 1,0 1,0 1,1 -2,3 -2,2 -4,2l0 1c0,0 -1,0 -1,0l-1 0c0,-1 1,-1 1,-1 -1,-1 -1,0 -2,0l0 1c0,0 0,0 -1,0l0 2c-2,0 1,1 -2,1 -2,0 0,-1 -2,-1 0,1 0,1 2,1 0,2 0,0 -1,2 2,0 1,-2 2,-2 0,1 1,2 1,3 -1,0 -1,0 -2,0l-2 -1c0,0 0,0 0,0 -1,1 0,0 0,1 -1,0 0,0 -1,-1l0 1c0,0 0,-1 0,0 -2,1 0,1 -2,2l-1 -2 1 0c0,-1 1,-1 1,-2 1,-1 2,-2 1,-4 0,0 0,-1 -1,-1l1 2 -3 0c1,1 1,0 1,1 -1,1 0,0 -1,0 -2,1 -1,1 -1,0 -1,0 -1,0 -1,0l1 0c-1,0 -1,0 -1,0 -2,-1 -4,-1 -5,0 -1,1 -1,0 -2,2 0,0 0,0 0,1l0 0c-2,-2 1,-1 0,-3 -1,0 -2,1 -2,3 0,1 -1,0 -1,1 0,1 1,1 2,1 1,1 1,1 1,2 2,-1 0,-1 3,-2l-1 2c-2,1 -2,0 -4,-1 -1,1 -1,2 -3,2 0,-1 0,-1 1,-1l-1 -2c0,1 0,0 0,2 -1,1 -1,0 -2,2l0 0 0 1c-1,1 0,0 0,0 1,2 1,2 2,2 0,-2 0,-2 -1,-2 0,0 0,0 0,-1 1,0 1,-1 1,0 0,1 0,1 0,1 0,2 1,0 2,0 0,2 -1,2 0,2 1,-1 1,-1 0,-2 0,-1 2,-2 3,-2l1 1c-1,0 -1,0 -2,0 0,1 1,0 1,1l-2 2c0,1 -1,1 -1,1 1,1 1,0 1,2 -2,0 -2,-2 -3,-2 -1,0 -1,0 -1,0l1 1c0,0 0,0 0,0l-2 0c1,1 0,1 1,1l-1 1c-1,-1 -1,-1 -1,-3l-1 0c0,2 1,2 1,3 2,3 -3,2 -3,3 2,1 2,1 2,2 1,0 0,0 1,0 0,1 0,1 0,2 0,0 2,0 2,0l0 1c0,1 0,0 0,1l0 2c-2,-2 0,-2 -1,-2 -1,-1 -1,-1 -1,0l-1 0c-1,0 -1,1 -1,1l1 1c-1,1 -1,1 -2,1l0 0 0 -1c0,-2 0,-1 0,-2l-1 0c-1,2 0,1 -1,1 -1,1 -1,0 -1,1 0,1 0,0 0,1 1,0 0,0 1,0 1,0 1,-1 1,1 0,1 -2,2 -2,2l-1 -1 -2 1 2 1 0 1 0 0c0,0 0,1 0,1l0 1c0,1 -1,2 0,2 1,0 1,0 1,0 2,2 0,2 0,2l0 0 1 -2c-1,-1 -1,0 -2,-1 1,0 1,0 1,0l1 0c0,0 0,1 0,1l0 -3 1 0c0,0 0,-1 0,-2l1 0c1,0 0,1 0,-1 3,1 3,0 6,-1 0,1 0,1 -1,1 0,0 0,0 0,0 0,1 0,1 0,2 0,0 0,0 0,0l0 0c0,0 0,0 0,0 -1,1 -1,1 -3,2 1,1 1,0 1,1l0 1c0,2 1,2 0,3 0,0 0,0 0,0 0,0 0,0 1,0 0,0 0,0 1,0 -1,2 -1,1 -1,2 2,0 0,0 1,0 0,1 0,1 0,1 -2,0 -1,0 -2,0l-2 -1c0,0 0,0 0,0l-1 -2c-1,1 0,2 -1,2 0,-1 -1,-2 -2,-2l0 1 -1 1c0,2 2,3 4,3 0,1 -1,-1 0,2 0,0 0,0 0,-1 2,0 1,0 2,0l1 1 2 -1c0,-1 -1,-1 -1,-2l2 -1c0,-1 -1,-1 -1,-1 0,0 0,0 1,1 0,0 0,0 0,0 1,0 2,0 2,0 0,-1 -1,-1 -2,-1 0,0 0,0 0,0l0 -1c0,0 0,0 0,0 0,-1 0,-1 0,-1 0,-1 -1,1 0,-1 0,0 0,0 0,0 1,0 0,2 2,1 0,0 0,0 0,-2l-2 -1c-1,-1 -1,-1 -1,-2 1,0 1,1 2,-1 1,2 1,1 2,1 0,0 0,0 0,0l2 1c0,0 0,0 0,0 0,0 0,0 0,0 0,0 0,0 0,0 0,0 -1,0 -2,0 1,2 1,1 3,1 0,-1 0,-1 0,-1 1,0 2,0 3,0 1,-1 0,-2 1,-2 1,0 0,0 1,0 1,1 0,2 1,2 0,-2 0,0 0,-2 -1,-1 0,1 -1,0l0 -1c-1,-1 0,-1 -1,-2 0,-1 0,0 0,-1l-1 0c2,-1 2,0 2,0l1 1c0,-1 0,0 -1,-1l0 0 0 -1c0,-1 0,-1 0,-2 1,0 1,1 0,0 0,0 0,1 0,0 0,-2 0,-1 0,-1l0 -1c-1,1 -1,0 -1,2 -1,0 -2,0 -2,0l0 -1 1 0 -1 -2 0 0c0,-1 0,-1 0,-1 0,-1 0,-1 0,-1 0,-1 0,-1 0,-1 0,-1 0,0 1,0 0,-1 0,0 0,0 0,-1 0,-1 0,-1l0 -1c-1,0 -1,0 -1,0 0,0 0,0 0,0 0,-1 0,0 0,-1 0,0 0,0 0,0 0,-1 0,0 -2,-1 1,-1 1,0 2,-2l-3 1 0 -2c0,0 0,0 0,0 1,-1 0,0 0,1l1 -1c1,1 1,1 2,1 0,0 0,0 1,1 2,0 0,-1 3,-2 0,-1 -1,0 0,-1 2,0 1,3 0,4 0,0 0,0 0,0 0,0 0,0 0,0l1 0c-1,1 0,1 0,1l0 1c0,0 1,0 1,0 0,0 0,0 0,0 0,0 0,0 0,0 1,0 1,0 1,0 0,0 0,-1 0,0 1,1 1,1 2,0 0,0 0,0 -1,-1 0,0 0,0 0,0 1,0 0,-1 1,0 0,-2 0,-1 0,-1 0,0 0,0 0,0 0,0 0,0 0,-1 -2,-1 -1,-1 -3,-1l1 -2c-1,-1 -1,0 -1,-2 -1,-1 0,0 -2,-1 1,0 1,0 1,0 1,0 0,0 1,0 1,1 -1,0 1,2l1 -2c0,0 0,0 0,0 1,0 0,0 1,0 -1,-1 0,-2 -2,-3 0,2 1,1 -1,2l-1 0c-1,0 -1,0 -2,1 -1,0 -1,0 -2,0 -1,0 0,0 -1,-1 1,0 1,0 1,0 0,-2 0,0 -1,-2 1,0 0,0 1,0 0,0 0,0 1,0l0 0c1,0 1,0 1,0l1 1c0,-2 -1,-2 0,-3 1,1 0,1 0,2l2 0c0,-3 -1,-1 -2,-3 -1,0 -1,0 -1,0 -2,0 -3,0 -3,0 0,-1 -1,0 1,-2l2 0c0,0 0,0 0,0l0 -1c0,0 0,0 1,0l2 1c0,1 -1,1 0,2 0,1 0,2 0,2 0,1 0,1 1,2l0 -1 2 0c0,-1 0,-1 0,-1 1,0 0,0 1,0 2,0 -1,0 1,0 2,-1 1,-1 2,-1 0,0 0,0 0,0 1,0 1,0 2,0l0 -1c0,0 0,0 0,0 0,0 0,0 0,0 0,-1 0,0 0,-1 -1,0 -1,0 -1,-1 1,-1 2,0 4,-1 0,1 -1,2 -1,2 0,0 1,0 1,0 0,1 0,1 0,2 1,0 1,0 2,-1l-1 3c2,0 1,0 2,-1l0 -1c0,-1 0,1 0,-1l0 0c0,0 0,0 0,-1 0,0 0,0 0,-1 0,-1 0,-1 -1,-1 2,-2 1,0 3,-1 0,0 0,0 0,0 0,0 0,0 0,0 1,-3 1,-1 1,-3 0,-1 0,0 0,-1 1,-1 1,-1 1,-1 2,0 1,-1 2,-1 0,1 0,1 1,2 0,0 1,0 1,-1 0,0 0,0 0,0 0,0 0,0 0,0l1 1c-1,1 -2,1 -2,2 1,1 2,2 3,1 2,-1 -1,-1 0,-1 0,0 1,0 2,0 0,1 0,1 1,2 0,-1 0,0 0,-1 0,-1 0,1 0,0 0,-1 0,-1 0,-1 1,-1 1,-1 1,-1l0 -2c1,0 1,0 1,2 2,-1 3,-1 4,0 0,-2 0,-2 0,-2 2,0 1,0 2,2 0,0 0,0 1,0 0,-1 0,0 0,-1 0,-1 0,0 0,-1 -1,0 -1,0 -1,0 0,-1 0,-1 0,-1 1,0 0,0 0,0 1,-1 1,1 0,0l1 -1c-1,-1 -1,0 -1,-2 3,0 3,1 4,1 -1,-1 -1,-1 -1,-1 -1,-1 -1,0 -1,-2l-1 0c-3,0 -3,0 -3,2 -1,1 0,0 -1,1 0,1 0,0 1,1 0,-1 0,-1 1,-1 -1,2 0,0 -1,2 0,0 0,1 0,1 -1,0 -2,0 -3,0 1,-1 1,0 2,-1 -1,-1 -1,-1 -2,-1 -3,-1 -1,1 -6,-1 0,2 1,2 -1,2l0 -2c0,0 0,0 0,0 0,0 0,0 0,0l-2 1 0 -1c0,0 0,0 0,0 -1,0 0,0 -1,0 -1,0 -2,-1 -2,-1l-3 0c0,0 0,0 0,1z"/>
   <path class="fil2" d="M99 23l0 0zm6 -2c0,0 0,0 1,0 0,1 -1,1 -1,2 -1,0 0,0 -1,-1 0,0 0,0 0,0 0,0 0,0 -1,0 2,0 1,1 2,1 0,0 1,0 0,-2zm1 -1l0 0zm-33 0c0,0 0,-1 0,-1 0,0 1,0 0,1zm-9 0c0,0 0,0 0,0 0,0 0,0 0,0 0,0 0,0 0,0l-1 -1c0,-1 -1,-2 0,-2 2,0 0,0 2,1 0,-1 0,-1 1,-1 0,2 0,1 -1,1 0,2 0,3 -1,2zm-6 -3c1,0 2,1 1,0 0,0 0,0 0,0 0,0 -2,1 -1,0zm48 3l-1 1c0,-2 1,-1 0,-1 -1,-1 -1,-2 -2,-2l-1 0c0,0 0,0 0,0 0,-1 1,-1 1,-1 1,0 1,0 2,-1 0,2 0,1 0,2l1 0c0,1 0,1 1,2 -2,0 0,0 -1,0zm-4 -3l0 0zm-12 -3c1,1 1,0 1,1 1,0 1,0 1,0 -2,0 -1,0 -2,-1zm-17 1c1,0 1,0 1,0l-1 0zm20 -1c0,0 0,0 0,1 0,-1 0,0 0,-1zm-3 0l0 0 0 0zm-16 1l0 -1 1 0c-1,1 -1,1 -1,1zm19 -1l0 0zm-18 0c1,0 1,0 1,0 -1,0 0,0 -1,0zm18 -3c0,1 0,1 0,1 0,-1 0,0 0,-1zm2 0c0,1 0,2 -1,3 -1,-2 0,0 1,-2l0 -1c0,0 0,0 0,0zm-22 4c-1,0 -1,-1 -1,-1 0,0 0,0 1,0l0 -1c-1,-1 -1,-1 -1,-2 0,0 1,0 2,0 -2,2 0,1 0,3 -2,0 -1,-1 -1,1zm20 -4c0,0 0,0 1,0l-1 0zm-7 0l0 -1c-2,1 -1,0 -2,1 0,-2 0,-1 1,-1l1 -1c1,0 0,0 1,0 -1,2 -1,0 -1,2zm6 -2c0,0 0,0 0,0 0,0 0,0 0,0 0,0 0,0 0,0l-1 2 1 0 0 0c0,0 0,0 0,0 0,0 0,0 0,0l0 0c0,2 0,1 0,1 0,0 0,0 0,0 0,0 0,0 0,0 0,0 0,0 0,0 0,0 0,0 0,0 0,1 0,1 0,1 -1,1 -1,0 -2,0l0 1 -3 0c0,0 0,-1 -1,-3 1,1 1,1 2,1 -1,-1 -1,-1 -1,-2l2 0c0,-1 -2,-2 -3,-2 0,0 0,0 0,1 -2,0 -1,1 -3,1 1,-1 1,-1 0,-1 -1,0 0,0 -1,1l-1 1c0,0 0,0 0,0 0,0 0,0 0,0 0,0 0,0 -1,0 0,0 0,0 -1,0 1,1 1,1 2,1 0,2 -1,2 -1,1 0,-1 0,0 0,-1l-2 0c0,-1 0,0 0,-1 0,-1 0,-1 0,-1l-1 0c-2,-1 -3,-2 -5,-2l-4 4c-1,0 0,0 -1,0l0 0c2,1 1,0 1,2 1,0 0,0 1,1 2,0 2,0 2,0 0,2 0,1 1,1 0,1 0,1 0,2 2,0 0,-1 2,-1 -1,1 -1,0 0,1l-2 1c0,0 0,0 0,1 -1,-1 0,-1 -1,-1 0,-1 0,0 0,-1 0,0 0,0 0,0l0 0c0,0 0,0 0,0 0,0 0,0 0,0l0 -1c-1,0 -1,-2 -2,-2 -1,0 -1,0 -2,0l-3 -1c-1,0 -1,0 -2,0 0,1 1,0 0,1 0,0 -1,0 -1,0 -1,-1 -1,-1 -2,-1 0,2 0,1 0,1 0,0 1,1 1,2 -1,0 -1,-2 -3,-2 0,1 0,1 0,1 0,1 0,1 1,1 -1,1 -1,1 -2,1 0,1 0,2 0,3l0 0c-2,0 -2,0 -2,1l-2 2c-1,0 -2,0 -3,2l-1 1c1,1 2,2 2,2l0 0c-2,0 -1,0 -2,1 0,0 0,0 0,0 1,2 0,0 1,1l0 1c1,-2 1,-1 2,-2 0,-2 0,-1 0,-2l1 2c-1,0 -1,0 -1,1 2,0 2,-1 3,-2 2,1 2,2 4,1l1 -2c-3,1 -1,1 -3,2 0,-1 0,-1 -1,-2 -1,0 -2,0 -2,-1 0,-1 1,0 1,-1 0,-2 1,-3 2,-3 1,2 -2,1 0,3l0 0c0,-1 0,-1 0,-1 1,-2 1,-1 2,-2 1,-1 3,-1 5,0 0,-1 0,-1 0,-1 1,-2 0,-1 1,-2 0,1 0,1 0,1 0,1 0,0 0,1 -1,1 -1,-1 0,1 1,0 1,0 -1,0 0,0 0,0 1,0 0,1 -1,1 1,0 1,0 0,1 1,0 0,-1 0,0 -1,-1l3 0 -1 -2c1,0 1,1 1,1 1,2 0,3 -1,4 0,1 -1,1 -1,2l-1 0 1 2c2,-1 0,-1 2,-2 0,-1 0,0 0,0l0 -1c1,1 0,1 1,1 0,-1 -1,0 0,-1 0,0 0,0 0,0l2 1c1,0 1,0 2,0 0,-1 -1,-2 -1,-3 -1,0 0,2 -2,2 1,-2 1,0 1,-2 -2,0 -2,0 -2,-1 2,0 0,1 2,1 3,0 0,-1 2,-1l0 -2c1,0 1,0 1,0l0 -1c1,0 1,-1 2,0 0,0 -1,0 -1,1l1 0c0,0 1,0 1,0l0 -1c2,0 2,1 4,-2 0,-1 0,-1 -1,-1 0,2 0,2 -1,2 0,0 0,0 0,0 0,0 0,0 0,0 0,-1 0,-1 0,-1l-1 0c0,-1 0,-1 -1,-1 0,1 0,1 0,1 -1,-1 -1,0 -1,-1 -1,-1 0,-1 -1,-1l0 -1c1,0 0,0 1,-1l0 2c1,0 1,0 1,0 0,0 0,-1 0,-1 2,0 3,2 6,2 -2,-2 -2,-1 -2,-1 0,-1 0,0 0,-1 -1,0 -1,0 -1,-1l1 0c0,1 0,1 0,1 0,-1 0,-1 0,-1l3 0c0,0 1,1 2,1 1,0 0,0 1,0 0,0 0,0 0,0l0 1 2 -1c0,0 0,0 0,0 0,0 0,0 0,0l0 2c2,0 1,0 1,-2 5,2 3,0 6,1 1,0 1,0 2,1 -1,1 -1,0 -2,1 1,0 2,0 3,0 0,0 0,-1 0,-1 1,-2 0,0 1,-2 -1,0 -1,0 -1,1 -1,-1 -1,0 -1,-1 1,-1 0,0 1,-1 0,-2 0,-2 3,-2l1 0c0,2 0,1 1,2 0,0 0,0 1,1 -1,0 -1,-1 -4,-1 0,2 0,1 1,2l-1 1 1 0c0,0 0,0 0,0 0,0 -1,0 -1,0l0 0c0,0 0,0 0,1 0,0 0,0 0,0 0,0 0,0 1,0 0,1 0,0 0,1 0,0 0,0 1,-1 -1,2 0,2 -1,2 0,1 0,0 0,1 0,0 1,1 0,1 -3,0 -1,-1 -3,1 0,-2 0,-1 0,-2 0,2 0,1 0,2 -1,1 0,0 -1,1l0 -1c0,0 0,0 0,0 0,0 0,0 -1,0 0,0 0,0 0,0 0,0 0,0 0,0l-1 2c0,1 0,-1 -1,0l1 1 -1 1c0,0 0,0 0,0 0,1 0,0 0,0 0,1 0,1 0,2 0,0 -3,1 -2,3 1,0 1,-1 2,0 1,0 0,0 1,0 0,0 0,-1 1,-2l1 1c0,-1 0,-1 1,-1 0,1 0,1 1,2 1,-2 0,0 0,-2l0 0c0,0 0,0 0,0 0,0 1,0 1,0 0,1 0,1 1,2 -1,0 -2,0 -2,1 1,0 1,0 1,0 1,0 0,0 1,0 0,-2 0,-1 0,-2 0,0 0,-1 1,-1 0,0 -1,0 1,0 -1,0 0,3 0,3 1,0 0,0 1,0 0,2 -1,2 0,3 1,1 1,0 1,2 1,0 1,1 1,1 -1,1 -2,2 -3,2 1,0 1,0 2,0l1 1c-2,0 -1,0 -2,0 0,1 0,1 2,1 0,0 0,-1 0,-1 1,-1 1,-1 0,-2 3,2 1,2 1,3l1 -1c1,0 0,0 1,-1 0,1 0,1 0,2 3,-1 -1,-4 3,-3l0 1 1 0c1,-2 -1,0 2,-2 -1,0 -1,0 -1,0l1 -1 -2 0c1,0 0,0 0,0 1,0 1,0 2,0l0 -2 -1 0c1,2 1,2 -1,2l0 -2 -1 0c-1,1 0,0 -2,1 0,1 0,2 -1,2 0,0 0,0 0,0 0,0 0,-1 0,-2 -2,1 0,1 -2,1 -2,-2 2,-2 -2,-3 0,-2 1,-2 1,-2l0 0c-1,0 0,0 0,-1 0,0 0,0 0,-1l0 1c-1,-2 -1,-2 -1,-3 -1,-1 -2,-2 -2,-2 0,-1 0,0 0,-1 0,0 -1,-1 0,-2 1,-1 3,0 4,0 -1,-1 -1,-1 -1,-2 0,0 0,0 0,0 1,0 1,0 1,0 0,1 0,1 0,1 0,1 2,1 3,2 0,1 0,1 -1,1 3,1 3,0 4,1l0 2 3 -2 0 2 -1 0c0,0 0,1 0,1 1,0 1,0 1,0 0,-1 -1,0 0,-1 0,1 1,1 1,2 1,1 0,-1 1,0 -1,2 0,1 0,3 0,0 0,0 0,0 0,1 0,0 1,-1 0,0 0,0 0,0 1,0 0,0 1,0 0,-1 -1,-1 -1,-3 1,1 0,1 2,0 -1,0 -2,1 -2,-1 -1,-2 -1,-1 0,-2 -1,0 -1,-1 -3,-1 -1,0 0,1 -1,1 0,-2 0,0 1,-2 2,-1 0,0 1,-1 0,-1 0,0 -1,-1 0,0 -1,1 -1,1 0,0 0,0 0,0 0,0 0,0 0,0 -2,-1 -1,0 -2,-1 0,-1 -1,-2 -1,-3l-2 1c0,0 0,0 -1,-1 1,0 1,0 1,-1 -1,0 0,0 -1,1 0,-1 -1,-2 -1,-2 -1,0 0,0 -1,0 0,-1 -1,-3 -1,-3l0 -1c-2,-1 -1,0 -1,-2 -1,0 -1,0 -1,-1 -2,0 -1,0 -2,0 0,0 0,-1 0,-2 -1,0 -1,0 -1,0l-1 0c0,0 0,0 0,1 -1,1 0,0 -1,0 -1,0 -2,-1 -4,-2 0,0 0,0 -1,0 -3,-1 -2,-1 -4,1 0,0 0,0 1,0z"/>
   <path class="fil3" d="M95 124c0,-1 1,-1 2,-1l0 1c-1,0 -1,0 -2,0zm-11 -2c1,0 0,0 0,1 0,0 0,0 -1,0 1,-1 1,-1 1,-1zm-8 -2c1,0 1,0 1,0 0,0 -1,0 -1,0zm21 0c0,-1 1,0 1,0 -1,0 -1,0 -1,0zm6 0l1 0c-1,0 0,0 -1,0zm-1 0c0,-1 0,-1 0,0 0,0 0,0 0,0zm-3 0c0,-1 2,0 0,0l0 0c0,0 0,0 0,0zm-8 -1c0,0 1,0 0,0 0,0 -1,0 0,0zm3 0c0,0 1,0 -1,0 1,-1 0,0 1,0zm-4 0c0,0 0,0 0,0 0,0 -1,0 0,0zm12 0c1,-1 0,0 1,0 0,0 1,0 -1,0 0,0 0,0 0,0zm-1 0l0 0zm4 -1c0,0 1,1 2,1 -1,0 0,1 -2,0 0,0 0,0 0,0 0,0 0,-1 0,-1zm-3 1l0 0 -1 0c0,0 0,0 0,0 0,-1 -1,-1 0,-1 1,0 0,0 1,1zm-19 0c0,0 0,0 0,0 0,0 0,-2 1,-2 2,0 2,1 2,2 0,0 -1,0 -1,0 0,0 0,-1 0,-1 -1,1 -1,1 -2,1zm24 -2l1 0 0 1 -1 0 0 -1zm-25 0l0 0c0,0 0,0 0,0zm-4 0c0,0 1,0 2,0 -1,0 -2,0 -2,0l0 0zm27 0l0 0zm6 -1l0 0c0,0 0,0 0,0zm-10 0c0,0 1,1 0,1 0,-1 0,0 0,-1zm-24 0l0 0c0,0 0,0 0,0zm22 0c0,1 -1,1 -1,0l1 0zm-4 0l0 0c0,0 0,0 0,0zm-3 0l1 0 0 0 -1 0 0 0zm7 0l0 0zm-1 -3c1,1 1,0 2,1l1 0c-2,0 -2,0 -2,1 0,-1 0,0 0,-1 -1,0 0,0 -1,-1zm0 0l0 1 -1 0c0,-1 0,-1 1,-1zm-7 0l0 0zm-2 0c1,0 0,0 1,0 0,0 0,0 0,0 -1,0 0,1 -1,0zm10 0c0,0 1,0 0,0l0 0c0,0 -1,0 0,0zm8 -2l0 0zm0 0c0,0 0,0 0,0 1,0 1,0 1,0 0,1 0,1 -1,0zm4 0c0,0 1,0 0,0 0,0 0,0 0,0zm-2 0l0 0c0,0 0,0 0,0zm-4 0l1 0 -1 0zm0 0c-1,0 0,0 0,0 1,0 0,0 0,0zm-26 3c-1,-1 1,0 -1,0l-1 -1c0,0 0,0 0,0l-1 0c-2,0 0,1 -2,1 0,0 0,0 -2,0 0,1 0,2 0,3 0,0 2,0 2,0l0 0c0,2 0,0 0,0l-1 1 1 3c0,0 0,1 0,1l0 0c4,0 0,0 3,-1 1,0 1,1 1,-1 0,0 0,0 0,0l-1 0c0,0 0,0 1,-1 0,0 0,0 0,1l2 0c1,-1 -1,0 1,0 0,2 1,1 -1,2 1,0 0,0 0,0 0,0 1,0 0,0 -1,0 -2,0 -2,0l3 1c0,0 0,1 1,1l8 -1c1,0 2,-1 4,0 1,0 1,1 1,1l0 1 -1 0c0,-1 0,0 -1,-1 -1,0 -1,0 -3,0l0 1c2,0 4,0 6,0 4,0 1,0 4,-1 1,0 1,0 2,0 0,1 0,1 2,1 3,0 4,-2 6,-1 0,0 1,0 1,0l0 0c-1,0 0,0 -1,-1 1,0 1,0 1,0 0,-1 0,0 1,-1 1,0 1,0 1,0 1,1 1,0 1,0 0,-1 0,0 -1,-1 0,0 0,0 0,0 0,-1 0,0 1,-1 -1,0 -1,0 -1,0l1 0 2 0c0,-1 0,-1 0,0l-2 0 2 1c0,1 0,1 0,1 0,0 0,0 0,0 0,1 0,0 0,1l1 -1 0 0c2,-1 4,1 3,-2 0,-1 0,0 0,-1l0 -1c0,0 0,-1 0,-1 0,0 0,0 -1,0l0 0c0,-1 0,0 -1,-1 2,0 0,0 3,0 1,0 0,0 1,0 0,-1 0,-1 1,0 0,-2 0,-2 0,-2 -2,-1 0,0 -1,0l-1 -1c0,0 1,0 -1,0 0,0 0,0 0,0 -1,0 -3,0 -4,-1 0,0 1,-1 -1,0l-1 0c0,0 1,0 0,0 0,0 -1,0 -1,0 0,0 1,0 1,-1l-1 0 -2 -1c0,1 0,0 -3,0l-1 0c-1,0 1,0 0,0l-5 1c-2,0 0,-1 -2,-1 0,0 -1,0 -1,0l-2 0c1,1 1,0 1,1 0,0 -6,0 -7,0 0,-1 0,0 1,-1 -1,0 -6,0 -7,0 1,3 -1,3 2,4 1,0 1,0 1,0 0,0 0,0 0,0 -3,0 -6,0 -9,0 0,0 -1,0 0,0z"/>
   <path class="fil4" d="M74 86l0 0zm-10 -4c1,0 0,0 1,0 0,0 0,0 0,0l0 1c0,0 -1,1 -1,-1zm7 2c0,0 0,0 -1,0 1,2 0,0 1,1 0,1 0,0 0,1 0,0 0,0 -1,0 -1,-2 -1,-2 -1,-2 -1,-1 -1,-1 -1,-3l0 0c1,-1 1,-1 1,0l0 0 1 1c-1,1 -1,0 -1,1 0,0 1,0 2,0 0,0 0,0 0,-1l0 0c1,0 1,-1 3,-1 1,1 0,0 0,1 0,1 0,1 -2,1 1,0 1,0 0,1l-1 0zm7 -8l2 -1c0,2 0,1 0,2 1,1 1,0 1,1 -1,0 0,0 -1,0l-1 2c0,-1 -1,-2 -1,-2 0,0 0,0 0,0 -1,0 -1,-1 -1,-1 1,-1 1,-1 1,-1zm-3 -8c1,1 2,1 3,2 -1,1 -1,0 -1,1l0 1c0,1 0,2 0,3 0,1 0,-1 0,1 -3,-1 0,-1 -3,-1 0,-2 0,-2 -2,-3 0,1 0,1 0,2 0,0 0,0 0,0 -1,0 0,0 -1,-2 0,1 0,1 0,2 -2,0 -2,0 -3,0 0,0 0,0 0,-1 1,0 1,0 2,0 -1,-1 -1,-1 -1,-1l0 -1c0,-3 0,-2 2,-2 0,0 0,0 0,0 0,0 0,0 0,0 0,-1 1,-1 1,-1 2,0 1,0 2,-1 0,1 0,1 1,1zm-9 -3c0,-2 0,-2 1,-2 0,-1 1,-1 1,-2 0,0 0,-1 0,-1 0,-1 0,0 0,-1 1,1 0,0 1,2 2,2 0,0 2,1 0,1 0,0 -1,1 0,2 0,0 1,1 0,2 0,1 -1,2 -1,0 -1,0 -1,-1 0,0 0,-2 0,-2 0,0 0,0 0,0 0,-1 0,-1 -1,-1 0,1 1,0 0,1 0,0 -1,2 -2,2zm-3 -6c1,-1 0,-1 1,-1 1,1 1,0 1,1 0,0 0,0 0,0l1 0 1 0c-1,3 -4,2 -4,0 0,-1 0,0 0,0zm9 -6l2 1 0 1 -1 1 -1 -3zm-9 2l0 -1 -1 -1c0,0 0,-1 -2,0l1 0c0,1 0,0 0,1 1,1 0,1 1,2l0 1c1,1 0,-1 1,0 0,2 0,0 0,2 -1,0 0,-1 -1,-2 -1,0 0,0 -1,0 -1,0 0,1 -1,2 -1,0 -2,0 -3,0 0,0 0,0 0,1 -2,0 -2,1 -3,-1 1,0 2,0 2,0 0,0 0,0 0,0 0,0 0,0 0,0 0,0 0,0 0,0l-2 -1c0,0 0,0 0,0 -1,0 -1,1 -2,-1 -1,2 -1,1 -2,1 0,1 0,1 1,2l2 1c0,2 0,2 0,2 -2,1 -1,-1 -2,-1 0,0 0,0 0,0 -1,2 0,0 0,1 0,0 0,0 0,1 0,0 0,0 0,0l0 1c0,0 0,0 0,0 1,0 2,0 2,1 0,0 -1,0 -2,0 0,0 0,0 0,0 -1,-1 -1,-1 -1,-1 0,0 1,0 1,1l-2 1c0,1 1,1 1,2 1,0 0,0 1,0 0,0 0,0 0,0l0 0c1,-1 0,0 1,-1l0 -1 1 0 0 1c1,1 2,0 2,0 0,0 0,0 0,0l-1 0c0,0 0,0 0,0 2,-1 2,0 2,0 0,-1 1,-2 -2,-2l0 2c-1,0 -1,-1 -1,-2 -1,0 0,0 0,0 0,0 0,0 0,0 0,0 0,0 0,0 0,0 0,0 0,0 2,-2 1,-1 3,0 0,-2 0,-1 1,-2l2 1c-1,1 -2,0 -2,1 1,0 0,0 2,0l0 0 0 -1c3,0 2,1 4,0 0,-1 0,-1 -1,-2 -1,-1 -2,-1 -3,-1 -2,0 -2,0 -2,-1 2,-1 2,1 3,0 0,0 0,-1 2,-1l0 2 1 0c0,0 0,-1 0,-1 2,1 2,0 3,0l-1 2c0,0 0,0 0,0 0,3 0,2 1,2 0,0 0,0 1,0 0,0 0,0 0,0 0,0 0,0 0,1l1 1c0,0 0,0 0,0l1 0c0,1 0,1 -1,1 0,1 1,1 0,1 0,1 0,0 0,1 0,2 0,-1 -1,2 -1,2 0,0 -1,1 0,1 0,2 0,2 -1,2 -1,2 -2,2 1,1 1,0 2,0 0,1 0,0 0,1 0,1 0,0 1,2 -2,-2 -1,-1 -2,-1 -2,1 0,1 -2,-1 -1,0 0,0 -1,0 0,-1 1,-1 1,-1 0,-1 0,-1 -1,-2l3 0c-1,-1 0,0 -1,-1l-2 0c0,-2 1,-2 0,-3 0,-1 0,0 0,0 -1,0 0,0 -1,1 0,0 0,0 -1,1l0 -1c-1,0 -1,1 -2,0l-2 0c0,0 0,0 0,0 0,0 0,0 0,0 -1,-2 0,-1 0,-2 0,-1 -2,-1 -2,-1 -1,2 0,-1 0,2l0 0 0 0c0,1 0,3 0,4 0,-1 0,-1 1,-1l1 3c0,-2 -1,-2 1,-2 2,-1 0,-1 2,-1 0,0 0,0 0,0 0,1 -1,1 0,2 0,0 0,0 0,0 0,0 0,1 0,1 -1,0 -1,0 -2,0 2,0 2,0 2,1 0,1 0,2 -1,2l1 0c0,0 0,0 0,0 0,1 0,1 0,2 0,0 0,0 0,0l0 1 0 0c0,1 0,0 0,1l0 0c1,1 0,0 0,1 0,0 1,-1 1,-1l0 0c1,-1 0,0 1,-1 1,0 0,0 2,-1l0 1c0,1 0,1 0,1 -1,0 0,0 -1,0 -1,1 -1,1 -2,2 0,0 0,0 0,0 -1,-1 -1,0 -1,0 1,0 1,0 1,1l0 0 0 0c1,0 1,-1 1,0 -1,1 -2,0 -1,2 0,0 0,0 0,0l1 0c0,-1 3,-1 3,-2 0,0 0,0 1,0 0,0 0,0 1,0 0,0 0,0 0,1l1 0 -1 0c1,-1 0,-1 2,-1l0 2c1,0 1,0 1,-1 2,1 0,1 2,0l0 1 0 0c1,0 2,0 2,-1 1,0 1,-1 1,-1 0,0 0,0 0,-1 0,1 0,1 0,1 1,-1 1,0 1,-1 0,0 0,0 0,0 0,0 0,0 0,0l0 -2c0,0 0,0 0,0l2 -1c1,1 0,0 0,1 0,0 0,0 1,0 0,0 1,0 1,0 1,0 0,0 0,0 1,-1 -1,-1 1,-1 0,0 0,0 0,0 -1,-2 0,-2 0,-2 1,-1 1,0 1,-1 0,0 0,0 1,0l0 0c1,0 1,0 1,0l0 -1c-1,-1 0,-1 0,-1 1,-2 0,-2 -1,-3l-2 -1c0,0 0,0 -1,0l1 0c0,0 0,-1 1,-1 0,0 2,2 2,1 0,0 0,0 0,-1 -1,-1 -1,-1 -2,-1 0,0 0,0 0,-1 0,0 0,0 0,0 -1,-1 -1,-1 -1,-2 1,0 0,1 0,0 -1,0 0,0 0,-1l0 1c-1,2 -1,1 -2,2 0,-1 0,-1 0,-2 0,0 0,0 0,0 0,0 0,0 0,0 0,0 0,0 0,0 -1,0 -1,0 -1,-1l0 0c1,-1 0,0 1,0 0,-2 -1,0 0,-3 0,-1 0,0 0,-1 -1,1 -1,0 -1,2 -1,-1 0,0 -1,-1l-1 -1c0,-1 0,-1 -1,-2 0,0 0,2 -2,1 0,-1 0,0 0,-1 0,0 0,0 1,0 0,0 0,0 1,0 0,0 -2,-3 -3,-3 -2,1 0,0 -2,1 0,-1 0,-2 1,-3 0,0 -1,0 -1,0 -1,0 2,2 0,0l0 -1c1,0 1,-1 1,-2 1,1 1,0 1,2 0,-2 0,-2 1,-2l1 2c-1,0 -1,1 -1,1 1,-1 -1,0 0,0 2,0 2,0 3,1 0,0 0,0 0,0l-1 0c0,0 0,0 0,0 0,0 0,0 0,1 -1,0 -1,0 -1,0 0,0 0,1 0,1 1,2 1,-1 2,1 1,1 0,0 0,1 2,0 2,0 3,1 0,-1 0,0 0,-1 0,0 -1,0 -1,-2l-1 0c0,0 0,0 0,-1l0 0c1,0 1,0 1,0l0 -1c1,-1 0,0 1,-1 0,1 0,2 1,2 1,-1 -1,0 -1,-2l3 0c0,-1 0,0 0,-2l0 -1c1,0 2,0 0,-1 0,0 0,0 -1,0l0 0 -1 0c-1,-2 -1,0 -1,0 3,0 2,1 2,4l-2 0c0,-1 0,-1 0,-1 -1,-2 -3,0 -3,-3 2,0 2,0 2,1 1,0 1,0 1,0l0 0c0,0 0,0 0,0l-1 -3c0,0 0,0 -1,0 -1,1 -1,1 -1,2 -1,0 0,0 -1,-1 0,1 -1,1 -2,1 1,-3 2,-1 2,-3 0,0 1,0 1,0 1,0 0,1 1,0 0,0 -2,-1 -2,-1 0,0 0,0 0,0l0 1c0,0 -2,1 -2,1 0,-1 0,-1 0,-1 0,-1 0,0 0,-1 -1,1 0,3 0,5l-1 -1c-1,-2 -1,-1 -2,-1 -1,0 -1,-1 -1,1 1,0 1,0 2,-1 0,0 0,0 0,1 0,0 0,0 0,0l1 0c0,0 0,0 0,0 0,0 0,1 0,1 -1,1 -2,1 -2,0 -1,0 -2,0 -3,1 0,0 0,0 0,0 2,1 1,0 1,1 0,0 0,0 -2,0 0,1 0,1 0,1 -1,1 -2,0 -2,0 -1,-1 0,-1 0,-2z"/>
   <path class="fil1" d="M115 62c1,0 2,0 2,1 -1,1 -2,-1 -2,-1zm2 -2c0,0 0,0 0,0 0,0 0,0 0,0 0,0 1,0 0,0zm-1 0c0,0 0,0 0,-1 -1,0 -1,0 -2,-2 1,0 0,-1 2,0l0 0c0,0 0,1 0,1 0,-2 0,-1 1,-1 2,-1 -1,-1 1,-1 1,1 1,1 0,1 -1,2 -1,1 -1,2l1 0c0,1 0,1 0,1l-1 1c-1,-1 -1,0 -1,-1zm-23 -16l0 1 0 0 2 0c0,2 0,0 0,1 -3,1 -1,1 -4,1 -1,1 -1,0 -2,1 1,2 1,0 1,2l1 0c1,-1 0,-1 1,-2l1 0c0,0 -1,0 1,-1l1 2 -2 1c0,0 0,0 -1,0 1,1 1,0 1,1 -1,0 -1,0 -2,0l0 -1c-1,0 -1,1 -2,1l1 0c1,1 0,0 1,1 -1,0 -1,0 -1,0 -1,1 0,0 -1,1 0,0 0,0 0,0 0,0 0,0 0,0 0,1 0,2 0,3 0,0 0,0 0,0 0,1 0,1 0,1l-1 0c-1,1 0,0 0,1 1,1 3,-1 3,-1 0,-1 0,-1 1,-3 0,0 0,0 0,0 0,-1 0,-1 0,-1 0,1 0,1 0,2l-1 2c0,1 -1,1 -1,2 0,1 1,0 2,0 0,0 1,-1 1,-2 0,0 1,-1 2,-1 0,0 0,0 -1,0l0 -1 1 0 0 -1c-2,-1 0,1 -1,0 1,0 3,0 4,-1 -1,-1 0,0 -1,0 0,0 0,-1 0,-1l-1 -1c0,0 0,0 0,0l0 1c0,-2 0,-1 1,-1 -1,-1 -1,-1 -1,-2 2,0 0,1 2,1 0,0 1,-1 1,-1 0,-2 1,-1 0,-2l1 0c-1,-2 0,0 -1,-2 2,1 1,1 1,2l-1 2c0,2 1,-1 0,1 0,1 -1,0 -1,1 0,0 0,0 0,1 1,0 1,1 0,2 1,0 1,0 2,0 1,0 0,0 1,0 0,0 0,0 0,-1l0 0c1,-1 0,0 1,-1 0,0 0,1 1,2 -1,-1 -1,-1 -1,-1 -1,1 -1,2 -1,3 0,0 1,0 1,1 0,1 0,-1 0,1 0,1 0,1 1,1 1,0 0,0 1,0 1,1 0,0 1,0 2,1 1,1 3,1 0,0 0,0 0,-1l2 1c0,0 0,0 0,1 1,0 1,-1 2,0 2,1 2,0 2,1l-2 -1c0,0 0,0 0,0 0,0 0,1 0,1 0,0 0,0 -1,0 -1,1 0,0 -1,1 -1,2 1,1 2,2 -1,1 1,0 -1,0 0,1 1,1 1,1 1,0 0,0 1,0l0 1c0,0 0,0 0,0l2 0c0,0 0,0 0,0 -1,-1 -1,0 -1,-1 0,-1 0,-1 1,-1 0,0 0,0 0,0 0,1 0,1 0,1 1,0 1,0 1,-1 2,2 1,0 3,1 1,3 0,1 1,2 -1,1 -1,1 0,3 1,-1 0,-1 1,-2l1 0 -2 2c0,1 0,1 -1,1 1,1 2,0 2,2 0,0 0,0 0,0 0,1 1,0 0,1l-1 -1c-1,0 -1,1 -1,1 0,0 0,-1 0,0 -1,0 -1,0 -1,1 0,0 0,0 0,0 0,0 1,0 1,0 0,1 0,0 0,1l-2 0c0,0 0,0 0,1 1,0 1,0 1,0l0 -1c2,0 2,1 4,0l0 -2c0,-1 1,-1 1,-1 0,-2 0,-2 0,-2l0 0c1,0 1,0 1,-1 -1,0 0,0 -1,0 -1,-1 0,0 -1,-2 0,-1 -1,0 -1,-1 0,-2 1,0 0,-2l0 -1c-2,0 0,0 -2,0 0,-2 0,0 0,-1 1,0 2,-1 4,-1 0,0 0,0 0,0 2,1 2,2 2,2l0 0c0,-1 0,0 0,-1 0,-1 0,0 0,-1l0 0 0 0c-3,0 -1,0 -2,-1 -1,0 0,0 -1,0 0,-1 1,-1 1,-1 0,-1 0,-2 -1,-3 -1,-2 0,1 0,-2 -3,0 -2,1 -5,-2l0 -1c0,0 0,0 0,0l-1 0c0,0 0,0 0,0 0,-2 0,-1 0,-3 0,0 0,0 0,0 -1,0 0,0 -1,1 0,0 0,0 0,0 -2,-1 1,-1 -2,-1 1,1 0,1 1,1l-1 2c-2,0 -1,0 -2,1 0,-2 0,-1 1,-3 -1,0 0,0 -1,0 0,0 0,0 0,0 -1,0 0,-1 -1,0 0,1 0,2 -1,2 1,0 1,1 2,1 0,0 0,0 0,1 1,2 0,1 2,1 1,0 0,0 1,2 0,1 0,0 0,1 -1,1 0,0 -1,0 -2,0 0,0 -1,-1 -1,0 -1,1 -2,1 0,0 -2,0 -2,0 0,-1 0,-1 0,-1 2,-1 2,0 3,-1 0,-1 0,0 -1,-1l-1 0c-2,0 -1,1 -2,0 0,0 0,-2 -2,-2l0 0c2,0 2,-1 1,-3l-1 -1c0,0 1,0 2,0 0,0 0,0 0,1 0,1 0,0 1,0 0,0 -1,0 0,0 1,0 0,0 1,0l0 -1 -1 0c0,-1 0,-1 0,-1 0,0 0,2 -1,-1 -3,1 -2,1 -5,0l0 0c0,-1 1,-1 1,-1l1 -2c-2,0 -1,0 -2,1 0,-1 0,-1 0,-1 0,-1 0,-1 -1,-2l-2 0c0,0 0,0 0,0 -3,4 -1,1 -3,2 0,0 1,-2 -3,-1 -2,1 2,0 0,0l0 0z"/>
   <path class="fil4" d="M99 84c-1,-1 -1,-1 -1,-1 1,0 1,0 1,0 0,1 0,0 0,1zm14 -2c-1,1 0,0 -1,1 1,-2 0,-1 1,-1zm-20 -4c0,0 0,-1 0,-2 1,0 2,1 3,1 -1,1 -1,1 -3,1zm11 -4l1 -1 2 1c1,0 1,0 1,0 0,1 0,1 0,1 0,2 0,2 -1,3l-1 0c-1,-1 -1,-1 -2,-1 1,1 1,1 1,2l-3 -1c0,-1 0,-1 0,-3 2,1 1,0 1,2l2 0c0,-1 -1,-2 -1,-2 0,0 1,0 0,0 0,0 0,0 0,-1zm-14 -8c0,2 0,0 0,1 1,1 0,1 1,1 0,0 0,0 0,1 -2,2 -2,1 -2,4 1,0 2,0 3,-1 0,-1 0,0 1,-1 2,0 2,0 3,-1 0,2 -1,1 -3,2 0,0 1,0 2,0 2,-1 1,0 1,0 -1,0 -3,0 -4,1 0,0 -2,2 -2,2 -2,2 -3,5 -4,5 1,0 0,1 1,2 -1,1 0,1 -1,1 1,0 0,0 0,0 0,1 0,1 0,1 0,0 0,0 0,0l0 1c1,-1 1,-1 1,-2 3,0 4,0 6,0 0,0 0,-1 0,-3 1,1 0,1 1,1l1 -1c0,0 0,0 0,0 0,0 0,0 0,0 0,0 0,0 0,0l0 -2c1,0 0,0 1,1 0,0 0,0 1,0l-1 -1c0,0 0,0 0,-1 2,0 0,0 1,-2l1 1 0 0c0,0 0,0 0,0 0,-1 0,-1 1,-1 0,1 0,0 0,0 3,0 2,3 1,3 0,0 -1,1 0,-1l-1 1 0 0c0,0 0,0 -1,0 0,0 0,0 0,0 1,1 0,0 0,2 0,0 0,0 0,1l0 -1c0,0 0,0 0,0 0,0 -1,0 -1,0 0,1 0,2 0,3 0,1 -1,0 1,1 0,0 0,0 0,0l0 0c1,0 1,0 1,0 0,0 0,0 0,1 0,0 0,0 0,0 0,0 0,0 0,0 0,0 0,0 0,0 2,0 0,-1 0,-2 2,0 2,0 2,1 0,-3 0,-1 1,-3 1,0 0,0 1,0 1,0 1,0 1,0 0,0 0,0 0,0l1 -1c0,1 0,1 1,2 1,0 1,1 1,2 1,0 1,0 1,0l0 1c0,1 0,1 0,1 0,1 0,1 1,1l1 -1c0,0 0,0 0,0 0,0 1,0 1,-1 -1,0 -1,0 -1,-1 -1,0 -1,0 0,-1l0 0c0,0 0,0 0,0l1 0 2 0c0,0 0,0 0,0 0,0 0,0 0,-1l0 0 0 -1c0,-3 0,1 1,-2l0 -1c1,0 1,0 1,0 -1,-1 0,0 -1,-1 0,0 0,1 0,0 -1,0 0,0 -1,0 0,-3 0,-2 0,-3l0 -2 -1 0c0,0 0,0 0,0 0,0 -1,0 -1,0 0,0 0,0 0,0 0,1 0,1 0,2 -1,0 -2,1 -2,-2l0 0 0 -1c1,0 1,0 1,0 -2,0 -1,0 -2,-1 -1,0 0,0 -1,1 0,-2 0,-2 -1,-2 -1,-1 -2,-1 -2,-1 0,1 0,1 1,1 0,0 0,1 0,2 -1,0 -1,-1 -2,-1 -1,-1 0,-1 0,-3 -1,0 -4,0 -4,1 0,0 1,0 1,1 0,0 0,0 -1,0 0,0 0,0 0,0 0,0 -1,0 -1,-1 -1,0 0,0 -1,-2l0 0c-1,0 -1,0 -2,0 0,1 0,1 -1,1 0,2 0,1 1,2 -1,-1 -1,0 -2,0 0,-1 0,0 0,-1 0,0 0,0 0,0 -2,-2 -1,-2 -2,-2 -1,0 -1,0 -1,0z"/>
   <path class="fil5" d="M191 120c1,0 1,0 2,1 1,3 0,13 0,17 0,2 -1,3 -2,3l0 1 6 0c1,0 0,0 1,0 -1,-3 -3,2 -3,-8 0,-3 0,-7 0,-10 0,1 5,12 5,14 1,1 1,3 3,4 0,-1 1,-1 1,-2l6 -16c1,-1 1,-1 1,-1 0,3 0,6 0,9 0,8 1,9 -3,9l0 1 10 0 0 -1c0,0 -2,0 -2,-1 0,-4 -1,-17 0,-19 1,0 1,-1 2,-1l0 0c-9,0 -6,-1 -8,3 -1,2 -5,11 -5,12l-1 0c0,-1 -2,-7 -3,-8l-2 -6c-1,-2 -2,-1 -8,-1l0 0z"/>
   <path class="fil6" d="M137 120c2,0 3,1 3,3l0 16c0,2 -2,2 -3,2l0 1 10 0 0 -1 -2 0c-1,-2 -1,-8 -1,-10l12 0c0,1 0,7 0,9 -1,1 -1,1 -3,1l0 1 11 0 0 -1c-2,0 -3,0 -3,-3l0 -15c0,-2 0,-3 3,-3 -1,0 0,0 -2,0l-9 0 0 0c4,0 3,2 3,9l-12 0c0,-7 -1,-9 3,-9l0 0 -9 0c-1,0 -1,0 -1,0z"/>
   <path class="fil7" d="M63 99l-3 0c0,-1 0,-7 0,-8 2,-1 8,-1 8,4 0,3 -2,4 -5,4zm5 10l1 2c2,0 6,0 7,0 -1,-1 0,0 -1,-1 -1,0 -1,0 -1,0 -2,-2 -4,-6 -6,-9 0,0 0,0 0,0 4,-1 7,-7 1,-10 -3,-2 -11,-1 -16,-1l0 0c4,0 3,2 3,11 0,10 1,9 -3,9l0 1 10 0c0,-1 0,0 -3,-1l0 -9c2,0 2,0 3,0 1,1 2,2 2,3 1,1 2,4 3,5z"/>
   <path class="fil4" d="M92 59c1,0 0,0 0,1 0,0 -2,0 -2,1 0,1 0,0 1,1 1,0 -1,0 1,0 1,0 0,0 1,1l2 -1c0,0 0,0 0,1l0 0c0,0 0,0 0,1l0 1c0,0 0,0 0,0 2,0 2,-2 3,-2l0 -1c1,0 1,0 1,0 1,0 1,0 2,-1 0,0 0,1 0,1l1 0c1,1 0,1 2,1 0,1 0,2 0,2 1,0 0,0 1,0 0,-1 0,-1 -1,-2 1,0 1,0 2,1 1,-1 1,-1 2,-1 0,2 0,1 1,3 -1,1 -1,0 -1,2l2 0c6,1 4,1 5,4l1 1c-1,1 -1,1 -1,2 0,2 -1,0 0,2 0,0 0,0 1,0 0,1 0,0 0,1l1 0c0,0 0,0 0,0 0,-1 0,-1 0,-1l2 0c0,-1 0,0 0,-1 0,0 -1,0 -1,0 0,0 0,0 0,0 0,-1 0,-1 1,-1 0,-1 0,0 0,0 0,0 0,-1 1,-1l1 1c1,-1 0,0 0,-1 0,0 0,0 0,0 0,-2 -1,-1 -2,-2 1,0 1,0 1,-1l2 -2 -1 0c-1,1 0,1 -1,2 -1,-2 -1,-2 0,-3 -1,-1 0,1 -1,-2 -2,-1 -1,1 -3,-1 0,1 0,1 -1,1 0,0 0,0 0,-1 0,0 0,0 0,0 -1,0 -1,0 -1,1 0,1 0,0 1,1 0,0 0,0 0,0l-2 0c0,0 0,0 0,0l0 -1c-1,0 0,0 -1,0 0,0 -1,0 -1,-1 2,0 0,1 1,0 -1,-1 -3,0 -2,-2 1,-1 0,0 1,-1 1,0 1,0 1,0 0,0 0,-1 0,-1 0,0 0,0 0,0l2 1c0,-1 0,0 -2,-1 -1,-1 -1,0 -2,0 0,-1 0,-1 0,-1l-2 -1c0,1 0,1 0,1 -2,0 -1,0 -3,-1 -1,0 0,1 -1,0 -1,0 0,0 -1,0 -1,0 -1,0 -1,-1 0,-2 0,0 0,-1 0,-1 -1,-1 -1,-1 0,-1 0,-2 1,-3 0,0 0,0 1,1 -1,-1 -1,-2 -1,-2 -1,1 0,0 -1,1l0 0c0,1 0,1 0,1 -1,0 0,0 -1,0 -1,0 -1,0 -2,0 1,-1 1,-2 0,-2l0 -1c0,-1 1,0 1,-1 1,-2 0,1 0,-1l1 -2c0,-1 1,-1 -1,-2 1,2 0,0 1,2l-1 0c1,1 0,0 0,2 0,0 -1,1 -1,1 -2,0 0,-1 -2,-1 0,1 0,1 1,2 -1,0 -1,-1 -1,1l0 -1c0,0 0,0 0,0l1 1c0,0 0,1 0,1 1,0 0,-1 1,0 -1,1 -3,1 -4,1 1,1 -1,-1 1,0l0 1 -1 0 0 1c1,0 1,0 1,0 -1,0 -2,1 -2,1 0,1 -1,2 -1,2z"/>
   <path class="fil6" d="M178 141l-2 0c-6,0 -6,-13 -4,-17 2,-5 8,-4 10,-1 3,5 3,18 -4,18zm-13 -11c0,4 0,6 3,9 3,3 6,4 10,4 5,0 11,-6 11,-11 0,-4 -1,-7 -4,-10 -1,0 -2,-1 -3,-2 -5,-1 -9,-1 -13,2 -2,2 -4,5 -4,8z"/>
   <path class="fil7" d="M92 110c-1,1 -1,0 -1,1 1,0 7,0 7,0 0,-1 0,0 -1,-1l-1 0c0,0 0,0 0,-1 -1,-1 -1,-14 -1,-17l6 7c1,1 10,11 10,11l2 1 1 0 0 0 0 -1c0,-3 0,-14 0,-17 0,-2 1,-2 3,-3l0 0 -7 0 0 0c3,0 3,2 3,6 0,3 0,6 0,9l-14 -15c0,-1 -1,0 -4,0 -1,0 -3,0 -4,0 0,2 2,-1 3,3 0,2 0,14 -1,15 0,2 0,2 -1,2z"/>
   <path class="fil5" d="M221 120c2,0 3,1 3,3 0,4 0,16 -1,18l-2 0 0 1 18 0c1,0 1,-1 1,-1l2 -6c-2,0 -1,2 -4,4 -2,2 -5,2 -9,2 -1,0 -1,0 -1,-1l0 -9c5,0 7,0 8,5l1 0 0 -10c-2,0 -1,0 -1,1 -2,3 -5,3 -8,3l0 -8c0,-2 2,-2 5,-2 3,0 5,3 7,5 0,1 0,1 1,1l-2 -5c0,-1 0,-1 -1,-1l-17 0 0 0z"/>
   <path class="fil8" d="M125 123c0,-1 0,0 0,0 0,0 -1,0 0,0zm-3 -1c0,1 1,1 0,1 0,-1 0,-1 0,-1zm0 0c1,0 0,0 1,0 1,0 1,0 1,1 -1,0 -1,0 -2,-1zm-6 0l0 0c0,0 0,0 0,0zm10 -1c-4,0 -1,0 -3,-1 0,0 0,0 2,0 1,1 1,0 1,1zm3 -1c0,0 0,0 -1,0l0 0 1 0zm5 0c-2,0 0,0 -1,-1 2,0 1,0 1,1zm-5 0c0,-1 0,-1 1,-1l0 1 -1 0zm-9 -3l0 0c0,0 0,0 0,0zm8 -1l0 0 0 0zm0 0l0 -1 0 1zm-3 0l-1 0c1,-1 -1,-1 1,-1 0,0 0,0 0,1zm3 -1c-1,0 -2,1 -2,1 0,-2 0,-1 0,-2l2 0c-1,1 -1,0 0,1zm-6 -3c0,0 1,0 1,0l0 1c-1,0 0,0 -1,-1zm-2 -2c1,0 0,0 1,1 -1,0 0,0 -1,0l0 -1zm-6 0l0 0zm0 0l0 0 0 1c1,0 0,0 0,1l1 0c1,-1 -1,-1 1,-1 1,0 1,1 1,1l-1 0c1,1 3,1 4,1 0,0 0,0 -3,0l0 -1c3,0 3,1 5,1l-1 0 1 1c1,0 -1,-1 1,0 0,0 0,0 0,2 -1,-1 -1,-1 -1,0 1,0 0,0 1,1 -1,0 -2,0 -4,0l0 0c1,0 1,0 1,0 0,0 0,1 0,1l0 1c0,1 0,0 0,1 1,3 -1,1 -3,2 0,0 2,0 3,0 1,0 1,1 2,1 -2,1 -1,0 -3,0l-1 0c0,0 -1,0 -1,0 0,-1 0,0 0,-1l-1 1c0,-1 0,0 0,-1 0,0 0,0 0,0 0,0 0,0 0,-1l-2 -1 2 0c0,-1 0,-1 0,0l-2 0 -1 0c0,0 0,0 1,0 -1,1 -1,0 -1,1 0,0 0,0 0,0 1,1 1,0 1,1 0,0 0,1 -1,0 1,1 0,1 0,1 -1,0 0,0 -1,-1 -1,1 -1,0 -1,1 1,0 1,0 0,0 0,0 0,0 -1,0 1,1 0,1 1,1 1,0 0,-1 1,0l0 1c0,0 0,0 0,0 0,0 0,0 0,0 1,0 1,0 1,-1 0,0 0,0 0,0 0,1 1,0 3,1 0,0 0,0 0,0 -1,0 -2,-1 -2,1 2,0 3,-1 6,-1 5,0 0,0 3,0 1,0 1,0 2,0 1,-1 0,-1 1,-2 2,-1 5,0 5,0 1,-1 1,-1 1,-1 2,-1 4,0 4,-1 0,-2 -1,1 -2,-1l1 -1c-2,0 0,0 -3,0 -1,0 0,0 -1,-1l0 0c1,-1 0,0 1,-1 -1,0 -1,0 -2,0 1,-1 -1,-1 2,0 0,0 0,-1 0,-1 0,0 1,0 1,0 1,0 0,0 1,0 0,-2 1,-2 -4,-2 0,-1 -1,0 1,0l1 -1c0,0 0,0 0,0 2,0 0,0 1,0 -2,0 -1,0 -2,-1 -3,-1 -3,0 -5,-1 -2,0 -2,0 -3,0 0,-1 0,0 1,-1 -1,0 -1,0 -2,0l-3 0c0,1 0,0 0,0l-2 0c3,0 -1,-1 -3,0z"/>
   <path class="fil7" d="M243 90c2,0 2,1 2,3 0,3 1,16 0,17 -2,1 -2,0 -2,1l18 0c1,-1 1,-2 2,-3 0,-1 0,-2 0,-3 -1,0 -1,0 -2,2 -3,4 -5,3 -10,3 -1,0 -1,0 -1,0l0 -9c9,0 6,3 8,4 0,0 0,0 0,0l0 -10 0 0c-1,5 -6,4 -8,4l0 -8c0,-1 1,-1 3,-1 3,0 4,1 5,2 4,3 3,4 5,4 0,-3 -2,-4 -2,-6l-18 0 0 0z"/>
   <path class="fil6" d="M245 126c0,0 0,2 0,2 1,0 1,0 1,1 0,0 0,0 0,0 2,2 3,2 5,3 3,2 7,2 7,6 0,3 -7,6 -11,-2 -1,0 -1,-1 -1,-1 0,-1 0,-1 -1,-1 0,1 0,6 0,7 0,2 1,0 2,0 2,0 2,2 5,2l3 0c3,0 6,-3 6,-6 0,-5 -1,-6 -6,-8 -1,-1 -2,-1 -4,-2 -1,-1 -3,-2 -3,-4 0,-3 6,-4 10,1 2,3 0,3 2,3 0,-11 0,-7 -2,-7 -1,0 -10,-3 -12,3 -1,0 -1,2 -1,3z"/>
   <path class="fil7" d="M122 101c0,8 8,13 17,10 2,0 2,-1 4,-2 0,-4 0,-7 2,-7l0 -1c-1,0 -7,0 -8,0 -1,0 -1,0 -1,1 4,0 3,1 3,5 0,6 -13,7 -13,-6 0,-4 1,-8 4,-10 4,-2 9,0 11,4 1,2 0,2 2,2l0 -7c0,0 1,-1 0,0 -1,0 -2,0 -2,0 -1,0 -9,-3 -15,1 -1,1 -1,2 -3,3 -1,2 -1,4 -1,7z"/>
   <path class="fil7" d="M7 95c0,4 1,5 5,7 5,2 7,2 7,6 0,3 -7,4 -10,0 0,-1 0,-1 -1,-2 -1,-2 0,-2 -1,-2l0 7c1,0 1,0 2,0 1,0 2,0 3,0 5,2 11,0 11,-5 0,-7 -5,-7 -10,-10 -5,-2 -3,-6 0,-6 2,0 4,0 5,3 1,1 2,2 2,4l1 0 0 -8c-3,1 0,2 -4,1 -4,-1 -10,-1 -10,5z"/>
   <path class="fil7" d="M38 100l-2 0c0,-3 -1,-7 0,-9 3,-1 8,-1 8,4 0,3 -3,5 -6,5zm-7 -9c1,2 1,17 0,19 -3,1 -2,0 -3,1 1,0 0,0 1,0l9 0c1,0 0,0 1,0 -1,-1 0,0 -3,-1 -1,-2 0,-6 0,-9 2,0 8,0 9,-1 5,-3 3,-10 -4,-10 -4,-1 -9,0 -13,0 1,1 1,0 3,1z"/>
   <path class="fil9" d="M88 71l0 0zm-2 -11c0,-1 0,-1 1,-1l1 0c2,0 -1,3 -2,3 0,-1 0,-1 0,-2zm1 -7l0 -2 1 0c0,2 -1,1 -1,2zm0 1l-1 2c0,0 -1,0 -1,0l1 2c0,1 0,1 -2,2 0,-1 0,-1 0,-1 0,0 -1,-1 -2,-1 0,1 1,-1 0,0 0,1 0,1 0,1 0,0 1,0 2,0 0,1 0,1 0,2 0,0 0,0 1,1l-1 1c-1,-1 0,0 0,-1 0,0 0,0 0,0 -1,0 0,0 -1,0 0,1 0,1 1,1 0,1 0,1 0,2 1,1 0,1 0,3 0,0 -1,1 -1,1 -1,0 -2,0 -2,-1 -1,0 0,0 -1,0l0 1c0,1 1,0 0,0 0,1 0,1 0,2 0,0 1,0 1,0 0,1 0,1 0,1 1,1 1,0 2,1 0,1 0,1 0,1 0,0 -2,-1 -3,-2 0,1 0,2 -1,2l-1 0c1,0 2,0 2,0l1 1c1,1 3,1 2,3 -1,0 -1,0 0,1l0 1 0 1 0 1c1,-1 1,-2 1,-3l0 1c1,-1 0,-1 2,-2 0,2 -1,3 -1,3 1,1 0,1 1,1l0 -1c0,-1 0,-1 0,-1 1,0 2,-3 4,-5 0,0 2,-2 2,-2 1,-1 3,-1 4,-1 0,0 1,-1 -1,0 -1,0 -2,0 -2,0 2,-1 3,0 3,-2 -1,0 -1,1 -3,1 -1,0 -1,0 -2,1 0,0 -1,0 -2,1 0,-3 0,-2 2,-4 0,-1 0,-1 0,-1 -1,0 -1,0 -1,1 0,0 0,0 0,0 -1,1 0,0 -1,1 -1,0 0,0 -1,1 0,-2 1,-1 0,-2l1 -1c0,0 0,0 -1,0 -2,1 -1,2 -2,2 -1,0 -1,0 -1,0 0,-2 -1,-1 1,-1l-1 -2c0,-1 0,0 0,-1 0,-1 0,0 1,-1 0,0 0,0 0,0 0,0 0,-1 0,-2 0,0 0,0 1,0l0 0 0 0c0,-1 1,-1 2,-1l0 0c1,0 0,0 1,0l1 0c-1,-1 -1,0 -1,-1 0,-1 2,-1 2,-1 0,-1 1,-1 0,-1 -1,0 -2,1 -2,0 0,-1 1,-1 1,-2l1 -2c0,-1 0,-1 0,-2 0,0 0,0 0,1 0,0 0,0 0,0 -1,2 -1,2 -1,3 0,0 -2,2 -3,1 0,-1 -1,0 0,-1l1 0c0,0 0,0 0,-1 0,0 0,0 0,0 0,-1 0,-2 0,-3 0,0 0,0 0,0 0,0 0,0 0,0 1,-1 0,0 1,-1 0,0 0,0 1,0 -1,-1 0,0 -1,-1l-1 0c1,0 1,-1 2,-1l0 0 -1 0c0,0 0,0 -1,0 0,0 0,0 0,1l0 0c0,0 0,0 0,0l-1 -1c-1,0 -2,0 -3,0l1 -2c-2,0 -2,0 -3,0 -2,-2 0,-1 -2,-1 1,1 0,1 0,3 1,0 0,0 1,0 1,-1 1,-1 2,0 0,0 0,1 2,1 0,0 0,0 0,0 0,2 1,1 1,3z"/>
   <path class="fil10" d="M80 120c0,0 1,1 0,1 0,0 0,0 0,-1zm-10 0l0 0c0,0 -1,0 0,0zm11 0l0 0c0,0 0,0 0,0zm-4 0c1,0 0,0 1,0l-1 0zm-7 -2l0 0c0,0 -1,0 0,0zm-2 -1l-2 0c1,0 0,0 1,0 1,0 0,0 1,0zm6 0c-2,0 0,0 -3,0l-1 0c1,0 1,0 2,0l2 0 0 0zm-12 0l0 0zm4 -1l0 0c0,0 0,0 0,0zm-2 0c1,1 0,0 1,1 -1,0 -1,0 -1,-1zm-2 1l1 -1c0,0 0,0 0,0 1,0 0,0 1,0 -2,1 -1,1 -2,1zm8 0l-1 0c0,-1 0,-1 0,-1l1 0c0,1 1,0 0,1zm-10 -1l0 0c0,0 0,0 0,0zm2 0c1,-1 1,0 1,0 0,0 -1,0 -1,0zm4 -2l0 0c0,0 0,0 0,0zm-6 1l-1 1c0,-1 0,-1 0,-2l0 0c1,0 4,-1 5,0 -2,0 -1,0 -2,2 -2,0 -1,-1 -2,-1zm18 -5c0,0 0,0 0,1 1,0 1,0 1,0 -2,0 -1,0 -1,-1zm2 0c0,0 2,0 1,0 -1,0 -1,0 -1,0zm-21 4c-2,0 -2,1 -3,0l-2 0c1,1 1,0 0,2 1,0 1,0 2,0 0,0 0,0 0,0 0,0 0,0 0,0 -1,0 0,0 -2,0l0 0c2,1 3,1 5,1l-2 0c2,0 4,0 5,0 1,1 0,1 1,1 1,0 2,-1 2,-1 0,2 1,1 -2,2l0 0c1,0 2,0 2,0 1,1 0,0 0,1 0,0 1,0 1,0 2,0 2,0 3,1l8 2c1,0 2,1 4,0l-3 -1c0,0 1,0 2,0 1,0 0,0 0,0 0,0 1,0 0,0 2,-1 1,0 1,-2 -2,0 0,-1 -1,0l-2 0c0,-1 0,-1 0,-1 -1,1 -1,1 -1,1l1 0c0,0 0,0 0,0 0,2 0,1 -1,1 -3,1 1,1 -3,1l0 0c0,0 0,-1 0,-1l-1 -3 1 -1c0,0 0,2 0,0l0 0c0,0 -2,0 -2,0 0,-1 0,-2 0,-3 2,0 2,0 2,0 -1,0 -4,0 -5,-1l5 0c-2,0 -1,1 -1,0 0,0 1,0 1,0 1,0 1,0 2,0l0 0 1 0c0,0 -1,0 0,0 2,0 1,0 0,0l1 1c2,0 0,-1 1,0 2,-1 2,-3 2,-5 -1,0 -4,0 -7,1 0,0 0,0 0,0 0,0 0,0 0,0 0,0 0,0 1,0 1,1 0,0 1,1 -1,0 -5,0 -7,0l-1 -2c-1,1 -1,0 -2,1 1,1 1,0 2,1 0,0 0,0 0,0 0,0 0,0 -2,0 -1,0 1,0 -1,0l0 1c1,1 1,1 1,1 0,0 1,0 0,0l-1 0c-2,0 -3,0 -3,0l-3 0c-1,0 0,0 0,0 -1,1 -2,0 -3,1 1,0 0,0 1,0l2 0z"/>
   <path class="fil7" d="M147 90c3,0 4,5 5,7l3 6c1,2 4,8 4,9 2,-1 1,0 2,-1 0,-1 0,-1 0,-1 1,-2 1,-3 2,-3l2 -6c2,-3 4,-8 5,-9 2,-2 3,0 3,-2l-8 0 0 0c5,1 2,4 0,9l-4 7c0,-2 -6,-13 -6,-15 1,0 2,-1 3,-1l0 0 -11 0 0 0z"/>
   <path class="fil7" d="M217 90c1,0 3,0 3,2l0 17c0,2 -1,1 -3,1l0 1 19 0c1,0 2,-5 2,-6 -2,0 -1,0 -3,3 -3,3 -7,2 -11,2 0,-1 0,-1 0,-2l0 -15c0,-2 1,-3 3,-3l0 0 -10 0 0 0z"/>
   <path class="fil7" d="M191 90c3,0 3,0 3,3l0 15c0,1 0,1 0,2 -2,0 -2,0 -3,1l20 0c0,-1 1,-4 1,-6 -2,0 0,0 -3,3 -3,3 -5,2 -9,2 -1,0 -1,0 -1,0 0,-4 -1,-17 0,-19 2,-1 2,0 2,-1l-10 0 0 0z"/>
   <path class="fil7" d="M176 90c2,0 3,0 3,3l0 15c0,2 0,2 -2,2 -1,1 -1,0 -1,1 2,0 9,1 10,0 0,-1 1,0 -3,-1 0,-3 0,-15 0,-18 0,-1 1,-1 2,-2 1,0 1,1 1,0 -1,-1 -8,0 -10,0l0 0z"/>
   <path class="fil11" d="M82 95c0,4 -1,10 -1,14 0,2 0,4 -2,5 -1,0 0,0 0,0 3,0 6,0 9,0 0,0 0,0 0,0 0,0 0,0 -1,0 -3,-1 -1,-1 -2,-4 1,-2 1,-7 1,-9l0 -5c-1,-2 0,-3 -1,-5 -1,0 -1,-1 -2,1 0,3 0,4 0,6 0,1 0,1 0,3 0,0 1,-1 0,0 -1,0 0,0 0,0 0,-1 0,-14 -1,-6z"/>
   <path class="fil4" d="M66 31l0 -1c2,1 1,2 2,3 -1,0 0,0 -1,0 0,0 0,0 0,0l-1 2c-2,-2 0,-1 -1,-2 -1,0 0,0 -1,0 0,0 0,0 -1,0 2,1 1,0 2,1 0,2 0,1 1,2l-1 2c2,0 1,0 3,1 0,1 0,1 0,1 0,0 0,0 0,0 0,1 1,1 1,2l-1 -1c-1,-1 0,0 -1,0 0,0 0,0 0,0 1,1 1,1 1,1 0,0 0,1 0,1 0,1 0,0 0,0l0 0c1,1 1,1 1,1 1,0 0,-1 1,0l1 0c0,0 -1,0 -1,-2 0,-2 -1,-1 -1,-3 0,-1 0,-1 0,-2l2 0c1,1 0,1 1,1 0,0 0,0 0,0 0,0 0,0 1,0 -1,0 -1,1 -1,1l1 0 0 0c1,0 1,0 1,-1l0 0c0,0 -1,0 0,0 1,0 1,0 1,1l1 0 1 0 0 0c0,-1 0,0 1,0l1 -1c0,1 1,1 0,2 1,-1 1,-1 1,-1 -1,-1 -2,-1 -3,-2l0 1 -1 -2c0,0 1,0 1,0l0 -1c1,0 2,-1 1,-2 -1,0 0,0 0,2 -3,-2 0,-2 -3,-2l0 1c0,0 1,-1 2,0 0,1 -1,1 -2,2 0,0 -1,0 -1,0 1,1 1,0 1,1 -1,0 -1,0 -2,-1 1,-1 1,-1 1,-2 -1,1 0,1 -1,1 -1,0 -1,0 -2,0 -1,0 0,0 -2,-1l3 -1 1 1 1 -1c-2,-1 -2,-1 -2,-2l2 0c0,0 0,0 0,0l0 -1c0,0 -2,1 -3,-1 1,0 0,0 1,-1 -1,0 0,0 -2,1 -2,0 1,0 -1,0 -1,0 0,0 -1,0 0,0 0,0 0,1l-2 0 0 1z"/>
   <path class="fil4" d="M93 44l0 0c2,0 -2,1 0,0 4,-1 3,1 3,1 2,-1 0,2 3,-2 0,0 0,0 0,0 0,-1 -1,0 -1,-1 1,-1 1,0 2,0 0,0 -1,0 -1,-2 0,-1 2,-1 3,-1 -1,1 -1,1 -1,2 0,0 1,0 1,0 1,-1 1,0 1,-2 0,0 1,0 2,0l-1 -1c-1,0 0,0 -1,0 1,-1 1,-1 1,-2 -2,0 -1,0 -3,1l0 -2c-2,0 -2,0 -2,0 -1,0 0,-1 -1,0l0 0c-1,-1 0,0 -2,0 0,0 0,0 0,0l-1 0 0 -2c-2,1 -2,2 -2,1 0,1 0,1 1,2 0,1 0,0 -1,1 0,2 0,0 0,2 -1,-1 0,-1 -2,-1 0,0 0,1 0,1l0 0c0,0 0,0 0,0l2 1c1,1 0,0 2,1 -1,1 -2,1 -3,1 0,2 0,1 1,2z"/>
   <path class="fil1" d="M95 62l0 0zm0 0l-2 1c0,1 0,0 -1,1 -1,1 -1,1 -2,1l0 1c0,0 0,0 1,0 1,0 0,0 2,2 0,0 0,0 0,0 0,1 0,0 0,1 1,0 1,-1 2,0 -1,-1 -1,0 -1,-2 1,0 1,0 1,-1 1,0 1,0 2,0l0 -1 2 0c-1,1 -1,1 -2,1 1,2 0,2 1,2 0,1 1,1 1,1 0,0 0,0 0,0 1,0 1,0 1,0 0,-1 -1,-1 -1,-1 0,-1 3,-1 4,-1 0,2 -1,2 0,3 0,-1 0,-1 0,-2 0,0 1,-2 2,-2l2 1c1,1 0,1 1,1 0,-2 0,-1 1,-2 -1,-2 -1,-1 -1,-3 -1,0 -1,0 -2,1 -1,-1 -1,-1 -2,-1 1,1 1,1 1,2 -1,0 0,0 -1,0 0,0 0,-1 0,-2 -2,0 -1,0 -2,-1l-1 0c0,0 0,-1 0,-1 -1,1 -1,1 -2,1 0,0 0,0 -1,0l0 1c-1,0 -1,2 -3,2 0,0 0,0 0,0l0 -1c0,-1 0,-1 0,-1l0 0c0,-1 0,-1 0,-1z"/>
   <path class="fil12" d="M80 26c1,0 1,0 2,0 0,0 -1,0 0,0 2,0 3,-2 4,-2 1,-1 1,0 1,0 0,0 -1,1 -2,1 1,1 1,1 2,1 0,1 -1,1 0,2 1,-1 0,-3 3,-4 2,0 2,2 2,3 0,0 0,0 0,0 0,0 0,0 0,-1 1,0 1,0 2,0 1,0 1,0 1,0 -1,-1 -1,0 -2,-1 0,-1 -1,-1 -1,-2l1 0c-1,-1 -1,-1 -1,-2 -1,0 -2,0 -2,0 -1,0 2,0 0,1 -1,1 -2,0 -3,-1 0,-1 1,-1 2,-2l-1 -1c0,0 0,0 0,0 0,0 0,0 0,0 0,1 -1,1 -1,1 -1,-1 -1,-1 -1,-2 -1,0 0,1 -2,1 0,0 0,0 -1,1 0,1 0,0 0,1 0,2 0,0 -1,3 0,0 0,0 0,0 0,0 0,0 0,0 -2,1 -1,-1 -3,1 1,0 1,0 1,1 0,1 0,1 0,1z"/>
   <path class="fil2" d="M74 38c0,1 1,1 0,1l0 -1zm-4 4l1 0c1,0 -2,2 0,0l1 0c1,0 0,0 1,0 1,0 0,0 1,-1 1,1 0,1 1,1 0,0 0,-1 0,0 2,0 1,0 1,2 1,0 1,-1 2,0 -1,1 0,0 -1,1 0,0 -1,0 -2,0 0,0 0,0 1,1l-2 1c0,0 0,0 0,0 -1,0 -1,0 -2,-1 0,0 -1,1 -1,1 -2,1 -1,0 -2,1 0,0 0,0 1,1 1,1 1,1 1,1 1,0 1,-2 1,-2 4,0 3,-1 5,0 0,0 -1,0 -2,1l2 0 0 -1 1 0 0 1c0,0 0,0 0,0 0,0 0,0 0,0 2,1 0,1 2,1 0,-2 1,-3 0,-4 0,0 0,0 -1,-1l-1 0c0,0 -1,0 -1,0 0,0 0,0 0,0 1,-1 1,0 1,-1 0,-1 0,-1 0,-2 0,0 0,-1 0,-2l0 1c-1,0 -1,0 -1,-2l-1 0 -1 0c0,-1 0,-1 -1,-1l0 0 0 0 0 0c0,1 0,1 -1,1 1,1 1,1 0,1 0,0 0,-1 0,-1l-1 0c0,0 0,-1 1,-1 -1,0 -1,0 -1,0 0,0 0,0 0,0 -1,0 0,0 -1,-1l-2 0c0,1 0,1 0,2 0,2 1,1 1,3z"/>
   <path class="fil13" d="M59 78l-2 0c0,0 0,0 0,0l2 0zm-2 3l0 1c1,1 1,1 0,2 0,1 -1,2 0,3 0,1 0,0 0,2 0,0 1,0 2,0 1,0 0,1 1,0 3,0 3,0 5,0 -1,-1 -1,-1 0,-2 -1,0 -1,0 -1,0 0,1 -3,1 -3,2l-1 0c0,0 0,0 0,0 -1,-2 0,-1 1,-2 0,-1 0,0 -1,0 0,0 0,0 0,0 0,0 0,0 0,0 0,-1 0,-1 -1,-1 0,0 0,-1 1,0 0,0 0,0 0,0 1,-1 1,-1 2,-2 1,0 0,0 1,0 0,0 0,0 0,-1l0 -1c-2,1 -1,1 -2,1 -1,1 0,0 -1,1l0 0c0,0 -1,1 -1,1 0,-1 1,0 0,-1l0 0c0,-1 0,0 0,-1l0 0 0 -1c0,0 0,0 0,0 0,-1 0,-1 0,-2 0,0 0,0 0,0l-1 0c1,0 1,-1 1,-2 0,-1 0,-1 -2,-1 1,0 1,0 2,0 0,0 0,-1 0,-1 0,0 0,0 0,0 -1,-1 0,-1 0,-2 0,0 0,0 0,0 -2,0 0,0 -2,1 -2,0 -1,0 -1,2l-1 -3c-1,0 -1,0 -1,1 0,-1 0,-3 0,-4 -1,1 -1,1 -2,2l1 0c0,1 0,1 0,2 0,1 0,2 1,2 0,1 -1,0 0,2 2,-1 1,-1 3,-1 0,1 0,2 0,2l0 1z"/>
   <path class="fil2" d="M45 42c-1,0 -1,1 -1,0 0,-1 0,0 1,-1l0 1zm5 -9l0 0zm0 0c1,0 1,0 1,2 -1,0 -1,0 -2,-2 0,1 0,1 -1,1 0,0 0,0 0,0 0,-1 0,0 0,-1 0,0 -1,2 0,0l-1 0c0,0 -1,0 -1,1 1,1 1,0 1,0 0,1 0,1 0,2 -2,0 -2,-1 -3,0 1,1 1,1 2,0 -1,2 -1,2 -1,2l0 0c2,0 0,1 2,1 0,0 0,0 0,1 -1,0 -1,0 -3,0 0,0 0,0 0,1l0 0c-1,1 -1,0 -2,1 1,1 2,1 3,1l0 -1c0,1 0,0 0,0 0,-1 5,0 3,-3 0,-1 -1,-1 -1,-3l1 0c0,2 0,2 1,3l1 -1c-1,0 0,0 -1,-1l2 0c0,0 0,0 0,0l-1 -1c0,0 0,0 1,0 1,0 1,2 3,2 0,-2 0,-1 -1,-2 0,0 1,0 1,-1l2 -2c0,-1 -1,0 -1,-1 1,0 1,0 2,0l-1 -1c-1,0 -3,1 -3,2 1,1 1,1 0,2 -1,0 0,0 0,-2 -1,0 -2,2 -2,0 0,0 0,0 0,-1 0,-1 0,0 -1,0 0,1 0,1 0,1z"/>
   <path class="fil14" d="M62 52l0 0zm1 -2c1,0 1,0 1,0l-1 0zm3 -4c0,1 0,1 -1,1 0,-1 0,0 1,-1zm0 -1l0 0zm-7 -1l3 3c1,1 1,1 1,1 0,1 0,0 -1,1 0,0 0,-1 0,1 0,1 0,0 0,0l0 -1c0,0 1,0 1,0 0,1 0,1 0,1l0 0c0,1 0,0 0,1 -1,0 0,0 -1,-1 0,1 0,1 0,2l0 0 0 1c1,0 1,0 0,0 1,1 1,0 1,1l0 1 2 -1c0,-2 0,0 0,-2 1,0 0,0 1,1 0,0 0,0 0,0 1,0 1,0 1,0 0,0 0,0 0,0 -1,-3 0,1 -1,-1 2,-1 2,0 2,-2 0,0 0,0 0,0 0,0 0,0 0,0 -1,0 -1,0 -2,0 0,1 1,0 0,1l0 -1c-1,-2 0,0 0,-2 0,0 0,0 2,0 0,0 0,0 0,0 0,-1 1,-1 2,-1 1,-1 1,-1 1,-2 1,0 0,1 1,0 0,-1 -1,1 0,-1 -1,0 -1,0 -1,0l-1 0c-1,-1 0,0 -1,0 0,0 0,0 0,0 0,0 -1,0 -1,-1l0 0c0,1 0,1 1,1l0 1c-1,0 0,0 -1,1 0,-1 0,-1 0,-2 -1,0 0,1 -1,0 -1,1 0,0 -1,1 0,0 0,0 0,1 0,1 0,-1 0,0l0 0c-1,0 -1,1 -1,1 -1,1 0,1 -1,1 -1,0 -1,0 -1,-1 0,0 -1,-1 -1,-1 0,-1 -1,-1 -1,-1 1,-1 0,0 1,-1 0,0 0,0 0,0 -2,0 0,-1 -2,-1 0,0 0,0 0,1 0,0 0,-1 0,0 -1,0 -1,-1 -1,0z"/>
   <path class="fil0" d="M60 66c2,1 2,0 2,2l-1 0c0,-2 0,0 -1,-2zm-1 -1c1,0 1,0 1,0 0,1 0,0 0,1 0,0 0,0 0,0 -1,0 -1,1 -2,2l1 0 0 1 1 -1c0,0 0,0 0,0 2,0 1,0 2,0 0,0 0,0 0,0 1,0 0,0 1,0l0 0c0,0 0,0 1,0 0,0 0,0 0,0l1 0c0,0 0,1 0,0 1,0 0,0 0,0 0,1 0,0 0,0 1,0 1,0 1,1l0 0c0,2 0,2 0,3 2,-1 0,1 2,-3l0 1c0,-1 0,0 0,-1 1,0 0,0 0,-1 1,0 1,0 1,-1l-1 0c0,0 0,0 0,0l-1 -1c0,-1 0,-1 0,-1 0,0 0,0 0,0 -1,0 -1,0 -1,0 -1,0 -1,1 -1,-2 0,0 0,0 0,0l1 -2c-1,0 -1,1 -3,0 0,0 0,1 0,1l-1 0 0 -2c-2,0 -2,1 -2,1 -1,1 -1,-1 -3,0 0,1 0,1 2,1 1,0 2,0 3,1 1,1 1,1 1,2 -2,1 -1,0 -4,0z"/>
   <path class="fil15" d="M83 81l0 1c0,1 0,1 0,1 0,0 0,0 -1,0l1 0 0 1 -2 0 1 0 1 0c-2,2 -2,5 -1,6 0,4 0,8 0,12 0,-1 0,-1 1,-1 1,-1 0,0 0,0 0,-2 0,-2 0,-3 0,-2 0,-3 0,-6 1,-2 1,-1 2,-1 0,-1 1,-2 1,-2 0,-1 -1,-2 -1,-3 0,-1 0,-2 1,-2 0,0 0,0 0,0 -1,0 0,0 0,-1l0 0c0,0 0,0 1,-1 -1,-1 0,-2 -1,-2 -1,0 0,0 0,1 1,0 0,0 0,0 1,2 0,1 0,1 -1,0 0,0 -1,-1 1,-1 1,-1 1,-3 -2,0 -1,1 -2,2l0 -1c0,1 0,2 -1,3l0 -1z"/>
   <path class="fil16" d="M115 86c-1,0 -1,0 -1,-1l1 0 0 1zm0 -2l0 0c0,0 0,0 0,0zm-2 -3c1,0 0,0 1,1l-1 1c0,0 0,0 0,1l0 0 0 -1 -2 0 0 1c0,0 0,0 -1,0l0 -1 0 0c-1,1 -1,1 0,1 0,1 0,1 1,1 0,1 -1,1 -1,1 0,0 0,0 0,0l-1 1c2,0 1,0 2,0 0,-1 0,-1 1,-1 0,1 1,2 1,2 1,-1 0,0 0,-2 1,1 1,1 1,2 1,-1 1,-1 1,-2l1 1c0,-1 0,-1 1,-1l0 -3c0,0 0,0 0,-1 0,-1 0,-1 0,-2 1,0 1,-2 -1,0 0,-1 0,0 -1,-1l-1 -1 0 1c-1,3 -1,-1 -1,2z"/>
   <path class="fil2" d="M71 69c-2,0 -2,-1 -2,2l0 1c0,0 0,0 1,1 -1,0 -1,0 -2,0 0,1 0,1 0,1 1,0 1,0 3,0 0,-1 0,-1 0,-2 1,2 0,2 1,2 0,0 0,0 0,0 0,-1 0,-1 0,-2 2,1 2,1 2,3 3,0 0,0 3,1 0,-2 0,0 0,-1 0,-1 0,-2 0,-3l0 -1c0,-1 0,0 1,-1 -1,-1 -2,-1 -3,-2l-1 0 0 1c0,0 -1,0 -2,0 0,1 0,0 -1,0z"/>
   <path class="fil2" d="M103 70c1,0 1,1 2,1 0,-1 0,-2 0,-2 -1,0 -1,0 -1,-1 0,0 1,0 2,1 1,0 1,0 1,2 1,-1 0,-1 1,-1 1,1 0,1 2,1 0,0 0,0 -1,0l0 1c1,0 0,0 1,1 1,-1 0,-1 1,-1l0 0c0,0 0,0 0,0l-1 -1c1,0 1,0 2,0l0 -2c1,1 1,1 0,2 0,0 0,0 0,0l0 1 1 0 0 2 0 -1c2,-1 2,-1 3,0l-1 -1c-1,-3 1,-3 -5,-4l-2 0c-1,0 0,0 -1,-1l-2 -1c-1,0 -2,2 -2,2 0,1 0,1 0,2z"/>
   <path class="fil14" d="M125 63c0,0 0,-1 0,-1 0,0 0,0 0,0l-1 -1c1,1 1,1 1,1l0 1zm-9 -13c0,2 0,1 0,3 0,0 0,0 0,0l1 0c0,0 0,0 0,0l0 1c3,3 2,2 5,2 0,3 -1,0 0,2 1,1 1,2 1,3 0,0 -1,0 -1,1 1,0 0,0 1,0 1,1 -1,1 2,1l0 0 1 0c0,-1 0,-1 0,-2l-1 -1c-1,0 0,0 -2,1 0,-2 1,-1 2,-2 1,-1 0,-2 0,-2 -2,0 -1,0 -1,1l-1 0c0,-2 0,-1 0,-1 1,0 2,0 0,-1 -1,0 -1,0 -1,-2 1,0 0,0 1,0 -1,-1 -2,-1 -3,-2 -1,0 -1,1 -1,1 -2,-1 0,-1 -2,-1l0 -1c1,0 1,0 2,0 0,0 0,0 0,-1 -1,0 -1,0 -2,0 0,0 0,0 0,0l-1 0z"/>
   <path class="fil14" d="M47 56c1,1 1,1 0,1 0,0 0,0 0,-1zm-2 -1c-1,1 0,1 -1,0 0,1 0,2 0,2l-1 0 0 3c0,0 0,-1 0,-1l-1 0c0,0 0,0 -1,0 1,1 1,0 2,1l-1 2c1,-1 1,-1 2,0 0,-1 0,-1 0,-2 0,0 0,0 0,0l0 0c0,0 0,0 0,0 0,-1 0,0 -1,-1 1,0 1,0 2,0 1,-1 0,-1 2,0 0,1 -1,-2 0,1 0,2 0,0 -1,1l2 0c0,1 0,1 0,2 0,1 0,0 -1,1 1,1 1,1 3,1 -1,0 1,0 -1,0 0,-1 0,0 1,-2 -1,0 -1,0 -1,0 -1,0 -1,0 -1,0 0,0 0,0 0,0 1,-1 0,-1 0,-3l0 -1c0,-1 0,0 -1,-1 2,-1 2,-1 3,-2 0,0 0,0 0,0l0 0c0,0 0,0 0,0 0,-1 0,-1 0,-2 0,0 0,0 0,0 1,0 1,0 1,-1 -3,1 -3,2 -6,1 0,2 1,1 0,1z"/>
   <path class="fil14" d="M42 50c0,-1 0,0 1,-1 1,0 0,1 1,-1l1 0c0,1 0,0 0,2l0 1c1,-1 1,-1 2,-1l-1 -1c0,0 0,-1 1,-1l1 0c0,-1 0,-1 1,0 1,0 -1,0 1,2l0 -2c0,-1 0,0 0,-1 -1,0 0,0 -2,-1l-1 -1c-2,0 -1,0 -2,0 0,0 0,0 0,0l1 0c1,-1 1,0 2,-1 0,1 -1,1 0,2 0,-1 0,-1 0,-2 -1,0 0,0 -1,0 0,-1 0,-1 -2,-2 0,2 0,1 0,1l0 1c0,0 0,0 0,0l-1 1c-1,0 0,0 -2,1 2,2 2,0 3,0 1,1 -1,2 -2,2 0,-1 0,-1 -1,-1 -1,0 -2,1 -3,1 0,1 0,2 1,2 0,0 0,0 0,0l2 0z"/>
   <path class="fil17" d="M53 67l-1 0 0 1c-1,1 0,0 -1,1 2,0 3,2 3,2l0 0c0,-3 -1,0 0,-2 0,0 2,0 2,1 0,1 -1,0 0,2 0,0 0,0 0,0 0,0 0,0 0,0l2 0c1,1 1,0 2,0 0,0 0,0 0,-1 0,-2 0,-1 -1,-2l-1 0c-1,0 -1,0 -2,0 0,-1 0,0 0,0 1,-1 1,0 1,-1 1,0 1,0 2,-2 -2,0 -1,0 -2,0 0,-1 1,0 2,-1l-2 -1c-1,1 -1,0 -1,2 -2,-1 -1,-2 -3,0 0,0 0,0 0,0 0,0 0,0 0,0 0,0 0,0 0,0 0,0 -1,0 0,0 0,1 0,2 1,2l0 -2c3,0 2,1 2,2 0,0 0,-1 -2,0 0,0 0,0 0,0l1 0c0,0 0,0 0,0 0,0 -1,1 -2,0l0 -1z"/>
   <path class="fil2" d="M62 30c0,1 0,1 -1,1 -1,-1 0,-1 0,-1l0 0c-1,0 -1,0 -1,0 -1,0 0,0 -1,0 1,2 1,0 1,2 0,0 0,0 -1,0 1,1 0,1 1,1 1,0 1,0 2,0 1,-1 1,-1 2,-1l1 0c2,-1 1,0 1,-2l0 1c-1,-1 -1,-1 -1,-2 0,0 0,-1 0,-2 -2,0 -1,0 -1,0 0,0 0,-1 0,-2l1 0 -2 -1c-1,0 -1,0 -1,0l0 1c0,0 0,0 0,0l-2 0c-2,2 -1,1 -1,2 0,0 1,0 3,0 0,0 0,0 1,0 1,2 2,0 2,3l-2 0c0,-1 1,-1 0,-2 -1,1 0,1 0,3l-1 -1z"/>
   <path class="fil18" d="M81 68c0,0 -1,0 0,0 0,1 1,1 2,2 0,-1 1,-2 1,-2 0,-2 1,-2 1,-3 -1,-1 -1,-1 -1,-2 0,1 0,0 -1,0l-2 -3c-1,0 0,0 -1,1l0 -2c-2,0 0,1 -2,1l-1 0c0,1 1,2 1,2 1,0 2,1 2,0 0,1 1,1 0,1 1,0 1,0 1,1 -1,1 -1,0 -1,2 1,-1 0,-1 1,-1 1,0 1,-1 1,1 0,0 -1,1 -1,2z"/>
   <path class="fil4" d="M60 43c2,0 0,1 2,1l0 -2c-2,0 -2,1 -2,-1 3,-1 2,0 2,0 1,1 -1,0 1,1 0,2 0,2 0,3 2,-1 2,-3 3,-1 0,0 0,0 0,0 0,0 0,0 0,0 0,-2 1,0 -1,-1l1 -1c0,-1 0,0 0,0 0,0 0,0 -1,0 0,0 0,0 0,0 0,0 0,0 0,0 0,0 -1,0 -1,0l0 -1c0,0 -1,0 0,-1l-1 0c0,0 0,0 0,0 0,0 0,0 0,0 1,-1 2,-4 0,-4 -1,1 0,0 0,1 -3,1 -1,2 -3,2 -1,-1 -1,-1 -1,-1 -1,0 -1,0 -2,-1l-1 1c0,-1 1,-2 0,-1 0,0 0,0 0,0l0 2 3 -1c-1,2 -1,1 -2,2 2,1 2,0 2,1 0,0 0,0 0,0 0,1 0,0 0,1 0,0 0,0 0,0 0,0 0,0 1,0l0 1z"/>
   <path class="fil17" d="M62 71c1,1 0,1 0,3l2 0c1,1 0,0 1,1l-3 0c1,1 1,1 1,2 0,0 -1,0 -1,1 1,0 0,0 1,0 2,2 0,2 2,1 1,0 0,-1 2,1 -1,-2 -1,-1 -1,-2 0,-1 0,0 0,-1 -1,0 -1,1 -2,0 1,0 1,0 2,-2 0,0 0,-1 0,-2 -1,1 0,-2 -2,-2l-2 0z"/>
   <path class="fil19" d="M45 63l0 0zm-3 1l0 -1c1,0 2,1 2,2 1,0 0,-1 1,-2l1 2c0,0 0,0 0,0 0,-2 0,-2 0,-2 -1,0 -1,0 -1,0l0 -1c-1,0 -1,0 -1,0 0,1 0,1 0,1 -2,0 -1,-1 -3,0 1,-1 0,0 0,-1 0,0 0,-1 0,-1l1 1c0,0 2,0 0,-2 0,0 0,0 -1,0 -1,0 0,-1 0,-2l0 -1c0,0 0,-1 0,-1l0 0 0 -1c-2,2 -1,0 -2,3 -1,-1 0,-1 -1,0 0,2 0,1 1,1 0,1 0,1 -1,2 1,0 1,0 2,0 -1,1 -1,0 -1,2 0,1 0,0 0,2 1,0 1,0 2,-1l1 -1c0,2 0,0 0,1z"/>
   <path class="fil20" d="M84 27c0,0 0,0 0,1l2 2c1,0 0,-1 1,0 -1,0 -1,0 -2,0 -1,-1 0,0 -1,-1 0,1 0,1 0,1l0 0c-1,0 -1,0 -1,1 -1,0 -1,0 -2,1 -1,4 0,1 -1,2 -1,1 -1,1 -1,1 1,0 0,0 1,-1 1,1 1,0 1,1l1 -1c0,-1 0,-1 0,-2 0,0 0,0 0,0l2 -1c1,0 2,1 2,1 0,1 0,1 -1,1 -1,0 -1,0 -1,0l-1 0c1,1 1,0 1,0 0,0 0,0 1,0 1,0 1,0 1,0 0,0 0,0 0,0 1,0 0,0 1,0l0 0c0,0 0,1 1,2 1,0 0,0 1,0 0,-5 0,-2 1,-3 0,-2 0,0 -1,-2 -1,-1 -1,-1 -3,-1l0 -2c-2,0 1,-1 0,0 -1,0 -1,0 -1,0 -1,0 0,0 -1,0z"/>
   <path class="fil4" d="M111 51c0,0 0,0 0,0 1,0 0,0 1,0 -1,2 -1,1 -1,3 1,-1 0,-1 2,-1l1 -2c-1,0 0,0 -1,-1 3,0 0,0 2,1 0,0 0,0 0,0 1,-1 0,-1 1,-1 0,0 0,0 0,0l1 0c0,-2 0,0 0,-2 -1,1 -1,1 -1,0 0,-1 -1,0 0,-1 0,0 0,0 1,0 -1,0 -1,0 -1,-1 -1,1 -2,1 -2,1 0,-2 0,0 0,-2 0,0 0,0 0,0 0,0 0,0 0,0 0,0 0,0 0,0l1 -1c1,0 -1,0 1,0 -3,0 -3,3 -3,3 0,2 -1,0 -1,2 -1,1 1,2 -1,2z"/>
   <path class="fil21" d="M85 43c1,-1 -1,1 0,-1 0,0 0,0 1,0 0,-1 0,-1 0,-1 0,-1 0,-1 0,-2 0,0 1,0 0,0 0,1 0,0 0,1l-1 0 0 0c-1,-1 -1,-1 -1,-1l0 2 0 0c0,1 1,0 0,1 -1,1 0,0 -1,0 0,-1 0,-1 0,-2 0,0 0,0 0,0 0,0 -1,0 -1,0 0,-1 0,-1 -1,-1 0,0 0,0 0,2l0 0c0,0 0,0 0,0l0 2c-1,0 0,0 -1,-1 0,0 0,0 0,0l-1 0c0,2 -1,0 0,1l1 1 -1 1c1,0 0,-1 2,-1 0,1 0,0 1,1 1,0 1,0 2,0 0,0 0,-2 1,-2z"/>
   <path class="fil0" d="M62 44c0,0 0,0 0,0 1,1 0,1 1,1 1,0 0,0 2,0 -1,2 0,0 -2,2l0 0c0,1 0,1 1,1 1,0 0,0 1,-1 0,0 0,-1 1,-1l0 0c0,-1 0,1 0,0 0,-1 0,-1 0,-1 1,-1 0,0 1,-1 0,0 0,0 0,0 -1,-1 -1,-1 -1,-2l-1 1c2,1 1,-1 1,1 0,0 0,0 0,0 0,0 0,0 0,0 -1,-2 -1,0 -3,1 0,-1 0,-1 0,-3 -2,-1 0,0 -1,-1 0,0 1,-1 -2,0 0,2 0,1 2,1l0 2z"/>
   <path class="fil22" d="M88 65c-1,0 0,0 -1,0l1 0zm0 0c0,-1 0,-1 0,-1 1,0 1,0 1,1 -1,0 0,0 -1,0zm-1 -2c1,0 2,0 1,0 0,0 -1,0 -1,0zm2 -1l0 0c0,0 0,0 0,0 0,0 0,0 0,0 -1,1 -2,1 -2,1l0 0 0 0c-1,0 -1,0 -1,0l1 1 0 1 0 0c0,3 0,-1 0,1 1,0 1,0 2,0 -1,1 0,0 -1,1 0,1 0,-1 0,1 1,0 1,-1 1,-1 1,-1 0,-1 1,-1l0 -1c1,0 1,0 2,-1 1,-1 1,0 1,-1 -1,-1 0,-1 -1,-1 -2,0 0,0 -1,0l-1 0c-1,0 0,0 -1,0z"/>
   <path class="fil13" d="M108 85c0,0 0,0 0,0 -1,0 -1,0 -1,-1 1,0 0,0 1,1zm-9 0c-1,2 0,1 1,1 2,-1 1,-1 2,-2l1 -1c1,-1 0,0 0,-2 1,1 2,1 3,2 0,1 -1,1 1,3l0 0c0,0 0,0 0,1 2,0 1,0 2,0 -1,0 -1,0 -1,-1 0,0 0,0 0,-1l0 -1c0,0 0,0 -1,0 0,-1 0,-2 -1,-2 -1,-1 -1,-1 -1,-2l-1 1c0,0 0,0 0,0 0,0 0,0 -1,0 -1,0 0,0 -1,0 -1,2 -1,0 -1,3 0,-1 0,-1 -2,-1 0,1 2,2 0,2 0,0 0,0 0,0 0,0 0,0 0,0 0,0 0,0 0,0z"/>
   <path class="fil13" d="M86 66l0 0c0,0 0,0 0,0zm-1 0c1,1 1,1 1,2l-1 -1 1 2c-2,0 -1,-1 -1,1 0,0 0,0 1,0 1,0 0,-1 2,-2 1,0 1,0 1,0l-1 1c1,0 1,0 1,0 0,0 0,1 0,1 1,-1 0,0 1,-1 0,0 0,0 0,0 0,-1 0,-1 1,-1 -1,0 0,0 -1,-1 0,-1 0,1 0,-1 -1,0 0,0 -1,1 0,0 0,1 -1,1 -1,0 -1,0 -1,-1 0,-1 -1,-1 0,0 1,-1 0,-1 0,-1 0,-2 0,2 0,-1l0 0 0 -1 -1 -1c0,1 0,2 0,2 0,0 0,0 0,0 -1,1 -1,0 -1,1z"/>
   <path class="fil4" d="M114 34c1,0 0,0 0,0l1 1 1 1 0 2c-1,0 -1,0 -2,0 0,0 1,0 0,0l2 0 0 1c1,-1 0,-1 0,-1 0,-2 0,0 0,-2 0,-1 1,0 1,0 0,-1 0,0 0,-1 -1,-1 0,0 -1,-1 0,0 0,0 -1,1 1,-3 1,0 1,-3 0,0 0,0 0,0 0,0 0,0 1,0 -1,0 -1,0 -1,-1l-2 0c0,0 0,1 0,1 0,0 0,0 0,0l-1 -2c0,-1 0,0 1,0 -1,-1 -3,0 -3,0 0,1 2,2 1,3l1 -1c1,1 0,0 1,1 0,0 0,0 0,0 0,0 0,0 0,0l0 1z"/>
   <path class="fil2" d="M41 55l-2 -1 2 -1 1 1c0,0 2,-1 2,-2 0,-2 0,-1 -1,-1 0,1 0,0 0,0 -1,0 -1,0 -2,0 -2,0 0,0 -2,0 -1,1 -1,2 -1,3 0,0 0,1 0,2 1,0 1,0 1,-1 1,1 0,0 2,0z"/>
   <path class="fil13" d="M96 78c0,0 0,0 0,0 1,1 1,0 2,0 0,1 0,0 -1,1 -1,1 0,1 -1,1 0,-1 0,0 0,-1 -1,-1 0,-1 -1,-1l0 2c0,0 0,0 0,0 0,0 0,0 0,0 0,0 0,0 0,0l-1 1c0,0 0,0 1,0 1,0 0,2 1,1 0,0 0,1 0,1 1,0 0,0 1,0 0,-1 0,-2 0,-3 0,0 1,0 1,0 0,0 0,0 0,0l0 1c0,-1 0,-1 0,-1 0,-2 1,-1 0,-2 0,0 0,0 0,0 1,0 1,0 1,0l0 0c0,-1 0,-1 -1,-1 0,0 0,-1 0,-1l0 0c0,1 0,0 -1,0l0 -1c-1,2 1,2 -1,2 0,1 0,1 0,1z"/>
   <path class="fil20" d="M76 26c-1,1 -1,0 -1,1 0,1 2,1 2,2 0,1 0,0 0,1 0,0 0,0 1,0 -1,1 -1,0 -1,1 1,1 2,0 3,1l0 0c0,-2 0,-1 1,-3 0,0 0,0 -1,-1l0 1c-1,1 0,1 -2,1l1 -3c-1,1 -1,1 -2,1 0,-1 0,-1 0,-2 0,0 -1,0 -1,0z"/>
   <path class="fil22" d="M109 56l1 0c1,1 1,0 1,1 -1,1 -1,0 -3,1 0,0 0,0 0,1 0,0 2,0 2,0 1,0 1,-1 2,-1 1,1 -1,1 1,1 1,0 0,1 1,0 -1,0 -1,0 -1,0 -1,-1 0,-1 1,-1 -1,-2 0,-2 -1,-2 -2,0 -1,1 -2,-1 0,-1 0,-1 0,-1 -1,1 0,0 -2,0 1,2 0,0 1,2 0,0 0,0 -1,-1l0 1z"/>
   <path class="fil17" d="M68 61c0,1 -1,1 -1,2 -1,0 -1,0 -1,2 1,0 2,-2 2,-2 1,-1 0,0 0,-1 1,0 1,0 1,1 0,0 0,0 0,0 0,0 0,2 0,2 0,1 0,1 1,1 1,-1 1,0 1,-2 -1,-1 -1,1 -1,-1 1,-1 1,0 1,-1 -2,-1 0,1 -2,-1 -1,-2 0,-1 -1,-2 0,1 0,0 0,1 0,0 0,1 0,1z"/>
   <path class="fil20" d="M62 49c1,-1 1,0 1,-1 0,0 0,0 -1,-1l-3 -3c0,0 0,0 0,1 0,0 0,0 0,1 0,0 0,0 0,1l0 0 1 2 -1 0 0 1c0,0 1,0 2,0 0,-2 0,-1 1,-2l0 1z"/>
   <path class="fil2" d="M50 51l0 0zm-2 -1l0 0c0,0 -1,0 -1,0 0,0 0,1 0,1 0,0 0,-1 0,0 0,1 1,0 0,1 0,0 1,0 1,0 0,0 0,1 0,1 2,0 0,0 2,0 0,0 0,0 0,0 0,0 0,0 1,0 1,0 0,-2 2,-1l0 -1 1 0c-1,0 0,0 -1,0 0,0 -1,0 -1,0l-1 -1 -1 1 0 0 -1 -1 -1 0z"/>
   <path class="fil23" d="M71 84l0 -1 0 -1 1 1c0,0 0,0 0,1 -1,0 0,-1 -1,0zm-3 -3c1,1 0,0 0,1l0 -1zm0 0c0,2 0,2 1,3 0,0 0,0 1,2 1,0 1,0 1,0 0,-1 0,0 0,-1 -1,-1 0,1 -1,-1 1,0 1,0 1,0l1 0c1,-1 1,-1 0,-1 2,0 2,0 2,-1 0,-1 1,0 0,-1 -2,0 -2,1 -3,1l0 0c0,1 0,1 0,1 -1,0 -2,0 -2,0 0,-1 0,0 1,-1l-1 -1 0 0c-1,0 0,0 -1,0l0 0z"/>
   <path class="fil19" d="M121 66c1,2 0,0 0,2 0,1 1,0 1,1 1,2 0,1 1,2 1,0 0,0 1,0 0,1 0,1 -1,1 1,0 1,1 1,2l1 0c0,-2 0,-1 0,-2 0,0 0,-1 -1,-2 -1,-1 -1,-1 -1,-1 -1,0 0,-1 -1,-1 1,0 1,0 2,0 0,-1 -1,-2 -1,-2l-1 1c0,-1 0,-1 -1,-1z"/>
   <path class="fil24" d="M56 85c0,-1 0,-1 1,-1 -1,1 0,1 -1,1zm0 -1c-1,-1 0,0 0,0 -1,0 0,0 0,0zm1 3c-1,-1 0,-2 0,-3 1,-1 1,-1 0,-2l0 -1c-1,0 0,0 -1,0 0,2 1,0 1,3 0,0 -2,-3 -3,0 2,0 1,0 2,0 -2,0 0,0 -1,2 -1,0 -1,0 -1,1 0,0 0,0 0,1 2,-1 2,0 2,-1l1 0z"/>
   <path class="fil25" d="M79 84c1,0 1,0 1,0 1,0 1,0 2,0l0 0 -1 0 2 0 0 -1 -1 0c-1,0 -1,0 -1,0 1,-1 1,0 1,0 2,0 1,0 1,-1l0 -1 0 -1c0,0 0,0 -1,0l0 0c-1,0 -1,0 -1,0 0,1 0,0 -1,1 0,0 -1,0 0,2 0,0 0,0 0,0 -2,0 0,0 -1,1z"/>
   <path class="fil14" d="M95 46c-2,-1 -2,0 -3,1 0,-2 0,-1 0,-2 1,0 1,0 3,1zm-6 1c0,1 0,1 -1,1 1,2 1,0 1,2 1,0 1,0 1,0 0,-2 0,0 -1,-2 1,-1 1,0 2,-1 3,0 1,0 4,-1 0,-1 0,1 0,-1l-2 0 0 0 -1 0c0,0 -2,0 -2,0 0,1 0,1 -1,2z"/>
   <path class="fil19" d="M117 39c1,1 1,0 0,1 1,1 1,0 0,0 0,0 0,1 0,0 0,0 -1,-1 0,1 1,0 0,0 2,-1l0 -1c0,1 0,1 0,1 0,0 0,0 0,0 0,0 0,1 0,1l1 0c0,-2 0,0 1,0 1,-1 0,0 1,-1 0,-1 0,-1 0,-2 -1,1 0,1 -1,1 -1,-1 0,-1 -2,-1 0,1 0,1 -2,1z"/>
   <path class="fil26" d="M45 69l1 2c1,0 1,0 2,-1 0,1 0,1 1,1 1,-1 -1,0 1,-1 0,1 0,1 0,1 1,0 1,0 1,0l1 1c0,-1 1,-1 0,-2 0,-1 -1,-1 -1,-1 0,0 0,0 0,0 -1,0 0,0 -1,0l-2 1 -1 -1c-1,0 0,0 -2,0z"/>
   <path class="fil19" d="M104 74c0,0 0,0 1,0 0,0 0,0 0,1 0,0 0,0 1,1l0 1 1 0c0,0 0,0 0,0l-1 1 1 0c1,-1 1,-1 1,-3 -1,1 0,1 -2,1 1,-1 1,0 1,-1l1 -1c0,0 0,0 0,0 0,0 0,0 0,0 0,0 0,0 -1,0l-2 -1 -1 1z"/>
   <path class="fil23" d="M94 20c1,0 1,0 1,0 0,0 0,0 0,0l2 0c0,0 0,0 -1,1l2 0c0,-1 0,-1 0,-1 1,0 0,0 1,0 0,1 1,1 2,0 -1,-1 -1,0 -1,-1 -1,-1 0,0 -1,-1 0,0 0,0 0,2 -1,-1 -2,-1 -4,0 0,-2 0,-2 -1,-2l0 2z"/>
   <path class="fil27" d="M89 47c1,-1 1,-1 1,-2 0,0 2,0 2,0l-1 -2 -1 1 0 -1 0 0 0 -1c0,0 0,0 -1,-1 0,0 1,0 0,-1 0,1 0,2 0,4 0,1 0,1 0,2l0 1c0,0 0,0 0,0z"/>
   <path class="fil2" d="M108 49l0 0c-1,-1 -1,0 -1,-1 1,0 0,0 0,-1 0,0 0,1 0,0 -1,0 0,-1 -1,0 -4,0 1,0 -2,0 -2,0 0,0 -1,0 0,0 -1,0 0,0 0,0 -1,0 -1,1l0 0c3,1 2,1 5,0 1,3 1,1 1,1z"/>
   <path class="fil13" d="M104 78l0 0c0,0 0,0 0,0zm-2 0c1,-1 0,0 1,0l-1 0zm0 0l3 1c0,-1 0,-1 -1,-2 1,0 1,0 2,1l1 -1c0,0 0,0 0,0l-1 0c-1,-1 -1,0 -1,-2l-1 0c0,0 1,1 1,2l-2 0c0,-2 1,-1 -1,-2 0,2 0,2 0,3z"/>
   <path class="fil28" d="M85 86l1 -1c0,0 0,0 1,0l0 1c-1,0 -1,0 -2,0zm1 -2c-1,0 -1,1 -1,2 0,1 1,2 1,3 0,0 -1,1 -1,2 1,0 1,1 1,-2 0,-1 0,-2 0,-3 0,1 0,1 1,0 1,0 0,-1 0,-2 0,0 2,-1 2,-1 2,1 1,0 3,1 0,-1 0,-1 1,-1 -2,0 -3,0 -6,0 0,1 0,1 -1,2l0 -1z"/>
   <path class="fil19" d="M117 45l0 2c0,0 1,0 1,0 1,0 0,0 1,0l0 3c0,0 0,1 0,0 0,0 1,1 1,-2 0,0 0,0 -1,0 0,-1 0,-1 0,-1 0,-1 0,-1 -1,-2 0,0 1,1 1,0 -1,-1 -1,0 -2,-1 0,1 0,1 0,1z"/>
   <path class="fil0" d="M78 76c0,0 0,0 -1,1 0,0 0,1 1,1 0,0 0,0 0,0 0,0 1,1 1,2l1 -2c1,0 0,0 1,0 0,-1 0,0 -1,-1 0,-1 0,0 0,-2l-2 1z"/>
   <path class="fil4" d="M108 49l0 0c0,0 0,0 0,1l1 0 1 -1c0,0 -1,-1 -1,-1l0 0c0,0 0,0 0,-1 1,1 1,1 2,0l0 0c0,0 0,0 0,0 1,0 0,0 1,0 -2,-1 0,0 -1,-1 -2,1 -1,-1 -3,1l0 0c0,1 0,0 0,1 0,0 0,0 0,1z"/>
   <path class="fil17" d="M71 69c1,0 1,1 1,0 1,0 2,0 2,0l0 -1 1 0c-1,0 -1,0 -1,-1 -1,1 0,1 -2,1 0,0 -1,0 -1,1 0,0 0,0 0,0 0,0 0,0 0,0z"/>
   <path class="fil1" d="M103 18c1,0 1,1 2,2 1,0 0,-1 0,1l1 -1c1,0 -1,0 1,0 -1,-1 -1,-1 -1,-2l-1 0c0,-1 0,0 0,-2 -1,1 -1,1 -2,1 0,0 -1,0 -1,1 0,0 0,0 0,0l1 0z"/>
   <path class="fil14" d="M64 70l0 1c2,0 1,3 2,2 1,-1 0,1 1,-1 1,-3 1,0 1,-2l0 -1c-2,4 0,2 -2,3 0,-1 0,-1 0,-3l0 0c0,-1 0,-1 -1,-1l0 1c0,0 0,0 0,2 -2,-1 1,-1 -1,-1z"/>
   <path class="fil29" d="M63 59l1 0 -1 0zm0 0c0,0 0,-1 0,0 0,2 3,3 4,0l-1 0 -1 0c0,0 0,0 0,0 0,-1 0,0 -1,-1 -1,0 0,0 -1,1z"/>
   <path class="fil4" d="M57 54l1 0c1,0 1,-1 0,0l-1 1c0,1 1,1 2,1 1,0 0,1 1,0 0,0 0,0 0,0l0 -2c0,0 0,0 0,0 -1,-1 0,-1 -1,0 0,-2 0,-1 0,-3 -2,0 -1,1 0,3l-2 -1 0 1z"/>
   <path class="fil1" d="M64 20c1,1 1,0 1,-2 1,0 1,1 1,-1 -1,0 -1,0 -1,1 -2,-1 0,-1 -2,-1 -1,0 0,1 0,2l1 1c0,0 0,0 0,0 0,0 0,0 0,0 0,0 0,0 0,0z"/>
   <path class="fil2" d="M113 74c0,1 0,0 0,3 1,0 0,0 1,0 0,1 0,0 0,0 0,-1 0,0 1,0 -1,-2 0,0 0,-2 0,-1 0,-1 1,-2 -2,0 -1,0 -2,0 0,0 0,0 0,1l-1 0z"/>
   <path class="fil19" d="M117 57l0 0 -1 0c1,0 0,0 1,0zm-3 0c3,2 1,2 3,2 -1,0 -1,1 -1,1 0,1 0,0 1,1l1 -1c0,0 0,0 0,-1l-1 0c0,-1 0,0 1,-2 1,0 1,0 0,-1 -2,0 1,0 -1,1 -1,0 -1,-1 -1,1 0,0 0,-1 0,-1l0 0c-2,-1 -1,0 -2,0z"/>
   <path class="fil30" d="M86 60l0 0c1,0 0,0 1,0l0 1c-1,-1 -1,-1 -1,-1zm1 -1l0 0 0 0zm-1 1c0,1 0,1 0,2 1,0 4,-3 2,-3l-1 0c-1,0 -1,0 -1,1z"/>
   <path class="fil22" d="M86 58l-1 -2c0,0 1,0 1,0l1 -2 -1 0c0,2 -1,0 0,2l-2 -1c0,0 0,0 0,0l0 -1 0 1c0,1 -1,1 -1,1l2 1c1,1 0,1 1,1z"/>
   <path class="fil31" d="M55 56c0,0 0,0 0,0 -1,0 -1,0 0,0zm0 -2c-1,1 0,0 -1,0 0,0 0,1 0,0 -1,0 0,-1 -1,1 0,1 0,1 1,1 0,0 0,0 0,0l0 0c1,1 0,0 0,1 2,-1 2,-1 2,-2 3,-1 2,1 2,-1l-1 0c0,0 0,0 0,0 -1,0 0,0 -1,0l-1 0z"/>
   <path class="fil32" d="M71 89l0 0c0,-1 -1,-1 0,0l0 -1c-2,1 0,1 -2,0 0,1 0,1 -1,1l0 -2c-2,0 -1,0 -2,1 2,0 1,0 2,0 -1,1 -1,-1 -1,1 0,0 0,0 1,1 4,0 4,0 3,-1z"/>
   <path class="fil20" d="M57 44c0,0 0,0 0,0l0 1c0,-1 -1,-1 -1,-1 -1,1 -1,0 -1,1 -1,0 -1,-1 -1,-1l-1 1c3,2 3,0 3,0 2,0 1,0 2,-1 0,0 0,0 0,-1l-1 -1c0,1 1,0 0,2z"/>
   <path class="fil2" d="M91 50l0 0 1 0c0,0 0,0 0,-1 0,1 0,1 1,1l2 -1 -1 -2c-2,1 -1,1 -1,1l-1 0c-1,1 0,1 -1,2z"/>
   <path class="fil31" d="M59 68c0,0 0,0 0,0l-1 1 1 0c1,1 1,0 1,2 0,1 0,1 0,1l0 1c1,-1 1,-1 1,-1 1,-1 0,-1 1,-1 0,0 0,-1 0,0 1,-1 1,-2 0,-2 0,0 -1,1 -1,1 -1,-1 0,-1 -1,-1l0 -1c0,0 0,0 0,0 0,0 0,0 0,0l-1 1 0 -1z"/>
   <path class="fil16" d="M100 78l0 0c0,0 0,0 0,0zm-1 0l1 -1c-1,2 0,1 0,1 1,0 2,-3 -1,-3 0,0 0,1 0,0 -1,0 -1,0 -1,1l1 0c0,1 0,0 0,1l0 1z"/>
   <path class="fil4" d="M63 47l0 0c2,-2 1,0 2,-2 -2,0 -1,0 -2,0 -1,0 0,0 -1,-1 -1,1 0,0 -1,1 0,0 1,0 1,1 0,0 1,1 1,1z"/>
   <path class="fil16" d="M75 86c0,0 0,0 1,0 0,0 1,0 1,0 0,-2 0,-1 0,-1 0,-1 0,-1 0,-1 0,-1 1,0 0,-1l-2 1c0,0 0,0 0,0l0 2c0,0 0,0 0,0z"/>
   <path class="fil31" d="M108 34c1,1 1,1 2,2 0,-1 0,-1 1,-1 1,0 1,0 1,0l-2 0c0,-1 0,-2 0,-2 -1,-1 0,-1 -2,-1 0,1 1,1 1,1 0,2 0,0 -1,1z"/>
   <path class="fil20" d="M58 35l0 2c1,0 1,0 3,1 -1,-2 -1,0 -1,-1l-1 -1c0,0 0,0 0,0l0 -1c0,0 -1,0 1,0 0,0 0,0 0,0 0,0 0,0 2,1 -1,-2 -1,0 -2,-2 0,2 -1,1 -2,1z"/>
   <path class="fil33" d="M64 68c-1,0 -1,0 -1,0l0 0c-1,1 0,0 -1,1 0,0 0,-1 -1,-1l0 1c2,0 2,0 3,1 1,-1 0,-1 1,-1l0 -1 -1 0c0,1 0,0 0,1 -1,0 0,0 0,-1z"/>
   <path class="fil34" d="M91 11l0 0c-1,0 -1,0 0,0zm1 1c0,0 0,1 0,-1l0 0c0,0 0,0 0,0 0,0 0,0 0,0l0 0 -1 0 0 0 1 -2c0,0 0,0 0,0 0,0 0,0 0,0 0,0 0,0 0,0l-1 1c-1,2 -1,1 -2,2 2,0 2,-1 3,0z"/>
   <path class="fil34" d="M49 32l-1 0 1 0zm-2 1l1 0c-1,2 0,0 0,0 0,0 0,0 1,0l0 -1 0 0 0 -1c-1,-1 0,1 -1,-1 0,0 0,0 0,0 0,-1 0,0 -1,0 0,1 0,1 1,1l0 1c0,0 0,0 -1,-1 0,1 0,1 1,2 -1,0 0,0 -1,0z"/>
   <path class="fil0" d="M93 78c2,0 2,0 3,-1 -1,0 -2,-1 -3,-1 0,1 0,2 0,2z"/>
   <path class="fil35" d="M44 62c0,0 0,0 0,0 0,0 0,0 0,0l1 -2c0,-1 0,-1 0,-1 -1,1 -1,0 -1,1 0,0 0,0 0,0l0 0c0,0 0,0 0,0 0,1 0,1 0,2z"/>
   <path class="fil31" d="M119 64c0,1 0,-1 0,1 2,0 0,0 2,0l0 1 1 0c-1,-3 1,0 0,-2 -2,0 -1,0 -2,1 -1,0 -1,-1 -1,-1z"/>
   <path class="fil36" d="M106 51l1 0c0,-1 0,-1 0,-1 -1,0 -2,0 -2,0l1 1z"/>
   <path class="fil24" d="M117 45l0 -1c1,0 1,0 2,0l0 -1c-2,0 -1,0 -2,0l0 1c0,0 0,0 0,0 -1,1 0,1 0,1z"/>
   <polygon class="fil0" points="73,56 74,55 74,54 72,53 "/>
   <path class="fil19" d="M65 87c0,1 0,2 1,2 1,0 0,0 1,-1l-1 0c0,-1 0,-1 0,-1 -1,0 -1,0 -1,0z"/>
   <path class="fil12" d="M97 66l0 0c1,0 1,0 2,-1l-2 0 0 1z"/>
   <path class="fil37" d="M134 122l-1 0c1,1 1,1 1,0z"/>
   <polygon class="fil38" points="65,110 65,110 65,109 65,109 "/>
   <polygon class="fil38" points="60,115 60,114 59,114 59,115 "/>
   <path class="fil37" d="M135 115l-1 0c1,1 1,1 1,0z"/>
   <path class="fil38" d="M93 124l1 0c-1,-1 0,-1 -1,-1l0 1z"/>
   <path class="fil39" d="M135 114c0,1 1,1 0,0 0,0 2,0 0,0 0,0 0,0 0,0z"/>
   <path class="fil37" d="M135 119c0,1 0,0 0,0 0,0 0,-1 0,0z"/>
   <path class="fil39" d="M57 117l0 0c0,0 0,0 0,0z"/>
   <path class="fil40" d="M65 120l0 -1c0,0 0,0 0,1z"/>
   <line class="fil41" x1="108" y1="125" x2="108" y2= "125" />
  </g>
 </g>
</svg>
