<?xml version="1.0" encoding="UTF-8"?>
<!DOCTYPE svg PUBLIC "-//W3C//DTD SVG 1.1//EN" "http://www.w3.org/Graphics/SVG/1.1/DTD/svg11.dtd">
<!-- Creator: CorelDRAW X8 -->
<svg xmlns="http://www.w3.org/2000/svg" xml:space="preserve" width="0.416661in" height="0.13in" version="1.1" style="shape-rendering:geometricPrecision; text-rendering:geometricPrecision; image-rendering:optimizeQuality; fill-rule:evenodd; clip-rule:evenodd"
viewBox="0 0 417 130"
 xmlns:xlink="http://www.w3.org/1999/xlink">
 <defs>
  <style type="text/css">
   <![CDATA[
    .fil7 {fill:#141414}
    .fil20 {fill:#172514}
    .fil4 {fill:#182714}
    .fil18 {fill:#192815}
    .fil21 {fill:#1B2313}
    .fil9 {fill:#1D1D11}
    .fil27 {fill:#231A11}
    .fil1 {fill:#2B5726}
    .fil29 {fill:#2C5827}
    .fil35 {fill:#2C5A29}
    .fil0 {fill:#2D5926}
    .fil17 {fill:#325D26}
    .fil16 {fill:#325D29}
    .fil13 {fill:#346329}
    .fil25 {fill:#3A6529}
    .fil6 {fill:#3F8431}
    .fil5 {fill:#408531}
    .fil30 {fill:#436C2A}
    .fil15 {fill:#45371D}
    .fil32 {fill:#5A8832}
    .fil36 {fill:#62942C}
    .fil23 {fill:#649531}
    .fil12 {fill:#65972E}
    .fil14 {fill:#669931}
    .fil26 {fill:#679436}
    .fil2 {fill:#67982F}
    .fil22 {fill:#699930}
    .fil19 {fill:#6A9B35}
    .fil31 {fill:#6C9B3A}
    .fil24 {fill:#78A448}
    .fil11 {fill:#7E754A}
    .fil28 {fill:#85AB58}
    .fil33 {fill:#9BB976}
    .fil34 {fill:#B6CB97}
    .fil3 {fill:#C7C8C3}
    .fil8 {fill:#C9C9C5}
    .fil10 {fill:#CDCDCB}
    .fil37 {fill:#EBEBEA}
    .fil38 {fill:#EDEDED}
    .fil39 {fill:#F2F3F1}
    .fil40 {fill:#F6F6F6}
   ]]>
  </style>
 </defs>
 <g id="Layer_x0020_1">
  <metadata id="CorelCorpID_0Corel-Layer"/>
  <g id="_945387632">
   <path class="fil0" d="M76 59c0,-1 -1,0 0,-1 0,0 -1,0 0,0 0,2 0,1 0,1zm-2 -11c1,-1 1,-1 1,-1 0,1 1,0 1,1 -1,0 0,0 -2,0zm4 -1c0,0 0,0 0,0l0 0zm2 -3c0,0 0,0 0,0 0,0 0,1 0,0zm5 -9l0 0zm0 0l0 0zm-9 -1l0 0c0,0 0,0 0,0zm4 1c0,0 0,0 0,0l0 -1c0,0 0,0 1,0 0,-1 0,0 0,0 1,0 1,0 1,0 -1,0 0,0 -1,1 1,0 1,0 1,0l1 0c1,0 -1,0 0,0 0,1 -1,2 -2,2 -1,0 0,0 0,0 -1,0 -1,1 -1,1 -1,0 -1,0 -2,1 -1,-1 0,-1 -1,-1 -1,0 -1,0 -1,0l0 -1 0 0c-1,-1 0,0 -1,0l1 -1c0,0 0,0 0,1 1,0 0,0 1,0l0 -2c0,0 0,0 0,0l0 0c0,-1 0,-1 1,-2 0,1 0,0 0,1 0,0 0,0 0,0 1,0 0,0 1,0 0,1 0,1 0,2 1,0 0,1 1,0 1,-1 0,0 0,-1zm3 -2l0 0c0,0 -1,0 0,0zm2 1c0,-1 -1,-1 0,-1 0,0 0,0 0,0 0,1 0,1 0,1zm-4 -2l0 0c0,0 0,0 0,0zm-3 -1l0 0zm0 0l0 -1 1 0c0,1 0,1 -1,1zm-2 -1l1 0 0 1 -1 -1zm6 1l0 0c0,-1 -1,-1 0,-1 1,0 0,0 0,0 0,1 0,0 0,1zm-1 -1l0 0c0,0 0,0 0,0zm25 -1l0 0zm0 0l0 0 0 0zm-5 0c0,1 0,0 0,1 0,-1 0,-1 0,-1zm-20 -4c1,0 0,0 1,1 0,-1 0,-1 0,-1l-2 -2c0,0 0,0 0,0 1,0 0,0 1,0 0,0 0,0 0,0 1,-1 -1,0 0,-1l1 3c1,-1 1,-1 2,0 1,2 1,1 2,2 -2,1 -2,-2 -2,3 -1,-1 0,0 -1,-1 0,0 0,-1 0,-1l-1 0c-1,0 1,0 0,0 0,0 0,0 0,0 -1,0 0,0 -1,0 -1,0 -1,0 -1,0 -1,1 0,1 -1,0l1 0c0,0 0,0 1,0 0,0 0,0 1,0 0,-1 -1,-2 -2,-2l-2 1c0,0 0,0 0,0 0,2 0,1 0,2l0 1c-1,-1 -1,-1 -1,-1 -2,0 -1,1 -2,1 0,0 1,-1 1,-1 1,-1 0,1 2,-2 0,-1 0,-1 1,-1 0,0 0,0 1,0l0 -1c0,0 0,0 0,0 1,0 0,0 1,0zm8 -8c-1,0 0,0 0,1 -1,2 -1,0 -1,-1 0,1 0,1 0,1 0,1 0,-1 0,0 0,1 0,0 -1,1l0 0c0,1 1,2 1,2 1,1 0,0 1,0 0,1 0,1 0,1 -1,0 -1,0 -2,0 0,1 0,1 0,1 0,0 0,0 0,-1 0,0 0,-2 -2,-1 -2,0 -2,2 -2,2 -1,0 0,0 -1,-1 -1,0 -1,0 -1,-1 0,0 1,-1 2,-1 0,0 -1,-1 -1,0 -1,0 -2,2 -4,2 0,-1 0,0 0,-1 -1,1 -1,0 -1,1 0,0 -1,0 -1,1l1 0c0,1 -1,0 0,1 0,0 0,0 0,1 -1,1 -1,0 -1,2l0 0c-1,-1 -1,0 -3,-1 1,-1 0,0 1,-1 -1,0 0,0 -1,0 0,0 1,1 0,0 0,-1 -1,-1 -1,-2 0,-1 0,-1 1,-1 0,0 0,-1 0,-1 -1,0 -2,0 -3,0 0,1 0,1 1,1 0,1 0,0 0,1 0,0 0,0 0,0 0,0 0,0 0,0l0 1c-1,-1 -1,0 -2,0 0,0 0,0 0,0 0,1 0,0 -1,1 2,1 3,0 3,0l0 1c0,0 -1,0 -1,0l-1 0c0,1 0,1 1,2l0 1 -1 -1 -2 1c1,1 1,0 2,0 0,0 0,1 1,0 1,0 0,1 1,0 0,1 0,0 -1,2 0,0 1,1 2,1 0,-1 0,-1 -1,-1 0,0 1,-1 1,-1 1,0 1,-1 1,-1 0,-1 -1,0 -1,0l0 -1c2,0 0,0 2,1 0,-1 0,-1 1,-1 0,1 0,2 -2,1l0 2c0,0 0,0 0,0 1,0 0,0 0,1l1 -1c1,2 2,1 2,2 0,1 0,1 -1,1 1,0 1,0 1,-1l-2 0c0,0 0,-1 -1,1 1,0 1,0 1,0 1,1 0,2 0,2 1,1 1,1 1,2 -1,1 -1,0 -1,1 0,0 0,0 0,0 0,0 0,0 0,0l1 0c1,1 1,0 2,1 0,1 0,2 -1,3 -1,0 0,0 -1,-1 0,0 0,0 0,0 0,0 0,0 0,0l0 -1 -1 0 0 1 -2 0c1,0 1,0 1,-1 -1,-1 0,1 -3,0 0,0 0,2 -2,2 0,0 0,0 -1,-1 0,0 0,0 0,-1 0,0 0,0 1,0 1,-1 1,-1 1,-2 1,1 1,1 2,2 0,-1 0,-1 0,-1l2 -1c-1,0 -1,0 -1,-1 1,0 1,0 1,0 2,0 1,1 1,0 0,-1 0,-1 -1,-1 0,-1 0,-1 -1,-1 0,-1 0,0 0,0 -1,0 0,0 -1,0 -1,0 0,0 -1,0 0,0 0,0 -1,0l0 0c-2,1 1,0 -1,0l-1 0c0,1 1,1 1,2 0,-1 1,-1 1,-1 -1,2 0,0 0,2 -1,0 0,-1 -1,0 0,1 1,1 0,1 -1,1 -2,0 -3,2 0,0 0,0 0,0 -1,-1 0,-1 -1,0 0,1 -1,0 0,1 0,0 0,0 0,0 1,0 1,0 1,0 0,0 0,0 0,0 1,0 1,0 1,0 0,2 0,1 -2,2 1,1 0,-2 1,0 0,1 0,0 0,1 0,0 0,0 -1,0 0,0 0,0 0,0 -1,-1 0,-1 -1,-1 0,1 0,0 0,2l-2 0c0,1 0,2 1,2 0,0 0,1 1,1 0,-1 0,-1 0,-1 2,-1 2,0 2,-1 0,-1 1,1 -1,0 0,0 0,0 0,-1 1,0 2,0 2,0 1,0 1,1 2,-1 0,0 0,0 0,0 0,0 0,0 0,0l0 -1c0,0 0,0 0,0 -1,0 -1,0 -1,0 -1,1 0,1 -2,1 0,-2 1,-1 2,-1 1,0 1,-1 1,0l1 2c1,-2 -1,-4 1,-5 0,1 0,0 0,1 0,0 -1,0 -1,1 1,0 1,-1 2,-1l0 -1c0,0 0,0 0,0 0,0 2,1 2,1 -1,0 0,0 -1,0 0,0 -1,0 -1,0 0,2 -1,0 -2,3 1,0 2,-1 2,-1 1,0 0,0 1,1 0,-1 0,-1 1,-2 0,0 0,0 0,0l2 3c0,0 0,0 0,0l-1 0c0,0 0,0 0,0 0,-1 -1,-1 -2,-1 0,2 1,1 2,2 1,0 1,1 1,1l1 0c0,-2 1,-3 -1,-4 0,0 -1,-1 0,1l1 -1 1 1c1,0 0,-1 1,0 0,1 0,0 0,1l0 1c-1,1 -1,1 -1,2l-2 -1c0,2 1,1 0,2 0,0 0,-1 -1,-1 0,0 0,0 0,0l-1 0c0,0 0,0 0,0l0 1c0,1 0,1 0,1l0 0c1,1 1,1 1,2 0,0 0,0 0,0 -1,0 0,-1 -2,0 0,-1 1,-1 0,-1 -1,-2 -1,1 -2,-1 0,0 0,-1 0,-1 0,0 0,0 0,-1 1,0 1,0 1,0 0,0 0,0 0,0l1 0c0,0 0,0 0,0 -1,-1 -1,-1 -2,-1 -2,1 0,0 -1,1 0,-1 1,-1 1,-2l-1 -1c-1,0 -1,0 -1,1 0,-1 0,0 -1,-1 0,0 0,1 0,1l-1 1c2,2 -1,0 1,1 0,0 0,-1 0,-1 0,1 0,2 0,3 2,-1 0,0 1,-2 1,1 2,3 2,4 0,0 0,0 0,0 -1,0 -1,0 -1,0 0,1 0,0 1,1 1,0 1,-1 1,-1 1,0 1,1 1,2l1 0c1,1 0,1 1,1 0,-1 0,-1 1,-2 0,2 0,0 -1,2 0,2 0,0 1,1 -2,0 0,0 -1,1l0 0c0,1 0,1 0,1 0,0 0,0 0,0 0,0 0,0 0,0 0,0 1,0 1,0 0,0 0,-1 0,0 0,0 0,0 0,1 0,0 1,0 1,-1l0 -1c0,1 -1,1 1,1l0 -1c0,-1 1,-1 1,-2 0,-1 0,0 0,-1 -2,0 -1,0 -2,1 0,-2 1,0 1,-1 0,-1 0,-1 -1,-1 1,0 1,0 1,-1 -1,0 -1,0 -2,0 0,-1 -1,-1 -1,-2l1 0c2,0 0,-1 1,-1l0 2c1,-1 1,-1 2,-1l1 3c1,0 0,0 1,0 -1,-1 -1,-1 -1,-2 1,1 0,0 0,1 1,0 1,0 1,0 0,0 -1,0 0,0l1 0c-1,-1 -1,-1 -1,-1 0,-1 0,-2 0,-2 -1,0 -2,0 -2,0 0,0 0,0 0,-1 1,-1 0,0 0,0 1,0 2,1 2,1 0,0 0,0 0,0 2,0 1,0 1,-1 0,0 0,0 0,0l-2 -1c0,-1 0,-1 1,-1l0 -1c0,-1 0,-1 0,-2 1,1 0,1 0,2l1 0 1 0c0,-2 0,-1 -1,-3 0,0 0,0 0,0 -1,0 -1,-1 -1,-1 -1,-1 -1,-1 -2,-1 -1,1 0,1 -1,1 0,-1 1,-2 0,-3 2,0 1,0 2,1 1,1 1,0 2,0l0 2c1,0 1,0 2,0l1 1c0,0 0,0 0,0l0 -1c1,0 0,0 1,0 -1,-1 -1,-1 -2,-2 1,0 1,0 2,-1 -1,0 -1,1 -1,0l0 -1c0,-1 0,-1 0,-2 0,-1 0,-2 0,-3 1,1 0,1 1,1 0,1 0,1 0,1 0,0 0,0 0,0 0,1 0,0 1,0 0,0 0,0 -1,1l0 0 1 0 1 1 0 0 0 -1c0,0 0,0 0,0 0,-1 1,-1 2,-2 -1,-1 0,0 -1,-1l-2 0c0,0 0,0 0,0l0 -1c0,0 0,0 0,0 2,-1 1,0 2,0 0,-2 0,0 0,-2 1,-1 1,0 1,-1 -1,0 -1,-1 -2,-1 1,0 1,0 2,-1l1 1 1 0c0,0 0,0 0,0 1,0 0,0 1,0l0 1c2,-1 0,-1 1,-1 1,0 1,1 2,1l0 1c1,0 1,0 3,0 -1,1 -1,1 -1,1 0,1 0,0 0,1l1 0c-1,1 -1,0 -2,0 1,2 1,1 0,2 0,0 -1,0 -1,0 0,-1 0,-1 0,-2 -1,0 -1,0 -2,1 0,2 1,2 1,2 -1,0 -1,-1 -2,0 1,1 1,1 1,1l2 0c0,1 1,1 1,1 0,1 0,1 0,1 1,-1 0,0 2,-1l-1 2c-1,0 0,0 0,0 0,1 -1,1 0,0 3,0 -1,0 3,1 0,-2 0,-1 0,-1l0 0c0,1 1,1 0,1 0,1 1,1 1,1 0,-1 0,0 0,-1 0,0 0,0 0,-1l0 0c2,-1 1,0 2,-1 2,1 0,1 2,1 -1,1 0,0 -1,1 0,0 0,0 0,0l0 0c-1,0 -1,0 -2,0 0,0 0,0 0,0l0 1c0,0 1,0 1,0l-1 1c1,0 0,0 0,0 0,1 0,0 0,1 -1,1 -1,1 0,1 0,1 0,0 1,-1 0,-1 0,-1 1,0 1,0 0,-1 0,-2 1,-2 1,0 2,-1 0,-1 0,-3 2,-3 -1,0 0,-1 -1,0l0 0c0,0 0,0 0,1 0,0 0,0 -1,0 0,0 0,0 0,0 0,1 0,0 0,1 1,0 1,0 2,-1 0,1 0,1 1,1 0,0 -1,0 -1,0 -1,1 0,0 0,1 0,1 0,1 1,0 0,2 0,1 0,2 0,0 0,0 1,0 0,0 0,0 0,0l0 -2c0,-1 1,0 0,-1 0,0 0,0 -1,0l0 -1c0,0 -1,0 0,-1 0,-1 0,-1 0,-1l0 0c1,-1 1,-1 1,-2 1,1 1,1 1,1 1,1 1,1 2,0 0,0 0,0 -1,-1 -1,0 0,0 -1,0l0 0c0,-1 0,-1 0,-1 0,0 0,0 0,0 0,0 0,0 0,0l-1 0c0,1 0,1 -1,1 0,-2 0,-1 0,-1 1,0 0,0 1,0l-1 0c1,-1 2,0 2,-2l0 0c1,0 1,0 1,-1 0,0 1,0 -1,0 0,0 0,0 0,0 0,-1 0,0 1,-1l0 -1c-1,1 -1,1 -2,0 1,-1 0,-1 1,-3 -1,0 -1,1 -1,0 0,0 0,-1 -1,-1 0,0 0,0 0,0 0,0 0,0 -1,0 0,0 0,0 0,-1l1 0 0 -1 -2 1 0 -2c-2,0 -2,1 -4,0 1,-1 1,0 0,-1 0,-1 -1,-1 -2,-2 0,0 1,0 0,-1 0,0 0,0 0,0 -1,0 -1,0 -1,0 0,1 0,1 1,2 -1,0 -2,-1 -3,0 -1,1 -1,1 0,2 -1,1 0,0 -1,1 1,0 2,0 2,1 0,1 0,2 1,3l0 -1c1,0 0,0 0,-1 1,0 1,-1 1,1l1 -1c0,1 0,0 0,1 1,0 1,0 1,1 -1,1 0,0 0,1 0,0 -1,1 -1,1l3 0c-1,1 -1,1 -1,1 -1,0 -1,0 -2,0 0,0 0,0 0,-1 0,0 0,-1 -1,0 0,-1 0,-1 0,-1 0,0 0,0 0,0 -1,-1 -1,0 -1,0l0 0c0,0 0,0 -1,2 4,1 1,1 3,2 0,0 0,0 0,0 1,1 1,2 1,1 0,0 0,0 0,0 0,0 1,-1 1,-1 1,-1 1,0 2,-1l0 0c1,0 0,0 1,0 0,0 0,0 0,0l1 0 -1 -2 0 0c-1,0 0,0 -1,0l0 -1c0,0 0,0 0,0 0,0 0,0 0,0 0,-1 0,0 0,-1l-1 1c0,0 -1,-2 -2,-2 1,-1 2,-1 3,-1 0,0 0,0 -1,1l1 1c1,0 1,0 1,0 0,0 0,-1 0,-1l1 0c0,1 0,1 1,1 -1,0 -1,0 -1,0 0,0 0,0 0,0 0,2 0,0 -1,2 1,0 1,0 2,0 0,1 -1,0 0,0 0,1 0,1 1,2 -1,0 -2,-2 -2,0 0,1 0,0 1,1 0,0 0,0 -1,1l0 0c0,0 0,0 0,0 -2,2 -1,0 -2,2l-1 0 0 -1c-3,0 0,2 -2,3 0,-1 0,-1 -1,-2 0,1 0,1 0,1l0 1c-1,-1 1,-1 -2,-3 1,1 1,1 1,2 0,0 -1,1 -1,1 -1,0 -1,0 -1,0 0,-1 0,-1 1,-1l-1 -1c-1,0 0,0 -1,0 0,0 1,-1 2,-1 0,-1 0,-1 -1,-2 0,-1 0,0 0,-1 -1,-1 -1,-1 -1,-3 0,0 0,0 -1,0 0,0 0,-2 0,-3 -1,0 0,0 -1,1 0,0 0,0 0,0 0,1 0,0 -1,2 0,0 1,0 0,0 -1,0 0,1 -1,0 0,-1 0,-1 1,-1 -1,-1 0,-1 -1,-2 0,0 0,0 0,0 0,0 0,0 0,0l0 1c0,1 0,0 0,1 -1,-1 -1,-1 -1,-2 -1,0 -1,0 -1,1l-1 0c0,0 0,1 -1,1 0,0 0,0 -1,0 0,-1 0,0 -1,0 -1,-2 1,-3 2,-3 0,-1 0,0 0,-1 0,0 0,1 0,0 0,0 0,0 0,-1l1 0 -1 -1c1,-1 0,0 1,0l0 -2c0,0 0,0 0,0l1 0 0 0c0,0 0,0 0,0l0 1c1,0 0,0 1,-1 0,-1 0,0 0,-1 0,-1 0,-1 -1,0l-1 -1c0,0 0,0 0,-1l-2 1z"/>
   <path class="fil1" d="M57 46c0,2 0,0 -2,2 0,1 0,1 -1,1 -1,-1 0,0 -1,0l0 -1c0,0 0,0 0,0 0,0 -1,0 0,-1 0,-1 0,0 0,0 1,0 0,0 1,0l1 0c1,0 0,0 1,0 0,-1 0,-1 0,-1l0 0 1 0c0,-1 -1,-2 1,-2 0,2 0,1 0,2 1,0 0,0 1,0 -1,1 -1,1 -1,1l0 1c0,0 0,0 0,0 0,1 1,1 -1,0 0,0 0,0 -1,-1l1 0c0,-1 0,0 0,-1zm-4 -2l0 0zm-6 -1l1 0 1 0 0 1 1 0 1 -1 0 1c1,0 1,0 1,0 1,0 1,-1 1,0 0,0 -1,0 0,0 0,2 1,0 1,2 -2,-1 -1,-1 -2,-1 -2,-1 0,0 -1,1 -1,0 -2,-1 -2,-1 0,0 0,0 0,0 -1,1 0,1 -1,1l-1 0c-1,-1 -1,-1 -1,-1 1,0 0,0 1,0 1,0 0,0 0,0 1,-1 0,0 0,-1 0,-1 0,0 0,0 0,0 0,-1 0,-1zm-1 1c-1,0 0,0 -1,0l1 0zm-1 0l0 0 0 0zm11 -3c0,0 0,0 0,1 0,0 1,0 1,0 -1,0 -1,0 -1,-1zm-3 -1l0 0c2,0 1,0 2,1 0,0 1,1 1,2 -1,-1 -1,0 -2,-1 0,-1 0,-1 -1,-1 0,-1 0,-1 0,-1zm-2 -4c1,0 1,1 1,0 0,0 -1,1 -1,0zm5 1c1,-1 0,0 0,-1l1 1c0,0 0,0 0,1 -1,1 0,0 -2,1 0,0 0,1 -2,0l0 -1c1,0 0,0 1,1 0,-1 0,0 1,-2 0,1 1,1 1,1l0 0c0,-1 0,0 0,-1zm2 -7c0,0 1,0 0,0 0,0 0,0 0,0zm-1 0c1,1 1,1 1,1l0 0c1,1 1,0 1,1 -1,0 -1,-1 -2,0l0 -3c1,0 2,1 2,0 0,2 0,0 1,2 -1,-1 -1,-1 -1,-1 0,0 0,0 -1,0 -1,0 0,0 -1,0l0 0zm3 -1c1,-1 1,0 1,0 0,0 -1,0 -1,0zm-3 -1c0,0 0,0 0,0 0,0 0,1 0,0zm29 -12c0,-1 1,-1 2,-1l0 1c-1,0 -2,0 -2,0zm-9 -4c0,0 0,0 0,0 0,1 0,0 0,1 0,0 1,-1 1,0 -2,1 -3,-1 -4,0 -1,0 -1,0 -1,0 0,0 0,0 0,0 0,0 0,-1 0,1 1,0 0,0 0,0 1,0 2,0 2,1l0 0c0,0 0,0 0,0 0,0 0,1 0,1 0,0 0,0 0,0 2,-1 1,0 1,-2 1,0 1,0 1,1 -2,3 -1,1 -3,1l-1 2c0,-1 0,-1 0,-1l-1 0c0,0 1,0 1,-1 -1,0 -1,0 -2,0l0 1c-1,1 0,0 -1,1l0 1c-2,0 0,1 -1,1 -2,0 0,-1 -2,-1 -1,1 0,1 1,1 0,1 0,1 -1,1 2,1 1,-1 2,-1 1,1 1,2 1,3 -1,0 -1,0 -2,-1l-1 0c0,0 0,0 -1,-1 0,2 1,1 1,2 -1,0 0,0 -2,-1l0 0c0,1 0,0 1,1 -2,1 -1,1 -2,2l-1 -2 2 0c-1,-1 0,-1 0,-2 1,-1 2,-2 1,-3 0,-1 -1,-1 -1,-1l0 1 -2 0c1,1 1,0 1,2 -1,0 0,-1 -1,0 -1,0 -1,0 -1,-1 0,0 0,0 0,0l0 0c-1,0 0,0 -1,0 -1,-1 -3,-1 -4,0 -1,1 -1,0 -2,2 0,0 0,0 0,0l0 1c-2,-1 1,-1 0,-3 -1,1 -1,2 -2,2 0,2 -1,1 -1,2 1,1 1,1 2,1 1,0 0,0 1,1 2,-1 0,-1 2,-1l0 2c-2,0 -2,-1 -4,-1 -1,1 -1,1 -2,1 0,-1 0,-1 1,-1l-2 -2c0,2 1,1 1,2 -2,1 -1,1 -2,2l0 0 0 1c-1,1 0,0 0,0 1,1 0,1 1,1 0,0 0,0 0,-1 0,0 0,0 0,-1 1,0 0,-1 1,0 0,1 0,1 0,1 0,2 1,1 1,0 1,2 0,2 1,2 0,-1 0,-1 0,-2 -1,-1 1,-2 2,-2l1 1c-1,0 -1,0 -2,0 0,1 1,1 1,1l-1 2c0,0 -1,1 -2,1 1,1 1,0 1,1 -1,0 -1,-1 -2,-2 -1,1 -1,0 -2,1l2 0c0,0 0,0 0,1l-2 0c0,1 0,0 1,0l-1 1c-1,-1 0,-1 -1,-2l-1 0c0,2 1,2 1,2 2,3 -3,2 -2,4 1,0 1,0 1,0 1,1 0,0 1,1 0,1 0,0 0,1 1,1 1,1 2,1l0 0c0,1 0,1 0,1l0 1c-2,0 -1,0 -1,-1 -1,0 -1,0 -1,1l-1 -1c-1,1 -1,1 -1,1l1 1c-1,1 -1,1 -1,1l0 0 -1 -1c0,-1 1,-1 1,-1l-2 -1c0,1 0,1 -1,1 0,0 0,0 0,1 0,1 -1,0 0,1 1,0 0,0 1,0 0,0 0,-1 0,1 0,1 -1,2 -2,2l0 -2 -2 1 1 2 1 0 0 1c0,0 0,0 0,0l0 1c0,1 -1,2 0,2 0,0 0,0 1,0 1,2 0,1 0,1l0 0 0 -1c-1,-1 -1,0 -1,-1 1,0 0,0 1,0l0 0c0,0 1,0 1,1l-1 -3 2 0c0,0 -1,-1 0,-1l0 0c1,-1 0,0 1,-1 2,1 3,-1 4,-1 0,1 1,0 0,1 0,0 0,0 0,0 0,0 -1,0 -1,1 0,0 0,0 0,0l1 1c0,0 0,0 0,0 -1,1 -1,1 -3,1 1,1 1,0 1,1l0 1c1,1 1,1 0,2 0,0 0,0 0,1 1,0 1,0 1,0 0,0 0,0 0,0 0,1 0,0 0,1 1,0 0,0 1,1 -1,0 -1,0 -1,0 0,0 0,0 -1,0l-2 -1c0,0 0,0 0,0l0 -1c-2,0 0,1 -2,1 0,0 0,-1 -1,-1l0 0 -1 1c0,2 2,3 3,2 0,2 0,0 0,3 1,0 0,0 1,-1 1,0 0,0 1,0l1 1 2 -1c-1,-1 -1,-1 -1,-2l1 0c0,-2 0,-2 0,-2 0,0 -1,0 0,1 1,0 1,0 1,0 1,0 1,0 1,0 0,-1 0,-1 -1,-1 0,0 0,0 0,0l0 0c0,0 0,-1 0,-1 0,0 -1,0 -1,0 0,-1 0,0 0,-1 1,0 1,0 1,0 0,0 0,1 2,1 0,-1 -1,-1 0,-2l-2 -1c-1,-1 -2,-1 -1,-2 1,0 1,1 1,0 1,1 1,0 3,0 0,0 0,0 0,0l1 1c0,0 0,0 0,0 0,0 0,0 0,0 0,0 0,0 0,0 0,0 -1,0 -1,0 0,2 0,1 2,1 0,-1 0,-1 0,-2 1,1 2,1 3,1 0,-1 0,-1 0,-2 1,0 1,0 1,1 1,0 1,0 2,1 -1,-2 0,0 -1,-2 -1,-1 0,1 0,0l-1 -1c0,-1 0,-1 0,-1 -1,-1 0,-1 -1,-1l0 0c1,-1 1,0 1,0l1 1c0,-1 0,0 0,-1l-1 -1 0 0c0,-1 0,-1 1,-2 0,0 0,0 -1,0 0,0 0,1 0,0 1,-1 0,-1 1,-1l-1 -1c-1,1 0,1 -1,2 0,0 -1,0 -2,0l0 -1 2 0 -2 -2 1 0c0,0 0,0 0,0 0,-1 0,-1 0,-2 0,-1 0,0 0,0 0,-1 0,0 0,-1 0,0 0,1 0,0 0,0 1,0 1,0l-1 -1c0,0 0,0 0,0 -1,0 -1,0 -1,0 1,-1 0,0 1,-1 0,0 0,0 0,0 -1,-1 -1,-1 -1,-1 0,-1 0,0 0,-1l-2 0 -1 -1c0,0 0,0 0,0 2,-1 1,-1 1,0l1 0c1,1 1,1 2,1 0,0 -1,0 0,0 2,1 1,-1 3,-1 0,-2 0,0 0,-2 2,1 1,3 0,4 0,0 0,0 0,0 0,0 1,0 1,0l0 0c0,2 0,1 0,1l0 1c0,0 0,0 0,0 0,0 0,0 1,1 0,-1 0,0 0,-1 1,0 1,0 1,0 0,0 0,-1 0,0 1,1 1,1 2,0 -1,0 -1,0 -1,-1 0,0 0,0 0,0 1,0 0,-1 1,0 -1,-1 -1,-1 0,-1 0,0 0,0 0,0 0,0 0,0 0,0 -2,-2 -1,-2 -3,-2l1 -1c-1,-1 -1,0 -1,-2 -1,-1 -1,0 -1,-1 0,0 0,0 0,0 1,0 0,0 1,0 1,1 -1,0 1,1l1 0c0,-1 0,-1 0,-1 0,0 0,0 0,0 0,-1 0,-2 0,-2 -1,1 0,0 -2,2l-1 -1c-1,0 -1,1 -2,1 -1,0 0,0 -1,0 -1,0 -1,0 -1,0 0,-1 1,-1 1,-1 0,-2 -1,0 -1,-2 0,0 0,0 1,0 0,0 0,0 0,0l1 0c0,1 0,1 0,1l1 0c0,-1 0,-2 0,-2 1,0 1,0 0,1l1 0c0,-2 0,-1 0,-3 -2,0 -2,1 -2,1 -1,0 -2,0 -3,-1 0,-1 0,0 2,-1l1 0c0,0 0,0 0,0l0 -1c1,0 1,0 1,0l2 1c0,1 -1,0 0,2 0,0 0,1 0,2 0,1 0,1 1,1l1 -1 1 0c-1,-1 -1,0 0,-1 0,0 0,0 0,0 2,0 0,0 1,0 2,0 1,0 2,0 0,0 0,0 0,0 1,0 1,-1 2,0l0 -1c0,0 0,0 0,0 0,0 0,0 0,0 0,-1 0,0 0,-1 -1,0 -1,0 -1,-1 1,0 2,0 3,0 0,0 0,1 0,1 0,-1 0,-1 1,-1 0,1 0,2 0,2 1,1 1,1 1,0l0 2c1,0 1,0 1,-1l1 0c-1,-1 0,0 0,-1l-1 0c0,-1 1,-1 1,-1 -1,0 -1,0 0,-1 -1,-1 -1,0 -1,-1 1,-2 0,0 2,-1 0,0 0,0 0,0 0,0 0,0 0,0 0,-3 1,-1 1,-2 0,-1 -1,-1 0,-1 1,-1 1,-1 1,-1 1,-1 1,-1 2,-1 0,1 0,1 0,2 1,0 1,0 1,-1 0,0 0,0 0,0 0,0 0,0 0,0l1 0c-1,1 -1,2 -1,3 0,0 1,1 2,0 1,0 -1,0 1,-1 0,0 0,1 1,1 0,0 0,0 0,1 1,-1 1,0 1,-1 0,-1 0,1 0,0 0,0 0,0 0,-1 1,0 1,0 1,0l0 -2c1,0 0,0 1,1 1,0 2,-1 3,0 0,-1 0,-1 1,-1 1,0 0,0 0,1 1,0 1,0 2,0 0,0 0,0 0,0 0,-1 0,-1 -1,-1 0,-1 0,0 -1,0 1,-1 1,-1 1,-1 0,-1 0,0 0,0 1,-1 0,0 0,-1l1 0c-1,0 -1,0 -2,-2 3,0 3,1 4,1 0,-1 0,0 -1,-1 0,-1 0,0 0,-1l-1 0c-3,-1 -2,-1 -3,1 -1,1 0,0 -1,1 0,1 0,1 1,1 1,-1 0,-1 1,0 0,1 0,-1 -1,1 0,0 0,1 0,1 0,0 -2,0 -2,0 1,-1 0,0 1,-1 -1,-1 -1,-1 -2,-1 -2,0 -1,1 -5,0 0,1 1,0 -1,1l0 -1c0,0 0,0 0,0 0,-1 0,-1 0,-1l-1 1 0 -1c-1,0 0,0 -1,0 -1,0 0,0 -1,1 0,-1 -1,-1 -2,-2l-2 0c0,0 0,0 0,1z"/>
   <path class="fil2" d="M93 19l0 0zm5 -1c1,0 1,0 1,0 0,0 0,0 0,1 -1,0 -1,0 -2,-1 0,0 0,0 0,0 0,0 0,0 0,0 1,0 1,1 1,1 1,0 1,0 0,-1zm1 -1l0 0zm-29 -1c0,0 0,-1 0,-1 0,0 0,1 0,1zm-8 1c0,0 0,-1 0,-1 0,0 0,0 0,0 0,0 0,0 0,0l0 0c-1,-1 -2,-2 0,-2 0,0 0,0 1,1 0,-1 0,-1 1,-1 0,1 0,0 -1,1 -1,1 0,2 -1,2zm-5 -3c0,0 1,0 0,0 0,0 0,0 0,0 0,0 0,0 0,0zm42 3l0 0c0,-1 0,0 -1,-1 0,0 -1,-1 -1,-1l-1 0c0,0 0,-1 0,-1 0,0 1,0 1,0 1,-1 1,-1 2,-1 0,2 -1,0 -1,2l1 0c0,1 0,1 1,1 -1,0 0,0 -1,1zm-3 -4l0 0zm-10 -2c0,1 0,1 0,1 1,0 0,0 1,0 -2,0 -1,0 -1,-1zm-16 1c1,0 1,0 1,0l-1 0zm18 -1c0,0 0,0 0,1 -1,0 0,0 0,-1zm-3 0l0 0 0 0zm-14 1l0 -1 1 0c-1,1 -1,1 -1,1zm17 -1l0 0zm-16 0c1,0 1,0 1,0 -1,0 0,0 -1,0zm16 -2c0,1 0,0 -1,1 1,-1 0,-1 1,-1zm2 0c0,1 0,2 -1,2 -1,-1 0,0 0,-1l1 -1c0,0 -1,0 0,0zm-20 3c-1,0 -1,-1 0,-1 0,0 0,0 0,0l0 -1c0,0 0,-1 0,-1 0,-1 0,-1 1,-1 -1,2 0,1 0,3 -1,0 -1,-1 -1,1zm18 -3c0,-1 0,-1 1,-1l-1 1zm-6 0l-1 -1c-1,0 0,0 -1,0 0,-1 0,0 1,-1l0 0c2,0 0,0 1,0 0,1 0,0 0,2zm5 -2c0,0 0,0 0,0 0,0 0,0 0,0 0,0 0,0 0,0l-1 1 0 0 1 0c0,0 0,0 0,0 0,1 0,1 0,1l0 0c0,1 0,0 0,1 -1,0 -1,0 -1,0 0,0 0,0 0,0 0,0 0,0 0,0 0,0 0,0 1,0 0,0 0,0 -1,0 0,1 0,0 -1,0l0 1 -2 0c-1,0 -1,-1 -1,-2 1,0 0,1 1,1 0,-1 0,-1 0,-2l1 0c0,-1 -1,-2 -2,-3 0,1 0,1 0,2 -2,0 -1,0 -3,1 0,-1 1,-1 0,-1 -1,0 0,0 -1,1l-1 0c0,0 0,0 0,0 0,0 0,0 0,0 0,0 0,0 0,0 -1,0 -1,0 -1,0 0,1 0,2 1,2 0,1 -1,1 -1,0 0,0 0,0 0,0l-1 0c0,-2 0,-1 0,-2 0,0 -1,0 -1,0l0 0c-2,-1 -3,-2 -5,-2l-4 3c0,0 0,0 0,0l0 1c1,0 0,0 0,1 2,0 1,0 2,1 1,0 1,0 2,0 -1,1 -1,1 1,1 -1,1 -1,0 -1,2 2,-1 0,-1 2,-1 -1,0 -1,0 -1,1l-1 1c0,0 0,0 0,0 0,0 0,0 -1,0 0,-1 0,0 0,-1 0,0 0,0 0,0l0 0c0,0 0,0 0,0 0,0 0,0 0,0l0 -1c0,-1 -1,-1 -1,-2 -1,0 -1,1 -2,0l-3 -1c0,0 0,0 -1,0 0,1 0,0 -1,1 0,0 -1,0 -1,0 0,0 0,-1 -1,-1 0,2 0,1 0,1 0,0 1,1 1,1 -1,1 -1,0 -2,-1 -1,1 -1,1 -1,1 0,1 0,1 1,1 -1,0 -1,1 -2,1 0,0 0,1 0,2l-1 0c0,1 -1,1 -1,1l-1 2c-1,1 -3,0 -3,2l0 1c0,1 0,1 1,1l0 1c-2,0 -1,0 -2,0 0,0 0,0 0,1 1,1 0,0 1,0l0 1c1,-1 0,-1 2,-2 0,-1 -1,0 -1,-2l2 2c-1,0 -1,0 -1,1 1,0 1,0 2,-1 2,0 2,1 4,1l0 -2c-2,0 0,0 -2,1 -1,-1 0,-1 -1,-1 -1,0 -1,0 -2,-1 0,-1 1,0 1,-2 1,0 1,-1 2,-2 1,2 -2,2 0,3l0 -1c0,0 0,0 0,0 1,-2 1,-1 2,-2 1,-1 3,-1 4,0 0,-1 0,-1 0,-1 1,-2 0,-1 1,-1 0,1 0,0 0,0 0,1 0,0 0,1 0,1 -1,0 0,1 0,0 1,0 0,0 0,0 0,0 0,0 0,1 0,1 1,1 1,-1 0,0 1,0 0,-2 0,-1 -1,-2l2 0 0 -1c0,0 1,0 1,1 1,1 0,2 -1,3 0,1 -1,1 0,2l-2 0 1 2c1,-1 0,-1 2,-2 -1,-1 -1,0 -1,-1l0 0c2,1 1,1 2,1 0,-1 -1,0 -1,-2 1,1 1,1 1,1l1 0c1,1 1,1 2,1 0,-1 0,-2 -1,-3 -1,0 0,2 -2,1 1,0 1,0 1,-1 -1,0 -2,0 -1,-1 2,0 0,1 2,1 1,0 -1,-1 1,-1l0 -1c1,-1 0,0 1,-1l0 -1c1,0 1,0 2,0 0,1 -1,1 -1,1l1 0c0,0 0,0 0,1l1 -2c2,0 1,2 3,-1 0,-1 0,-1 -1,-1 0,2 1,1 -1,2 0,0 0,0 0,0 0,0 0,-1 0,-1 0,0 0,0 0,0l0 0c0,-1 -1,-1 -2,-1 1,1 1,0 0,1 0,-1 0,-1 0,-1 -1,-1 0,-1 -1,-1l0 0c1,-1 0,-1 1,-2l0 2c0,0 0,0 0,0 0,0 0,0 1,0 1,-1 2,1 4,0 0,-1 -1,0 -1,0 0,-1 0,0 0,-1 0,0 0,0 0,-1l0 1c0,0 0,0 0,0 0,-1 0,-1 0,-1l2 0c1,1 2,1 2,2 1,-1 0,-1 1,-1 1,0 0,0 1,0l0 1 1 -1c0,0 0,0 0,1 0,0 0,0 0,0l0 1c2,-1 1,0 1,-1 4,1 3,0 5,0 1,0 1,0 2,1 -1,1 0,0 -1,1 0,0 2,0 2,0 0,0 0,-1 0,-1 1,-2 1,0 1,-1 -1,-1 0,-1 -1,0 -1,0 -1,0 -1,-1 1,-1 0,0 1,-1 1,-2 0,-2 3,-1l1 0c0,1 0,0 0,1 1,1 1,0 1,1 -1,0 -1,-1 -4,-1 1,2 1,2 2,2l-1 0 1 0c0,1 0,1 0,1 0,0 -1,0 -1,0l0 0c0,0 0,0 0,0 0,0 -1,0 -1,1 1,0 1,-1 1,0 1,0 1,0 1,1 0,-1 0,0 1,-1 -1,1 0,1 -1,1 0,1 0,1 0,2 0,0 1,0 -1,0 -2,0 0,0 -2,1 0,-1 0,-1 0,-1 0,1 0,0 0,1 -1,1 0,1 -1,1l0 -1c0,0 0,0 0,0 0,0 0,0 0,0 -1,1 0,0 -1,0 0,0 0,0 0,0l0 2c-1,0 0,-1 -1,0l1 1 -1 0c0,1 0,1 0,1 0,1 0,0 0,0 0,1 0,0 0,1 -1,0 -3,1 -2,3 1,0 1,-1 1,0 1,0 1,0 1,0 1,0 1,-1 1,-1l1 0c0,-1 0,-1 1,-1 0,1 0,1 1,2 0,-1 0,0 0,-1l0 -1c0,0 0,0 0,0 0,0 0,0 0,0 1,1 0,1 1,2 -1,0 -1,0 -1,1 1,1 0,0 1,0 1,0 0,0 0,0 1,-2 1,-1 1,-2 0,0 0,0 0,0 1,-1 0,-1 1,-1 0,1 0,3 0,3 1,0 1,0 1,0 0,2 0,2 1,3 0,1 0,0 0,1 1,1 1,1 1,2 -1,0 -2,1 -2,1 1,0 0,0 1,0l1 1c-1,0 -1,0 -1,1 0,0 0,0 1,0 0,0 1,-1 1,-1 0,-1 0,-1 -1,-2 3,2 1,2 2,3l0 -1c0,0 0,0 0,-1 1,1 1,1 1,2 2,-1 -1,-3 2,-3l0 1 1 0c1,-2 0,0 2,-2 -1,0 -1,0 -1,0l1 0 -2 -1c1,0 0,0 1,0 0,0 0,0 1,0l0 -1 -1 0c1,1 1,1 0,1l-1 -1 0 0c-1,1 -1,0 -2,1 0,0 -1,1 -1,1 0,0 0,0 0,0 0,1 0,0 -1,-1 0,0 0,0 0,0 -2,-1 1,-1 -3,-2 1,-2 1,-2 1,-2l0 0c-1,0 0,0 0,0 0,-1 0,-1 0,-2l0 1c-1,-1 -1,-2 -1,-3 0,-1 -1,-1 -2,-1 1,-1 0,0 1,-1 -1,-1 -1,-1 0,-2 1,-1 2,0 3,0 -1,-1 -1,-1 -1,-2 0,0 0,0 1,0 0,0 0,0 0,0 1,1 0,1 0,1 1,1 2,1 2,2 1,1 1,0 0,1 2,1 2,0 4,0l0 2 2 -1 0 1 -1 0c0,1 0,1 0,1 1,0 1,0 1,0 0,0 0,0 0,0 1,0 1,1 1,1 0,1 0,0 1,0 -1,2 0,2 -1,3 0,0 1,0 1,0 0,0 -1,0 0,0 1,-1 1,-1 1,-1 0,0 0,0 1,0 -1,-1 -1,-1 -1,-2 0,0 0,0 1,0 0,-1 -1,0 -1,-2 -1,-1 -1,-1 -1,-2 0,0 -1,0 -1,0 -2,0 -1,0 -2,0 0,-1 0,0 2,-1 0,-1 -1,0 0,0 0,-2 0,-1 -1,-2 0,0 -1,1 -1,1 0,0 0,0 0,0 0,0 0,0 0,1 -2,-2 -1,-1 -1,-2 0,-1 -1,-2 -1,-2l-2 0c-1,0 0,1 -1,0 1,0 1,-1 1,-2 -1,1 0,1 -2,1 0,0 0,-1 0,-1 -1,0 0,0 -1,0 0,-2 -1,-3 -1,-3l0 0c-1,-2 -1,-1 -1,-3 -1,0 0,0 -1,-1 -1,0 -1,1 -1,0 0,0 0,0 0,-1 -1,0 -1,0 -1,-1l-2 0c1,1 1,1 0,2 0,0 0,0 0,0 -1,-1 -2,-1 -3,-2 -1,0 0,0 -1,0 -3,-1 -2,-1 -4,0 0,1 0,1 1,1z"/>
   <path class="fil3" d="M90 109c0,-1 0,-1 2,-1l0 1c-2,-1 -1,0 -2,0zm-10 -3c1,1 0,0 0,2 0,-1 0,-1 -1,-1 1,0 1,0 1,-1zm-7 -1c0,0 1,0 0,0 0,0 0,0 0,0zm19 0c0,-1 0,0 0,0 0,0 0,0 0,0zm4 0l2 0c-2,0 -1,0 -2,0zm0 0c0,-1 0,0 0,0 0,0 0,0 0,0zm-3 0c0,-1 2,0 1,0l-1 0c0,0 0,0 0,0zm-7 -1c0,0 1,0 0,0 0,0 -1,0 0,0zm3 0c0,0 0,0 -1,0 1,-1 0,0 1,0zm-4 0c0,0 1,0 0,0 0,0 -1,0 0,0zm11 0c0,-1 0,0 1,0 0,0 0,0 -1,0 0,0 0,0 0,0zm-2 0l0 0zm4 -1c1,0 1,1 2,1 -1,0 0,1 -1,0 0,0 0,0 0,0 -1,0 -1,-1 -1,-1zm-2 1l0 0 -1 0c0,0 0,0 -1,0 1,-1 0,-1 1,-1 1,0 0,0 1,1zm-17 0c0,0 0,0 0,0 0,0 0,-1 1,-1 2,0 1,0 2,1 -1,0 -1,0 -1,0 0,0 0,-1 0,-1 -1,1 -1,1 -2,1zm21 -1l2 0 0 0 -2 0 0 0zm-22 0l0 0c0,0 0,0 0,0zm-4 -1c1,0 1,0 2,0 -1,1 -1,0 -2,0l0 0zm24 0l0 0zm6 0l0 0c0,0 0,0 0,0zm-9 0c0,0 1,0 0,0 0,0 0,0 0,0zm-21 0l0 0c0,0 0,0 0,0zm19 -1c0,1 -1,2 -1,0l1 0zm-3 0l0 0c0,0 0,0 0,0zm-3 0l1 0 0 1 -1 0 0 -1zm6 0l0 0zm-1 -2c1,0 1,0 2,0l1 1c-1,0 -1,0 -2,0 0,-1 0,1 0,-1 -1,0 0,0 -1,0zm0 0l0 0 -1 0c1,0 0,0 1,0zm-6 0l0 0zm-1 0c0,-1 0,0 1,0 -1,0 0,0 -1,0 0,0 0,1 0,0zm8 0c0,-1 1,0 0,0l0 0c0,0 -1,0 0,0zm7 -1l0 0zm0 0c0,-1 0,0 0,-1 1,0 1,0 1,0 0,1 0,1 -1,1zm4 -1c0,0 1,1 0,0 0,0 -1,1 0,0zm-2 0l0 0c0,0 0,0 0,0zm-3 0l1 0 -1 0zm0 0c-1,0 0,0 -1,0 2,0 1,0 1,0zm-23 2c-1,0 0,0 -1,0l-1 0c0,0 0,0 -1,0l0 0c-2,0 0,0 -2,0 0,1 -1,1 -2,1 0,0 1,1 1,2 0,0 1,0 1,0l0 0c0,2 0,0 0,1l-1 0 1 3c0,0 0,0 0,0l0 1c4,0 0,0 3,-1 0,0 1,0 1,0 0,-1 0,-1 0,-1l-1 0c0,0 0,0 0,-1 1,0 0,0 1,1l1 0c1,-1 -1,0 2,0 -1,2 0,1 -2,1 1,1 1,1 1,1 -1,0 0,0 -1,-1 0,0 -1,1 -1,1l2 1c0,0 1,0 1,0l8 0c0,0 1,-1 2,0 1,0 1,0 2,1l0 0 -1 0c-1,-1 0,0 -1,0 -1,-1 -2,0 -3,0l0 0c2,0 4,1 5,0 4,0 1,1 4,0 1,0 0,0 2,0 0,1 0,0 1,0 4,1 4,-1 6,0 0,0 0,0 0,0l0 -1c0,0 0,0 0,0 1,-1 1,0 1,0 0,-2 0,-1 1,-1 1,0 0,0 1,0 1,0 0,0 1,0 0,-1 0,-1 -1,-1 0,0 -1,0 0,0 0,-1 0,0 0,-1 0,0 0,0 0,0l0 0 2 0c0,-1 0,-1 0,0l-1 0 1 1c0,0 0,0 0,0 0,0 0,1 0,1 0,0 0,-1 0,1l1 -1 0 0c2,-1 4,1 3,-2 0,-1 0,0 0,-1l0 -1c0,0 0,0 0,-1 -1,0 0,1 -1,0l0 0c0,-1 0,0 -1,-1 1,0 0,0 2,0 1,0 1,0 1,0 0,0 0,0 1,0 0,-1 0,-1 0,-2 -1,0 1,1 -1,0l-1 0c0,-1 1,0 0,0 0,0 0,0 0,0 -2,0 -3,0 -4,-1 0,0 1,-1 -1,0l0 0c-1,0 0,0 -1,0 0,0 0,0 0,0 0,0 0,0 0,0l-1 0 -1 -2c0,1 0,0 -2,0l-1 0c-2,0 0,0 -1,0l-4 1c-2,0 0,-1 -2,-1 0,0 -1,0 -1,0l-2 0c1,1 1,0 1,1 0,0 -5,0 -6,0 0,-1 0,0 1,-1 -1,0 -5,0 -6,0 1,3 -1,3 2,4 0,0 0,0 0,0 0,0 0,0 0,0 -2,0 -5,0 -7,0 -1,0 -1,0 0,-1z"/>
   <path class="fil4" d="M70 75l0 0zm-8 -4c1,0 0,0 1,0 0,0 0,0 0,1l0 0c0,0 -1,1 -1,-1zm7 2c-1,0 -1,0 -2,0 1,1 0,1 1,1 0,0 0,0 0,0 0,1 0,1 0,0 -2,0 -1,-1 -1,-1 -1,-1 -2,-1 -1,-2l0 -1c0,0 0,0 1,0l0 1 0 0c0,1 0,0 0,1 0,0 0,0 1,0 0,0 0,0 0,0l0 -1c2,0 1,0 3,0 1,0 0,-1 0,0 0,1 0,1 -1,1 0,1 0,0 0,1l-1 0zm6 -7l2 0c-1,1 -1,0 -1,1 1,1 1,0 1,1 0,0 0,0 0,0l-2 1c0,0 0,-1 0,-1 0,0 0,0 -1,0 0,0 0,-1 0,-1 0,-1 0,-1 1,-1zm-3 -7c1,1 1,1 2,2 -1,0 0,0 0,1l-1 0c0,1 1,2 0,3 1,1 1,-1 1,1 -3,-1 -1,-1 -3,-1 0,-1 0,-1 -1,-2 -1,1 0,1 0,1 -1,0 0,0 -1,0 -1,0 0,0 0,-1 -1,0 -1,1 -1,1 -1,0 -1,1 -2,1 -1,-1 0,-1 -1,-1 1,-1 1,0 2,-1 0,-1 0,0 0,-1l0 -1c0,-2 0,-1 1,-1 0,0 0,0 0,0 0,0 0,0 0,0 0,-2 1,-1 1,-1 2,-1 1,0 2,-1 0,0 0,0 1,1zm-8 -3c0,-1 0,-1 1,-2 0,0 0,-1 1,-1 0,0 -1,-1 -1,-1 0,-1 0,-1 1,-1 1,1 -1,0 1,2 1,1 0,0 1,0 0,1 0,1 -1,2 1,1 1,0 1,1 0,2 0,0 0,1 -1,0 -1,0 -1,-1 -1,0 0,-1 0,-1 0,0 0,0 0,-1 -1,0 0,0 -1,-1 -1,2 0,0 0,1 0,1 -1,2 -2,2zm-3 -5c1,-1 0,-1 1,-1 1,0 0,0 1,1 0,0 0,0 0,0l1 0 1 0c-1,2 -3,2 -4,0 0,-1 0,0 0,0zm9 -5l1 0 0 2 -1 0 0 -2zm-9 1l0 0 -1 -1c0,0 0,-1 -1,0l0 0c1,0 0,0 1,1 0,0 0,0 0,1l1 1c0,1 -1,-1 0,0 1,2 0,0 1,2 -1,-1 -1,-1 -2,-1 0,-1 0,-1 -1,-1 0,1 0,1 0,2 -1,0 -2,0 -3,-1 0,1 0,1 0,2 -2,0 -2,1 -2,-1 0,0 1,0 1,0 0,0 0,0 0,0 0,0 0,0 0,0 0,0 0,0 0,0l-1 -1c0,0 0,0 0,0 -2,0 -2,1 -3,0 0,1 0,0 -1,0 -1,1 0,1 1,2l2 1c-1,1 0,1 0,2 -2,0 -2,-1 -2,-1 0,0 0,0 -1,0 0,1 0,0 0,1 0,0 1,0 1,0 0,0 0,1 0,1l0 0c0,0 0,0 0,0 1,0 1,0 1,1 0,0 0,0 -1,0 0,0 0,0 -1,0 -1,-1 0,-1 0,-1 0,0 0,0 0,2l-1 0c0,1 0,1 1,2 1,0 0,0 1,0 0,0 0,0 0,0l0 0c1,-1 0,0 1,-1l0 -1 0 0 1 1c0,1 1,0 1,0 0,0 0,0 0,0l0 0c0,-1 0,-1 0,-1 1,0 0,0 1,0 0,0 1,-1 -1,0l-1 1c0,-1 -1,-1 -1,-1 0,-1 0,-1 0,-1 0,0 0,0 0,0 0,0 0,0 0,0 0,0 1,0 1,0 1,-1 1,-1 2,0 0,-1 0,-1 1,-2l1 2c0,0 -1,-1 -1,0 1,1 0,1 1,0l1 1 0 -1c2,0 1,0 3,0 0,-1 0,-1 0,-2 -2,-2 -2,-1 -3,-1 -2,0 -1,0 -2,-1 2,-1 1,0 2,0 1,0 1,-1 2,-1l0 2 1 0c1,-1 1,-1 1,-1 1,1 1,0 2,0l-1 2c0,0 0,0 0,0 0,2 0,2 1,2 1,0 0,-1 1,0 0,0 0,0 0,0 0,0 0,0 0,0l0 1c0,0 1,0 1,0l1 0c-1,1 0,1 -1,1 0,1 0,1 0,1 0,1 0,0 0,1 -1,2 0,-1 -1,2 -1,1 0,0 -1,1 0,0 0,1 0,2 -1,1 -1,0 -2,1 1,1 1,0 2,0 0,0 0,0 0,1 0,1 1,0 1,1 -2,-1 -1,0 -2,0 -1,1 0,0 -2,-1 0,0 0,0 0,0 0,-1 0,-1 0,-1 0,-1 0,-1 0,-2l2 0c-1,0 0,0 -1,0l-2 -1c1,-1 1,-2 1,-3 -1,0 0,0 -1,0 -1,1 0,0 0,1 -1,1 -1,1 -1,1l0 0c-2,0 -1,0 -2,0l-2 -1c0,0 0,0 0,0 0,0 0,0 0,0 -1,-1 0,-1 0,-1 0,-2 -2,-1 -2,-1 0,2 0,-1 0,1l0 1 0 0c0,1 0,2 0,3 1,0 0,-1 1,-1l1 3c0,-2 -1,-1 1,-2 1,-1 0,0 1,-1 0,0 1,0 1,1 0,0 -1,0 -1,1 0,0 0,0 0,0 0,0 0,0 0,1 0,0 0,0 -1,0 1,0 2,0 2,1 0,1 -1,1 -1,2l0 0c1,0 1,0 1,0 0,1 0,0 0,1 0,0 -1,0 -1,0l1 1 0 1c-1,0 0,-1 -1,0l1 0c0,1 0,0 0,1 0,0 0,0 0,0l0 -1c1,-1 1,0 2,0 0,-1 0,-1 1,-1l0 0c1,1 1,1 0,2 -1,-1 0,-1 -1,-1 0,1 -1,1 -1,2 0,0 0,0 -1,0 -1,-1 0,-1 -1,0 2,0 1,0 2,1l0 0 0 0c1,0 1,-1 0,0 -1,0 -1,0 -1,1 1,0 1,0 1,0l0 0c1,0 3,-1 3,-1 0,0 0,0 0,0 1,0 1,0 2,0 0,0 0,0 0,1l1 0 0 -1c0,0 -1,0 0,0l1 2c1,0 1,0 1,-1 1,0 0,0 1,0l1 0 0 0c1,0 1,0 1,0 0,0 1,-1 1,-1 0,0 0,0 -1,-1 1,0 1,0 1,1 1,-1 1,0 1,-1 0,-1 0,0 0,0 0,0 0,-1 0,-1l0 -1c0,0 0,0 0,0l2 0c0,0 0,0 0,0 0,1 0,0 0,0 1,0 1,0 2,0 0,0 0,0 0,0 0,0 -1,0 1,0 -1,-1 -1,-1 -1,-1 0,-1 0,-1 0,-2 1,0 1,0 1,0 1,0 0,0 1,0l0 -1c0,0 1,0 1,1l-1 -1c0,-1 0,-1 1,-1 1,-2 -1,-2 -1,-2l-1 -2c-1,0 -1,0 -2,0l1 0c0,0 0,-1 1,-1 0,0 2,2 2,2 0,-1 0,-1 0,-1 -1,-1 -1,-1 -1,-1 -1,-1 -1,0 -1,-1 0,0 0,-1 0,-1 -1,0 -1,0 -1,-1 1,0 0,1 1,0 -2,0 -1,0 -1,-1l0 1c0,1 -1,1 -1,1 0,0 0,0 0,-1 0,0 -1,0 -1,0 0,0 0,0 0,0 0,0 0,0 0,0 0,0 0,0 0,-1l0 0c1,-1 -1,-1 1,-1 -1,-1 -1,1 -1,-1 1,-2 1,0 1,-2 -1,1 -1,1 -1,2 -1,0 0,0 -1,-1l-1 0c0,-1 0,-2 -1,-2 0,0 0,1 -1,1 -1,-1 -1,0 -1,-1 0,0 0,0 1,0 0,0 0,0 0,0 0,-1 -1,-3 -2,-4 -1,2 1,1 -1,2 0,-1 0,-2 0,-3 0,0 0,1 0,1 -2,-1 1,1 -1,-1l1 -1c0,0 0,-1 0,-1 1,1 1,0 1,1 0,-1 0,-1 1,-1l1 1c0,1 -1,1 -1,2 1,-1 -1,0 1,-1 1,0 1,0 2,1 0,0 0,0 0,0l-1 0c0,0 0,0 0,0 0,0 0,0 -1,0 0,1 0,1 0,1 0,0 0,1 0,1 1,2 1,-1 2,1 1,0 0,0 0,1 2,-1 1,0 2,0 0,0 0,0 0,0 0,-1 0,-1 -1,-2l0 0c0,0 0,0 0,-1l0 -1c0,0 0,0 0,0l1 0c0,0 0,0 0,0 1,0 1,1 1,1 1,-1 0,0 0,-2l2 1c0,-1 0,-1 1,-2l0 -1c0,-1 0,0 0,-1 -1,-1 0,0 -1,0l-1 -1 -1 1c-1,-2 0,-1 0,-1 2,1 1,2 1,4l-1 0c0,0 0,-1 -1,-1 -1,-1 -2,0 -2,-2 1,0 2,0 2,1 0,0 0,0 0,0l1 0c0,0 0,0 0,0l-2 -3c0,0 0,0 0,0 -1,1 -1,1 -1,2 -1,-1 0,-1 -1,-1 0,0 -1,1 -2,1 1,-3 2,-1 2,-3 0,0 1,0 1,0 1,0 0,0 1,0 0,0 -2,-1 -2,-1 0,0 0,0 0,0l0 1c-1,0 -1,1 -2,1 0,-1 1,-1 1,-1 0,-1 0,0 0,-1 -2,1 0,3 -1,5l-1 -2c0,-1 0,0 -1,0 -1,0 -2,-1 -2,1 2,0 1,0 2,-1 0,0 0,0 1,0 0,0 0,0 0,0l0 1c0,0 0,0 0,0 0,0 0,0 0,0 -1,2 -1,1 -2,1 0,0 -1,0 -2,0 0,1 0,1 0,1 2,1 1,-1 1,0 0,1 0,0 -2,1 0,0 0,0 0,1 -1,0 -1,-1 -1,-1 -1,0 -1,-1 -1,-2z"/>
   <path class="fil1" d="M107 53c1,0 2,1 2,1 -1,1 -2,0 -2,-1zm3 -1c-1,0 0,0 0,0 0,0 0,0 0,0 0,0 0,0 0,0zm-2 0c0,0 0,-1 0,-1 -1,0 -1,-1 -1,-1 0,0 0,-1 1,0l0 0c0,0 0,0 0,0 0,-2 0,-1 1,-1 1,0 0,0 1,0 1,0 0,0 0,1 -1,0 -1,0 -1,1l1 0c0,0 0,1 0,1l-1 1c-1,-1 -1,0 -1,-1zm-21 -15l0 1 1 0 1 1c0,1 1,0 0,1 -3,0 0,0 -3,0 -1,1 -1,1 -1,2 0,1 0,0 1,1l0 0c0,-1 0,-1 0,-2l2 0c0,0 -1,0 1,0l0 1 -1 1c-1,0 0,0 -1,0 0,1 1,0 0,1 0,0 0,0 -1,0l0 -1c0,0 -1,1 -1,1l0 0c1,1 0,0 1,1 -1,0 -1,0 -1,0 0,0 0,0 0,0 0,0 0,0 0,0 -1,1 -1,1 -1,1 0,1 0,1 1,2 -1,1 -1,0 -1,1 0,0 0,0 0,0l0 0c-1,1 -1,0 -1,1 2,1 3,-1 3,-1 0,-1 0,-1 1,-2 0,-1 0,0 0,-1 0,0 0,0 0,0 0,0 0,1 0,2l-1 1c0,1 -1,1 -1,2 0,1 1,0 2,0 0,0 1,-1 1,-2 0,0 1,0 1,0 0,-1 0,-1 0,-1l0 0 0 -1 0 0c-1,-1 0,0 0,-1 1,0 2,0 3,0 0,-1 0,0 -1,-1 0,0 0,0 0,0l0 -1c0,0 0,0 0,0l-1 1c0,-2 0,-1 1,-1 0,-1 0,-1 -1,-2 2,0 1,1 2,1 0,0 1,-1 2,-1 -1,-2 0,0 -1,-1l1 -1c-1,-1 0,0 -1,-1 1,0 1,0 1,1l0 2c-1,2 0,0 -1,1 0,1 -1,0 -1,1 1,0 0,0 0,1 2,0 1,0 0,2 2,0 1,0 2,0 0,-1 0,0 0,-1 1,0 1,0 1,0l0 0c1,-1 0,0 1,-1 0,0 0,0 1,1 -1,0 -1,0 -1,0 -1,1 -1,1 -1,2 0,0 1,1 1,1 0,1 0,0 0,1 0,0 0,1 1,1 0,0 0,-1 0,-1 1,2 0,1 2,1 1,1 0,1 2,1 0,0 0,0 0,-1l2 1c0,0 0,0 -1,1 2,0 1,-1 3,0 1,0 1,0 1,1l-1 -1c0,0 0,0 0,0 0,0 0,0 -1,0 0,0 0,0 0,0 -1,1 0,1 -2,1 0,2 2,2 3,2 -1,1 0,0 -1,1 0,1 0,1 1,1 1,-1 0,-1 1,-1l0 1c0,0 0,0 0,0l1 0c0,0 0,0 0,0 0,-1 0,0 0,-1 0,-1 0,-1 0,-1 0,0 0,0 0,0 0,1 0,1 0,1 1,0 1,0 2,-1 1,2 0,0 1,2 2,2 1,0 2,1 -1,1 -1,1 -1,2 1,0 1,0 1,-1l1 0 -1 2c0,0 -1,1 -1,1 1,1 1,0 2,1 0,0 0,0 0,0 0,1 0,0 -1,1l-1 -1c0,1 0,1 0,1 0,0 0,0 -1,0 0,1 0,0 0,1 0,0 0,0 0,0 0,0 0,0 0,0 1,1 1,0 1,1l-2 0c0,0 0,0 0,1 1,0 1,0 1,0l0 -1c1,0 2,1 3,-1l1 -1c0,0 0,-1 1,-1 0,-1 -1,-1 -1,-2l1 0c0,0 0,0 0,0 0,-1 0,0 0,-1 -2,0 -1,0 -2,-1 0,-1 0,0 0,-1 0,-2 0,0 0,-1l0 -1c-2,-1 0,-1 -2,-1 0,-1 0,0 0,-1 1,0 2,0 3,0 0,0 0,0 1,0 1,0 1,1 1,2l0 0c0,-1 0,-1 0,-2 0,0 0,0 0,0l0 -1 0 0c-2,0 -1,0 -2,0 0,-1 0,-1 -1,-1 1,0 1,0 1,0 0,-1 0,-2 0,-3 -1,-1 -1,0 -1,-2 -2,0 -1,1 -4,-1l0 -1c0,0 0,0 0,0l0 0c-1,0 -1,-1 -1,-1 0,-1 0,0 0,-2 0,0 0,0 0,0 -1,0 0,0 -1,1 0,0 0,0 0,0 -1,-1 1,-1 -1,-1 0,1 0,1 0,1l0 2c-2,0 -1,-1 -2,0 0,-1 0,0 1,-2 -1,0 0,0 -1,0 0,0 0,0 0,0 -1,0 -1,-1 -1,1 0,0 -1,0 -1,1 1,0 1,0 1,1 1,0 0,0 1,0 1,2 0,1 1,1 1,1 0,1 1,2 0,1 0,0 0,1 0,0 0,0 0,0 -2,0 -1,0 -1,-1 -2,0 -1,0 -3,1 0,0 0,-1 -1,-1 0,0 0,0 0,0 1,-1 1,0 3,-1 -1,0 0,0 -1,0l-1 0c-2,-1 -1,1 -2,-1 0,0 0,-1 -1,-1l0 0c1,-1 1,-2 0,-3l-1 -1c0,0 1,0 2,0 0,0 0,0 0,1 0,1 0,0 1,0 0,0 0,0 0,0 1,0 0,0 1,0l0 -1 0 0c0,-1 0,-1 -1,-1 0,0 1,2 -1,0 -2,0 -2,0 -4,-1l0 0c0,-1 1,-1 1,-1l1 -2c-2,1 -1,0 -2,1 0,0 0,0 0,-1 0,0 -1,0 -1,-1l-2 0c0,0 0,0 0,0 -2,3 -1,0 -2,2 0,0 0,-2 -3,-1 -2,0 1,0 0,0l-1 -1z"/>
   <path class="fil4" d="M93 73c0,-1 0,0 -1,-1 1,0 1,0 1,0 0,1 0,0 0,1zm12 -2c0,1 0,1 0,1 0,-1 0,-1 0,-1zm-17 -3c0,-1 0,-1 0,-2 1,0 2,0 2,1 0,1 -1,1 -2,1zm9 -4l1 -1 2 1c1,0 1,0 1,0 0,1 0,1 0,1 0,2 1,2 -1,3l-1 -1c0,0 0,0 -1,0 0,1 0,0 0,2l-2 -1c-1,-1 -1,-1 0,-2 1,0 1,-1 1,1l1 -1c0,0 0,0 0,0 0,-1 0,0 0,-1 0,0 0,0 -1,-1zm-12 -6c1,1 0,0 1,0 0,1 0,0 0,1 0,0 0,0 0,1 -1,1 -2,1 -2,3 1,0 2,0 2,0 1,-1 0,-1 2,-1 1,-1 2,-1 3,-1 -1,1 -1,0 -3,2 0,0 1,-1 1,-1 2,0 2,0 2,1 -1,0 -3,0 -4,1 0,0 -2,1 -2,1 -2,2 -3,4 -4,5 2,0 1,0 1,2 0,0 1,0 -1,0 1,0 0,0 1,1 0,0 0,0 0,0 0,1 0,0 0,1l0 0c1,-1 1,-1 1,-2 2,0 3,0 4,0 1,0 0,-1 1,-2 1,1 0,0 1,0l0 0c0,0 0,0 0,0 0,0 0,0 0,-1 0,0 0,0 1,0l-1 -1c2,0 1,0 2,1 0,0 0,0 0,0l0 -1c0,0 0,0 -1,-1 2,0 1,0 2,-1l0 0 0 0c1,0 1,0 0,0 0,0 0,-1 1,0 1,0 0,0 1,0 2,-1 1,2 0,2 0,0 -1,1 0,-1l0 1 -1 0c0,0 0,0 -1,-1 0,1 1,1 1,1 0,1 -1,0 -1,1 0,0 0,1 0,1l0 0c0,0 0,-1 0,-1 0,0 0,0 0,0 -1,1 -1,2 -1,4 0,0 0,-1 1,0 0,0 0,0 0,0l1 0c0,0 0,0 0,0 0,1 0,0 0,1 0,0 0,0 0,0 0,0 0,0 0,0 0,0 1,0 1,0 1,0 0,0 0,-1 1,-1 1,0 1,0 0,-2 0,-1 1,-2 1,0 0,0 1,0 0,-1 0,-1 0,-1 0,0 0,0 1,0l0 0c1,1 1,0 1,1 1,1 1,1 1,2 1,0 1,0 1,0l0 1c0,1 1,1 0,1 0,1 0,1 1,1l1 -2c0,0 0,0 0,0 0,0 0,0 0,0 0,0 0,0 -1,0 0,-1 0,-1 0,-1l0 -1c1,0 1,0 1,1l1 -1 1 0c0,0 0,1 1,0 0,0 0,0 0,-1l-1 0 0 0c0,-3 1,0 1,-2l1 -1c0,0 0,0 0,-1 0,0 0,1 0,0 0,0 0,1 -1,0 0,0 0,0 0,0 -1,-3 0,-2 0,-3l0 -1 -1 0c0,0 -1,0 -1,0 0,0 0,0 0,0 0,0 0,0 -1,0 0,0 1,0 1,1 -1,0 -2,1 -2,-1l0 0 0 -1c1,-1 1,0 1,-1 -1,0 -1,0 -2,0 -1,0 0,0 -1,0 0,-1 0,-1 -1,-1 -1,-1 -1,-1 -2,-1 0,1 1,1 1,1 1,0 1,1 1,1 -2,0 -1,0 -2,0 -1,-1 0,-1 0,-3 -2,0 -3,0 -4,1 0,0 1,0 1,1 0,0 0,0 0,0 -1,0 -1,0 -1,0 0,0 -1,0 -1,-1 0,0 0,0 0,-1l-1 -1c0,1 -1,0 -1,1 -1,0 0,0 -1,0 0,1 0,1 0,2 -1,-1 -1,-1 -1,0 0,-1 0,0 0,-1 -1,0 -1,0 -1,0 -1,-2 0,-2 -1,-2 -1,0 0,0 -1,1z"/>
   <path class="fil5" d="M174 106c1,0 2,0 2,0 1,2 1,12 1,15 0,1 -1,2 -3,3l0 1 6 0c1,0 0,0 1,-1 -1,-2 -3,2 -3,-6 0,-3 0,-7 0,-10 0,1 4,11 5,13 1,1 1,3 2,4 1,-1 1,-2 1,-2l6 -15c0,0 0,0 0,0 0,3 0,5 0,8 0,7 1,8 -2,8l0 1 9 0 0 -1c-1,0 -2,0 -2,-1 0,-4 -1,-15 0,-17 1,0 1,0 2,0l0 -1c-8,0 -6,-1 -8,3 -1,1 -4,9 -4,10l-1 0c0,-1 -2,-5 -2,-7l-3 -5c0,-2 -1,-1 -7,-1l0 1z"/>
   <path class="fil6" d="M127 106c1,0 2,0 2,2l0 14c0,2 -1,2 -2,2l0 1 9 0 0 -1 -2 -1c-1,-1 -1,-6 -1,-8l11 0c0,1 0,6 -1,8 0,1 -1,1 -2,1l0 1 9 0 0 -1c-1,0 -2,0 -2,-2l0 -14c0,-2 0,-2 2,-2 0,-1 0,-1 -1,-1l-8 0 0 1c3,0 3,1 3,7l-11 0c0,-6 -1,-7 3,-7l0 -1 -9 0c0,0 0,0 0,1z"/>
   <path class="fil7" d="M61 87l-2 0c0,-1 -1,-7 0,-8 1,-1 6,0 6,3 0,3 -1,5 -4,5zm5 8l1 2c1,0 5,1 6,0 -1,-1 0,0 -1,0 -1,-1 -1,-1 -1,-1 -2,-2 -3,-6 -5,-7 0,-1 0,-1 -1,-1 5,-1 7,-6 2,-9 -3,-2 -10,-1 -15,-1l0 1c4,0 3,1 3,9 0,9 1,8 -3,8l0 1 9 0c0,-1 0,0 -2,-1l0 -8c1,0 2,0 3,1 0,0 1,1 1,2 1,1 2,3 3,4z"/>
   <path class="fil4" d="M87 51c1,0 0,0 0,1 0,0 -2,0 -2,1 1,0 0,0 1,0 1,1 0,1 1,1 0,0 0,-1 1,0l1 0c0,0 0,0 0,0l0 1c1,0 1,0 1,0l0 1c0,0 0,0 0,0 1,0 1,-1 3,-1l-1 -1c1,0 1,0 2,0 0,0 0,-1 1,-1 0,0 0,0 0,0l1 1c1,1 0,0 1,1 0,0 0,1 1,1 0,0 0,0 1,0 -1,-1 -1,0 -1,-1 1,0 1,0 1,0 1,-1 1,-1 2,0 0,1 0,0 1,2 0,1 -1,1 0,1l1 1c5,1 4,1 4,4l1 0c-1,1 -1,1 -1,2 0,2 0,1 0,2 0,0 0,0 1,0 0,1 0,0 0,1l1 0c1,0 0,0 0,0 0,-1 0,-1 0,-1l2 0c0,-1 0,0 -1,-1 0,0 0,0 0,0 0,0 0,0 0,0 0,-1 0,0 0,-1 1,0 1,0 1,0 0,0 0,0 0,-1l1 1c1,-1 1,0 1,-1 0,0 0,0 0,0 -1,-1 -1,0 -2,-1 0,0 1,-1 1,-1l1 -2 -1 0c0,1 0,1 -1,1 0,-1 0,-1 1,-2 -1,-1 0,1 -2,-1 -1,-2 0,0 -1,-2 -1,1 -1,1 -2,1 0,0 0,0 0,-1 0,0 0,0 0,0 0,0 0,0 0,1 0,1 0,0 0,1 0,0 0,0 0,0l-1 0c0,0 0,0 0,0l0 -1c-1,0 0,0 -1,1 -1,0 -1,0 -1,-1 1,-1 0,0 1,-1 -1,0 -3,0 -3,-2 2,0 1,0 2,-1 0,0 0,0 0,0 1,0 1,0 1,0 0,0 0,0 0,0l1 1c0,-1 0,-1 -1,-1 -2,-1 -1,0 -3,0 1,-1 1,-1 1,-1l-2 -1c0,1 0,1 0,1 -2,0 -1,0 -2,-1 -2,0 -1,1 -2,-1 0,0 0,1 0,1 -1,0 -1,-1 -1,-1 0,-1 0,0 0,-1 0,0 -1,-1 -1,-1 0,-1 0,-1 1,-2 0,0 0,0 1,0 -1,-1 -1,-1 -1,-1 -1,1 0,0 -1,1l0 0c0,0 0,0 -1,0 0,1 0,0 0,1 -1,0 0,0 -2,0 1,-2 2,-2 0,-2l0 -1c0,-1 1,0 1,-1 1,-1 0,1 1,-1l0 -2c0,-1 0,-1 -1,-1 1,1 0,0 1,1l-1 1c1,1 0,-1 1,1 -1,0 -2,1 -2,1 -1,0 0,-1 -2,-1 1,1 1,1 1,2 -1,0 -1,-1 -1,1l1 -1c0,0 0,0 0,0l0 1c0,0 0,0 0,0 1,1 1,0 1,1 -1,0 -2,0 -3,0 0,1 -1,0 0,1l0 0 0 1 0 0c0,0 0,0 0,1 0,0 -1,0 -1,0 0,1 -1,2 -1,2z"/>
   <path class="fil6" d="M163 124l-2 0c-6,0 -5,-12 -3,-16 2,-4 7,-3 9,0 2,4 2,16 -4,16zm-11 -10c0,3 0,5 3,8 2,3 5,3 8,3 5,0 9,-5 9,-10 0,-3 0,-6 -3,-8 0,0 -2,-1 -3,-2 -4,-1 -8,0 -11,2 -1,1 -3,4 -3,7z"/>
   <path class="fil7" d="M87 96c-1,1 -1,0 -1,1 1,0 6,0 6,0 0,-1 0,0 -1,-1l0 0c-1,0 -1,0 -1,0 -1,-2 0,-14 0,-16l5 6c1,1 8,10 9,10l1 2 1 0 0 0 0 -2c1,-3 0,-12 1,-15 0,-1 0,-2 2,-2l0 -1 -7 0 0 1c3,0 3,2 3,5 0,2 0,5 0,7l-11 -13c-1,0 -2,0 -4,0 -1,0 -3,0 -4,0 0,2 2,-1 3,3 0,2 0,12 -1,14 0,1 -1,1 -1,1z"/>
   <path class="fil5" d="M201 106c2,0 2,0 2,2 0,3 1,14 0,15l-2 1 0 1 16 0c1,0 1,-1 1,-2l1 -4c-1,0 0,1 -3,3 -2,2 -5,2 -8,2 0,0 -1,-1 -1,-1l0 -8c5,0 6,0 7,4l1 0 0 -9c-1,0 -1,0 -1,1 -1,3 -4,3 -7,3l0 -8c0,-1 2,0 4,0 4,0 5,2 7,4 0,0 0,0 1,0l-2 -4c0,-1 0,-1 -1,-1l-15 0 0 1z"/>
   <path class="fil8" d="M116 107c0,0 0,1 0,0 0,0 -1,1 0,0zm-2 0c0,0 0,0 -1,0 0,0 0,0 1,0zm0 0c0,0 -1,0 1,0 0,0 0,0 0,0 0,0 -1,0 -1,0zm-6 0l0 0c0,0 0,0 0,0zm10 -1c-5,0 -2,0 -4,0 1,-1 1,-1 2,-1 1,1 1,0 2,1zm2 -1c0,0 0,0 -1,0l0 0 1 0zm4 0c-1,0 0,0 -1,-1 2,0 1,0 1,1zm-4 0c0,-1 0,-1 1,-1l0 1 -1 0zm-8 -2l0 0c0,0 0,0 0,0zm6 -2l1 0 -1 0zm0 0l0 0 0 0zm-2 0l-1 0c1,0 0,0 1,0 0,0 0,0 0,0zm2 0c0,0 -1,0 -1,0 0,-1 0,-1 0,-1l1 0c0,1 0,0 0,1zm-4 -3c0,0 0,0 0,0l1 0c-2,0 -1,0 -1,0zm-3 -2c1,0 1,0 1,1 0,0 0,0 -1,0l0 -1zm-4 0l0 0zm0 0l-1 0 0 2c1,-1 1,-1 1,0l0 0c1,0 0,0 1,0 1,0 1,0 1,0l-1 0c1,1 2,1 4,1 -1,-1 0,-1 -2,-1l0 0c1,0 2,0 3,0l-1 1 1 0c2,1 0,0 1,0 0,1 0,1 0,2 -1,0 -1,0 -1,0 1,1 1,1 2,1 -2,0 -3,0 -4,0l0 0c1,1 0,0 1,0 0,1 0,1 0,1l0 1c0,1 0,0 0,1 1,3 -1,1 -3,2 1,0 2,0 3,0 0,0 1,0 1,1 -1,0 -1,0 -2,0l-1 0c0,0 0,0 -1,0 0,-1 0,0 0,-1l-1 1c0,-2 0,-1 0,-1 0,0 0,-1 0,-1 0,0 0,0 0,0l-1 -1 1 0c0,-1 0,-1 0,0l-2 0 0 0c0,0 0,0 0,0 0,1 0,0 0,1 -1,0 0,0 0,0 1,0 1,0 1,1 -1,0 0,0 -1,0 0,1 0,0 0,1 -1,-1 -1,0 -1,-1 -1,0 -1,-1 -1,1 0,0 1,0 0,0 0,0 -1,0 -1,0 0,0 0,0 0,0 1,0 1,0 2,1l0 0c0,0 0,0 0,0 0,0 0,0 0,0 1,0 1,0 0,0 0,0 0,0 0,0 1,0 2,0 3,0 0,0 0,0 0,0 -1,0 -2,0 -2,1 2,0 3,-1 6,-1 4,0 0,0 3,0 0,0 0,0 1,0 1,-1 0,0 1,-1 2,-1 4,-1 5,-1 0,0 0,0 1,0 1,-1 3,0 3,-1 0,-2 -1,0 -2,-1l1 -1c-2,0 0,0 -2,0 -2,0 0,0 -2,-1l1 0c0,0 0,0 0,-1 0,0 -1,0 -2,0 1,-1 0,-1 3,0 0,0 0,0 0,0 0,0 0,0 0,0 1,-1 0,-1 1,-1 0,-1 1,-1 -4,-1 1,-1 0,0 1,0l1 -1c0,0 0,0 0,0 2,-1 1,0 1,-1 -2,0 0,1 -2,0 -2,-1 -2,0 -4,-1 -2,0 -2,1 -3,1 0,-2 0,0 1,-2 -1,0 -1,0 -2,0l-3 0c1,1 1,0 0,0l-1 0c3,0 -1,-1 -2,0z"/>
   <path class="fil7" d="M220 79c2,0 3,0 3,3 0,1 0,13 -1,14 -1,1 -2,0 -2,1l17 0c0,0 1,-2 1,-2 0,-2 1,-2 1,-3 -2,0 -2,0 -2,1 -3,4 -5,3 -10,3 0,0 0,0 0,0l0 -8c8,0 5,3 7,4 0,0 0,0 0,0l0 -9 -1 0c0,4 -4,4 -6,4l0 -8c0,0 1,0 2,0 3,0 4,0 5,1 3,2 3,3 4,3 0,-1 -2,-3 -2,-5l-16 0 0 1z"/>
   <path class="fil6" d="M222 110c0,0 1,2 1,2 0,0 0,0 0,1 0,0 1,0 1,0 1,1 2,2 3,3 4,1 7,1 7,5 0,3 -7,5 -10,-2 0,0 0,0 -1,-1 0,-1 1,0 0,0 -1,0 -1,5 -1,6 0,2 2,0 2,0 2,0 2,1 4,1l3 0c3,0 6,-2 6,-5 0,-4 -1,-6 -5,-7 -2,-1 -3,-1 -4,-2 -1,-1 -3,-1 -3,-3 0,-3 6,-4 9,0 1,3 0,3 1,3 0,-10 1,-6 -2,-6 0,0 -8,-3 -10,2 0,1 -1,2 -1,3z"/>
   <path class="fil7" d="M113 88c0,7 8,12 16,9 1,0 2,-1 3,-1 0,-5 0,-7 2,-7l0 0c-1,-1 -6,-1 -7,-1 -1,1 -1,0 -1,1 3,0 2,1 2,4 0,6 -11,6 -11,-5 0,-4 1,-7 4,-9 3,-2 7,1 9,4 1,2 1,2 2,2l0 -6c0,-1 1,-1 0,-1 -1,0 -1,1 -2,1 -1,0 -8,-3 -13,1 -1,0 -1,1 -2,2 -1,1 -2,4 -2,6z"/>
   <path class="fil7" d="M11 83c0,3 2,4 5,6 4,2 6,2 6,5 0,3 -5,4 -8,0 0,0 -1,-1 -1,-2 -1,-2 0,-1 -2,-1l0 7c2,0 2,-1 3,-1 0,0 1,0 2,0 5,2 10,0 10,-5 0,-6 -5,-6 -9,-8 -5,-2 -2,-5 0,-5 2,0 3,0 5,2 1,1 1,2 2,4l0 0 0 -7c-2,0 0,1 -3,0 -4,-1 -10,0 -10,5z"/>
   <path class="fil7" d="M39 87l-2 0c0,-2 0,-6 0,-8 3,-1 7,0 7,4 0,3 -2,4 -5,4zm-6 -8c0,2 0,15 0,17 -3,1 -2,0 -3,1 1,0 0,0 1,0l8 0c1,0 1,0 1,0 -1,-1 0,0 -3,-1 0,-2 0,-6 0,-8 3,0 7,0 9,-1 4,-2 2,-8 -4,-9 -4,0 -8,0 -11,0 0,1 0,1 2,1z"/>
   <path class="fil9" d="M83 61l0 0zm-1 -9c0,-1 0,-1 0,-1l1 0c2,0 0,3 -1,3 -1,-1 -1,-1 0,-2zm1 -7l0 -1 0 0c0,2 0,1 0,1zm-1 2l0 1c-1,0 -1,0 -1,1l0 1c0,1 1,1 -1,1 0,0 0,0 0,0 0,0 -1,-1 -2,-1 0,0 1,-1 0,0 0,1 0,1 0,1 0,0 1,0 2,0 0,0 0,1 0,2 0,0 0,0 1,1l-1 0c-1,0 0,0 0,0 0,0 0,0 -1,0 0,-1 1,0 0,-1 0,1 0,1 1,2 0,1 0,0 0,2 1,0 0,0 0,2 -1,0 -1,1 -1,1 -1,0 -1,0 -2,-1 0,0 0,0 0,0l0 1c-1,1 0,0 -1,0 0,1 0,1 1,1 0,0 0,1 0,1 0,1 0,0 1,1 0,0 0,0 1,1 0,0 0,0 0,1 0,0 -2,-2 -2,-2 -1,0 -1,1 -1,1l-1 0c1,0 1,0 2,0l1 2c0,0 2,0 1,2 -1,0 -1,0 -1,1l1 1 0 1 0 0c1,0 1,-1 1,-2l0 1c1,-1 0,-2 1,-2 1,1 0,2 0,3 0,0 0,0 0,0l0 -1c0,0 0,0 0,0 1,-1 2,-3 4,-5 0,0 2,-1 2,-1 1,-1 3,-1 4,-1 0,-1 0,-1 -2,-1 0,0 -1,1 -1,1 2,-2 2,-1 3,-2 -1,0 -2,0 -3,1 -2,0 -1,0 -2,1 0,0 -1,0 -2,0 0,-2 1,-2 2,-3 0,-1 0,-1 0,-1 -1,0 -1,0 -1,1 0,0 0,0 0,0 -1,1 0,0 -1,1 -1,0 0,0 -1,0 1,-1 1,0 0,-1l1 -1c0,0 0,0 -1,0 -1,1 0,2 -2,2 0,0 0,0 0,0 0,-2 -1,-1 1,-1l-1 -2c0,0 0,0 0,0 0,-2 0,0 0,-1 0,-1 0,0 1,-1 0,0 0,-1 0,-1 0,0 0,0 0,0l1 0 0 -1c0,0 0,0 1,-1l1 0c0,1 0,1 1,1l0 -1c-1,0 0,0 -1,0 0,-1 2,-1 2,-1 0,-1 1,-1 0,-1 -1,0 -2,1 -2,0 0,-1 1,-1 1,-2l1 -1c0,-1 0,-2 0,-2 0,0 0,0 0,0 0,1 0,0 0,1 -1,1 -1,1 -1,2 0,0 -1,2 -3,1 0,-1 0,0 1,-1l0 0c0,0 0,0 0,0 0,-1 0,0 1,-1 -1,-1 -1,-1 -1,-2 0,0 0,0 1,-1 0,0 0,0 0,0 0,0 0,0 0,0 0,0 0,0 1,0 -1,-1 0,0 -1,-1l0 0c0,0 1,-1 1,-1l0 0 0 0c-1,0 -1,0 -1,0 -1,0 0,0 -1,0l0 1c0,0 0,0 0,0l-1 -1c-1,0 -1,0 -2,0l0 -2c-1,0 -1,1 -2,0 -1,-1 0,-1 -2,-1 1,1 0,2 0,3 1,0 0,0 1,-1 1,0 1,0 2,1 0,0 0,1 1,1 0,0 0,0 0,0 1,2 1,1 1,3z"/>
   <path class="fil10" d="M76 106c0,-1 2,0 1,0 -1,0 -1,0 -1,0zm-9 -1l0 0c0,0 0,0 0,0zm10 0l0 0c0,0 0,0 0,0zm-3 0c0,0 0,0 1,0l-1 0zm-7 -2l0 0c0,0 0,0 0,0zm-2 0l-1 0c1,0 0,0 1,0 0,0 0,0 0,0zm6 0c-2,-1 0,0 -3,0l-1 0c1,0 2,-1 2,-1l2 0 0 1zm-11 -1l0 0zm4 0l0 0c0,0 0,0 0,0zm-2 0c1,0 0,0 1,0 -1,0 -1,0 -1,0zm-2 0l1 0c0,0 0,0 0,0 1,0 1,0 1,0 -1,0 0,0 -2,0zm8 0l-1 0c0,-1 0,0 0,-1l1 0c-1,1 0,1 0,1zm-9 -1l0 0c0,0 0,0 0,0zm2 0c0,0 1,0 0,0 0,0 -1,0 0,0zm3 -2l0 1c0,0 0,-1 0,-1zm-6 2l-1 0c0,0 0,0 0,-1l1 0c1,0 3,-1 4,0 -1,0 -1,0 -2,1 -1,0 -1,0 -2,0zm17 -5c0,1 0,1 0,1 1,0 0,0 1,0 -2,0 -1,0 -1,-1zm2 0c0,0 1,0 0,0 0,0 -1,1 0,0zm-20 4c-1,0 -1,1 -2,0l-1 0c0,1 0,0 0,1 0,0 0,0 1,0 0,0 0,0 0,0 0,0 0,0 0,0 -1,1 0,0 -1,0l0 1c1,0 2,0 4,0l-2 1c1,0 3,0 4,0 1,0 0,0 2,0 0,0 1,0 1,0 0,1 1,0 -2,1l0 0c1,0 2,0 2,0 1,1 0,0 0,1 0,0 1,0 1,0 2,0 1,0 3,1l6 1c2,1 2,1 4,1l-2 -1c0,0 1,-1 1,-1 1,1 0,1 1,1 0,0 0,0 -1,-1 2,0 1,1 2,-1 -3,0 -1,-1 -2,0l-1 0c-1,-1 0,-1 -1,-1 0,1 0,1 0,1l1 0c0,0 0,0 0,1 0,0 -1,0 -1,0 -3,1 1,1 -3,1l0 -1c0,0 0,0 0,0l-1 -3 1 0c0,-1 0,1 0,-1l0 0c0,0 -1,0 -1,0 0,-1 -1,-2 -1,-2 1,0 2,0 2,-1 -1,0 -4,1 -4,0l3 0c0,0 0,0 0,0 0,-1 1,0 1,0 1,0 1,0 2,0l0 0 0 0c0,0 0,-1 1,0 1,0 1,0 0,0l1 0c1,0 0,0 1,0 1,0 1,-2 1,-3 -1,0 -4,-1 -6,0 0,0 0,0 0,0 0,0 0,0 0,0 0,0 0,0 1,1 1,0 0,-1 1,0 -1,1 -5,0 -6,0l-1 -2c-1,1 -1,0 -2,1 1,1 1,0 2,1 0,0 0,0 0,0 -1,0 0,0 -2,0 -1,0 1,0 -1,1l0 0c1,0 1,0 1,1 0,0 1,-1 0,0l-1 0c-1,0 -2,0 -3,0l-2 0c-1,0 0,0 0,0 -1,1 -2,0 -3,1 1,0 0,0 1,0l1 0z"/>
   <path class="fil7" d="M135 79c3,0 4,3 5,6l3 5c1,1 3,7 4,8 1,0 0,0 1,-1 0,0 0,-1 0,-1 1,-1 1,-2 2,-3l2 -5c1,-2 3,-7 4,-8 2,-2 2,0 2,-2l-6 0 0 1c4,0 2,3 -1,7l-3 6c0,-1 -5,-11 -5,-13 0,0 1,0 2,0l0 -1 -10 0 0 1z"/>
   <path class="fil7" d="M198 79c1,0 2,0 2,1l0 15c0,2 -1,1 -2,1l0 1 16 0c1,0 2,-4 2,-5 -2,0 0,0 -3,3 -2,2 -5,1 -9,1 0,-1 0,0 0,-2l0 -13c0,-2 0,-2 2,-2l0 -1 -8 0 0 1z"/>
   <path class="fil7" d="M175 79c2,0 2,0 2,2l0 14c0,0 0,0 0,1 -1,1 -2,0 -2,1l17 0c0,-1 1,-4 1,-5 -1,0 0,0 -2,3 -3,2 -5,1 -9,1 0,0 -1,0 -1,0 0,-3 0,-14 1,-17 1,-1 2,0 2,-1l-9 0 0 1z"/>
   <path class="fil7" d="M161 79c2,0 3,0 3,2l0 14c0,1 -1,1 -1,1 -2,1 -2,0 -2,1 2,0 8,1 10,0 -1,-1 0,0 -3,-1 -1,-2 0,-13 0,-16 0,-1 0,-1 1,-1 1,0 1,0 2,-1 -2,0 -8,0 -10,0l0 1z"/>
   <path class="fil11" d="M78 81c0,0 0,0 0,2 0,0 0,1 0,1 0,6 0,6 -1,12 0,1 0,3 -1,3 -1,1 -1,1 0,1 2,0 5,0 7,0 0,0 0,0 0,0 0,0 0,0 0,0 -3,-1 -1,-1 -2,-4 1,-2 0,-6 0,-8l0 -5c0,-1 0,-2 0,-4 -1,0 -1,0 -2,1 0,2 0,4 0,6 0,1 0,1 0,2 0,0 1,-1 0,0 -1,0 0,0 -1,1l0 -8z"/>
   <path class="fil4" d="M64 26l1 0c0,0 0,1 0,2 0,0 0,0 0,0 0,0 0,0 0,1l-1 0c-2,-1 0,0 -1,-1 -1,0 0,0 -1,0 0,0 0,0 0,0 0,1 0,0 1,1 0,2 0,1 1,2l-1 1c2,0 1,0 3,2 0,0 0,0 0,0 0,0 0,0 0,0 0,1 1,1 1,2l-1 -1c-1,-1 0,0 -1,0 0,0 0,0 0,0 0,1 0,1 1,1 0,0 0,1 0,1 -1,0 -1,0 0,0l0 0c1,0 0,0 1,0 0,1 0,0 0,1l1 0c0,-1 -1,-1 -1,-2 0,-2 0,-1 -1,-2 0,-1 1,-1 1,-3l2 0c0,1 0,1 0,1 1,0 1,0 1,0 0,0 0,0 0,0 0,1 0,1 -1,1l1 1 0 0c0,-1 0,-1 0,-1l1 -1c-1,0 -1,1 0,0 1,0 1,0 1,1l1 1 0 0 0 0c1,-2 1,-1 1,-1l2 0c0,1 0,1 -1,1 1,0 1,0 1,-1 0,-1 -1,0 -2,-2l-1 1 0 -1c0,0 0,0 0,0l0 -2c2,1 2,0 2,-1 -1,0 -1,0 -1,1 -2,-1 0,-1 -2,-1l0 1c0,0 1,-1 1,0 0,0 0,1 -1,1 0,0 -1,1 -1,1 1,0 1,0 1,1 -1,0 -2,-1 -2,-1 1,-2 1,-1 1,-2 -1,1 0,0 -1,0 -1,1 -1,0 -1,0 -1,0 -1,1 -2,0l2 -1 1 1 0 -1c-1,-1 -1,-1 -1,-2l1 0c0,0 1,0 1,0l0 -1c0,0 -1,1 -3,0 1,-1 1,0 1,-1 -1,0 0,0 -2,0 -1,0 1,0 -1,0 0,0 0,0 0,0 -1,1 -1,0 0,1l-1 0 -1 1z"/>
   <path class="fil4" d="M87 37l1 1c1,0 -2,0 0,0 3,-1 3,1 3,1 1,-2 0,1 2,-2 0,0 0,0 0,0 0,0 0,0 -1,-1 1,-1 1,0 2,0 0,0 -1,0 -1,-2 1,-1 1,-1 2,-1 0,1 0,1 0,2 0,0 1,0 1,0 1,-1 1,0 0,-2 1,0 1,1 2,0l-1 0c0,-1 0,0 0,-1 0,0 0,0 1,-1 -2,0 -2,0 -3,0l0 -1c-1,0 -1,-1 -2,-1 -1,0 1,0 -1,1l0 -1c-1,0 0,0 -1,0 0,0 0,0 0,0l-1 0 -1 -1c-1,1 -1,1 -2,1 1,0 1,1 2,1 0,1 0,0 -1,1 0,2 0,0 0,2 -1,0 0,-1 -2,0 0,0 0,0 0,0l0 1c0,0 0,0 0,0l2 0c1,1 0,0 1,1 -1,1 -2,1 -2,2 0,0 0,0 0,0z"/>
   <path class="fil1" d="M89 54l0 0zm0 0l-1 0c-1,1 0,1 -1,2 -1,0 -1,0 -2,1l0 1c1,-1 0,-1 1,-1 1,0 0,0 1,2 0,0 0,0 1,0 0,1 0,0 0,1 0,-1 0,-1 1,0 0,-1 0,-1 0,-2 1,0 0,0 1,0 0,-1 1,0 1,-1l1 -1 1 0c-1,1 0,1 -1,2 0,1 0,1 0,1 0,1 1,1 1,1 0,0 0,0 1,0 0,0 0,0 0,0 0,-1 -1,-1 -1,-1 1,-1 2,-1 4,-1 0,2 -1,2 0,3 0,-1 0,-1 0,-2 0,-1 0,-1 1,-1l2 0c1,0 0,0 2,0 -1,0 0,0 0,-1 -1,-2 -1,-1 -1,-2 -1,-1 -1,-1 -2,0 0,0 0,0 -1,0 0,1 0,0 1,1 -1,0 -1,0 -1,0 -1,0 -1,-1 -1,-1 -1,-1 0,0 -1,-1l-1 -1c0,0 0,0 0,0 -1,0 -1,1 -1,1 -1,0 -1,0 -2,0l1 1c-2,0 -2,1 -3,1 0,0 0,0 0,0l0 -1c0,0 0,0 -1,0l0 -1c0,0 0,0 0,0z"/>
   <path class="fil12" d="M77 22c0,-1 0,0 1,-1 0,1 0,0 0,1 2,0 3,-2 4,-2 0,-1 1,0 1,0 -1,0 -2,1 -2,1 0,1 0,1 1,1 1,1 0,1 1,1 0,0 0,-2 2,-2 2,-1 2,1 2,1 0,1 0,1 0,1 0,0 0,0 0,-1 1,0 1,0 2,0 0,0 0,0 0,-1 -1,0 0,1 -1,0 0,0 -1,-1 -1,-2l0 0c0,-1 0,-1 0,-1 -1,0 -1,-1 -1,-1 -2,1 0,1 -1,1 -1,1 -2,0 -2,0 0,-1 0,-2 1,-3l-1 0c0,0 0,0 0,0 0,0 0,0 0,0 0,1 0,1 -1,1 0,-1 0,-1 0,-2 -1,0 -1,0 -2,1 0,0 0,0 -1,1 -1,0 0,0 0,1 0,1 -1,-1 -1,2 0,0 0,0 0,0 0,0 0,0 0,0 -2,1 -1,-1 -2,1 0,1 0,0 1,1 -1,1 -1,1 0,1z"/>
   <path class="fil2" d="M71 33c0,0 1,0 0,1l0 -1zm-4 3l1 0c2,0 -1,1 1,0l0 0c1,0 1,0 1,0 1,0 0,0 1,0 1,0 0,0 1,0 0,0 0,-1 0,0 1,0 1,0 1,1 1,0 1,0 1,1 0,1 1,0 -1,0 0,0 0,0 -1,0 0,1 0,1 1,1l-2 1c0,0 0,0 0,1 -1,-1 -1,-1 -2,-2 0,1 0,1 -1,2 -1,0 -1,0 -1,0 0,1 0,1 0,1 1,1 1,1 1,1 2,0 2,-2 2,-2 3,1 2,-1 3,0 0,1 0,1 -1,1l2 0 0 -1 1 0 0 1c0,0 0,0 0,0 0,0 0,0 0,0 1,1 0,1 1,1 1,-1 1,-2 1,-3 -1,-1 -1,0 -2,-1l-1 0c0,0 0,0 0,0 0,0 0,0 0,0 0,-1 0,0 1,-1 0,-1 0,-1 -1,-2 0,0 1,-1 0,-2l0 1c-1,0 -1,0 -1,-1l0 0 -1 -1c0,-1 0,-1 -1,-1l0 0 0 1 -1 0c0,0 0,0 0,1 0,0 1,0 0,0 0,0 0,0 0,0l-1 -1c1,0 1,0 1,-1 0,0 0,0 0,0 0,0 0,0 -1,0 0,0 0,0 0,-1l-2 0c0,2 -1,2 -1,3 1,1 1,0 1,2z"/>
   <path class="fil13" d="M57 68l-1 0c0,0 0,0 0,0l1 0zm-1 2l0 1c1,1 1,1 0,2 0,1 -1,1 0,3 0,1 0,0 0,1 1,0 1,0 1,0 1,1 1,1 2,1 2,-1 3,-1 4,-1 -1,0 -1,0 -1,-1 0,0 0,0 0,0 0,0 -2,1 -3,1l0 0c0,0 0,0 -1,0 0,-1 0,-1 1,-1 1,-1 1,0 0,0 0,0 0,0 0,0 -1,0 0,0 0,0 -1,-1 0,-1 -2,-1 1,-1 0,-1 1,0 1,0 1,0 1,0 0,-1 1,-1 1,-2 1,0 0,0 1,1 1,-1 1,-1 0,-2l0 0c-1,0 -1,0 -1,1 -1,0 -1,-1 -2,0l0 1c0,0 0,0 0,0 0,-1 0,0 0,-1l-1 0c1,-1 0,0 1,0l0 -1 -1 -1c0,0 1,0 1,0 0,-1 0,0 0,-1 0,0 0,0 -1,0l0 0c0,-1 1,-1 1,-2 0,-1 -1,-1 -2,-1 1,0 1,0 1,0 0,-1 0,-1 0,-1 0,0 0,0 0,0 0,-1 1,-1 1,-1 0,-1 -1,-1 -1,-1 -1,1 0,0 -1,1 -2,1 -1,0 -1,2l-1 -3c-1,0 0,1 -1,1 0,-1 0,-2 0,-3 -1,0 -1,0 -2,1l1 0c0,1 0,1 0,2 0,1 0,1 1,2 0,1 0,0 1,2 1,-1 0,-1 2,-1 0,1 0,1 1,2l-1 0z"/>
   <path class="fil2" d="M45 36c0,0 0,1 0,0 0,-1 0,0 0,-1l0 1zm5 -8l0 0zm0 0c0,1 0,1 0,1 -1,0 0,0 -1,-1 0,1 0,1 0,1 0,0 -1,0 -1,0 0,0 0,0 0,0 0,-1 -1,0 0,-1l-1 0c0,0 -1,0 -1,1 1,0 1,0 1,0 0,1 0,0 0,1 -2,0 -2,-1 -2,1 0,1 0,0 1,0 0,1 0,1 -1,1l0 0c2,1 0,1 2,1 0,1 0,1 0,1 -1,0 -1,0 -2,0 -1,0 0,0 -1,1l0 0c-1,1 0,0 -1,1 1,1 1,1 2,1l0 -1c0,1 0,1 1,1 -1,-2 4,-1 2,-4 0,0 -1,0 -1,-2l1 0c1,1 0,1 1,2l1 -1c-1,0 -1,1 -1,0l2 0c0,-1 0,-1 0,-1l-2 0c1,-1 1,0 2,-1 1,1 1,2 2,2 0,-1 0,0 -1,-1 1,0 2,-1 2,-1l1 -2c0,0 -1,0 -1,-1 1,0 1,0 2,0l-1 -1c-1,0 -3,1 -2,2 0,1 0,1 0,2 -1,0 0,0 -1,-2 0,1 -1,2 -1,0 0,0 0,0 0,-1 -1,-1 0,0 -1,0 0,1 0,1 0,1z"/>
   <path class="fil14" d="M60 45l0 0zm2 -2c0,0 0,-1 0,0l0 0zm2 -3c0,0 0,0 -1,0 0,-1 0,0 1,0zm0 -1l0 0zm-6 -1l2 3c1,0 1,0 1,1 0,0 0,0 0,0 -1,0 0,0 -1,1 0,1 0,0 0,0l0 -1c1,0 1,0 1,0 1,0 0,0 1,1l-1 0c0,1 0,0 1,1 -1,0 -1,0 -1,-1 -1,1 -1,1 -1,2l0 0 0 0c1,1 1,0 1,1 0,1 0,0 0,1l0 0 2 0c0,-2 0,-1 0,-2 1,0 0,0 1,1 0,0 0,0 0,0 1,0 1,0 1,0 0,-1 0,0 0,-1 -1,-2 0,1 -1,0 2,-1 2,0 2,-2 0,0 0,0 -1,0 0,0 0,0 0,0 0,0 0,0 -1,0 0,1 1,0 0,1l0 -1c-1,-1 0,0 0,-1 1,-1 0,-1 1,0 0,0 0,0 0,0 1,-2 2,-1 3,-2 1,0 0,0 0,-1 1,-1 0,0 1,0 0,-2 -1,0 0,-2 0,0 -1,0 -1,1l-1 0c0,-1 0,0 0,-1 0,1 0,1 -1,1 0,0 0,-1 0,-1l0 0c0,1 0,1 1,1l0 1c-1,0 0,0 -2,0 1,0 1,0 1,-1 -1,0 0,1 -1,0 -1,1 0,0 -1,1 0,0 0,0 0,0 0,1 0,0 0,1l0 0c-1,0 -1,0 -1,0 -1,1 -1,1 -1,2 -1,-1 0,-1 -1,-1 0,0 0,-1 -1,-2 0,0 0,0 -1,-1 1,0 0,0 1,0 0,0 0,0 0,-1 -2,0 0,0 -1,0 0,0 -1,0 -1,0 0,1 0,0 0,0 0,1 0,0 0,1z"/>
   <path class="fil0" d="M59 57c1,1 1,0 1,2l0 0c-1,-1 -1,-1 -1,-2zm-1 0c0,0 0,0 0,0 1,1 0,0 1,0 0,0 0,0 0,0 -1,0 -2,1 -2,2l1 0 0 1 1 -1c0,0 0,0 0,0 1,0 0,0 1,0 0,0 0,0 0,0 1,0 0,0 1,0l1 0c0,0 0,0 0,0 0,0 0,0 0,0l1 0c0,0 0,0 0,0 1,0 0,0 0,0 0,1 0,0 0,0 1,0 1,0 1,1l0 0c0,1 0,1 0,3 1,-1 0,0 1,-3l1 1c0,-1 0,0 0,-1 0,0 0,0 0,-1 1,0 0,0 1,-1l-1 0c0,0 -1,0 -1,0l0 -1c0,0 0,0 0,0 0,0 0,0 0,0 -1,-1 0,0 -1,0 -1,0 -1,0 -1,-2 0,0 0,0 0,0l1 -2c-1,0 -1,1 -2,0 0,0 0,0 -1,1l-1 0 0 -2c-1,0 -1,1 -2,1 -1,0 0,-1 -2,0 1,1 0,1 2,1 1,0 1,-1 3,1 0,1 0,1 0,2 -2,0 -1,0 -3,0z"/>
   <path class="fil15" d="M79 71l0 0c0,1 1,1 -1,1l1 0 0 1 -1 0 0 0 0 0c-1,2 0,4 0,6 0,1 0,1 0,2l0 8c1,-1 0,-1 1,-1 1,-1 0,0 0,0 0,-1 0,-1 0,-2 0,-2 0,-4 0,-6 1,-1 1,-1 2,-1 0,-1 0,-1 0,-2 0,0 0,-1 0,-2 0,-1 0,-1 1,-1 0,-1 0,0 0,-1 -1,0 -1,0 -1,0l1 0c-1,-1 0,-1 -1,-1 2,0 1,0 1,0 0,-2 1,-2 -1,-2 0,0 0,0 0,0 1,1 1,0 1,1 0,1 -1,0 -1,0 0,0 0,0 0,0 0,-1 1,-2 0,-3 -1,0 0,1 -1,2l0 -1c0,1 0,2 -1,2l0 0z"/>
   <path class="fil16" d="M107 75c0,0 0,0 0,-1l0 0 0 1zm0 -2l0 0c0,0 0,0 0,0zm-2 -2c1,0 1,0 1,1l0 0c0,1 0,1 0,1l-1 0 0 -1 -1 0 0 1c-1,0 0,0 -2,0l0 -1 0 1c0,0 0,0 0,1 1,0 1,0 1,0 0,0 0,0 0,0 0,0 0,0 0,0l-1 2c2,0 1,0 2,-1 0,0 0,0 1,0 0,1 0,1 1,2 0,-1 0,0 -1,-2 1,1 1,1 2,2 0,-1 0,-1 0,-2l1 1c0,-1 0,-1 1,-1l0 -2c0,-1 0,-1 0,-2 0,0 0,0 0,-1 1,-1 1,-2 -1,-1 0,0 0,0 -1,0l0 -1 -1 1c0,2 -1,-1 -1,2z"/>
   <path class="fil2" d="M68 60c-1,0 -1,-1 -1,1l0 1c0,1 0,0 0,1 -1,1 -1,0 -2,1 1,0 0,0 1,1 1,0 1,-1 2,-1 0,0 0,-1 1,-1 0,1 -1,1 0,1 1,0 0,0 1,0 0,0 -1,0 0,-1 1,1 1,1 1,2 2,0 0,0 3,1 0,-2 0,0 -1,-1 1,-1 0,-2 0,-3l1 0c0,-1 -1,-1 0,-1 -1,-1 -1,-1 -2,-2l-1 0 0 1c-1,0 -1,0 -1,0 -1,1 -1,0 -2,0z"/>
   <path class="fil2" d="M97 61c1,0 0,0 2,0 0,0 0,-1 -1,-1 0,0 -1,0 -1,-1 1,0 1,0 2,1 1,0 1,0 1,1 1,0 0,0 1,0 1,0 1,0 2,0 0,1 0,0 -1,1l0 1c0,0 0,-1 0,0 1,0 0,0 1,0l1 -1c0,0 0,0 0,0l-1 -1c1,0 1,0 2,0l0 -1c1,1 0,1 0,1 0,0 0,0 0,0l0 2 1 0 0 1 0 -1c1,0 1,0 2,0l-1 0c0,-3 1,-3 -4,-4l-1 -1c-2,0 -1,0 -2,0l-2 0c-1,0 -1,0 -1,1 0,1 0,1 0,2z"/>
   <path class="fil14" d="M116 54c0,0 0,0 0,0 0,0 0,0 0,0l-1 -1c1,0 1,0 1,1l0 0zm-8 -11c0,2 0,1 0,2 0,0 0,1 1,1l0 0c0,0 0,0 0,0l0 1c3,2 2,1 4,1 0,2 0,1 1,2 0,1 0,2 0,3 0,0 0,0 -1,0 1,0 1,0 1,1 1,0 0,0 2,0l0 0 1 0c0,0 0,0 0,-1l-1 -1c-1,0 0,0 -1,1 0,-2 0,-1 1,-2 1,-1 0,-1 0,-2 -1,1 -1,0 -1,1l0 0c0,-1 0,0 0,-1 0,0 1,0 0,0 -1,-1 -2,-1 -2,-2 1,0 1,0 1,-1 -1,0 -1,-1 -2,-1 -2,0 -1,0 -1,1 -2,-1 0,-1 -2,-1l0 -1c1,0 1,0 1,0 1,0 0,0 0,-1 0,0 0,0 0,0 -1,0 -1,0 -1,0l-1 0z"/>
   <path class="fil14" d="M47 49c1,0 1,0 0,0 0,0 0,1 0,0zm-2 -1c0,1 0,0 0,0 -1,0 0,1 0,1l-2 0 1 3c0,-1 -1,-1 -1,-1l0 0c-1,0 0,0 -1,0 0,1 0,0 1,1l0 1c1,0 1,0 1,0 0,0 0,0 0,-1 0,0 0,0 0,0l0 0c1,0 1,0 1,0 -1,-1 -1,0 -1,-1 1,0 1,0 1,0 1,-1 0,-1 2,-1 0,2 -1,0 0,2 0,1 0,0 -1,1l2 0c0,1 0,1 0,1 0,1 0,1 -1,2 1,0 1,1 3,1 -1,-1 0,-1 -1,-1 0,-1 0,0 0,-1 0,0 0,0 0,0 0,0 0,0 -1,0 0,-1 0,-1 0,-1 1,-1 1,-1 0,-2l0 -1c0,-1 0,0 -1,-1 2,0 2,0 3,-1 0,0 0,0 0,0l-1 -1c0,0 0,0 0,0 0,-1 1,-1 1,-1 0,0 0,0 0,0 1,-1 0,0 0,-1 -1,0 -2,2 -4,1 -1,1 0,0 -1,1z"/>
   <path class="fil14" d="M43 43c0,-1 0,-1 0,-1 1,0 1,0 1,-1l2 1c0,0 -1,0 -1,1l1 1c0,-1 0,-1 1,-1l-1 -1c0,0 0,0 1,-1l1 1c0,-1 0,-1 1,-1 0,1 -1,1 1,1l0 -1c0,0 0,0 0,-1 -1,0 0,0 -2,0l-1 -1c-1,0 -1,0 -2,0 0,0 0,0 0,0l1 -1c1,0 1,0 2,0 0,1 -1,1 0,1 0,-1 0,0 0,-1 -1,-1 0,0 -1,-1 0,0 0,0 -1,0 0,0 -1,0 0,0l-1 0c0,0 0,0 0,0l0 2c-1,0 -1,0 -2,1 1,1 1,0 2,0 1,0 -1,1 -1,1 0,-1 0,0 -1,-1 -1,0 -2,1 -3,1 0,1 0,2 1,2 0,0 0,0 0,0l2 0z"/>
   <path class="fil17" d="M52 58l0 0 0 1c-1,1 0,0 -1,1 1,0 2,1 2,2l0 -1c0,-2 0,1 0,-1 0,0 2,-1 2,1 0,0 -1,0 0,1 0,0 0,0 0,0 0,0 0,0 0,0l2 1c1,0 0,0 2,0 0,-1 0,-1 0,-2 -1,-1 0,0 -1,-1l-1 0c0,0 -1,0 -2,0 0,-1 0,0 0,0 1,-1 1,0 1,-2 1,1 1,1 1,-1 -1,1 0,1 -1,0 0,-1 1,0 1,0l-1 -2c-1,1 -1,1 -1,2 -1,-1 -1,-1 -2,0 0,0 -1,0 -1,0 0,0 0,0 0,0 0,0 0,0 0,0 0,0 0,0 0,1 0,0 1,0 1,1l1 -1c2,-1 1,0 1,0 -1,0 0,0 -1,0 0,0 0,0 0,1l0 0c0,0 0,0 0,0 0,0 -1,1 -1,0l-1 -1z"/>
   <path class="fil2" d="M60 26c0,0 1,0 0,0 -1,0 0,-1 0,-1l-1 0c0,0 0,0 0,0 -1,0 -1,0 -1,0 0,2 1,0 1,2 0,0 -1,0 -1,1 0,0 0,0 1,0 1,0 0,0 1,0 1,0 1,-1 2,-1l1 1c2,-2 1,-1 2,-2l-1 0c-1,0 -1,0 -1,-1 0,-1 0,-2 0,-2 -1,0 -1,0 -1,0 0,-1 0,-2 0,-2l1 0 -2 -1c0,0 0,0 -1,0l0 1c0,0 0,0 0,0l-1 0c-2,1 -2,0 -2,1 1,1 2,1 3,1 0,0 0,-1 2,-1 0,2 0,1 0,3l-1 0c1,-1 1,-1 0,-1 0,0 0,1 0,2l-1 0z"/>
   <path class="fil18" d="M77 59c0,0 0,0 0,0 1,1 1,1 2,1 0,0 0,-1 1,-1 0,-2 1,-2 0,-2 0,-2 0,-1 0,-2 -1,0 0,0 -1,0l-1 -3c-1,0 -1,0 -2,1l0 -2c-1,0 1,1 -1,1l-1 0c0,1 1,1 1,2 1,0 1,0 2,0 0,1 0,1 -1,1 1,0 1,0 1,1 0,1 -1,-1 -1,1 1,-1 0,-1 2,-1 0,1 0,0 0,1 0,1 -1,1 -1,2z"/>
   <path class="fil4" d="M59 37c1,0 -1,0 1,0l0 -1c-2,0 -1,1 -1,-1 2,-1 1,0 1,0 1,1 0,0 2,1 0,1 -1,1 0,2 0,-1 1,-2 2,0 0,0 0,0 0,0 0,0 0,0 0,0 0,-2 1,0 -1,-1l1 -1c0,-1 0,0 0,0 0,0 0,0 -1,0 0,1 0,0 0,1 -1,-1 -1,-1 -1,-1 0,0 0,0 0,0l0 -1c0,0 0,1 0,-1l0 0c0,0 -1,0 -1,0 0,0 0,0 0,0 1,-1 2,-3 0,-4 0,2 0,0 0,2 -2,0 -1,2 -3,1 -1,0 0,0 0,0 -1,0 -1,0 -2,-1l-1 0c0,-1 1,-1 -1,0 0,0 0,0 0,0l1 1 2 0c0,1 0,0 0,1 0,0 0,0 1,1 0,0 0,0 0,0 -1,1 0,0 -1,1 0,0 0,0 1,0 0,0 0,0 0,0l1 1z"/>
   <path class="fil17" d="M61 61c0,1 0,2 -1,3l2 1c1,0 0,0 1,0l-2 0c0,1 0,1 0,2 0,0 0,0 0,1 0,0 0,0 0,0 2,1 1,2 2,1 1,0 0,-1 2,0 0,-1 -1,0 -1,-1 0,-1 0,-1 0,-1 -1,0 -1,1 -2,0 1,-1 1,0 2,-1 0,-1 0,-2 0,-2 -1,0 0,-3 -2,-3l-1 0z"/>
   <path class="fil19" d="M45 54l0 0zm-2 1l0 0c1,0 1,1 1,1 2,0 0,-1 2,-1l0 1c0,0 0,0 0,0 0,-1 0,-1 0,-2 -1,0 0,0 -1,0l0 0c-1,0 0,0 -1,0 0,1 0,0 0,1 -1,-1 -1,-1 -2,0 0,-2 0,-1 0,-2 0,0 0,0 0,0l1 0c0,0 1,1 0,-1 -1,0 -1,0 -1,0 -1,0 0,-1 0,-2l0 -1c0,0 0,0 0,0l0 -1 -1 0c0,1 0,0 -1,2 -1,0 0,0 -1,0 0,1 0,1 1,1 0,1 0,1 -1,2 1,0 1,0 2,0 -1,1 0,0 -1,1 0,1 0,1 0,2 1,0 1,0 2,-1l0 0c0,1 0,0 1,0z"/>
   <path class="fil20" d="M80 23c0,0 0,0 0,0l2 2c0,0 0,0 0,1 -1,-1 0,-1 -1,-1 -1,0 0,0 -1,0 0,0 0,0 0,0l0 1c-1,0 -1,0 -1,0 -1,0 -1,0 -1,1 -2,3 -1,1 -2,2 0,0 -1,1 -1,1 1,0 0,-1 2,-1 0,0 0,0 1,1l0 -1c0,-1 0,0 0,-2 0,0 0,0 0,0l2 -1c1,0 2,1 2,2 -1,0 -1,0 -1,0 -1,0 -1,0 -1,0l-1 0c1,1 0,1 1,0 0,0 0,0 1,0 1,0 0,0 1,0 0,0 0,0 0,0 1,0 -1,0 0,0l1 0c0,0 0,1 0,1 1,1 0,0 1,1 0,-5 0,-2 2,-3 -1,-1 -1,0 -2,-2 -1,-1 -1,-1 -2,0l-1 -3c-1,1 1,0 0,1 0,0 0,0 0,0 -1,0 0,0 -1,0z"/>
   <path class="fil4" d="M104 44c0,0 0,0 0,0 1,0 0,0 1,0 -1,2 -1,1 -1,2 1,-1 0,0 2,0l0 -2c0,0 0,0 0,-1 2,0 0,0 1,1 0,0 0,0 0,0 1,-1 0,-1 1,-1 0,0 0,0 0,0l1 0c0,-1 0,0 0,-2 -1,1 -1,1 -1,0 0,-1 -1,0 0,-1 0,0 1,0 1,0 -1,0 -1,0 -1,-1 -1,1 -1,1 -2,1 0,-1 0,0 0,-1 0,0 0,0 0,0 1,0 1,0 1,0 0,-1 0,-1 0,-1l0 0c1,-1 0,0 1,0 -2,0 -2,2 -2,3 -1,1 -1,-1 -2,1 0,1 1,2 0,2z"/>
   <path class="fil21" d="M81 37c1,-1 -1,1 0,0 0,-1 0,-1 1,-1 0,-1 0,-1 -1,-1 1,-1 0,-1 1,-1 0,0 0,0 -1,0 0,0 0,0 0,0l0 0 0 0c-1,0 -1,0 -1,0l0 1 0 0c0,1 1,0 0,1 -1,1 0,0 -1,0 0,-1 0,-1 0,-2 -1,0 0,0 -1,0 0,0 0,0 0,0 0,-1 0,0 0,-1 -1,1 -1,1 -1,2l0 0c0,0 0,0 0,0l0 2c-1,0 0,0 -1,0 0,-1 0,-1 0,-1l-1 1c1,0 0,-1 1,0l0 0 0 1c0,0 0,0 1,0 1,0 0,0 1,1 1,-1 1,-1 2,-1 0,0 0,-1 1,-1z"/>
   <path class="fil0" d="M60 37c0,1 0,1 0,1 1,0 0,0 1,1 1,0 1,-1 2,0 -1,1 0,0 -2,1l0 1c1,0 0,0 1,1 0,-1 0,-1 1,-2 0,0 0,0 1,0l0 0c0,-1 0,0 0,-1 0,0 0,0 0,0 1,-1 0,0 1,-1 0,-1 0,0 0,-1 0,0 -1,0 -1,-1l-1 1c2,1 1,-1 1,1 0,0 0,0 0,0 0,0 0,0 0,0 -1,-2 -2,-1 -2,0 -1,-1 0,-1 0,-2 -2,-1 -1,0 -2,-1 0,0 1,-1 -1,0 0,2 -1,1 1,1l0 1z"/>
   <path class="fil22" d="M83 56c0,1 0,0 0,0l0 0zm0 0c0,0 0,0 0,-1 1,0 1,0 1,1 -1,0 0,0 -1,0zm0 -1c0,-1 1,0 0,0 0,0 0,0 0,0zm2 -2l-1 1c0,0 0,0 0,0 0,0 0,0 0,0 -1,0 -1,0 -1,0l0 1 -1 0c0,0 0,0 0,0l1 0 0 1 0 0c0,3 0,0 0,1 1,0 1,0 1,0 0,1 0,1 0,1 -1,0 0,0 -1,1 1,-1 1,-1 1,-1 1,0 0,0 1,0l0 -1c1,-1 1,-1 2,-1 1,-1 0,-1 1,-2 -1,-1 -1,0 -1,0 -1,0 0,0 -1,-1l0 1c-1,0 -1,0 -1,-1z"/>
   <path class="fil13" d="M101 74c0,0 0,0 0,0 -1,0 0,0 -1,0 1,0 0,0 1,0zm-8 0c0,1 0,1 1,1 2,-1 1,-1 2,-2l1 -1c0,-1 0,0 0,-1 1,0 2,1 2,1 0,2 0,1 1,2l0 1c0,0 0,0 0,1 2,0 2,0 2,0 -1,0 -1,0 -1,-1 1,0 0,0 0,-1l0 -1c0,0 0,0 -1,0 0,-1 0,-1 -1,-2 0,-1 0,0 -1,-1l0 0c-1,0 -1,0 -1,0 0,0 0,0 0,1 -1,0 0,0 -1,0 -1,1 -1,0 -1,2 0,0 0,-1 -1,0 0,1 1,1 0,1 0,0 -1,0 -1,0 0,0 0,0 0,0 0,0 0,0 0,0z"/>
   <path class="fil13" d="M81 57l0 0c0,0 0,0 0,0zm0 1c1,0 1,0 1,0l-1 0 1 2c-2,0 -1,-1 -1,1 0,0 0,0 0,0 2,0 1,-1 2,-2 1,0 1,0 1,0l-1 1c2,0 1,0 1,0 0,0 0,1 0,1 1,-1 0,0 1,-1 0,0 0,0 0,0 0,-1 0,-1 1,-1 0,-1 0,0 0,-1 -1,0 0,1 -1,0 -1,0 0,0 -1,0 0,0 0,0 -1,1 0,0 0,0 -1,-1 0,-1 0,0 1,0 0,-1 0,0 0,-1 0,-1 0,2 0,-1l0 0 0 -1 -1 0c0,0 0,1 0,1 -1,1 -1,0 -1,1 0,1 0,-1 0,1z"/>
   <path class="fil4" d="M106 29c1,0 0,0 1,0l0 0 1 2 0 1c-1,0 -1,0 -1,0 -1,0 0,0 -1,0l2 1 0 0c1,-1 1,-1 1,-1 -1,-1 -1,0 -1,-1 0,-2 1,0 2,0 -1,-1 -1,-1 -1,-2 -1,0 0,1 0,0 -1,0 -1,0 -2,0 1,-2 1,0 1,-2 0,0 0,0 0,0 0,0 0,0 1,0 -1,0 -1,0 -1,-1l-1 0c0,0 0,1 0,1 0,0 0,0 -1,0l-1 -1c1,-1 1,-1 1,-1 -1,0 -2,0 -3,1 1,0 2,2 2,2l1 -1c0,1 0,0 0,1 0,0 0,0 0,0 0,0 0,0 0,0l0 1z"/>
   <path class="fil2" d="M41 48l-1 -2 2 -1 0 2c1,0 2,-1 2,-2 0,-2 0,-1 0,-1 0,1 0,0 0,0 -1,0 -1,0 -2,0 -2,0 -1,0 -2,0 -1,1 -1,1 -1,2 0,1 0,1 1,2 0,0 0,0 1,-1 0,1 0,1 0,1z"/>
   <path class="fil13" d="M91 68c0,0 0,0 0,0 0,1 0,0 1,0 0,1 0,0 -1,1 0,1 0,0 0,1 -1,-1 -1,0 0,-1 -1,-1 0,-1 -2,-1l1 1c-1,0 -1,0 -1,0 0,1 0,1 0,1 0,0 0,0 0,0l0 0c0,0 0,1 0,1 2,0 1,1 2,0 0,0 0,1 0,1 0,1 0,0 0,1 0,-2 0,-3 1,-4 0,0 0,0 0,0 0,0 0,1 0,1l0 0c0,0 0,-1 0,-1 0,-1 1,0 1,-1 0,0 -1,0 -1,-1 1,1 1,1 1,1l1 0c-1,-1 -1,-1 -2,-1 0,-1 0,-1 0,-1l0 0c0,0 0,0 0,0l0 0c-1,1 0,1 -2,1 1,1 1,1 1,1z"/>
   <path class="fil20" d="M73 22c-1,0 -1,0 -1,1 0,1 1,1 1,2 1,1 0,0 0,0 1,0 0,0 1,0 -1,1 0,0 -1,1 2,1 2,0 3,1l0 0c0,-2 0,-1 1,-2 0,-1 0,-1 0,-1l-1 0c0,1 0,1 -1,1l0 -2c0,1 0,1 -1,0 0,0 0,-1 0,-2 -1,0 -1,0 -1,1z"/>
   <path class="fil22" d="M102 49l1 0c1,0 0,0 1,0 -2,1 -2,0 -3,1 0,0 0,0 0,0 1,0 1,1 1,1 2,-1 1,-1 3,-1 0,1 -1,1 1,1 0,0 0,0 0,0 0,0 -1,0 -1,0 0,-1 1,-1 1,-1 -1,-1 0,-1 -1,-2 -1,0 0,1 -1,-1 -1,0 0,0 -1,0 0,0 1,0 -1,0 0,1 0,0 1,1 -1,0 -1,0 -1,0l0 1z"/>
   <path class="fil17" d="M66 53c-1,0 -1,1 -1,1 -1,1 -1,1 -1,2 1,0 2,-1 2,-2 0,-1 -1,1 0,-1 1,1 0,1 1,1 0,1 0,1 0,1 0,0 -1,1 0,1 0,1 0,1 1,1 0,-1 0,1 0,-1 0,-1 0,0 -1,-1 1,-1 1,-1 1,-2 -1,0 0,1 -1,0 -2,-2 0,-1 -1,-2 -1,0 -1,0 -1,1 0,0 1,1 1,1z"/>
   <path class="fil20" d="M61 42c0,0 0,0 0,0 0,-1 0,-1 -1,-1l-2 -3c0,0 0,-1 0,0 0,1 0,1 0,2 0,0 0,0 0,0l-1 0 2 2 -2 0 0 1c1,0 2,0 2,0 1,-1 0,-1 1,-2l1 1z"/>
   <path class="fil2" d="M50 44l0 0zm-2 -1l0 0c0,0 -1,0 -1,0 0,0 0,1 0,1 0,0 0,-1 0,0 0,1 1,0 0,1 0,0 1,0 1,0 0,0 0,0 0,1 1,0 0,0 1,-1 0,0 0,0 0,0 0,0 1,1 2,1 1,-1 -1,-2 1,-1l0 -1 1 0c0,-1 0,0 -1,0 0,0 0,0 -1,0l0 -1 -1 1 -1 0 0 -1 -1 0z"/>
   <path class="fil23" d="M69 73l-1 0 1 -1 1 0c-1,1 -1,1 -1,1 -1,0 0,0 0,0zm-3 -2c0,0 0,0 0,0l0 0zm0 0c-1,1 0,1 1,2 0,0 -1,1 1,1 0,1 0,1 0,0 0,0 0,0 0,0 -1,0 0,0 -1,-1 1,0 1,0 2,0l1 0c0,-1 0,0 0,-1 1,0 1,0 1,-1 0,-1 1,0 0,0 -2,0 -1,0 -3,0l0 1c0,0 0,0 0,0 -1,0 -1,0 -1,0 0,-1 0,0 0,-1l0 0 0 -1c-1,0 -1,0 -1,0l0 1z"/>
   <path class="fil19" d="M113 58c0,1 0,-1 0,1 0,1 0,0 0,1 1,1 0,1 2,1 0,1 0,0 0,1 0,0 0,0 0,0 0,1 0,1 0,2l1 0c0,-1 0,-1 0,-1 0,-1 0,-2 -1,-2 0,-1 0,-1 -1,-1 0,0 0,-1 0,-1 1,0 0,0 1,0 0,-1 0,-1 -1,-2l-1 1c0,-1 0,0 0,0z"/>
   <path class="fil24" d="M55 74c0,-1 0,0 1,-1 -1,1 0,1 -1,1zm-1 -1c0,-1 1,0 1,0 -1,0 0,0 -1,0zm2 3c-1,-2 0,-2 0,-3 1,-1 1,-1 0,-2l0 -1c-1,1 0,0 -1,1 0,1 1,0 1,2 0,0 -2,-2 -2,0 1,0 0,0 1,1 -1,-1 0,0 -1,1 0,0 0,0 -1,1 0,0 1,0 1,1 1,-1 1,0 1,-1l1 0z"/>
   <path class="fil25" d="M76 73c1,0 0,0 0,0 1,0 1,0 2,0l0 0 0 0 1 0 0 -1 -1 0c0,0 0,0 -1,0 1,0 1,0 1,0 2,0 1,0 1,-1l0 0 0 -1c0,-1 -1,-1 -1,-1l0 1c-1,0 0,0 -1,0 0,0 0,0 -1,0 0,1 0,1 0,2 0,0 0,0 1,1 -2,0 -1,0 -1,0z"/>
   <path class="fil14" d="M89 40c-1,-1 -1,-1 -2,0 0,-1 0,0 0,-1 1,0 1,0 2,1zm-4 0c-1,1 -1,1 -2,1 1,1 1,1 2,2 0,0 0,0 1,0 -1,-1 -1,0 -1,-1 0,-1 0,-1 1,-2 3,0 0,0 3,0 1,-1 0,0 0,-1l-1 -1 -1 0 0 0c-1,0 -1,1 -2,1 0,1 0,1 0,1z"/>
   <path class="fil19" d="M109 34c1,0 1,0 1,0 0,1 0,0 0,0 -1,0 0,1 -1,0 0,0 0,-1 0,1 1,0 1,0 1,-1l1 0c0,0 0,0 0,0 0,0 0,0 0,0 0,0 0,0 0,1l0 0c1,-1 1,0 2,0 0,-1 0,0 1,-1 0,-1 0,0 0,-1 -1,0 -1,0 -2,0 -1,-1 1,-1 -1,-1 0,2 -1,1 -2,2z"/>
   <path class="fil26" d="M46 60l0 2c1,-1 1,-1 2,-1 0,0 0,1 1,1 0,-1 0,-1 1,-1 0,0 0,0 0,1 1,0 0,0 1,-1l1 1c0,0 0,-1 0,-1 0,-1 -1,-1 -1,-1 0,0 0,0 0,0 -1,0 0,0 -1,0l-2 1 -1 -1c-1,0 0,0 -1,0z"/>
   <path class="fil19" d="M97 64c1,0 1,0 2,0 0,1 -1,1 0,1 0,1 0,0 0,1l0 1 1 0c0,0 0,0 0,0l-1 0 1 1c2,-1 1,-1 1,-3 -1,1 0,1 -2,1 1,-1 1,0 1,-1l1 0c0,0 0,0 0,0 0,0 0,-1 0,-1 0,0 0,0 -1,0l-2 -1 -1 1z"/>
   <path class="fil23" d="M89 17c0,0 0,0 0,-1 1,0 0,0 0,1l2 -1c0,1 0,1 0,1l1 1c0,-1 0,-1 0,-2 2,0 0,0 1,1 1,0 1,0 1,0 0,-1 0,-1 0,-1 0,-1 0,0 0,-1 -1,0 -1,0 -1,1 -1,-1 -2,0 -3,0 -1,-1 0,-1 -1,-1l0 2z"/>
   <path class="fil27" d="M85 40c0,0 0,0 0,-1 1,0 1,-1 2,-1l-1 -1 -1 0 0 0 0 0 0 -1c0,0 0,0 0,-1 -1,0 0,0 -1,-1 0,1 0,2 0,3 0,1 0,1 0,2l0 1c0,1 0,0 1,0z"/>
   <path class="fil2" d="M101 42l0 0c0,0 -1,0 -1,-1 1,0 0,0 0,-1 0,0 0,1 0,0 0,0 0,-1 0,1 -4,-1 0,-1 -3,-1 -1,1 0,1 0,0 0,0 -1,0 0,0 0,0 -1,0 -1,1l0 0c2,1 2,1 4,1 2,2 1,0 1,0z"/>
   <path class="fil13" d="M97 68l0 0c0,0 0,0 0,0zm-1 0c1,-1 0,-1 1,-1l-1 1zm0 0l2 1c0,-2 0,-1 0,-2 1,0 1,0 1,0l1 0c0,0 0,0 0,0l-1 0c0,-1 0,-1 0,-1l-1 0c0,0 0,0 0,0l-1 1c0,-2 0,-1 -1,-1 -1,1 -1,1 0,2z"/>
   <path class="fil28" d="M81 75l0 -1c1,0 0,0 1,0l0 1c-1,0 0,0 -1,0zm1 -1c-1,0 -1,0 -1,1 0,1 0,2 0,2 0,1 0,1 0,2 0,0 0,1 0,-1 0,-1 0,-2 0,-3 1,1 1,1 1,0 1,0 0,-1 1,-2 0,0 1,0 1,0 2,0 2,-1 3,0 0,0 0,-1 0,-1 -1,0 -2,0 -4,0 0,1 0,1 -1,2l0 0z"/>
   <path class="fil19" d="M109 39l0 1c1,0 1,0 1,0 1,1 0,0 0,1l0 2c1,0 1,1 1,0 0,0 1,1 1,-1 0,-1 0,-1 -1,-1 0,0 0,0 0,-1 0,0 -1,0 -1,-1 0,0 1,0 0,0 0,-1 0,-1 -1,-1 0,1 1,0 0,1z"/>
   <path class="fil0" d="M75 66c-1,0 -1,0 -1,1 0,0 0,1 0,1 1,0 1,0 1,0 0,0 0,1 0,1l2 -1c0,0 0,0 0,0 0,-1 0,0 -1,-1 0,-1 0,0 1,-1l-2 0z"/>
   <path class="fil4" d="M101 42l0 0c1,0 1,0 1,1l0 0 1 -1c0,0 -1,0 -1,0l0 -1c0,0 0,0 0,0 1,0 1,0 2,0l0 0c0,0 0,0 0,0 1,-1 0,0 1,-1 -2,0 0,0 -2,-1 -1,1 0,0 -2,1l0 0c0,1 0,1 0,1 0,1 0,0 0,1z"/>
   <path class="fil17" d="M68 60c1,0 1,1 2,0 0,0 0,0 1,0l0 -1 1 0c-1,-1 -1,-1 -1,-1 -1,1 0,0 -2,1 0,0 -1,-1 -1,1 0,0 0,0 0,0 0,0 0,0 0,0z"/>
   <path class="fil1" d="M97 15c0,0 1,1 1,1 1,1 1,0 1,1l0 0c1,-1 0,-1 1,-1 -1,0 -1,0 -1,-1l-1 0c0,-2 1,0 1,-2 -1,0 -1,0 -2,1 0,0 -1,0 -1,0 0,0 0,1 0,1l1 0z"/>
   <path class="fil14" d="M62 61l0 0c2,0 1,3 2,3 1,-1 0,0 1,-1 1,-3 0,0 1,-2l-1 -1c-1,3 0,2 -1,3 0,-2 0,-2 0,-3l0 0c0,-1 0,-1 -1,-1l0 1c0,0 0,0 0,1 -1,0 1,0 -1,0z"/>
   <path class="fil29" d="M61 51l1 0 -1 0zm0 0c0,0 0,-1 0,0 1,2 3,2 4,0l-1 0 -1 0c0,0 0,0 0,0 -1,-1 0,-1 -1,-1 -1,0 0,0 -1,1z"/>
   <path class="fil4" d="M56 46l1 0c0,1 0,0 0,1l-1 0c1,1 1,1 1,1 2,1 1,1 1,0 0,0 0,0 0,0l0 -1c0,0 0,0 1,-1 -1,0 0,0 -1,0 0,-1 0,0 0,-2 -2,0 -1,1 -1,2l-1 0 0 0z"/>
   <path class="fil1" d="M62 17c1,0 0,-1 1,-2 1,-1 1,0 1,-1 -1,0 -1,0 -1,1 -1,-1 -1,-1 -1,-1 -2,0 -1,1 0,2l0 0c0,0 0,0 0,0 0,0 0,0 0,0 0,0 0,1 0,1z"/>
   <path class="fil2" d="M106 64c0,1 -1,0 0,3 0,0 0,0 0,0 1,1 1,0 1,0 0,-1 0,0 0,0 0,-1 0,0 0,-2 0,-1 0,-1 1,-2 -1,0 -1,0 -1,0 -1,1 0,0 -1,1l0 0z"/>
   <path class="fil19" d="M109 49l0 1 0 0c0,-1 -1,-1 0,-1zm-2 1c2,1 0,1 2,1 0,0 0,1 -1,1 0,1 0,0 1,1l1 -1c0,0 0,-1 0,-1l-1 0c0,-1 0,-1 1,-1 0,-1 1,-1 0,-1 -1,0 0,0 -1,0 -1,0 -1,-1 -1,1 0,0 0,0 0,0l0 0c-1,-1 -1,0 -1,0z"/>
   <path class="fil30" d="M82 52l0 0c0,0 0,0 1,0l-1 1c0,-1 0,-1 0,-1zm0 -1l1 0 -1 0zm0 1c-1,1 -1,1 0,2 1,0 3,-3 1,-3l-1 0c0,0 0,0 0,1z"/>
   <path class="fil22" d="M81 50l0 -1c0,-1 0,-1 1,-1l0 -1 -1 0c0,1 0,0 1,1l-2 -1c0,0 0,0 0,0l0 0 0 1c-1,0 -1,0 -1,1l2 1c0,0 0,0 0,0z"/>
   <path class="fil31" d="M54 48c0,1 0,0 0,1 -1,0 -1,-1 0,-1zm0 -1c0,0 0,0 0,0 -1,0 0,0 -1,0 0,0 0,-1 0,0 -1,1 0,1 0,1 0,0 0,0 0,0l0 1c1,0 0,-1 1,0 1,0 1,0 1,-1 2,-2 2,0 2,-2l-1 0c0,0 0,0 0,1 -1,0 0,0 -1,0l-1 0z"/>
   <path class="fil32" d="M69 77l-1 0c0,0 -1,0 1,0l-1 0c-1,0 0,0 -1,0 0,1 0,1 -1,1l-1 -2c-1,0 0,0 0,0 1,0 0,0 0,1 0,0 0,-1 0,0 0,1 0,1 0,1 4,0 4,1 4,-1z"/>
   <path class="fil20" d="M56 37c0,1 0,0 0,1l0 0c0,0 -1,0 -1,-1 -1,2 -1,1 -1,2 -1,-1 0,-1 -1,-1l0 1c2,1 2,0 2,0 2,-1 1,0 2,-1 0,-1 0,-1 0,-1l-1 -1c0,1 1,0 0,1z"/>
   <path class="fil2" d="M86 43l0 0 1 0c0,0 0,0 0,-1 0,1 0,0 1,1l1 -1 0 -1c-2,0 -1,0 -1,0l-2 0c0,1 0,1 0,2z"/>
   <path class="fil31" d="M58 59c0,0 0,0 0,0l-1 1 1 0c1,1 0,0 1,1 0,1 0,1 0,2l0 0c0,0 0,0 1,-1 0,-1 -1,0 0,-1 1,0 0,0 1,0 0,0 0,-1 -1,-1 0,0 0,1 -1,1 0,-1 0,-1 0,-1l0 -1c0,0 0,0 0,0 0,0 0,0 0,0l-1 1 0 -1z"/>
   <path class="fil16" d="M94 68l0 0c0,0 0,0 0,0zm0 0l0 -1c-1,2 0,1 0,1 1,0 2,-3 0,-2 -1,0 0,0 -1,0 -1,-1 -1,0 -1,0l1 0c0,1 0,0 0,1l1 1z"/>
   <path class="fil4" d="M61 41l0 -1c2,-1 1,0 2,-1 -1,-1 -1,0 -2,0 -1,-1 0,-1 -1,-1 -1,0 0,0 -1,0 1,1 1,1 1,1 1,1 1,2 1,2z"/>
   <path class="fil16" d="M72 75c0,0 0,0 1,0 0,0 0,0 1,-1 0,0 0,0 0,0 0,0 0,-1 0,-1 0,0 0,0 0,0l-2 0c0,0 0,0 0,0l0 1c0,0 0,1 0,1z"/>
   <path class="fil31" d="M102 29c0,1 0,1 0,1 1,0 1,0 2,0 0,0 0,0 1,-1l-3 0c0,0 1,-1 1,-1 -1,-1 0,-1 -1,-1 0,2 0,1 0,1 0,1 0,1 0,1z"/>
   <path class="fil20" d="M57 29l0 3c1,-1 1,0 2,0 0,-1 0,0 -1,-1l0 0c0,0 0,0 -1,-1l0 0c1,0 0,0 1,0 1,0 1,0 1,0 0,0 0,0 1,1 -1,-2 -1,0 -1,-2 0,1 -1,0 -2,0z"/>
   <path class="fil33" d="M62 59c0,0 0,0 0,0l-1 0c0,1 0,0 -1,1 0,0 0,-1 -1,-1l0 1c2,0 2,0 3,1 0,-1 0,-1 1,-1l0 -1 -1 0c0,1 0,0 0,1 0,0 0,0 0,-1z"/>
   <path class="fil34" d="M86 8l0 1c-1,-1 -1,0 0,-1zm1 2c0,-1 0,0 0,-1l0 0c0,0 0,0 0,-1 0,0 0,0 0,0l-1 0 0 0 0 0 1 -1c0,0 0,0 0,0 0,0 0,0 0,0 0,0 0,0 0,0l-1 1c-1,1 -1,0 -1,1 1,1 1,0 2,1z"/>
   <path class="fil34" d="M49 27l-1 0 1 0zm-2 1l1 0c-1,1 0,0 0,1 0,-1 0,-1 1,-1l0 -1 0 0 0 -1c-1,0 0,1 -1,0 0,-1 0,-1 0,-1 0,0 0,0 -1,0 0,1 0,1 2,1l0 1c-1,0 -1,0 -2,-1 0,2 0,1 1,2 -1,0 0,0 -1,0z"/>
   <path class="fil0" d="M88 68c1,0 2,0 2,-1 0,-1 -1,-1 -2,-1 0,1 0,1 0,2z"/>
   <path class="fil35" d="M44 53c0,1 0,0 1,0 0,0 0,0 0,0l1 -1c-1,-1 -1,-1 -1,-1 -1,0 0,0 0,1 0,0 0,0 -1,0l0 0c0,0 0,0 0,0 0,1 0,1 0,1z"/>
   <path class="fil31" d="M111 55c0,1 0,0 0,1 2,0 0,0 2,1l0 1 0 -1c0,-2 1,0 0,-2 -1,1 0,1 -1,1 -1,0 -1,0 -1,-1z"/>
   <path class="fil36" d="M99 44l1 0c0,-1 0,-1 0,-1 -1,0 -2,0 -2,0l1 1z"/>
   <path class="fil24" d="M109 39l0 -1c1,0 1,0 2,0l0 -1c-1,0 -1,0 -2,0l0 0c0,0 0,0 0,1 -1,1 0,1 0,1z"/>
   <polygon class="fil0" points="70,48 71,48 71,46 70,46 "/>
   <path class="fil19" d="M62 76c1,0 1,1 2,1 1,0 0,0 1,0l-1 0c0,-1 0,-1 0,-1 -1,0 -1,0 -2,0z"/>
   <path class="fil12" d="M91 57l1 1c1,-1 0,-1 1,-2l-1 0 -1 1z"/>
   <path class="fil37" d="M124 107l-1 0c1,0 1,0 1,0z"/>
   <polygon class="fil38" points="63,96 63,96 63,96 63,96 "/>
   <polygon class="fil38" points="58,101 58,100 58,100 58,101 "/>
   <path class="fil37" d="M125 101l0 0c0,0 0,0 0,0z"/>
   <path class="fil38" d="M88 109l1 0c-1,-1 0,-1 -1,-1l0 1z"/>
   <path class="fil39" d="M125 100c0,0 1,1 1,0 -1,0 0,0 0,0 -1,0 -1,0 -1,0z"/>
   <path class="fil37" d="M125 104c0,1 0,0 0,0 0,0 0,-1 0,0z"/>
   <path class="fil39" d="M56 102l0 0c0,0 0,0 0,0z"/>
   <path class="fil40" d="M63 105l0 -1c0,0 0,1 0,1z"/>
   <line class="fil38" x1="101" y1="109" x2="101" y2= "109" />
  </g>
 </g>
</svg>
